<svg width="95" height="94" viewBox="0 0 95 94" fill="none" xmlns="http://www.w3.org/2000/svg">
<g filter="url(#filter0_i_0_1)">
<path fill-rule="evenodd" clip-rule="evenodd" d="M51.9173 1.68149C49.2662 -0.465447 45.4746 -0.465445 42.8235 1.6815L38.0005 5.58731C36.502 6.80081 34.5807 7.36497 32.664 7.15424L26.495 6.47597C23.104 6.10314 19.9144 8.15302 18.8449 11.3924L16.8991 17.2857C16.2946 19.1167 14.9833 20.6301 13.2569 21.489L7.70054 24.2536C4.64631 25.7733 3.07124 29.2222 3.92286 32.5256L5.47216 38.5353C5.95352 40.4025 5.66853 42.3846 4.68064 44.0405L1.50097 49.3702C-0.24683 52.2999 0.292769 56.0529 2.79515 58.3714L7.34759 62.5895C8.76199 63.9 9.59385 65.7215 9.65803 67.6487L9.86461 73.8514C9.97816 77.2609 12.4611 80.1264 15.8198 80.724L21.93 81.8112C23.8284 82.149 25.5129 83.2316 26.6088 84.8181L30.1361 89.9245C32.0749 92.7314 35.7129 93.7996 38.8615 92.4865L44.5895 90.0977C46.3691 89.3556 48.3716 89.3556 50.1513 90.0977L55.8793 92.4866C59.0279 93.7996 62.6659 92.7314 64.6047 89.9245L68.1319 84.8181C69.2278 83.2316 70.9124 82.149 72.8108 81.8112L78.921 80.724C82.2797 80.1264 84.7626 77.2609 84.8762 73.8514L85.0827 67.6487C85.1469 65.7215 85.9788 63.9 87.3932 62.5895L91.9456 58.3714C94.448 56.0529 94.9876 52.2999 93.2398 49.3702L90.0601 44.0405C89.0722 42.3846 88.7872 40.4025 89.2686 38.5353L90.8179 32.5256C91.6695 29.2222 90.0945 25.7733 87.0402 24.2536L81.4838 21.489C79.7575 20.6301 78.4462 19.1167 77.8416 17.2857L75.8959 11.3924C74.8264 8.15301 71.6367 6.10314 68.2458 6.47597L62.0767 7.15424C60.1601 7.36497 58.2387 6.80081 56.7403 5.58731L51.9173 1.68149ZM47.5547 78.4071C64.5949 78.4071 78.4087 64.5933 78.4087 47.5531C78.4087 30.5129 64.5949 16.6991 47.5547 16.6991C30.5145 16.6991 16.7007 30.5129 16.7007 47.5531C16.7007 64.5933 30.5145 78.4071 47.5547 78.4071Z" fill="#41EAD4"/>
</g>
<g filter="url(#filter1_d_0_1)">
<path d="M33.1428 41.5085L45.4944 60.9613L55.3502 40.676L67.7926 16.0988" stroke="#505050" stroke-width="4.81654" stroke-linecap="round" stroke-linejoin="round"/>
</g>
<defs>
<filter id="filter0_i_0_1" x="-0.463884" y="0.0712891" width="94.7246" height="94.8614" filterUnits="userSpaceOnUse" color-interpolation-filters="sRGB">
<feFlood flood-opacity="0" result="BackgroundImageFix"/>
<feBlend mode="normal" in="SourceGraphic" in2="BackgroundImageFix" result="shape"/>
<feColorMatrix in="SourceAlpha" type="matrix" values="0 0 0 0 0 0 0 0 0 0 0 0 0 0 0 0 0 0 127 0" result="hardAlpha"/>
<feOffset dx="-0.944353" dy="3.77741"/>
<feGaussianBlur stdDeviation="0.944353"/>
<feComposite in2="hardAlpha" operator="arithmetic" k2="-1" k3="1"/>
<feColorMatrix type="matrix" values="0 0 0 0 0 0 0 0 0 0 0 0 0 0 0 0 0 0 0.22 0"/>
<feBlend mode="normal" in2="shape" result="effect1_innerShadow_0_1"/>
</filter>
<filter id="filter1_d_0_1" x="27.9013" y="13.6899" width="45.1329" height="55.3458" filterUnits="userSpaceOnUse" color-interpolation-filters="sRGB">
<feFlood flood-opacity="0" result="BackgroundImageFix"/>
<feColorMatrix in="SourceAlpha" type="matrix" values="0 0 0 0 0 0 0 0 0 0 0 0 0 0 0 0 0 0 127 0" result="hardAlpha"/>
<feOffset dy="2.83306"/>
<feGaussianBlur stdDeviation="1.41653"/>
<feComposite in2="hardAlpha" operator="out"/>
<feColorMatrix type="matrix" values="0 0 0 0 0 0 0 0 0 0 0 0 0 0 0 0 0 0 0.2 0"/>
<feBlend mode="normal" in2="BackgroundImageFix" result="effect1_dropShadow_0_1"/>
<feBlend mode="normal" in="SourceGraphic" in2="effect1_dropShadow_0_1" result="shape"/>
</filter>
</defs>
</svg>