<svg width="73" height="92" viewBox="0 0 73 92" fill="none" xmlns="http://www.w3.org/2000/svg">
<rect x="8.34947" y="2.13756" width="61.7432" height="57.145" rx="6.19048" stroke="#41EAD4" stroke-width="2.85714"/>
<rect x="5.76758" y="35.3257" width="36.9145" height="38.0783" fill="white"/>
<g filter="url(#filter0_d_2828_19162)">
<path d="M7.67993 31.0576C2.69758 53.0683 21.065 55.2095 26.5186 53.4915C26.5186 53.4915 28.3367 52.9185 29.2554 51.843C30.1741 50.7675 30.4082 49.8712 30.4557 48.8823C31.3894 29.4336 10.1974 42.7325 7.67993 31.0576Z" fill="#505050"/>
<g filter="url(#filter1_i_2828_19162)">
<path d="M31.8606 50.206C31.8606 50.206 31.3965 52.0775 30.4166 53.2247C29.4367 54.3719 27.661 55.1225 27.661 55.1225C27.661 55.1225 46.0641 79.6217 61.7616 84.2661C63.7591 84.8571 67.0872 84.5647 67.0872 84.5647C67.0872 84.5647 66.7374 81.2831 65.9612 79.3496C60.4388 65.5928 31.8606 50.206 31.8606 50.206Z" fill="#3F3F3F"/>
</g>
</g>
<path opacity="0.75" fill-rule="evenodd" clip-rule="evenodd" d="M23.4208 37.5349C23.3837 37.8693 23.4517 38.216 23.6317 38.5224C24.0979 39.3156 23.8008 40.3377 22.982 40.7572C22.3266 41.093 21.9851 41.8331 22.1546 42.5497C22.3663 43.445 21.7812 44.3343 20.8752 44.4937C20.15 44.6214 19.6056 45.2279 19.5563 45.9626C19.4948 46.8804 18.6736 47.5578 17.7609 47.4431C17.0303 47.3512 16.3314 47.7702 16.0678 48.4578C15.7386 49.3167 14.7542 49.7219 13.9159 49.3431C13.2449 49.04 12.4535 49.2343 11.999 49.8136C11.9201 49.9142 11.8316 50.0028 11.7359 50.0789C7.88153 46.7477 5.45439 40.8821 7.67821 31.0586C8.77066 36.1253 13.3804 36.4883 18.1724 36.8657C19.9538 37.006 21.7604 37.1483 23.4208 37.5349Z" fill="#41EAD4"/>
<defs>
<filter id="filter0_d_2828_19162" x="3.97489" y="31.0576" width="65.9692" height="59.2939" filterUnits="userSpaceOnUse" color-interpolation-filters="sRGB">
<feFlood flood-opacity="0" result="BackgroundImageFix"/>
<feColorMatrix in="SourceAlpha" type="matrix" values="0 0 0 0 0 0 0 0 0 0 0 0 0 0 0 0 0 0 127 0" result="hardAlpha"/>
<feOffset dy="2.85714"/>
<feGaussianBlur stdDeviation="1.42857"/>
<feComposite in2="hardAlpha" operator="out"/>
<feColorMatrix type="matrix" values="0 0 0 0 0 0 0 0 0 0 0 0 0 0 0 0 0 0 0.2 0"/>
<feBlend mode="normal" in2="BackgroundImageFix" result="effect1_dropShadow_2828_19162"/>
<feBlend mode="normal" in="SourceGraphic" in2="effect1_dropShadow_2828_19162" result="shape"/>
</filter>
<filter id="filter1_i_2828_19162" x="26.7088" y="50.2061" width="40.3782" height="36.3359" filterUnits="userSpaceOnUse" color-interpolation-filters="sRGB">
<feFlood flood-opacity="0" result="BackgroundImageFix"/>
<feBlend mode="normal" in="SourceGraphic" in2="BackgroundImageFix" result="shape"/>
<feColorMatrix in="SourceAlpha" type="matrix" values="0 0 0 0 0 0 0 0 0 0 0 0 0 0 0 0 0 0 127 0" result="hardAlpha"/>
<feOffset dx="-0.952381" dy="3.80952"/>
<feGaussianBlur stdDeviation="0.952381"/>
<feComposite in2="hardAlpha" operator="arithmetic" k2="-1" k3="1"/>
<feColorMatrix type="matrix" values="0 0 0 0 0 0 0 0 0 0 0 0 0 0 0 0 0 0 0.22 0"/>
<feBlend mode="normal" in2="shape" result="effect1_innerShadow_2828_19162"/>
</filter>
</defs>
</svg>