<svg width="99" height="91" viewBox="0 0 99 91" fill="none" xmlns="http://www.w3.org/2000/svg">
<g filter="url(#filter0_i_0_1)">
<path d="M59.404 55.3762C59.404 69.1201 46.106 80.2617 29.702 80.2617C26.0296 80.2617 23.717 80.0785 20.4703 79.0575C18.4879 78.4341 4.16334 91.2427 2.40827 90.2961C0.509702 89.2722 9.99801 74.0922 8.42895 72.7432C3.21317 68.2592 0 62.1321 0 55.3762C0 41.6323 13.298 30.4907 29.702 30.4907C46.106 30.4907 59.404 41.6323 59.404 55.3762Z" fill="#F8FAFF"/>
</g>
<g filter="url(#filter1_d_0_1)">
<path d="M36.1243 25.674C36.1243 39.4179 49.4223 50.5595 65.8263 50.5595C69.4987 50.5595 71.8113 50.3764 75.058 49.3554C77.0405 48.7319 91.365 61.5405 93.12 60.594C95.0186 59.57 85.5303 44.39 87.0994 43.0411C92.3152 38.557 95.5283 32.4299 95.5283 25.674C95.5283 11.9302 82.2303 0.788574 65.8263 0.788574C49.4223 0.788574 36.1243 11.9302 36.1243 25.674Z" fill="#F8FAFF"/>
</g>
<path d="M57.5116 31.7495C57.5116 31.3363 57.6533 30.988 57.9369 30.7045C58.2204 30.4209 58.5687 30.2792 58.9819 30.2792C59.395 30.2792 59.7433 30.4209 60.0268 30.7045C60.3104 30.988 60.4521 31.3363 60.4521 31.7495C60.4521 32.1545 60.3104 32.4988 60.0268 32.7823C59.7433 33.0658 59.395 33.2076 58.9819 33.2076C58.5687 33.2076 58.2204 33.0658 57.9369 32.7823C57.6533 32.4988 57.5116 32.1545 57.5116 31.7495ZM64.1548 31.7495C64.1548 31.3363 64.2966 30.988 64.5801 30.7045C64.8636 30.4209 65.212 30.2792 65.6251 30.2792C66.0382 30.2792 66.3866 30.4209 66.6701 30.7045C66.9536 30.988 67.0954 31.3363 67.0954 31.7495C67.0954 32.1545 66.9536 32.4988 66.6701 32.7823C66.3866 33.0658 66.0382 33.2076 65.6251 33.2076C65.212 33.2076 64.8636 33.0658 64.5801 32.7823C64.2966 32.4988 64.1548 32.1545 64.1548 31.7495ZM74.1153 31.7252C74.1153 32.1464 73.9655 32.5028 73.6657 32.7945C73.3741 33.0861 73.0177 33.2319 72.5964 33.2319C72.1671 33.2319 71.8066 33.0861 71.515 32.7945C71.2234 32.5028 71.0776 32.1464 71.0776 31.7252C71.0776 31.3039 71.2234 30.9515 71.515 30.668C71.8066 30.3764 72.1671 30.2306 72.5964 30.2306C73.0177 30.2306 73.3741 30.3764 73.6657 30.668C73.9655 30.9515 74.1153 31.3039 74.1153 31.7252ZM70.2027 16.3905C70.6158 16.1636 71.037 15.9976 71.4664 15.8923C71.9038 15.7789 72.3534 15.7222 72.8152 15.7222C73.8845 15.7222 74.7634 16.0745 75.4519 16.7793C76.1486 17.4841 76.4969 18.3832 76.4969 19.4768C76.4969 20.133 76.3754 20.7568 76.1324 21.3481C75.8975 21.9395 75.4722 22.624 74.8565 23.4017C74.6702 23.6366 74.4029 23.9606 74.0546 24.3737C73.0663 25.5403 72.5721 26.4394 72.5721 27.0713C72.5721 27.1928 72.5843 27.3224 72.6086 27.4601C72.6329 27.5897 72.6693 27.7234 72.718 27.8611L72.1468 28.1163C71.8147 27.768 71.5636 27.4075 71.3935 27.0348C71.2315 26.6541 71.1505 26.2572 71.1505 25.844C71.1505 25.4552 71.2193 25.0583 71.357 24.6532C71.5028 24.2482 71.7499 23.7662 72.0982 23.2072C72.2036 23.029 72.3656 22.7779 72.5843 22.4539C73.3863 21.2469 73.7872 20.3355 73.7872 19.7199C73.7872 19.2419 73.6414 18.8571 73.3498 18.5655C73.0582 18.2739 72.6734 18.1281 72.1955 18.1281C71.8795 18.1281 71.5231 18.201 71.1262 18.3468C70.7373 18.4926 70.2715 18.7194 69.7288 19.0273L70.2027 16.3905Z" fill="#3F3F3F"/>
<line x1="12.5628" y1="44.4181" x2="33.9964" y2="44.4181" stroke="#3F3F3F" stroke-width="1.04358" stroke-linecap="round"/>
<line x1="12.5628" y1="51.6428" x2="41.2212" y2="51.6428" stroke="#3F3F3F" stroke-width="1.04358" stroke-linecap="round"/>
<line x1="12.5628" y1="58.0651" x2="48.446" y2="58.0651" stroke="#3F3F3F" stroke-width="1.04358" stroke-linecap="round"/>
<line x1="12.5628" y1="64.4875" x2="46.0378" y2="64.4875" stroke="#3F3F3F" stroke-width="1.04358" stroke-linecap="round"/>
<defs>
<filter id="filter0_i_0_1" x="-0.944353" y="30.4907" width="60.3486" height="61.7442" filterUnits="userSpaceOnUse" color-interpolation-filters="sRGB">
<feFlood flood-opacity="0" result="BackgroundImageFix"/>
<feBlend mode="normal" in="SourceGraphic" in2="BackgroundImageFix" result="shape"/>
<feColorMatrix in="SourceAlpha" type="matrix" values="0 0 0 0 0 0 0 0 0 0 0 0 0 0 0 0 0 0 127 0" result="hardAlpha"/>
<feOffset dx="-0.944353" dy="3.77741"/>
<feGaussianBlur stdDeviation="0.944353"/>
<feComposite in2="hardAlpha" operator="arithmetic" k2="-1" k3="1"/>
<feColorMatrix type="matrix" values="0 0 0 0 0 0 0 0 0 0 0 0 0 0 0 0 0 0 0.22 0"/>
<feBlend mode="normal" in2="shape" result="effect1_innerShadow_0_1"/>
</filter>
<filter id="filter1_d_0_1" x="33.291" y="0.788574" width="65.0704" height="65.5216" filterUnits="userSpaceOnUse" color-interpolation-filters="sRGB">
<feFlood flood-opacity="0" result="BackgroundImageFix"/>
<feColorMatrix in="SourceAlpha" type="matrix" values="0 0 0 0 0 0 0 0 0 0 0 0 0 0 0 0 0 0 127 0" result="hardAlpha"/>
<feOffset dy="2.83306"/>
<feGaussianBlur stdDeviation="1.41653"/>
<feComposite in2="hardAlpha" operator="out"/>
<feColorMatrix type="matrix" values="0 0 0 0 0 0 0 0 0 0 0 0 0 0 0 0 0 0 0.2 0"/>
<feBlend mode="normal" in2="BackgroundImageFix" result="effect1_dropShadow_0_1"/>
<feBlend mode="normal" in="SourceGraphic" in2="effect1_dropShadow_0_1" result="shape"/>
</filter>
</defs>
</svg>