<svg width="86" height="79" viewBox="0 0 86 79" fill="none" xmlns="http://www.w3.org/2000/svg">
<path d="M41.6599 0.917455C40.0681 8.8353 28.7495 21.311 22.9875 27.4079L32.171 52.1038C44.936 50.4627 57.9164 52.9204 62.328 56.6041C68.1783 44.3343 51.7051 2.99923 41.6599 0.917455Z" fill="#4087FF"/>
<path d="M19.2568 56.6328C21.4263 56.3372 22.6425 56.1367 24.8104 55.4219L30.1223 53.3053L35.433 67.8228C36.5028 70.7472 35.0007 73.9897 32.0778 75.0651C29.1639 76.1372 25.936 74.6507 24.8569 71.7398L19.2568 56.6328Z" fill="#3F3F3F"/>
<path d="M4.08165 47.3138C2.73782 43.7502 4.53565 39.7663 8.09721 38.4156L14.1132 54.369C10.5516 55.7197 6.57503 53.9259 5.2312 50.3623L4.08165 47.3138Z" fill="#6B7F82"/>
<g filter="url(#filter0_i_2828_19168)">
<path d="M6.96765 47.5191C4.35246 40.6403 7.80552 32.933 14.6803 30.3043L17.3974 29.2653L26.866 54.1707L24.1439 55.2115C17.2719 57.8392 9.5818 54.3952 6.96765 47.5191Z" fill="#FAFAFB"/>
</g>
<rect width="5.38264" height="26.4169" transform="matrix(0.935731 -0.352913 0.351124 0.936255 17.6914 29.2842)" fill="#505050"/>
<g filter="url(#filter1_d_2828_19168)">
<line x1="1.90476" y1="-1.90476" x2="7.59018" y2="-1.90476" transform="matrix(0.634269 -0.773113 0.771416 0.636331 60.1758 13.1562)" stroke="#3F3F3F" stroke-width="3.80952" stroke-linecap="round"/>
</g>
<g filter="url(#filter2_d_2828_19168)">
<path d="M66.1572 23.7334L81.0471 17.499" stroke="#505050" stroke-width="3.80952" stroke-linecap="round"/>
</g>
<g filter="url(#filter3_d_2828_19168)">
<line x1="1.90476" y1="-1.90476" x2="7.57594" y2="-1.90476" transform="matrix(0.97682 0.214063 -0.212954 0.977062 68.0879 37.5479)" stroke="#3F3F3F" stroke-width="3.80952" stroke-linecap="round"/>
</g>
<defs>
<filter id="filter0_i_2828_19168" x="5.14137" y="29.2651" width="21.7248" height="28.7329" filterUnits="userSpaceOnUse" color-interpolation-filters="sRGB">
<feFlood flood-opacity="0" result="BackgroundImageFix"/>
<feBlend mode="normal" in="SourceGraphic" in2="BackgroundImageFix" result="shape"/>
<feColorMatrix in="SourceAlpha" type="matrix" values="0 0 0 0 0 0 0 0 0 0 0 0 0 0 0 0 0 0 127 0" result="hardAlpha"/>
<feOffset dx="-0.952381" dy="3.80952"/>
<feGaussianBlur stdDeviation="0.952381"/>
<feComposite in2="hardAlpha" operator="arithmetic" k2="-1" k3="1"/>
<feColorMatrix type="matrix" values="0 0 0 0 0 0 0 0 0 0 0 0 0 0 0 0 0 0 0.22 0"/>
<feBlend mode="normal" in2="shape" result="effect1_innerShadow_2828_19168"/>
</filter>
<filter id="filter1_d_2828_19168" x="55.1556" y="4.16895" width="13.1244" height="13.9242" filterUnits="userSpaceOnUse" color-interpolation-filters="sRGB">
<feFlood flood-opacity="0" result="BackgroundImageFix"/>
<feColorMatrix in="SourceAlpha" type="matrix" values="0 0 0 0 0 0 0 0 0 0 0 0 0 0 0 0 0 0 127 0" result="hardAlpha"/>
<feOffset dy="2.85714"/>
<feGaussianBlur stdDeviation="1.42857"/>
<feComposite in2="hardAlpha" operator="out"/>
<feColorMatrix type="matrix" values="0 0 0 0 0 0 0 0 0 0 0 0 0 0 0 0 0 0 0.2 0"/>
<feBlend mode="normal" in2="BackgroundImageFix" result="effect1_dropShadow_2828_19168"/>
<feBlend mode="normal" in="SourceGraphic" in2="effect1_dropShadow_2828_19168" result="shape"/>
</filter>
<filter id="filter2_d_2828_19168" x="61.3958" y="15.5923" width="24.4125" height="15.7621" filterUnits="userSpaceOnUse" color-interpolation-filters="sRGB">
<feFlood flood-opacity="0" result="BackgroundImageFix"/>
<feColorMatrix in="SourceAlpha" type="matrix" values="0 0 0 0 0 0 0 0 0 0 0 0 0 0 0 0 0 0 127 0" result="hardAlpha"/>
<feOffset dy="2.85714"/>
<feGaussianBlur stdDeviation="1.42857"/>
<feComposite in2="hardAlpha" operator="out"/>
<feColorMatrix type="matrix" values="0 0 0 0 0 0 0 0 0 0 0 0 0 0 0 0 0 0 0.2 0"/>
<feBlend mode="normal" in2="BackgroundImageFix" result="effect1_dropShadow_2828_19168"/>
<feBlend mode="normal" in="SourceGraphic" in2="effect1_dropShadow_2828_19168" result="shape"/>
</filter>
<filter id="filter3_d_2828_19168" x="65.5921" y="34.189" width="15.0639" height="10.7397" filterUnits="userSpaceOnUse" color-interpolation-filters="sRGB">
<feFlood flood-opacity="0" result="BackgroundImageFix"/>
<feColorMatrix in="SourceAlpha" type="matrix" values="0 0 0 0 0 0 0 0 0 0 0 0 0 0 0 0 0 0 127 0" result="hardAlpha"/>
<feOffset dy="2.85714"/>
<feGaussianBlur stdDeviation="1.42857"/>
<feComposite in2="hardAlpha" operator="out"/>
<feColorMatrix type="matrix" values="0 0 0 0 0 0 0 0 0 0 0 0 0 0 0 0 0 0 0.2 0"/>
<feBlend mode="normal" in2="BackgroundImageFix" result="effect1_dropShadow_2828_19168"/>
<feBlend mode="normal" in="SourceGraphic" in2="effect1_dropShadow_2828_19168" result="shape"/>
</filter>
</defs>
</svg>