<svg width="73" height="75" viewBox="0 0 73 75" fill="none" xmlns="http://www.w3.org/2000/svg">
<rect x="2" y="2.58398" width="69" height="70" rx="13" stroke="#4087FF" stroke-width="4"/>
<g filter="url(#filter0_d_0_1)">
<path d="M34.3137 16.8162L27.2836 22.8902V22.8898C27.2836 20.746 27.2836 19.6742 25.7215 19.6742H21.4251C19.8637 19.6742 19.863 20.745 19.8628 21.1028V21.1034V30.393L15.1763 34.6806C12.8331 36.8243 14.3952 38.6108 16.3478 38.6108H19.8628C19.8628 43.0174 19.8626 52.188 19.8628 53.6171C19.863 55.0471 20.6442 55.4044 21.4251 55.4036H30.408V42.541C30.408 41.1118 31.6443 40.7545 32.3608 40.7545H38.6098C39.3911 40.7545 40.5628 41.1126 40.5626 42.541V55.4036H49.1549C50.3268 55.4044 51.1079 54.6898 51.1078 53.6171V38.6108C52.8696 38.5995 53.4771 38.6108 54.6488 38.6108C57.7728 38.5558 57.3822 36.0547 55.7942 34.6814L37.3048 17.7657C37.2456 17.7116 37.1391 17.6142 36.9696 17.4591C36.966 17.4558 36.9624 17.4525 36.9587 17.4492L36.6571 17.1732C36.7232 17.2337 36.8363 17.3372 36.9529 17.4439C35.8051 16.4046 34.7025 16.4604 34.3137 16.8162Z" stroke="#4087FF" stroke-width="3" shape-rendering="crispEdges"/>
</g>
<defs>
<filter id="filter0_d_0_1" x="9.49414" y="15.085" width="52.0063" height="48.8184" filterUnits="userSpaceOnUse" color-interpolation-filters="sRGB">
<feFlood flood-opacity="0" result="BackgroundImageFix"/>
<feColorMatrix in="SourceAlpha" type="matrix" values="0 0 0 0 0 0 0 0 0 0 0 0 0 0 0 0 0 0 127 0" result="hardAlpha"/>
<feOffset dy="4"/>
<feGaussianBlur stdDeviation="1.5"/>
<feComposite in2="hardAlpha" operator="out"/>
<feColorMatrix type="matrix" values="0 0 0 0 0 0 0 0 0 0 0 0 0 0 0 0 0 0 0.17 0"/>
<feBlend mode="normal" in2="BackgroundImageFix" result="effect1_dropShadow_0_1"/>
<feBlend mode="normal" in="SourceGraphic" in2="effect1_dropShadow_0_1" result="shape"/>
</filter>
</defs>
</svg>