<svg width="344" height="281" viewBox="0 0 344 281" fill="none" xmlns="http://www.w3.org/2000/svg">
<ellipse cx="218.27" cy="161.462" rx="119.752" ry="119.538" fill="#41EAD4"/>
<path d="M341 148.15C341 212.507 288.733 264.688 224.248 264.688C159.763 264.688 107.496 212.507 107.496 148.15C107.496 83.7923 159.763 31.6113 224.248 31.6113C288.733 31.6113 341 83.7923 341 148.15Z" stroke="#FC5050" stroke-width="6"/>
<path d="M309.259 148.15C309.259 195.01 271.202 233.005 224.248 233.005C177.293 233.005 139.237 195.01 139.237 148.15C139.237 101.29 177.293 63.2949 224.248 63.2949C271.202 63.2949 309.259 101.29 309.259 148.15Z" stroke="#3F3F3F" stroke-width="5"/>
<path d="M278.018 148.15C278.018 177.789 253.947 201.822 224.248 201.822C194.549 201.822 170.478 177.789 170.478 148.15C170.478 118.511 194.549 94.4785 224.248 94.4785C253.947 94.4785 278.018 118.511 278.018 148.15Z" stroke="#3F3F3F" stroke-width="3"/>
<path d="M250.235 148.189C250.235 162.511 238.603 174.13 224.244 174.13C209.884 174.13 198.252 162.511 198.252 148.189C198.252 133.868 209.884 122.249 224.244 122.249C238.603 122.249 250.235 133.868 250.235 148.189Z" fill="#FDE74C" stroke="#3F3F3F" stroke-width="5.5"/>
<path d="M212.465 130.739C210.845 131.546 207.341 134.404 206.28 139.383" stroke="#3F3F3F" stroke-width="4" stroke-linecap="round"/>
<path d="M24.9487 0.0322266L76.8209 30.533L81.3203 58.1721L29.4482 27.6713L24.9487 0.0322266Z" fill="#2E437D"/>
<path d="M80.0405 61.5283L27.1273 30.3796L0.252048 39.919L53.1652 71.0677L80.0405 61.5283Z" fill="#2E437D"/>
<path d="M28.312 28.6582L209.298 134.649" stroke="#505050" stroke-width="9"/>
<ellipse cx="217.116" cy="142.355" rx="1.83947" ry="3.67237" fill="#3F3F3F"/>
<ellipse cx="230.912" cy="142.355" rx="1.83947" ry="3.67237" fill="#3F3F3F"/>
<path d="M214.816 153.142C214.816 165.306 232.291 165.536 232.291 153.142" stroke="#3F3F3F" stroke-width="4" stroke-linecap="round"/>
</svg>