<svg width="20" height="20" viewBox="0 0 20 20" fill="none" xmlns="http://www.w3.org/2000/svg">
<circle cx="10" cy="10" r="10" fill="#FC5050"/>
<path d="M9.06982 14.2017C9.06982 13.938 9.15771 13.7183 9.3335 13.5425C9.50928 13.3618 9.72656 13.2715 9.98535 13.2715C10.2441 13.2715 10.4639 13.3618 10.6445 13.5425C10.8252 13.7231 10.9155 13.9429 10.9155 14.2017C10.9155 14.4653 10.8252 14.6875 10.6445 14.8682C10.4688 15.0439 10.249 15.1318 9.98535 15.1318C9.72656 15.1318 9.50928 15.0439 9.3335 14.8682C9.15771 14.6924 9.06982 14.4702 9.06982 14.2017ZM9.88281 11.8213C9.67285 11.3037 9.49463 10.5444 9.34814 9.54346C9.20166 8.5376 9.12842 7.49756 9.12842 6.42334C9.12842 5.78369 9.19434 5.31982 9.32617 5.03174C9.46289 4.73877 9.67773 4.59229 9.9707 4.59229C10.2637 4.59229 10.4785 4.73145 10.6152 5.00977C10.7568 5.28809 10.8276 5.72754 10.8276 6.32812C10.8276 7.28516 10.7617 8.23975 10.6299 9.19189C10.498 10.1392 10.3125 11.0156 10.0732 11.8213H9.88281Z" fill="white"/>
</svg>