<svg width="75" height="75" viewBox="0 0 75 75" fill="none" xmlns="http://www.w3.org/2000/svg">
<path fill-rule="evenodd" clip-rule="evenodd" d="M10 0C4.47715 0 0 4.47715 0 10V65C0 70.5229 4.47715 75 10 75H65C70.5229 75 75 70.5229 75 65V10C75 4.47715 70.5229 0 65 0H10ZM32.1055 38.2308V57H39.4561V38.2308H46.6718L47 31.473H39.4561V26.5386C39.4561 24.6754 39.8576 23.5528 42.3636 23.5528C44.679 23.5528 46.8008 23.5728 46.8008 23.5728L46.9647 17.2622C46.9647 17.2622 44.8842 17 42.0706 17C35.1214 17 32.1055 21.1653 32.1055 25.701V31.473H27V38.2308H32.1055Z" fill="#41EAD4"/>
</svg>
