<svg width="28" height="32" viewBox="0 0 28 32" fill="none" xmlns="http://www.w3.org/2000/svg">
<path d="M25.967 10.8588C25.2916 9.93819 24.3495 8.85986 23.316 7.82631C22.2824 6.79276 21.2041 5.85069 20.2835 5.17527C18.7146 4.02494 17.9536 3.89258 17.5176 3.89258H6.32561C4.98452 3.89258 3.89258 4.98452 3.89258 6.32561V28.7095C3.89258 30.0506 4.98452 31.1426 6.32561 31.1426H24.8167C26.1578 31.1426 27.2497 30.0506 27.2497 28.7095V13.6247C27.2497 13.1887 27.1174 12.4277 25.967 10.8588ZM21.9379 9.20438C22.8722 10.1387 23.6041 10.9795 24.1452 11.6783H19.4621V6.99713C20.1608 7.53824 21.0036 8.2701 21.936 9.20438H21.9379ZM25.3033 28.7095C25.3033 28.9743 25.0814 29.1961 24.8167 29.1961H6.32561C6.19703 29.1946 6.07414 29.1429 5.98321 29.052C5.89228 28.961 5.84052 28.8381 5.83901 28.7095V6.32561C5.83901 6.06285 6.0609 5.83901 6.32561 5.83901H17.5176V12.6515C17.5176 12.9096 17.6201 13.1572 17.8026 13.3397C17.9851 13.5222 18.2327 13.6247 18.4908 13.6247H25.3033V28.7095Z" fill="#3F3F3F"/>
<path d="M16.3909 1.2827C14.8221 0.132357 14.061 0 13.625 0H2.43304C1.09195 0 0 1.09195 0 2.43304V24.817C0 25.9926 0.836964 26.9756 1.94643 27.2013V2.43304C1.94643 2.17027 2.17027 1.94643 2.43304 1.94643H17.2395C16.9619 1.71771 16.6783 1.49638 16.3889 1.2827H16.3909Z" fill="#6B7F82"/>
</svg>