<svg width="251" height="39" viewBox="0 0 251 39" fill="none" xmlns="http://www.w3.org/2000/svg">
<path d="M120.888 37.8364L120.966 36.8395L120.888 37.8364ZM251 12.3883L241.053 18.2526L240.948 6.70606L251 12.3883ZM0.67337 10.4257C24.6657 2.1344 41.7138 -0.588123 54.4349 0.102909C67.1983 0.796235 75.5661 4.92418 82.1711 10.2217C85.4563 12.8565 88.2942 15.7715 90.9995 18.6534C93.7185 21.5498 96.2851 24.3916 99.0864 26.9668C104.644 32.0762 111.052 36.0638 120.966 36.8395L120.81 38.8334C110.331 38.0136 103.521 33.7602 97.7329 28.4392C94.8613 25.7993 92.2228 22.8786 89.5414 20.0222C86.8464 17.1514 84.0886 14.3233 80.9198 11.7818C74.6169 6.72671 66.6432 2.76903 54.3264 2.09996C41.9675 1.42861 25.1967 4.06694 1.32663 12.316L0.67337 10.4257ZM120.966 36.8395C136.4 38.0469 144.086 32.2956 159.472 25.7778C174.81 19.2804 197.34 12.3007 241.98 11.4704L242.017 13.4701C197.606 14.2961 175.331 21.2316 160.252 27.6194C145.221 33.9867 136.877 40.0904 120.81 38.8334L120.966 36.8395Z" fill="#FC5050"/>
</svg>