<svg width="417" height="87" viewBox="0 0 417 87" fill="none" xmlns="http://www.w3.org/2000/svg">
<path d="M204.5 40.9914L205.366 41.4913L204.5 40.9914ZM84 45.4922L84.6851 44.7637L84 45.4922ZM4 85.9915L11.679 77.3679L0.37124 75.0295L4 85.9915ZM414.82 4.75823C405.189 13.6903 390.573 15.1181 372.901 13.3482C364.095 12.4662 354.607 10.7997 344.707 8.92997C334.82 7.06278 324.516 4.99173 314.136 3.31704C293.383 -0.0311328 272.163 -1.82563 252.931 2.76124C233.644 7.36111 216.402 18.368 203.634 40.4916L205.366 41.4913C217.848 19.8652 234.619 9.18482 253.395 4.70667C272.226 0.215514 293.119 1.95225 313.817 5.29151C324.162 6.96054 334.418 9.02225 344.335 10.8952C354.24 12.7657 363.802 14.4468 372.702 15.3382C390.442 17.115 405.863 15.7927 416.18 6.22467L414.82 4.75823ZM203.634 40.4916C191.563 61.4066 179.52 73.3591 167.97 79.28C156.453 85.1838 145.326 85.1419 134.937 81.8634C124.515 78.5746 114.831 72.0249 106.293 64.9084C97.7424 57.7815 90.4511 50.1862 84.6851 44.7637L83.3149 46.2207C88.98 51.5482 96.4041 59.2696 105.012 66.4447C113.633 73.6302 123.552 80.368 134.335 83.7707C145.15 87.1838 156.831 87.2375 168.882 81.0598C180.9 74.8993 193.187 62.5932 205.366 41.4913L203.634 40.4916ZM84.6851 44.7637C69.3013 30.2964 52.0848 27.3611 37.2775 33.6623C22.5258 39.9398 10.3908 55.2879 4.85292 76.9344L6.79052 77.4301C12.2204 56.2057 24.035 41.4711 38.0607 35.5026C52.0308 29.5576 68.4196 32.2127 83.3149 46.2207L84.6851 44.7637Z" fill="#FC5050"/>
</svg>