<svg width="592" height="491" viewBox="0 0 592 491" fill="none" xmlns="http://www.w3.org/2000/svg">
<path d="M200.2 40.554C203.09 32.6018 211.88 28.4984 219.832 31.3888L547.011 150.31C554.963 153.2 559.067 161.99 556.176 169.942L456.81 443.321C453.92 451.274 445.13 455.377 437.178 452.487L109.999 333.566C102.047 330.675 97.9433 321.885 100.834 313.933L200.2 40.554Z" fill="#FFF5F5"/>
<path d="M259.715 9.01425C263.903 2.18397 272.835 0.0421543 279.665 4.23038L583.47 190.519C590.301 194.707 592.442 203.639 588.254 210.47L432.598 464.319C428.41 471.149 419.477 473.291 412.647 469.102L108.842 282.814C102.012 278.626 99.8701 269.693 104.058 262.863L259.715 9.01425Z" stroke="#41EAD4" stroke-width="2.35252"/>
<rect x="109.058" y="133.505" width="194.821" height="142.043" rx="17.2973" transform="rotate(15.8673 109.058 133.505)" stroke="#FC5050" stroke-width="3"/>
<line x1="194.021" y1="213.262" x2="248.725" y2="228.811" stroke="white" stroke-width="6.31893" stroke-linecap="round"/>
<line x1="187.111" y1="237.574" x2="241.814" y2="253.123" stroke="white" stroke-width="6.31893" stroke-linecap="round"/>
<line x1="180.2" y1="261.887" x2="234.903" y2="277.436" stroke="white" stroke-width="6.31893" stroke-linecap="round"/>
<rect x="95.4782" y="104.163" width="186.903" height="142.043" rx="17.2973" transform="rotate(11.2344 95.4782 104.163)" stroke="#FC5050" stroke-width="3"/>
<rect x="112.497" y="169.382" width="189.589" height="215.48" rx="12.2973" transform="rotate(20.7266 112.497 169.382)" fill="white" stroke="#3F3F3F" stroke-width="7"/>
<rect x="128.042" y="219.897" width="19.0665" height="18.3496" rx="3.804" transform="rotate(20.7266 128.042 219.897)" stroke="#41EAD4" stroke-width="3.51506"/>
<path d="M129.901 225.458L132.101 236.097L139.832 228.797L149.42 220.035" stroke="#505050" stroke-width="3.17802" stroke-linecap="round" stroke-linejoin="round"/>
<rect x="108.105" y="272.587" width="19.0665" height="18.3496" rx="3.804" transform="rotate(20.7266 108.105 272.587)" stroke="#41EAD4" stroke-width="3.51506"/>
<path d="M109.963 278.148L112.164 288.787L119.895 281.486L129.482 272.725" stroke="#505050" stroke-width="3.17802" stroke-linecap="round" stroke-linejoin="round"/>
<rect x="88.0335" y="325.631" width="19.0665" height="18.3496" rx="3.804" transform="rotate(20.7266 88.0335 325.631)" stroke="#41EAD4" stroke-width="3.51506"/>
<path d="M89.8919 331.192L92.0926 341.831L99.8235 334.53L109.411 325.769" stroke="#505050" stroke-width="3.17802" stroke-linecap="round" stroke-linejoin="round"/>
<path d="M161.848 236.69L240.217 266.345" stroke="#41EAD4" stroke-width="3.51506" stroke-linecap="round"/>
<path d="M141.909 289.378L220.278 319.033" stroke="#41EAD4" stroke-width="3.51506" stroke-linecap="round"/>
<path d="M121.837 342.422L200.206 372.077" stroke="#41EAD4" stroke-width="3.51506" stroke-linecap="round"/>
<path d="M157.514 248.143L235.883 277.798" stroke="#41EAD4" stroke-width="3.51506" stroke-linecap="round"/>
<path d="M137.575 300.834L215.944 330.489" stroke="#41EAD4" stroke-width="3.51506" stroke-linecap="round"/>
<path d="M117.504 353.876L195.873 383.531" stroke="#41EAD4" stroke-width="3.51506" stroke-linecap="round"/>
<path d="M407.745 308.748C409.068 308.03 409.562 306.373 408.849 305.047L403.121 294.4C402.408 293.074 400.757 292.582 399.434 293.3L319.9 336.48C319.647 336.618 319.417 336.795 319.218 337.005L305.873 351.128C304.063 353.045 305.74 356.162 308.328 355.69L327.401 352.214C327.684 352.162 327.958 352.066 328.211 351.928L407.745 308.748Z" fill="#3F3F3F"/>
<path d="M364.634 214.243L353.373 197.217C352.849 196.422 351.769 196.185 350.938 196.723C350.646 196.918 350.402 197.224 350.274 197.545L341.794 219.1C341.437 220.01 341.875 221.019 342.784 221.375C343.104 221.503 343.47 221.524 343.81 221.442L363.555 216.917C364.504 216.701 365.093 215.754 364.869 214.831C364.826 214.629 364.753 214.414 364.634 214.243Z" fill="#41EAD4"/>
<path opacity="0.2" d="M364.631 214.245L353.369 197.218C352.845 196.422 351.766 196.185 350.934 196.724C350.642 196.918 350.398 197.225 350.27 197.546L343.624 214.435L360.422 217.636L363.551 216.919C364.501 216.703 365.09 215.756 364.866 214.833C364.823 214.631 364.75 214.416 364.631 214.245Z" fill="#3F3F3F"/>
<path d="M417.464 163.599L368.222 144.231C359.384 140.755 349.42 145.105 345.939 153.949L333.123 186.526C329.643 195.37 333.979 205.342 342.813 208.818L392.06 228.183C400.894 231.658 410.861 227.312 414.342 218.464L427.154 185.891C430.608 177.034 426.275 167.062 417.464 163.599Z" fill="#41EAD4"/>
<path d="M426.553 160.807L426.553 160.807L377.31 141.438C369.108 138.213 359.86 142.249 356.629 150.46C356.629 150.46 356.629 150.46 356.629 150.46L343.812 183.036L343.812 183.036C340.581 191.247 344.607 200.503 352.806 203.729C352.807 203.729 352.807 203.729 352.807 203.729L402.053 223.094L402.053 223.094C410.252 226.32 419.503 222.287 422.735 214.073L435.546 181.503L426.553 160.807ZM426.553 160.807C434.726 164.019 438.753 173.272 435.547 181.5L426.553 160.807Z" stroke="#FC5050" stroke-width="2.46778"/>
<path d="M384.877 188.192L383.503 184.973L389.051 182.782C390.023 182.367 390.874 181.875 391.602 181.306C392.355 180.747 392.895 180.06 393.221 179.247C393.932 177.476 393.103 176.115 390.734 175.164L385.161 174.718L384.88 170.229C385.388 170.071 386.077 169.945 386.949 169.851C387.821 169.756 388.793 169.757 389.865 169.855C390.971 169.937 392.075 170.2 393.175 170.642C395.975 171.766 397.759 173.205 398.528 174.959C399.296 176.712 399.292 178.558 398.513 180.497C398.014 181.741 397.303 182.748 396.383 183.518C395.472 184.263 394.531 184.844 393.558 185.259C392.595 185.651 391.776 185.961 391.1 186.19L384.877 188.192ZM381.605 196.34L379.672 191.813L384.2 189.88L386.133 194.407L381.605 196.34Z" fill="#FC5050"/>
</svg>