<svg width="518" height="436" viewBox="0 0 518 436" fill="none" xmlns="http://www.w3.org/2000/svg">
<rect width="176.816" height="171.486" rx="21.1383" transform="matrix(0.997961 0.0424619 -0.02081 1.00058 191.842 22.8818)" fill="#EBFFFC"/>
<rect x="1.44921" y="0.889146" width="174.401" height="168.495" rx="19.9044" transform="matrix(0.968694 -0.256326 0.205811 0.976932 167.17 47.5336)" stroke="#41EAD4" stroke-width="2.46778"/>
<path d="M128.897 320.164C151.384 311.017 175.977 302.275 237.887 316.622C345.967 341.679 392.832 321.038 389.962 293.178C387.395 268.605 327.95 263.024 300.268 247.091C241.67 213.362 240.451 177.014 291.232 169.591C341.312 162.268 388.855 156.399 412.118 97.4902" stroke="#FC5050" stroke-width="2.46778" stroke-linecap="round" stroke-linejoin="round"/>
<g filter="url(#filter0_d_2595_4306)">
<path d="M250.022 56.2181L357.571 80.6901C373.739 84.3672 384.225 98.917 380.98 113.173L326.63 352.058C323.388 366.314 307.637 374.896 291.47 371.216L183.92 346.747C167.753 343.07 157.266 328.517 160.511 314.26L214.862 75.3791C218.103 61.123 233.854 52.541 250.022 56.2181Z" fill="#2E437D"/>
</g>
<path d="M253.259 64.0661L351.362 86.3861C366.11 89.7397 375.567 103.474 372.481 117.05L320.731 344.501C317.641 358.074 303.171 366.365 288.426 363.009L190.323 340.689C175.575 337.335 166.119 323.6 169.205 310.024L220.955 82.5737C224.044 69.0008 238.515 60.7092 253.259 64.0661Z" fill="white"/>
<path d="M248.842 133.373C247.805 133.141 247.045 132.766 246.562 132.247C246.096 131.732 245.833 131.084 245.772 130.303C245.732 129.508 245.829 128.593 246.061 127.556L247.711 120.188L252.378 121.233L250.876 127.939C250.735 128.567 250.746 129.087 250.908 129.499C251.087 129.914 251.427 130.177 251.928 130.29C252.395 130.394 252.862 130.294 253.33 129.988C253.815 129.686 254.142 129.161 254.309 128.413L255.748 121.988L260.415 123.034L258.633 130.988L258.606 133.66L257.713 135.093L253.332 134.112L253.612 132.862L253.381 132.677C253.107 132.847 252.725 133.012 252.236 133.17C251.764 133.332 251.231 133.444 250.636 133.508C250.062 133.557 249.464 133.513 248.842 133.373Z" fill="#3F3F3F"/>
<path d="M264.576 136.898C263.833 136.732 263.165 136.475 262.571 136.128C261.998 135.767 261.581 135.281 261.318 134.669C261.056 134.057 261.03 133.283 261.239 132.349C261.43 131.499 261.804 130.842 262.361 130.378C262.919 129.914 263.6 129.629 264.404 129.523C265.208 129.418 266.077 129.47 267.01 129.679C267.909 129.88 268.56 130.133 268.964 130.438C269.372 130.725 269.717 131.008 269.999 131.285L270.215 131.173C270.329 130.663 270.381 130.229 270.371 129.869C270.361 129.51 270.219 129.211 269.946 128.971C269.677 128.714 269.214 128.512 268.557 128.365C267.918 128.222 267.222 128.128 266.469 128.085C265.737 128.028 265.05 128.017 264.407 128.051C263.785 128.073 263.31 128.127 262.982 128.214L263.839 124.39C264.417 124.323 265.215 124.323 266.235 124.391C267.275 124.445 268.521 124.635 269.973 124.961C271.529 125.309 272.712 125.78 273.523 126.372C274.356 126.951 274.889 127.65 275.122 128.47C275.36 129.273 275.366 130.176 275.142 131.179L274.382 134.57L274.324 137.261L273.468 138.649L269.035 137.656L269.315 136.407L269.084 136.221C268.915 136.326 268.63 136.468 268.227 136.645C267.824 136.823 267.313 136.958 266.693 137.051C266.077 137.127 265.371 137.076 264.576 136.898ZM267.528 134.052C267.995 134.157 268.402 134.203 268.749 134.192C269.114 134.184 269.382 134.164 269.553 134.131L269.661 133.646C269.711 133.425 269.594 133.176 269.311 132.898C269.046 132.625 268.576 132.412 267.902 132.261C266.969 132.052 266.43 132.271 266.285 132.917C266.224 133.189 266.282 133.416 266.459 133.598C266.636 133.781 266.992 133.932 267.528 134.052Z" fill="#3F3F3F"/>
<path d="M277.125 139.442L280.229 125.464L280.282 122.798L281.169 121.391L285.835 122.436L281.791 140.487L277.125 139.442Z" fill="#3F3F3F"/>
<path fill-rule="evenodd" clip-rule="evenodd" d="M292.524 127.591L289.805 139.728L296.528 141.234C297.581 141.47 298.629 141.588 299.671 141.589C300.145 141.59 300.605 141.552 301.052 141.473C300.594 141.879 300.098 142.197 299.565 142.426C298.638 142.824 297.646 143.022 296.589 143.018C295.546 143.017 294.499 142.899 293.446 142.663L286.722 141.157L289.441 129.02L289.487 126.7L290.241 125.448L292.556 125.966L292.524 127.591ZM292.556 125.966L292.569 125.271L293.324 124.018L300.047 125.525C301.13 125.767 302.145 126.103 303.091 126.533C304.056 126.951 304.868 127.521 305.528 128.244C306.202 128.97 306.651 129.893 306.874 131.015C307.111 132.14 307.048 133.516 306.683 135.144C306.319 136.771 305.786 138.057 305.084 139.003C304.386 139.934 303.574 140.599 302.647 140.997C302.135 141.217 301.603 141.376 301.052 141.473C301.389 141.174 301.706 140.827 302.002 140.432C302.703 139.486 303.236 138.2 303.601 136.573C303.965 134.946 304.029 133.569 303.791 132.444C303.569 131.323 303.12 130.399 302.445 129.673C301.786 128.95 300.974 128.38 300.009 127.962C299.063 127.532 298.048 127.196 296.965 126.954L292.556 125.966ZM297.324 137.684L294.706 137.098L296.183 130.507C297.485 130.801 298.418 131.336 298.984 132.113C299.57 132.881 299.688 134.049 299.337 135.617C299.131 136.535 298.838 137.276 298.457 137.84C298.1 137.825 297.722 137.773 297.324 137.684ZM298.457 137.84C299.284 137.875 299.998 137.71 300.598 137.346C301.461 136.809 302.068 135.756 302.419 134.188C302.77 132.62 302.653 131.452 302.067 130.684C301.499 129.904 300.561 129.368 299.252 129.075L296.635 128.489L296.183 130.507C296.178 130.506 296.174 130.505 296.17 130.504L293.552 129.918L291.624 138.527L294.241 139.113C295.565 139.41 296.656 139.297 297.516 138.775C297.873 138.552 298.187 138.241 298.457 137.84Z" fill="#3F3F3F"/>
<path d="M225.614 127.901L228.739 113.955L228.791 111.29L229.658 109.851L237.384 111.581C238.628 111.86 239.794 112.246 240.882 112.74C241.99 113.22 242.923 113.875 243.681 114.706C244.456 115.54 244.972 116.601 245.228 117.89C245.501 119.183 245.428 120.764 245.009 122.634C244.59 124.504 243.978 125.982 243.172 127.069C242.369 128.138 241.436 128.902 240.371 129.36C239.307 129.818 238.167 130.044 236.952 130.04C235.754 130.039 234.55 129.903 233.34 129.632L225.614 127.901ZM231.247 124.879L234.254 125.553C235.775 125.894 237.029 125.764 238.017 125.164C239.008 124.547 239.705 123.338 240.109 121.536C240.513 119.735 240.378 118.392 239.704 117.51C239.052 116.614 237.974 115.997 236.47 115.661L233.463 114.987L231.247 124.879Z" fill="#3F3F3F"/>
<path d="M314.163 148.006C312.971 147.739 311.934 147.302 311.054 146.694C310.191 146.09 309.577 145.265 309.212 144.22C308.865 143.178 308.866 141.875 309.217 140.311C309.571 138.731 310.151 137.558 310.958 136.792C311.768 136.01 312.701 135.532 313.757 135.358C314.812 135.184 315.884 135.219 316.973 135.462C317.924 135.675 318.729 135.891 319.387 136.11C320.064 136.333 320.508 136.495 320.722 136.597L322.241 139.293L319.545 141.608L316.951 139.206C315.465 138.873 314.52 139.607 314.116 141.409C313.907 142.344 313.978 143.083 314.328 143.625C314.682 144.151 315.326 144.518 316.259 144.727C317.192 144.936 318.059 144.997 318.86 144.908C319.66 144.82 320.292 144.712 320.757 144.584L319.934 148.255C319.337 148.407 318.575 148.486 317.648 148.493C316.742 148.486 315.581 148.324 314.163 148.006Z" fill="#3F3F3F"/>
<path d="M322.676 149.646L325.78 135.668L325.833 133.002L326.72 131.595L331.387 132.64L327.343 150.691L322.676 149.646Z" fill="#3F3F3F"/>
<path d="M343.405 154.557C342.213 154.29 341.176 153.853 340.296 153.245C339.433 152.641 338.819 151.816 338.454 150.771C338.107 149.729 338.108 148.426 338.459 146.862C338.813 145.282 339.393 144.109 340.2 143.343C341.011 142.561 341.944 142.083 342.999 141.909C344.055 141.734 345.127 141.769 346.216 142.013C347.166 142.226 347.971 142.442 348.63 142.661C349.306 142.884 349.751 143.046 349.964 143.148L351.483 145.844L348.787 148.159L346.194 145.757C344.707 145.424 343.762 146.158 343.359 147.96C343.149 148.895 343.22 149.634 343.57 150.176C343.924 150.702 344.568 151.069 345.501 151.278C346.435 151.487 347.302 151.548 348.102 151.459C348.902 151.371 349.534 151.262 349.999 151.134L349.176 154.806C348.58 154.958 347.818 155.037 346.891 155.043C345.984 155.037 344.823 154.875 343.405 154.557Z" fill="#3F3F3F"/>
<path fill-rule="evenodd" clip-rule="evenodd" d="M332.339 142.948L330.448 151.387L335.115 152.432L337.811 140.398L333.118 139.347L332.251 140.786L332.339 142.948Z" fill="#3F3F3F"/>
<path fill-rule="evenodd" clip-rule="evenodd" d="M336.12 133.244C336.118 133.246 336.115 133.247 336.112 133.249L336.12 133.244ZM335.011 138.149C335.013 138.152 335.015 138.155 335.016 138.157L335.011 138.149Z" fill="#3F3F3F"/>
<g filter="url(#filter1_i_2595_4306)">
<path d="M338.304 133.61L335.741 133.038C335.062 132.887 334.389 133.303 334.234 133.968L333.663 136.505C333.519 137.168 333.941 137.824 334.612 137.982L337.202 138.57C337.285 138.588 337.367 138.597 337.448 138.599C338.04 138.613 338.576 138.216 338.707 137.625L339.266 135.094C339.414 134.425 338.984 133.761 338.304 133.61Z" fill="#FC5050"/>
</g>
<path d="M75.6109 337.796L65.2597 323.952C64.7778 323.305 63.8536 323.157 63.1769 323.652C62.9392 323.83 62.7478 324.101 62.6554 324.378L56.5357 342.995C56.2783 343.78 56.6975 344.612 57.483 344.869C57.7603 344.962 58.0706 344.962 58.3545 344.876L74.8287 340.106C75.6209 339.879 76.0731 339.05 75.8387 338.281C75.7925 338.113 75.7199 337.934 75.6109 337.796Z" fill="#41EAD4"/>
<path opacity="0.2" d="M75.609 337.796L65.2578 323.952C64.7758 323.305 63.8516 323.157 63.175 323.652C62.9373 323.83 62.7459 324.101 62.6534 324.378L57.8574 338.964L72.2158 340.862L74.8267 340.106C75.6189 339.879 76.0712 339.05 75.8368 338.281C75.7906 338.113 75.718 337.934 75.609 337.796Z" fill="#3F3F3F"/>
<path d="M117.809 292.459L75.2321 278.46C67.5908 275.949 59.3784 280.101 56.8665 287.739L47.6177 315.872C45.1058 323.51 49.2582 331.725 56.8962 334.237L99.4764 348.233C107.114 350.744 115.33 346.595 117.842 338.954L127.087 310.825C129.576 303.177 125.427 294.961 117.809 292.459Z" fill="#41EAD4"/>
<path d="M125.297 289.839L125.297 289.839C132.265 292.128 136.066 299.645 133.788 306.649C133.788 306.65 133.787 306.65 133.787 306.651L124.543 334.777C122.244 341.771 114.725 345.567 107.735 343.268L107.735 343.268L65.1547 329.273C65.1547 329.273 65.1546 329.273 65.1545 329.273C58.1636 326.974 54.364 319.455 56.6629 312.465L56.6629 312.465L65.9117 284.332C65.9117 284.332 65.9117 284.332 65.9117 284.332C68.2109 277.341 75.7262 273.542 82.7198 275.841C82.7198 275.841 82.7198 275.841 82.7198 275.841L125.297 289.839Z" stroke="#FC5050" stroke-width="2.46778"/>
<path fill-rule="evenodd" clip-rule="evenodd" d="M82.8772 291.211H88.1364V294.167C88.9834 294.393 89.7864 294.727 90.5296 295.152L92.6325 293.063L96.3513 296.757L94.2489 298.846C94.6773 299.585 95.0135 300.384 95.2419 301.226H98.2162V306.451H95.2415C95.0132 307.293 94.6772 308.091 94.2491 308.829L96.3531 310.919L92.6343 314.614L90.53 312.523C89.7867 312.949 88.9836 313.282 88.1364 313.509V316.466H82.8772V313.508C82.0302 313.281 81.2273 312.948 80.4841 312.522L78.3772 314.616L74.6584 310.921L76.7658 308.827C76.3383 308.089 76.0027 307.292 75.7746 306.451H72.7969V301.226H75.7742C76.0024 300.384 76.3382 299.587 76.7661 298.848L74.6601 296.756L78.3789 293.061L80.4846 295.153C81.2276 294.728 82.0303 294.394 82.8772 294.167V291.211ZM85.5064 308.628C88.1689 308.628 90.3273 306.483 90.3273 303.838C90.3273 301.193 88.1689 299.048 85.5064 299.048C82.8439 299.048 80.6855 301.193 80.6855 303.838C80.6855 306.483 82.8439 308.628 85.5064 308.628Z" fill="white"/>
<path fill-rule="evenodd" clip-rule="evenodd" d="M95.2604 314.554L99.2689 313.906L99.6424 316.163C100.323 316.233 100.984 316.391 101.609 316.627L102.957 314.765L106.279 317.139L104.924 319.011C105.339 319.519 105.692 320.082 105.971 320.691L108.26 320.321L108.925 324.34L106.639 324.71C106.571 325.379 106.417 326.028 106.186 326.643L108.062 327.984L105.687 331.267L103.821 329.933C103.302 330.357 102.724 330.717 102.097 330.998L102.47 333.25L98.4614 333.898L98.0883 331.643C97.4078 331.574 96.7477 331.416 96.1221 331.18L94.7755 333.041L91.4534 330.668L92.8067 328.797C92.3912 328.288 92.0371 327.724 91.7581 327.114L89.4683 327.484L88.8033 323.465L91.0908 323.095C91.1583 322.426 91.3126 321.777 91.544 321.161L89.6667 319.82L92.0413 316.537L93.9091 317.872C94.4286 317.448 95.0067 317.089 95.6333 316.808L95.2604 314.554ZM99.4709 327.573C101.508 327.244 102.887 325.333 102.552 323.306C102.217 321.279 100.294 319.902 98.2573 320.232C96.2204 320.561 94.8409 322.472 95.176 324.499C95.5111 326.526 97.434 327.903 99.4709 327.573Z" fill="#FC5050"/>
<path d="M236.431 407.581L222.088 393.237L196.69 418.636C192.727 422.603 192.727 429.012 196.69 432.979C200.657 436.942 207.071 436.942 211.033 432.979L236.431 407.581Z" fill="#505050"/>
<path opacity="0.2" d="M196.691 425.128C200.658 429.091 207.072 429.091 211.034 425.128L232.493 403.669L236.433 407.58L211.034 432.978C207.072 436.941 200.658 436.941 196.691 432.978C193.678 429.961 192.972 425.563 194.52 421.867C195.011 423.06 195.741 424.15 196.691 425.128Z" fill="#505050"/>
<path d="M237.213 385.977L243.726 392.484L232.526 403.684L226.014 397.172L237.213 385.977Z" fill="#505050"/>
<path opacity="0.2" d="M231.733 401.635C235.915 397.888 237.328 392.236 235.644 387.535L237.221 385.963L243.737 392.48L232.547 403.67L231.078 402.206C231.27 402.014 231.513 401.822 231.733 401.635Z" fill="#505050"/>
<path d="M240.448 328.017C224.318 343.609 222.741 368.923 236.809 386.392C237.599 387.37 238.441 388.319 239.335 389.246C240.561 390.518 241.889 391.744 243.274 392.857C261.856 407.907 289.125 404.997 304.175 386.42C319.225 367.838 316.315 340.569 297.738 325.519C280.733 311.774 256.177 312.859 240.448 328.017Z" fill="#505050"/>
<path d="M270.523 389.596C253.737 389.596 240.128 375.987 240.128 359.201C240.128 342.411 253.737 328.807 270.523 328.807C287.308 328.807 300.917 342.411 300.917 359.201C300.917 375.987 287.308 389.596 270.523 389.596Z" fill="#F8FAFF"/>
<path d="M222.093 393.237C218.234 397.284 218.398 403.698 222.444 407.553C226.355 411.277 232.521 411.3 236.432 407.581L222.093 393.237Z" fill="#505050"/>
<path d="M221.737 421.837L207.693 407.765" stroke="#505050" stroke-width="1.32032" stroke-linecap="round" stroke-linejoin="round"/>
<path d="M217.308 426.269L203.24 412.197" stroke="#505050" stroke-width="1.32032" stroke-linecap="round" stroke-linejoin="round"/>
<path d="M212.881 430.694L198.809 416.622" stroke="#505050" stroke-width="1.32032" stroke-linecap="round" stroke-linejoin="round"/>
<path d="M236.325 386.689C237.111 387.667 237.953 388.617 238.851 389.539C240.101 390.816 241.406 392.041 242.791 393.155" stroke="#505050" stroke-width="1.32032" stroke-linecap="round" stroke-linejoin="round"/>
<path d="M253.745 368.447C252.478 368.447 251.401 368.282 250.512 367.953C249.624 367.608 248.957 367.246 248.513 366.868V363.462C249.089 363.791 249.854 364.137 250.808 364.499C251.779 364.86 252.848 365.041 254.016 365.041C254.773 365.041 255.333 364.893 255.694 364.597C256.073 364.301 256.262 363.898 256.262 363.388C256.262 362.927 256.114 362.549 255.818 362.253C255.522 361.957 255.078 361.685 254.485 361.438C253.893 361.192 253.136 360.904 252.215 360.575C250.899 360.098 249.879 359.481 249.155 358.724C248.431 357.967 248.069 356.947 248.069 355.664C248.069 354.759 248.266 353.912 248.661 353.122C249.073 352.332 249.706 351.699 250.562 351.222C251.433 350.728 252.544 350.482 253.893 350.482C254.419 350.482 254.938 350.506 255.448 350.556C255.974 350.588 256.418 350.638 256.78 350.704L259.569 352.752L258.335 355.269L253.819 353.665C253.227 353.665 252.733 353.813 252.338 354.109C251.96 354.389 251.771 354.792 251.771 355.318C251.771 355.976 252.042 356.478 252.585 356.824C253.144 357.169 253.926 357.506 254.929 357.836C256.838 358.461 258.179 359.217 258.952 360.106C259.725 360.978 260.112 362.006 260.112 363.191C260.112 364.145 259.914 365.025 259.52 365.831C259.125 366.621 258.458 367.254 257.521 367.731C256.599 368.208 255.341 368.447 253.745 368.447ZM263.855 368.2L263.361 366.72L263.855 364.252V350.728H275.058L276.292 351.469L274.91 354.183L272.442 353.936H267.26V357.762H273.923V360.846H271.505L267.26 360.599V364.992H275.157L277.106 366.621L275.651 368.2H263.855ZM286.081 368.447C285.159 368.447 284.255 368.324 283.366 368.077C282.494 367.814 281.705 367.353 280.997 366.695C280.29 366.037 279.73 365.124 279.319 363.956C278.908 362.788 278.702 361.29 278.702 359.464C278.702 357.638 278.908 356.141 279.319 354.973C279.73 353.805 280.29 352.892 280.997 352.234C281.705 351.576 282.494 351.123 283.366 350.876C284.255 350.613 285.159 350.482 286.081 350.482C287.051 350.482 287.973 350.613 288.845 350.876C289.733 351.14 290.523 351.6 291.214 352.258C291.905 352.916 292.448 353.83 292.842 354.998C293.254 356.166 293.459 357.655 293.459 359.464C293.459 361.274 293.254 362.763 292.842 363.931C292.448 365.099 291.905 366.012 291.214 366.67C290.523 367.328 289.733 367.789 288.845 368.052C287.973 368.315 287.051 368.447 286.081 368.447ZM286.081 364.992C287.117 364.992 287.899 364.778 288.425 364.35C288.952 363.906 289.305 363.273 289.486 362.45C289.684 361.611 289.782 360.616 289.782 359.464C289.782 358.296 289.684 357.301 289.486 356.478C289.305 355.656 288.952 355.03 288.425 354.603C287.899 354.159 287.117 353.936 286.081 353.936C285.061 353.936 284.279 354.159 283.736 354.603C283.21 355.047 282.856 355.68 282.675 356.503C282.494 357.326 282.404 358.313 282.404 359.464C282.404 360.599 282.494 361.587 282.675 362.426C282.856 363.248 283.21 363.882 283.736 364.326C284.279 364.77 285.061 364.992 286.081 364.992Z" fill="#FC5050"/>
<path d="M355.856 174.271L210.153 140.666L182.614 260.072L328.318 293.674L355.856 174.271Z" fill="white"/>
<path d="M256.302 160.313L272.314 164.006C275.731 164.792 277.879 168.228 277.09 171.648L273.4 187.66C272.611 191.079 269.175 193.228 265.756 192.439L249.743 188.746C246.324 187.957 244.175 184.521 244.964 181.101L248.658 165.089C249.446 161.673 252.853 159.517 256.302 160.313Z" fill="#41EAD4"/>
<path d="M255.163 175.022L251.232 174.114L250.324 178.049L254.255 178.953L255.163 175.022Z" fill="#2E437D"/>
<path d="M259.995 172.024L256.061 171.119L255.156 175.05L259.087 175.958L259.995 172.024Z" fill="#2E437D"/>
<path d="M263.025 176.835L259.094 175.928L258.187 179.859L262.118 180.767L263.025 176.835Z" fill="#2E437D"/>
<path d="M267.857 173.839L263.925 172.932L263.018 176.863L266.949 177.771L267.857 173.839Z" fill="#2E437D"/>
<path d="M270.861 178.641L266.93 177.733L266.022 181.668L269.954 182.572L270.861 178.641Z" fill="#2E437D"/>
<path d="M222.914 152.612L238.927 156.303C242.343 157.092 244.492 160.528 243.703 163.947L240.009 179.96C239.224 183.379 235.788 185.528 232.368 184.739L216.356 181.045C212.936 180.257 210.787 176.82 211.576 173.401L215.27 157.389C216.059 153.972 219.465 151.817 222.914 152.612Z" fill="#41EAD4"/>
<path d="M221.229 175.925C220.487 175.756 219.998 175.014 220.176 174.245L221.219 169.713C221.391 168.973 222.134 168.485 222.903 168.66C223.646 168.831 224.134 169.574 223.956 170.343L222.909 174.875C222.735 175.644 221.969 176.096 221.229 175.925Z" fill="#3F3F3F"/>
<path d="M230.228 178.001C229.489 177.832 229 177.09 229.175 176.321L230.222 171.789C230.393 171.049 231.162 170.567 231.905 170.736C232.644 170.907 233.133 171.65 232.958 172.419L231.912 176.951C231.733 177.72 230.971 178.172 230.228 178.001Z" fill="#3F3F3F"/>
<path d="M221.881 166.836L222.815 162.792C223.287 160.739 225.357 159.445 227.41 159.921L231.681 160.904C233.734 161.38 235.028 163.446 234.553 165.499L233.622 169.546L221.881 166.836Z" fill="#4087FF"/>
<path d="M233.64 169.459L221.899 166.749L220.479 172.905L232.22 175.612L233.64 169.459Z" fill="#2E437D"/>
<path d="M223.853 171.432C224.464 171.57 225.078 171.188 225.22 170.577C225.362 169.963 224.975 169.349 224.365 169.207C223.751 169.065 223.137 169.451 222.998 170.062C222.856 170.676 223.239 171.29 223.853 171.432Z" fill="#FDE74C"/>
<path d="M229.835 172.812C230.449 172.95 231.063 172.567 231.202 171.957C231.344 171.343 230.961 170.729 230.347 170.587C229.736 170.448 229.122 170.831 228.981 171.442C228.839 172.056 229.225 172.67 229.835 172.812Z" fill="#FDE74C"/>
<path d="M289.639 167.999L305.651 171.693C309.067 172.482 311.216 175.918 310.427 179.334L306.734 195.346C305.948 198.766 302.512 200.915 299.093 200.126L283.08 196.432C279.661 195.643 277.512 192.207 278.301 188.791L281.994 172.779C282.783 169.359 286.19 167.204 289.639 167.999Z" fill="#41EAD4"/>
<path d="M304.593 181.863C304.6 181.833 304.577 181.797 304.557 181.764C303.903 180.562 302.507 179.972 301.203 180.298L297.688 181.229L295.034 179.595C294.153 179.123 293.12 178.915 292.136 179.018C292.136 179.018 292.136 179.018 292.106 179.011C291.925 179.031 291.776 179.146 291.737 179.315C291.697 179.486 291.743 179.678 291.865 179.797L293.965 182.14L290.875 182.929C290.528 182.998 290.185 182.919 289.891 182.761L287.241 180.982C286.818 180.734 286.336 180.622 285.848 180.658L285.571 180.685C285.416 180.708 285.274 180.797 285.214 180.932C285.145 181.097 285.155 181.308 285.274 181.457L287.762 184.972C288.574 185.999 289.905 186.484 291.169 186.207L294.678 185.306L293.172 188.831C293.172 188.831 293.172 188.831 293.166 188.857C293.1 189.022 293.116 189.207 293.232 189.352C293.304 189.432 293.384 189.478 293.476 189.468C293.562 189.488 293.625 189.475 293.687 189.458L294.04 189.359C294.915 189.082 295.724 188.577 296.335 187.877L299.434 184.061L303.996 182.893C304.276 182.84 304.537 182.629 304.629 182.352C304.656 182.236 304.676 182.031 304.593 181.863Z" fill="#2E437D"/>
<path d="M323.173 175.735L339.185 179.428C342.605 180.217 344.75 183.653 343.965 187.073L340.271 203.082C339.482 206.501 336.046 208.65 332.627 207.861L316.615 204.168C313.195 203.379 311.049 199.943 311.835 196.526L315.529 180.514C316.317 177.094 319.727 174.939 323.173 175.735Z" fill="#41EAD4"/>
<path d="M331.592 186.197L327.034 185.147L324.205 197.397L328.767 198.45L331.592 186.197Z" fill="#2E437D"/>
<path d="M334.548 190.931L322.299 188.105L321.246 192.664L333.499 195.489L334.548 190.931Z" fill="#2E437D"/>
<path d="M214.527 188.845L330.827 215.667C334.244 216.456 336.393 219.892 335.604 223.312L323.219 277.016C322.43 280.435 318.994 282.584 315.574 281.795L199.275 254.973C195.855 254.184 193.709 250.748 194.498 247.328L206.883 193.624C207.672 190.205 211.078 188.049 214.527 188.845Z" fill="#F8FAFF"/>
<path d="M220.046 225.015L288.653 240.839" stroke="#4087FF" stroke-width="1.32032"/>
<path d="M221.613 208.723L218.223 223.424" stroke="#4087FF" stroke-width="1.32032"/>
<path d="M216.662 229.665C219.544 230.328 222.415 228.536 223.079 225.654C223.742 222.773 221.95 219.901 219.068 219.237C216.187 218.574 213.315 220.37 212.652 223.248C211.988 226.129 213.784 229.001 216.662 229.665Z" fill="#4087FF"/>
<path d="M217.371 226.587C218.616 226.875 219.857 226.099 220.141 224.854C220.428 223.613 219.652 222.372 218.411 222.085C217.17 221.798 215.929 222.574 215.642 223.818C215.355 225.059 216.13 226.3 217.371 226.587Z" fill="#2E437D"/>
<path d="M240.252 235.105C243.133 235.772 246.005 233.976 246.669 231.095C247.332 228.216 245.536 225.345 242.658 224.678C239.776 224.014 236.905 225.81 236.241 228.692C235.578 231.57 237.374 234.442 240.252 235.105Z" fill="#4087FF"/>
<path d="M240.963 232.031C242.208 232.318 243.449 231.542 243.733 230.301C244.02 229.057 243.244 227.815 242.003 227.528C240.759 227.244 239.517 228.02 239.234 229.261C238.946 230.502 239.722 231.743 240.963 232.031Z" fill="#2E437D"/>
<path d="M287.434 245.988C290.315 246.651 293.187 244.859 293.85 241.977C294.514 239.096 292.718 236.224 289.84 235.561C286.958 234.897 284.087 236.693 283.423 239.571C282.756 242.453 284.552 245.324 287.434 245.988Z" fill="#4087FF"/>
<path d="M288.205 243.043C289.446 243.33 290.687 242.555 290.974 241.313C291.261 240.069 290.485 238.828 289.241 238.544C288 238.257 286.759 239.033 286.472 240.274C286.188 241.518 286.963 242.759 288.205 243.043Z" fill="#2E437D"/>
<path d="M267.986 222.717L261.896 249.13" stroke="#4087FF" stroke-width="1.32032"/>
<path d="M271.468 218.03L313.576 227.744" stroke="#4087FF" stroke-width="1.32032"/>
<path d="M238.89 247.783L260.457 252.757" stroke="#4087FF" stroke-width="1.32032"/>
<path d="M263.844 240.551C266.725 241.214 269.597 239.418 270.26 236.54C270.924 233.659 269.128 230.787 266.25 230.123C263.368 229.457 260.497 231.252 259.833 234.134C259.17 237.015 260.962 239.887 263.844 240.551Z" fill="#4087FF"/>
<path d="M264.583 237.598C265.828 237.885 267.069 237.109 267.356 235.865C267.64 234.624 266.864 233.383 265.623 233.096C264.382 232.812 263.141 233.587 262.854 234.829C262.567 236.07 263.342 237.311 264.583 237.598Z" fill="#2E437D"/>
<path d="M265.629 233.07L264.583 237.598C263.332 237.311 262.569 236.054 262.86 234.799C263.14 233.575 264.404 232.786 265.629 233.07Z" fill="#FDE74C"/>
<path d="M220.739 212.001C223.617 212.664 226.488 210.869 227.152 207.987C227.819 205.109 226.023 202.237 223.141 201.57C220.263 200.907 217.391 202.703 216.725 205.584C216.061 208.463 217.857 211.334 220.739 212.001Z" fill="#4087FF"/>
<path d="M221.447 208.921C222.688 209.208 223.929 208.433 224.216 207.191C224.503 205.947 223.724 204.706 222.483 204.422C221.242 204.135 220.001 204.911 219.714 206.152C219.427 207.396 220.203 208.637 221.447 208.921Z" fill="#2E437D"/>
<path d="M291.508 228.324C294.389 228.988 297.261 227.192 297.924 224.31C298.588 221.432 296.796 218.56 293.914 217.894C291.032 217.23 288.161 219.026 287.497 221.907C286.834 224.786 288.629 227.657 291.508 228.324Z" fill="#4087FF"/>
<path d="M292.275 225.38C293.519 225.668 294.76 224.892 295.044 223.647C295.331 222.406 294.556 221.165 293.314 220.878C292.07 220.591 290.829 221.367 290.545 222.611C290.258 223.852 291.034 225.093 292.275 225.38Z" fill="#FDE74C"/>
<path d="M315.099 233.762C317.981 234.426 320.853 232.63 321.516 229.752C322.18 226.87 320.384 223.999 317.506 223.335C314.624 222.672 311.752 224.464 311.089 227.346C310.426 230.227 312.221 233.099 315.099 233.762Z" fill="#4087FF"/>
<path d="M315.866 230.821C317.107 231.108 318.348 230.332 318.635 229.091C318.922 227.847 318.147 226.605 316.905 226.318C315.661 226.034 314.42 226.81 314.133 228.051C313.849 229.292 314.625 230.533 315.866 230.821Z" fill="#FDE74C"/>
<path d="M267.916 222.882C270.797 223.549 273.669 221.754 274.333 218.872C274.999 215.99 273.204 213.119 270.322 212.455C267.441 211.792 264.569 213.587 263.905 216.466C263.242 219.347 265.038 222.219 267.916 222.882Z" fill="#4087FF"/>
<path d="M268.657 219.935C269.898 220.219 271.139 219.443 271.426 218.202C271.713 216.961 270.938 215.72 269.693 215.433C268.452 215.146 267.211 215.921 266.924 217.162C266.637 218.407 267.413 219.648 268.657 219.935Z" fill="#FDE74C"/>
<path d="M236.18 252.772C239.061 253.436 241.933 251.64 242.596 248.762C243.26 245.88 241.464 243.008 238.586 242.345C235.704 241.682 232.833 243.474 232.169 246.355C231.503 249.237 233.298 252.109 236.18 252.772Z" fill="#4087FF"/>
<path d="M236.889 249.693C238.13 249.98 239.371 249.204 239.658 247.96C239.946 246.719 239.17 245.478 237.926 245.191C236.684 244.903 235.443 245.679 235.156 246.924C234.872 248.165 235.648 249.406 236.889 249.693Z" fill="#FDE74C"/>
<path d="M259.768 258.21C262.646 258.876 265.518 257.081 266.184 254.199C266.848 251.318 265.052 248.446 262.171 247.782C259.292 247.119 256.421 248.915 255.757 251.793C255.09 254.674 256.886 257.546 259.768 258.21Z" fill="#4087FF"/>
<path d="M260.51 255.262C261.751 255.546 262.996 254.77 263.279 253.529C263.567 252.288 262.791 251.047 261.55 250.76C260.305 250.473 259.064 251.248 258.78 252.49C258.493 253.734 259.269 254.975 260.51 255.262Z" fill="#FDE74C"/>
<path d="M430.32 316.456L440.492 302.425C440.965 301.77 441.89 301.603 442.577 302.092C442.816 302.267 443.012 302.536 443.109 302.811L449.52 321.379C449.792 322.166 449.385 323.005 448.598 323.277C448.32 323.373 448.012 323.374 447.727 323.295L431.141 318.757C430.342 318.542 429.877 317.722 430.101 316.946C430.146 316.774 430.215 316.597 430.32 316.456Z" fill="#FC5050"/>
<path opacity="0.2" d="M430.101 316.946C429.877 317.722 430.342 318.542 431.141 318.757L433.767 319.478L448.132 317.364L443.109 302.811C443.012 302.536 442.816 302.267 442.577 302.092C441.89 301.603 440.965 301.77 440.492 302.425L430.32 316.456C430.215 316.597 430.146 316.774 430.101 316.946Z" fill="#3F3F3F"/>
<path d="M406.314 327.331L448.762 312.673C456.383 310.04 460.419 301.745 457.79 294.124L448.097 266.062C445.468 258.442 437.169 254.406 429.548 257.035L387.076 271.704C379.455 274.334 375.419 282.63 378.048 290.254L387.741 318.312C390.394 325.928 398.69 329.964 406.314 327.331Z" fill="#FC5050"/>
<path d="M406.529 287.559L407.391 290.053L398.657 297.724L410.26 298.355L411.121 300.849L395.797 299.962L395.013 297.696L406.529 287.559ZM414.688 281.845L416.477 281.227L416.895 301.621L415.118 302.235L414.688 281.845ZM421.059 282.538L436.376 283.402L437.159 285.669L425.652 295.828L424.79 293.334L433.55 285.666L421.921 285.032L421.059 282.538Z" fill="white"/>
<path d="M381.119 314.224L371.428 286.17C371.428 286.169 371.428 286.169 371.427 286.169C369.021 279.189 372.715 271.596 379.691 269.189L379.691 269.189L422.163 254.52C429.141 252.112 436.737 255.807 439.144 262.783L439.144 262.784L448.836 290.845C448.836 290.845 448.836 290.845 448.837 290.845C451.244 297.822 447.549 305.415 440.573 307.825C440.573 307.825 440.573 307.825 440.572 307.825L398.124 322.483C391.145 324.893 383.55 321.2 381.12 314.226C381.12 314.225 381.119 314.225 381.119 314.224Z" stroke="#2E437D" stroke-width="2.46778"/>
<path d="M144.78 183.287C106.528 193.775 70.7442 182.054 111.463 130.231C152.183 78.407 77.5319 40.1566 57.7893 95.6822" stroke="#FC5050" stroke-width="2.3489"/>
<path d="M212.382 174.765C204.706 193.722 189.915 185.793 186.741 181.688C186.741 181.688 185.683 180.32 185.555 179.043C185.427 177.767 185.716 176.979 186.192 176.219C195.559 161.266 204.466 182.145 212.382 174.765Z" fill="#505050"/>
<path d="M184.459 176.476C184.459 176.476 183.836 178.109 183.973 179.47C184.109 180.832 185.044 182.311 185.044 182.311C185.044 182.311 158.658 190.997 144.56 186.315C142.766 185.719 140.438 183.776 140.438 183.776C140.438 183.776 142.396 181.516 143.975 180.48C155.207 173.108 184.459 176.476 184.459 176.476Z" fill="#3F3F3F"/>
<path opacity="0.92" fill-rule="evenodd" clip-rule="evenodd" d="M197.305 171.426C197.16 171.694 196.93 171.916 196.637 172.051C195.88 172.399 195.572 173.314 195.965 174.05C196.279 174.639 196.151 175.367 195.654 175.812C195.033 176.368 195.009 177.334 195.601 177.921C196.075 178.391 196.167 179.125 195.824 179.697C195.395 180.412 195.657 181.342 196.395 181.729C196.986 182.039 197.291 182.713 197.132 183.361C196.933 184.171 197.457 184.982 198.277 185.135C198.933 185.257 199.423 185.812 199.462 186.479C199.468 186.594 199.489 186.706 199.52 186.812C204.116 186.332 208.959 183.227 212.385 174.767C208.949 177.97 205.327 175.851 201.561 173.648C200.162 172.829 198.742 171.999 197.305 171.426Z" fill="#41EAD4"/>
<rect width="54.5736" height="80.496" rx="24.5581" transform="matrix(-0.936973 -0.349402 -0.349402 0.936973 84.6084 103.029)" fill="#2E437D"/>
<line y1="-0.68217" x2="32.7441" y2="-0.68217" transform="matrix(-0.349402 0.936973 0.936973 0.349402 59.041 93.4941)" stroke="#FAFAFB" stroke-width="1.36434"/>
<rect width="6.8217" height="15.0077" rx="2.72868" transform="matrix(-0.936973 -0.349402 -0.349402 0.936973 56.8301 107.231)" fill="#FC5050"/>
<rect x="417.795" y="61.1612" width="90.1604" height="59.3495" rx="7.15907" transform="rotate(-4.85927 417.795 61.1612)" stroke="#FC5050" stroke-width="2.46778"/>
<line x1="471.609" y1="79.2765" x2="492.863" y2="77.4696" stroke="white" stroke-width="2.37007" stroke-linecap="round"/>
<line x1="472.411" y1="88.7227" x2="493.665" y2="86.9159" stroke="white" stroke-width="2.37007" stroke-linecap="round"/>
<line x1="473.215" y1="98.169" x2="494.469" y2="96.3621" stroke="white" stroke-width="2.37007" stroke-linecap="round"/>
<rect x="405.205" y="53.2316" width="90.1604" height="59.3495" rx="7.15907" transform="rotate(-9.4922 405.205 53.2316)" stroke="#FC5050" stroke-width="2.46778"/>
<rect x="426.121" y="71.5064" width="90.0627" height="59.2518" rx="7.11021" fill="#41EAD4" stroke="#41EAD4" stroke-width="2.37007"/>
<path d="M460.146 96.144C460.146 99.9077 457.115 102.958 453.375 102.958C449.635 102.958 446.603 99.9077 446.603 96.144C446.603 92.3809 449.635 89.3301 453.375 89.3301C457.115 89.3301 460.146 92.3809 460.146 96.144ZM452.587 108.452L450.835 105.513H455.914L454.163 108.452L455.925 115.047L458.014 106.466C462.099 107.105 465.225 110.661 465.225 114.952C465.225 115.851 464.495 116.586 463.601 116.586H443.15C442.252 116.586 441.524 115.851 441.524 114.952C441.524 110.661 444.65 107.105 448.735 106.466L450.825 115.047L452.587 108.452Z" fill="white"/>
<line x1="478.263" y1="94.0708" x2="499.594" y2="94.0708" stroke="white" stroke-width="2.37007" stroke-linecap="round"/>
<line x1="478.263" y1="103.551" x2="499.594" y2="103.551" stroke="white" stroke-width="2.37007" stroke-linecap="round"/>
<line x1="478.263" y1="113.032" x2="499.594" y2="113.032" stroke="white" stroke-width="2.37007" stroke-linecap="round"/>
<defs>
<filter id="filter0_d_2595_4306" x="156.22" y="55.3672" width="229.051" height="324.104" filterUnits="userSpaceOnUse" color-interpolation-filters="sRGB">
<feFlood flood-opacity="0" result="BackgroundImageFix"/>
<feColorMatrix in="SourceAlpha" type="matrix" values="0 0 0 0 0 0 0 0 0 0 0 0 0 0 0 0 0 0 127 0" result="hardAlpha"/>
<feOffset dy="3.70166"/>
<feGaussianBlur stdDeviation="1.85083"/>
<feComposite in2="hardAlpha" operator="out"/>
<feColorMatrix type="matrix" values="0 0 0 0 0 0 0 0 0 0 0 0 0 0 0 0 0 0 0.2 0"/>
<feBlend mode="normal" in2="BackgroundImageFix" result="effect1_dropShadow_2595_4306"/>
<feBlend mode="normal" in="SourceGraphic" in2="effect1_dropShadow_2595_4306" result="shape"/>
</filter>
<filter id="filter1_i_2595_4306" x="332.395" y="133.008" width="6.90087" height="9.31099" filterUnits="userSpaceOnUse" color-interpolation-filters="sRGB">
<feFlood flood-opacity="0" result="BackgroundImageFix"/>
<feBlend mode="normal" in="SourceGraphic" in2="BackgroundImageFix" result="shape"/>
<feColorMatrix in="SourceAlpha" type="matrix" values="0 0 0 0 0 0 0 0 0 0 0 0 0 0 0 0 0 0 127 0" result="hardAlpha"/>
<feOffset dx="-1.23973" dy="4.95893"/>
<feGaussianBlur stdDeviation="1.8596"/>
<feComposite in2="hardAlpha" operator="arithmetic" k2="-1" k3="1"/>
<feColorMatrix type="matrix" values="0 0 0 0 0 0 0 0 0 0 0 0 0 0 0 0 0 0 0.3 0"/>
<feBlend mode="normal" in2="shape" result="effect1_innerShadow_2595_4306"/>
</filter>
</defs>
</svg>