<svg width="648" height="485" viewBox="0 0 648 485" fill="none" xmlns="http://www.w3.org/2000/svg">
<path d="M518.043 29.3306C513.554 19.2382 501.756 14.7459 491.691 19.2969L166.951 166.138C156.886 170.689 152.366 182.56 156.855 192.652L278.099 465.244C282.588 475.337 294.386 479.829 304.45 475.278L629.191 328.437C639.256 323.886 643.776 312.015 639.287 301.923L518.043 29.3306Z" fill="#EBFFFC"/>
<g filter="url(#filter0_d_3361_2033)">
<path d="M445.032 21.5333C437.66 11.1884 423.345 8.84314 413.058 16.2951L159.306 200.115C149.019 207.567 146.656 221.994 154.027 232.339L318.523 463.192C325.894 473.537 340.209 475.882 350.496 468.43L604.248 284.61C614.535 277.158 616.899 262.731 609.527 252.386L445.032 21.5333Z" stroke="#41EAD4" stroke-width="4" shape-rendering="crispEdges"/>
</g>
<rect x="108.199" y="98.649" width="195.821" height="143.043" rx="17.7973" transform="rotate(15.8673 108.199 98.649)" stroke="#FC5050" stroke-width="4"/>
<line x1="193.506" y1="179.023" x2="248.21" y2="194.572" stroke="white" stroke-width="6.31893" stroke-linecap="round"/>
<line x1="186.596" y1="203.336" x2="241.3" y2="218.885" stroke="white" stroke-width="6.31893" stroke-linecap="round"/>
<line x1="179.685" y1="227.649" x2="234.389" y2="243.198" stroke="white" stroke-width="6.31893" stroke-linecap="round"/>
<rect x="94.5705" y="69.3372" width="187.903" height="143.043" rx="17.7973" transform="rotate(11.2344 94.5705 69.3372)" stroke="#FC5050" stroke-width="4"/>
<g filter="url(#filter1_d_3361_2033)">
<rect x="115.195" y="135.616" width="188.856" height="214.747" rx="11.9307" transform="rotate(20.7266 115.195 135.616)" fill="white" stroke="#3F3F3F" stroke-width="7.73314"/>
</g>
<rect x="127.529" y="185.659" width="19.0665" height="18.3496" rx="3.804" transform="rotate(20.7266 127.529 185.659)" stroke="#41EAD4" stroke-width="3.51506"/>
<path d="M129.386 191.22L131.587 201.859L139.318 194.559L148.905 185.797" stroke="#505050" stroke-width="3.17802" stroke-linecap="round" stroke-linejoin="round"/>
<rect x="107.591" y="238.348" width="19.0665" height="18.3496" rx="3.804" transform="rotate(20.7266 107.591 238.348)" stroke="#41EAD4" stroke-width="3.51506"/>
<path d="M109.449 243.91L111.649 254.549L119.38 247.248L128.968 238.486" stroke="#505050" stroke-width="3.17802" stroke-linecap="round" stroke-linejoin="round"/>
<rect x="87.5198" y="291.392" width="19.0665" height="18.3496" rx="3.804" transform="rotate(20.7266 87.5198 291.392)" stroke="#41EAD4" stroke-width="3.51506"/>
<path d="M89.3772 296.954L91.578 307.593L99.3089 300.292L108.896 291.53" stroke="#505050" stroke-width="3.17802" stroke-linecap="round" stroke-linejoin="round"/>
<path d="M161.333 202.451L239.702 232.106" stroke="#41EAD4" stroke-width="3.51506" stroke-linecap="round"/>
<path d="M141.395 255.14L219.763 284.795" stroke="#41EAD4" stroke-width="3.51506" stroke-linecap="round"/>
<path d="M121.322 308.184L199.691 337.838" stroke="#41EAD4" stroke-width="3.51506" stroke-linecap="round"/>
<path d="M156.999 213.905L235.368 243.559" stroke="#41EAD4" stroke-width="3.51506" stroke-linecap="round"/>
<path d="M137.061 266.596L215.429 296.251" stroke="#41EAD4" stroke-width="3.51506" stroke-linecap="round"/>
<path d="M116.989 319.638L195.358 349.292" stroke="#41EAD4" stroke-width="3.51506" stroke-linecap="round"/>
<g filter="url(#filter2_d_3361_2033)">
<path d="M407.274 300.599C408.573 299.838 409.081 298.13 408.409 296.783L402.532 285.004C401.86 283.657 400.262 283.182 398.962 283.942L319.394 330.521C319.135 330.672 318.9 330.867 318.699 331.097L305.007 346.722C303.259 348.716 304.812 351.829 307.31 351.338L326.879 347.492C327.167 347.435 327.446 347.329 327.705 347.178L407.274 300.599Z" fill="#3F3F3F"/>
</g>
<path d="M411.691 196.691L400.312 179.676C399.783 178.881 398.698 178.64 397.866 179.173C397.573 179.365 397.329 179.67 397.202 179.989L388.777 201.431C388.423 202.336 388.866 203.344 389.78 203.703C390.103 203.831 390.47 203.854 390.811 203.773L410.618 199.351C411.571 199.14 412.159 198.199 411.93 197.278C411.886 197.077 411.811 196.862 411.691 196.691Z" fill="#41EAD4"/>
<path opacity="0.2" d="M411.689 196.677L400.316 179.669C399.786 178.874 398.702 178.633 397.87 179.167C397.577 179.359 397.334 179.663 397.207 179.982L390.607 196.774L407.479 200.036L410.617 199.335C411.569 199.125 412.156 198.184 411.928 197.263C411.884 197.062 411.809 196.848 411.689 196.677Z" fill="#3F3F3F"/>
<path d="M464.483 146.281L414.999 126.782C406.118 123.283 396.14 127.57 392.685 136.36L379.962 168.736C376.507 177.526 380.9 187.473 389.777 190.972L439.265 210.467C448.142 213.965 458.124 209.683 461.579 200.889L474.298 168.516C477.726 159.713 473.338 149.766 464.483 146.281Z" fill="#41EAD4"/>
<path d="M473.483 143.736L473.484 143.736C481.568 146.919 485.567 155.993 482.442 164.02C482.442 164.021 482.442 164.022 482.441 164.023L469.725 196.391C469.725 196.391 469.725 196.391 469.725 196.391C466.574 204.41 457.462 208.329 449.347 205.131L449.347 205.131L399.859 185.636C391.748 182.439 387.751 173.363 390.899 165.354L390.899 165.353L403.622 132.978C403.622 132.978 403.622 132.977 403.622 132.977C406.773 124.962 415.88 121.039 423.999 124.238C423.999 124.238 423.999 124.238 423.999 124.238L473.483 143.736Z" stroke="#FC5050" stroke-width="3"/>
<path d="M431.731 170.755L430.345 167.529L435.883 165.359C436.853 164.947 437.702 164.458 438.428 163.892C439.178 163.336 439.715 162.651 440.039 161.838C440.743 160.07 439.909 158.705 437.538 157.744L431.965 157.276L431.668 152.784C432.175 152.628 432.864 152.505 433.734 152.414C434.605 152.323 435.577 152.328 436.649 152.429C437.755 152.516 438.859 152.783 439.961 153.23C442.764 154.365 444.552 155.812 445.327 157.569C446.102 159.326 446.104 161.173 445.333 163.109C444.838 164.352 444.132 165.357 443.215 166.123C442.307 166.866 441.368 167.443 440.397 167.855C439.436 168.242 438.619 168.549 437.944 168.776L431.731 170.755ZM428.491 178.894L426.542 174.357L431.06 172.441L433.01 176.978L428.491 178.894Z" fill="#FC5050"/>
<defs>
<filter id="filter0_d_3361_2033" x="144.744" y="9.93213" width="474.066" height="470.861" filterUnits="userSpaceOnUse" color-interpolation-filters="sRGB">
<feFlood flood-opacity="0" result="BackgroundImageFix"/>
<feColorMatrix in="SourceAlpha" type="matrix" values="0 0 0 0 0 0 0 0 0 0 0 0 0 0 0 0 0 0 127 0" result="hardAlpha"/>
<feOffset dy="3"/>
<feGaussianBlur stdDeviation="1.5"/>
<feComposite in2="hardAlpha" operator="out"/>
<feColorMatrix type="matrix" values="0 0 0 0 0 0 0 0 0 0 0 0 0 0 0 0 0 0 0.2 0"/>
<feBlend mode="normal" in2="BackgroundImageFix" result="effect1_dropShadow_3361_2033"/>
<feBlend mode="normal" in="SourceGraphic" in2="effect1_dropShadow_3361_2033" result="shape"/>
</filter>
<filter id="filter1_d_3361_2033" x="35.7734" y="135.195" width="259.476" height="274.527" filterUnits="userSpaceOnUse" color-interpolation-filters="sRGB">
<feFlood flood-opacity="0" result="BackgroundImageFix"/>
<feColorMatrix in="SourceAlpha" type="matrix" values="0 0 0 0 0 0 0 0 0 0 0 0 0 0 0 0 0 0 127 0" result="hardAlpha"/>
<feOffset dy="3"/>
<feGaussianBlur stdDeviation="1.5"/>
<feComposite in2="hardAlpha" operator="out"/>
<feColorMatrix type="matrix" values="0 0 0 0 0 0 0 0 0 0 0 0 0 0 0 0 0 0 0.2 0"/>
<feBlend mode="normal" in2="BackgroundImageFix" result="effect1_dropShadow_3361_2033"/>
<feBlend mode="normal" in="SourceGraphic" in2="effect1_dropShadow_3361_2033" result="shape"/>
</filter>
<filter id="filter2_d_3361_2033" x="301.262" y="283.58" width="110.444" height="73.8101" filterUnits="userSpaceOnUse" color-interpolation-filters="sRGB">
<feFlood flood-opacity="0" result="BackgroundImageFix"/>
<feColorMatrix in="SourceAlpha" type="matrix" values="0 0 0 0 0 0 0 0 0 0 0 0 0 0 0 0 0 0 127 0" result="hardAlpha"/>
<feOffset dy="3"/>
<feGaussianBlur stdDeviation="1.5"/>
<feComposite in2="hardAlpha" operator="out"/>
<feColorMatrix type="matrix" values="0 0 0 0 0 0 0 0 0 0 0 0 0 0 0 0 0 0 0.2 0"/>
<feBlend mode="normal" in2="BackgroundImageFix" result="effect1_dropShadow_3361_2033"/>
<feBlend mode="normal" in="SourceGraphic" in2="effect1_dropShadow_3361_2033" result="shape"/>
</filter>
</defs>
</svg>