<svg width="75" height="75" viewBox="0 0 75 75" fill="none" xmlns="http://www.w3.org/2000/svg">
<mask id="path-1-inside-1_2828_10911" fill="white">
<path fill-rule="evenodd" clip-rule="evenodd" d="M10 0C4.47715 0 0 4.47715 0 10V65C0 70.5229 4.47715 75 10 75H65C70.5229 75 75 70.5229 75 65V10C75 4.47715 70.5229 0 65 0H10ZM31.7309 55.1926H39.5515V41.9954C39.5173 41.5187 39.5797 41.0399 39.7351 40.5879C39.8904 40.1359 40.1355 39.7199 40.4556 39.365C40.7757 39.01 41.1642 38.7234 41.5978 38.5223C42.0313 38.3211 42.5011 38.2097 42.9788 38.1946C44.0462 38.1923 45.0785 38.5756 45.8857 39.274C46.693 39.9723 47.2208 40.9388 47.372 41.9954V55.1926H55.1926V41.0178C55.1994 38.6884 54.2821 36.4515 52.642 34.7974C51.0018 33.1433 48.7727 32.2072 46.4433 32.1942C45.1114 32.2247 43.8028 32.5496 42.6112 33.1455C41.4197 33.7415 40.3748 34.5937 39.5515 35.6412V31.7309H31.7309V55.1926ZM20 31.7309V55.1926H27.8206V31.7309H20ZM21.1453 26.6753C21.8786 27.4086 22.8732 27.8206 23.9103 27.8206C24.9474 27.8206 25.942 27.4086 26.6753 26.6753C27.4086 25.942 27.8206 24.9474 27.8206 23.9103C27.8206 22.8732 27.4086 21.8786 26.6753 21.1453C25.942 20.412 24.9474 20 23.9103 20C22.8732 20 21.8786 20.412 21.1453 21.1453C20.412 21.8786 20 22.8732 20 23.9103C20 24.9474 20.412 25.942 21.1453 26.6753Z"/>
</mask>
<path fill-rule="evenodd" clip-rule="evenodd" d="M10 0C4.47715 0 0 4.47715 0 10V65C0 70.5229 4.47715 75 10 75H65C70.5229 75 75 70.5229 75 65V10C75 4.47715 70.5229 0 65 0H10ZM31.7309 55.1926H39.5515V41.9954C39.5173 41.5187 39.5797 41.0399 39.7351 40.5879C39.8904 40.1359 40.1355 39.7199 40.4556 39.365C40.7757 39.01 41.1642 38.7234 41.5978 38.5223C42.0313 38.3211 42.5011 38.2097 42.9788 38.1946C44.0462 38.1923 45.0785 38.5756 45.8857 39.274C46.693 39.9723 47.2208 40.9388 47.372 41.9954V55.1926H55.1926V41.0178C55.1994 38.6884 54.2821 36.4515 52.642 34.7974C51.0018 33.1433 48.7727 32.2072 46.4433 32.1942C45.1114 32.2247 43.8028 32.5496 42.6112 33.1455C41.4197 33.7415 40.3748 34.5937 39.5515 35.6412V31.7309H31.7309V55.1926ZM20 31.7309V55.1926H27.8206V31.7309H20ZM21.1453 26.6753C21.8786 27.4086 22.8732 27.8206 23.9103 27.8206C24.9474 27.8206 25.942 27.4086 26.6753 26.6753C27.4086 25.942 27.8206 24.9474 27.8206 23.9103C27.8206 22.8732 27.4086 21.8786 26.6753 21.1453C25.942 20.412 24.9474 20 23.9103 20C22.8732 20 21.8786 20.412 21.1453 21.1453C20.412 21.8786 20 22.8732 20 23.9103C20 24.9474 20.412 25.942 21.1453 26.6753Z" fill="#41EAD4"/>
<path d="M39.5515 55.1926V58.2748H42.6337V55.1926H39.5515ZM31.7309 55.1926H28.6487V58.2748H31.7309V55.1926ZM39.5515 41.9954H42.6337V41.8849L42.6257 41.7748L39.5515 41.9954ZM39.7351 40.5879L42.6499 41.5898L42.6499 41.5898L39.7351 40.5879ZM40.4556 39.365L38.1666 37.3009L38.1666 37.3009L40.4556 39.365ZM41.5978 38.5223L42.8947 41.3183L42.8947 41.3183L41.5978 38.5223ZM42.9788 38.1946L42.9722 35.1124L42.9268 35.1125L42.8815 35.1139L42.9788 38.1946ZM45.8857 39.274L43.8691 41.6049L43.8691 41.6049L45.8857 39.274ZM47.372 41.9954H50.4542V41.7759L50.4231 41.5586L47.372 41.9954ZM47.372 55.1926H44.2898V58.2748H47.372V55.1926ZM55.1926 55.1926V58.2748H58.2748V55.1926H55.1926ZM55.1926 41.0178L52.1104 41.0089V41.0178H55.1926ZM52.642 34.7974L50.4534 36.9676L52.642 34.7974ZM46.4433 32.1942L46.4605 29.1121L46.4166 29.1119L46.3728 29.1129L46.4433 32.1942ZM42.6112 33.1455L41.2325 30.3889L41.2325 30.3889L42.6112 33.1455ZM39.5515 35.6412H36.4693V44.55L41.9747 37.5459L39.5515 35.6412ZM39.5515 31.7309H42.6337V28.6487H39.5515V31.7309ZM31.7309 31.7309V28.6487H28.6487V31.7309H31.7309ZM20 55.1926H16.9178V58.2748H20V55.1926ZM20 31.7309V28.6487H16.9178V31.7309H20ZM27.8206 55.1926V58.2748H30.9028V55.1926H27.8206ZM27.8206 31.7309H30.9028V28.6487H27.8206V31.7309ZM3.08219 10C3.08219 6.1794 6.1794 3.08219 10 3.08219V-3.08219C2.77491 -3.08219 -3.08219 2.7749 -3.08219 10H3.08219ZM3.08219 65V10H-3.08219V65H3.08219ZM10 71.9178C6.1794 71.9178 3.08219 68.8206 3.08219 65H-3.08219C-3.08219 72.2251 2.7749 78.0822 10 78.0822V71.9178ZM65 71.9178H10V78.0822H65V71.9178ZM71.9178 65C71.9178 68.8206 68.8206 71.9178 65 71.9178V78.0822C72.2251 78.0822 78.0822 72.2251 78.0822 65H71.9178ZM71.9178 10V65H78.0822V10H71.9178ZM65 3.08219C68.8206 3.08219 71.9178 6.1794 71.9178 10H78.0822C78.0822 2.77491 72.2251 -3.08219 65 -3.08219V3.08219ZM10 3.08219H65V-3.08219H10V3.08219ZM39.5515 52.1104H31.7309V58.2748H39.5515V52.1104ZM36.4693 41.9954V55.1926H42.6337V41.9954H36.4693ZM36.8203 39.586C36.5299 40.4306 36.4132 41.3252 36.4772 42.216L42.6257 41.7748C42.6213 41.7121 42.6295 41.6492 42.6499 41.5898L36.8203 39.586ZM38.1666 37.3009C37.5685 37.9642 37.1106 38.7414 36.8203 39.586L42.6499 41.5898C42.6703 41.5304 42.7025 41.4757 42.7446 41.4291L38.1666 37.3009ZM40.3008 35.7262C39.4906 36.102 38.7647 36.6376 38.1666 37.3009L42.7446 41.4291C42.7866 41.3824 42.8377 41.3447 42.8947 41.3183L40.3008 35.7262ZM42.8815 35.1139C41.9888 35.1421 41.111 35.3504 40.3008 35.7262L42.8947 41.3183C42.9517 41.2919 43.0134 41.2772 43.0762 41.2752L42.8815 35.1139ZM47.9023 36.9431C46.5333 35.7586 44.7825 35.1085 42.9722 35.1124L42.9854 41.2768C43.3099 41.2761 43.6237 41.3926 43.8691 41.6049L47.9023 36.9431ZM50.4231 41.5586C50.1666 39.7666 49.2714 38.1275 47.9023 36.943L43.8691 41.6049C44.1145 41.8172 44.275 42.111 44.321 42.4322L50.4231 41.5586ZM50.4542 55.1926V41.9954H44.2898V55.1926H50.4542ZM55.1926 52.1104H47.372V58.2748H55.1926V52.1104ZM52.1104 41.0178V55.1926H58.2748V41.0178H52.1104ZM50.4534 36.9676C51.5189 38.0422 52.1148 39.4955 52.1104 41.0089L58.2748 41.0268C58.2839 37.8814 57.0453 34.8607 54.8306 32.6272L50.4534 36.9676ZM46.4262 35.2764C47.9396 35.2848 49.3878 35.893 50.4534 36.9676L54.8306 32.6272C52.6159 30.3937 49.6058 29.1296 46.4605 29.1121L46.4262 35.2764ZM43.9899 35.9022C44.7747 35.5097 45.6366 35.2957 46.5139 35.2756L46.3728 29.1129C44.5862 29.1538 42.8308 29.5895 41.2325 30.3889L43.9899 35.9022ZM41.9747 37.5459C42.5169 36.856 43.2051 36.2947 43.9899 35.9022L41.2325 30.3889C39.6342 31.1883 38.2326 32.3315 37.1282 33.7365L41.9747 37.5459ZM36.4693 31.7309V35.6412H42.6337V31.7309H36.4693ZM31.7309 34.8131H39.5515V28.6487H31.7309V34.8131ZM34.8131 55.1926V31.7309H28.6487V55.1926H34.8131ZM23.0822 55.1926V31.7309H16.9178V55.1926H23.0822ZM27.8206 52.1104H20V58.2748H27.8206V52.1104ZM24.7384 31.7309V55.1926H30.9028V31.7309H24.7384ZM20 34.8131H27.8206V28.6487H20V34.8131ZM23.9103 24.7384C23.6907 24.7384 23.48 24.6511 23.3247 24.4958L18.9659 28.8547C20.2772 30.1661 22.0558 30.9028 23.9103 30.9028V24.7384ZM24.4958 24.4958C24.3405 24.6511 24.1299 24.7384 23.9103 24.7384V30.9028C25.7648 30.9028 27.5434 30.1661 28.8547 28.8547L24.4958 24.4958ZM24.7384 23.9103C24.7384 24.1299 24.6511 24.3405 24.4958 24.4958L28.8547 28.8547C30.1661 27.5434 30.9028 25.7648 30.9028 23.9103H24.7384ZM24.4958 23.3247C24.6511 23.48 24.7384 23.6907 24.7384 23.9103H30.9028C30.9028 22.0558 30.1661 20.2772 28.8547 18.9659L24.4958 23.3247ZM23.9103 23.0822C24.1299 23.0822 24.3405 23.1694 24.4958 23.3247L28.8547 18.9659C27.5434 17.6545 25.7648 16.9178 23.9103 16.9178V23.0822ZM23.3247 23.3247C23.48 23.1694 23.6907 23.0822 23.9103 23.0822V16.9178C22.0558 16.9178 20.2772 17.6545 18.9659 18.9659L23.3247 23.3247ZM23.0822 23.9103C23.0822 23.6907 23.1694 23.48 23.3247 23.3247L18.9659 18.9659C17.6545 20.2772 16.9178 22.0558 16.9178 23.9103H23.0822ZM23.3247 24.4958C23.1694 24.3405 23.0822 24.1299 23.0822 23.9103H16.9178C16.9178 25.7648 17.6545 27.5434 18.9659 28.8547L23.3247 24.4958Z" fill="#41EAD4" mask="url(#path-1-inside-1_2828_10911)"/>
</svg>
