<svg width="53" height="52" viewBox="0 0 53 52" fill="none" xmlns="http://www.w3.org/2000/svg">
<rect x="2.00954" y="1.04958" width="48.9806" height="48.9806" rx="5.76105" stroke="white" stroke-width="2.09917"/>
<path d="M27.8968 37.5895H22.5705V21.6106H27.8968V24.2737C28.4576 23.5603 29.1692 22.9799 29.9807 22.574C30.7922 22.1682 31.6835 21.9469 32.5906 21.9261C34.1771 21.935 35.6953 22.5725 36.8123 23.699C37.9293 24.8256 38.5541 26.3491 38.5495 27.9356V37.5895H33.2231V28.6013C33.1201 27.8817 32.7606 27.2235 32.2109 26.7479C31.6611 26.2723 30.958 26.0112 30.2311 26.0128C29.9057 26.023 29.5858 26.0989 29.2905 26.2359C28.9952 26.3729 28.7306 26.5681 28.5126 26.8099C28.2946 27.0516 28.1277 27.3349 28.0219 27.6428C27.9161 27.9506 27.8735 28.2767 27.8968 28.6013V37.5895ZM19.9074 37.5895H14.5811V21.6106H19.9074V37.5895ZM17.2442 18.9474C16.5379 18.9474 15.8605 18.6668 15.3611 18.1674C14.8616 17.6679 14.5811 16.9906 14.5811 16.2842C14.5811 15.5779 14.8616 14.9006 15.3611 14.4011C15.8605 13.9017 16.5379 13.6211 17.2442 13.6211C17.9505 13.6211 18.6279 13.9017 19.1273 14.4011C19.6268 14.9006 19.9074 15.5779 19.9074 16.2842C19.9074 16.9906 19.6268 17.6679 19.1273 18.1674C18.6279 18.6668 17.9505 18.9474 17.2442 18.9474Z" fill="white"/>
</svg>