<svg width="220" height="37" viewBox="0 0 220 37" fill="none" xmlns="http://www.w3.org/2000/svg">
<path d="M42.9336 36.4254C41.1055 36.4254 39.6887 36.075 38.6832 35.3741C37.7082 34.6732 37.0227 33.6676 36.6266 32.3573C36.2609 31.0165 36.0781 29.4167 36.0781 27.5579V14.348H44.3048V26.3695C44.3048 27.4969 44.518 28.3806 44.9446 29.0206C45.4016 29.6605 46.072 29.9805 46.9556 29.9805C47.7782 29.9805 48.5247 29.63 49.195 28.9291C49.8958 28.2283 50.2462 27.2074 50.2462 25.8667V14.348H58.4728V28.6092L59.4326 33.1801L58.4728 35.9683H50.7489V33.7286L50.2919 33.5C49.8958 33.8962 49.3169 34.3228 48.5552 34.7799C47.8239 35.237 46.9708 35.6331 45.9958 35.9683C45.0512 36.273 44.0305 36.4254 42.9336 36.4254Z" fill="white"/>
<path d="M70.6717 36.4254C69.3616 36.4254 68.1428 36.2426 67.0155 35.8769C65.9186 35.4807 65.035 34.8104 64.3646 33.8657C63.6943 32.9211 63.3592 31.6107 63.3592 29.9347C63.3592 28.4111 63.74 27.1465 64.5018 26.1409C65.2635 25.1353 66.2994 24.3887 67.6096 23.9012C68.9198 23.4136 70.3975 23.1698 72.0428 23.1698C73.6272 23.1698 74.8155 23.3527 75.6077 23.7183C76.3999 24.0535 77.0854 24.404 77.6644 24.7696L77.9843 24.4954C77.9843 23.5812 77.9081 22.8194 77.7558 22.2099C77.6034 21.6005 77.253 21.1434 76.7046 20.8387C76.1561 20.5035 75.303 20.3359 74.1452 20.3359C73.0178 20.3359 71.8143 20.4425 70.5346 20.6558C69.2854 20.8387 68.1276 21.0825 67.0612 21.3872C66.0252 21.6614 65.2482 21.9357 64.7303 22.2099V15.3536C65.6748 15.0184 67.0154 14.7137 68.7522 14.4394C70.5194 14.1347 72.6827 13.9824 75.2421 13.9824C77.9843 13.9824 80.1476 14.3328 81.732 15.0337C83.3468 15.7041 84.5047 16.6944 85.2054 18.0047C85.9062 19.2846 86.2566 20.8234 86.2566 22.6213V28.7006L87.1707 33.3172L86.2566 36.014H78.4413V33.7743L77.9843 33.5457C77.7405 33.7895 77.314 34.14 76.7046 34.597C76.0952 35.0541 75.2878 35.4807 74.2823 35.8769C73.2768 36.2426 72.0733 36.4254 70.6717 36.4254ZM74.5565 30.4375C75.3792 30.4375 76.08 30.3614 76.6589 30.209C77.2683 30.0566 77.7101 29.9195 77.9843 29.7976V28.9291C77.9843 28.533 77.6948 28.1521 77.1159 27.7864C76.5675 27.4208 75.6991 27.2379 74.5108 27.2379C72.8655 27.2379 72.0428 27.8169 72.0428 28.9749C72.0428 29.4624 72.2256 29.8281 72.5913 30.0719C72.9569 30.3156 73.612 30.4375 74.5565 30.4375Z" fill="white"/>
<path d="M92.6926 35.9683L92.6469 10.9199L91.7328 6.34898L92.6926 3.60645H100.919V35.9683H92.6926Z" fill="white"/>
<path fill-rule="evenodd" clip-rule="evenodd" d="M113.979 10.2575V32.2041H126.002C127.885 32.2041 129.714 32.0035 131.489 31.6023C132.295 31.4228 133.064 31.1789 133.795 30.8709C133.17 31.7465 132.448 32.4846 131.627 33.0853C130.201 34.1285 128.587 34.8507 126.785 35.2519C125.01 35.6531 123.181 35.8537 121.298 35.8537H109.276V13.9071L108.469 9.8949L109.276 7.44746H113.414L113.979 10.2575ZM113.414 7.44746L113.172 6.24528L113.979 3.79785H126.002C127.938 3.79785 129.794 3.98509 131.57 4.35956C133.372 4.70728 134.972 5.37598 136.371 6.36565C137.796 7.35532 138.912 8.77296 139.719 10.6186C140.553 12.4642 140.97 14.8581 140.97 17.8004C140.97 20.7427 140.553 23.1633 139.719 25.0624C138.885 26.9348 137.756 28.3926 136.33 29.4357C135.543 30.0121 134.698 30.4905 133.795 30.8709C134.255 30.2258 134.662 29.5063 135.016 28.7121C135.849 26.813 136.266 24.3923 136.266 21.45C136.266 18.5077 135.849 16.1138 135.016 14.2682C134.209 12.4226 133.093 11.0049 131.667 10.0153C130.268 9.02559 128.668 8.35689 126.866 8.00917C125.091 7.6347 123.235 7.44746 121.298 7.44746H113.414ZM126.002 25.7846H121.322V13.867C123.65 13.8707 125.445 14.4324 126.705 15.5521C127.996 16.6487 128.641 18.6147 128.641 21.45C128.641 23.1092 128.425 24.4982 127.992 25.617C127.379 25.7288 126.715 25.7846 126.002 25.7846ZM127.992 25.617C129.413 25.3579 130.565 24.7986 131.448 23.939C132.713 22.6819 133.345 20.6357 133.345 17.8004C133.345 14.9651 132.699 12.9991 131.408 11.9025C130.144 10.7791 128.342 10.2173 126.002 10.2173H121.322V13.867C121.314 13.867 121.306 13.867 121.298 13.867H116.618V29.4342H121.298C123.665 29.4342 125.481 28.819 126.745 27.5886C127.269 27.0672 127.685 26.41 127.992 25.617Z" fill="white"/>
<path d="M1.88477 35.9673V10.9646L0.970703 6.39371L1.88477 3.60547H15.5044C17.6982 3.60547 19.8005 3.81878 21.8115 4.24539C23.8529 4.64153 25.6658 5.40335 27.2502 6.53083C28.8651 7.65832 30.1295 9.27336 31.0436 11.376C31.9881 13.4786 32.4604 16.2059 32.4604 19.5579C32.4604 22.9098 31.9881 25.6676 31.0436 27.8312C30.0991 29.9642 28.8194 31.625 27.2045 32.8134C25.5896 34.0019 23.7615 34.8246 21.7201 35.2817C19.7091 35.7388 17.6372 35.9673 15.5044 35.9673H1.88477ZM10.2028 28.6539H15.5044C18.1857 28.6539 20.2423 27.953 21.6744 26.5513C23.1064 25.1191 23.8224 22.7879 23.8224 19.5579C23.8224 16.3278 23.0912 14.088 21.6287 12.8387C20.1966 11.5588 18.1552 10.9189 15.5044 10.9189H10.2028V28.6539Z" fill="white"/>
<path d="M158.089 36.4241C155.987 36.4241 154.082 36.0737 152.376 35.3728C150.7 34.6719 149.36 33.4987 148.354 31.8532C147.379 30.2077 146.892 27.9832 146.892 25.1797C146.892 22.3458 147.425 20.1213 148.491 18.5062C149.558 16.8607 150.944 15.6875 152.65 14.9867C154.357 14.2858 156.169 13.9354 158.089 13.9354C159.765 13.9354 161.197 13.9963 162.385 14.1182C163.604 14.2401 164.411 14.3467 164.807 14.4382L168.372 18.4605L164.716 23.4428L159.46 20.3346C156.84 20.3346 155.53 21.9496 155.53 25.1797C155.53 26.8557 155.926 28.0899 156.718 28.8822C157.51 29.644 158.729 30.0249 160.374 30.0249C162.019 30.0249 163.497 29.7963 164.807 29.3392C166.118 28.8822 167.138 28.4555 167.87 28.0594V34.6415C166.925 35.129 165.676 35.5556 164.122 35.9213C162.598 36.2565 160.587 36.4241 158.089 36.4241Z" fill="white"/>
<path d="M172.995 35.967L172.95 10.9186L172.036 6.34769L172.995 3.60516H181.222V35.967H172.995Z" fill="white"/>
<path d="M209.639 36.4241C207.537 36.4241 205.633 36.0737 203.926 35.3728C202.251 34.6719 200.91 33.4987 199.904 31.8532C198.929 30.2077 198.442 27.9832 198.442 25.1797C198.442 22.3458 198.975 20.1213 200.042 18.5062C201.108 16.8607 202.494 15.6875 204.201 14.9867C205.907 14.2858 207.72 13.9354 209.639 13.9354C211.315 13.9354 212.747 13.9963 213.935 14.1182C215.154 14.2401 215.962 14.3467 216.358 14.4382L219.923 18.4605L216.266 23.4428L211.01 20.3346C208.39 20.3346 207.08 21.9496 207.08 25.1797C207.08 26.8557 207.476 28.0899 208.268 28.8822C209.06 29.644 210.279 30.0249 211.924 30.0249C213.57 30.0249 215.048 29.7963 216.358 29.3392C217.668 28.8822 218.689 28.4555 219.42 28.0594V34.6415C218.475 35.129 217.226 35.5556 215.672 35.9213C214.149 36.2565 212.138 36.4241 209.639 36.4241Z" fill="white"/>
<path fill-rule="evenodd" clip-rule="evenodd" d="M186.696 20.8374V35.967H194.923V14.3924H186.651L185.737 17.1807L186.696 20.8374Z" fill="white"/>
<path fill-rule="evenodd" clip-rule="evenodd" d="M189.395 2.82604C189.391 2.8297 189.388 2.83338 189.384 2.83708L189.395 2.82604ZM189.378 11.6241C189.382 11.6278 189.386 11.6316 189.39 11.6353L189.378 11.6241Z" fill="white"/>
<g filter="url(#filter0_i_0_1)">
<path d="M193.055 3.65076L188.538 3.65577C187.342 3.6571 186.37 4.62371 186.359 5.81824L186.354 10.3692C186.362 11.5547 187.318 12.5142 188.503 12.5266L193.072 12.5394C193.217 12.5387 193.359 12.5238 193.496 12.496C194.494 12.2937 195.246 11.4094 195.243 10.3515L195.23 5.81676C195.227 4.61781 194.254 3.64943 193.055 3.65076Z" fill="#41EAD4"/>
</g>
<defs>
<filter id="filter0_i_0_1" x="185.909" y="3.65088" width="9.33389" height="10.2243" filterUnits="userSpaceOnUse" color-interpolation-filters="sRGB">
<feFlood flood-opacity="0" result="BackgroundImageFix"/>
<feBlend mode="normal" in="SourceGraphic" in2="BackgroundImageFix" result="shape"/>
<feColorMatrix in="SourceAlpha" type="matrix" values="0 0 0 0 0 0 0 0 0 0 0 0 0 0 0 0 0 0 127 0" result="hardAlpha"/>
<feOffset dx="-0.445221" dy="1.78088"/>
<feGaussianBlur stdDeviation="0.667831"/>
<feComposite in2="hardAlpha" operator="arithmetic" k2="-1" k3="1"/>
<feColorMatrix type="matrix" values="0 0 0 0 0 0 0 0 0 0 0 0 0 0 0 0 0 0 0.3 0"/>
<feBlend mode="normal" in2="shape" result="effect1_innerShadow_0_1"/>
</filter>
</defs>
</svg>