<svg width="274" height="93" viewBox="0 0 274 93" fill="none" xmlns="http://www.w3.org/2000/svg">
<g filter="url(#filter0_i_3123_2408)">
<path d="M53.5336 64.1949C51.2861 64.1949 49.5443 63.764 48.3081 62.9024C47.1095 62.0408 46.2667 60.8045 45.7797 59.1936C45.3302 57.5453 45.1055 55.5785 45.1055 53.2933V37.0532H55.2192V51.8322C55.2192 53.2183 55.4814 54.3047 56.0058 55.0915C56.5677 55.8782 57.3918 56.2715 58.478 56.2715C59.4894 56.2715 60.4071 55.8407 61.2312 54.9791C62.0928 54.1174 62.5235 52.8624 62.5235 51.2141V37.0532H72.6372V54.5857L73.8172 60.2051L72.6372 63.6329H63.1416V60.8794L62.5797 60.5985C62.0928 61.0855 61.381 61.6099 60.4446 62.1719C59.5456 62.7338 58.4968 63.2208 57.2981 63.6329C56.1369 64.0076 54.8821 64.1949 53.5336 64.1949Z" fill="white"/>
<path d="M87.6344 64.1949C86.0237 64.1949 84.5254 63.9701 83.1394 63.5205C81.7909 63.0335 80.7046 62.2094 79.8806 61.048C79.0565 59.8867 78.6444 58.2758 78.6444 56.2153C78.6444 54.3422 79.1127 52.7875 80.0491 51.5512C80.9856 50.315 82.2592 49.3971 83.8699 48.7977C85.4806 48.1983 87.2973 47.8986 89.32 47.8986C91.2678 47.8986 92.7287 48.1234 93.7026 48.573C94.6765 48.9851 95.5194 49.4159 96.2311 49.8654L96.6244 49.5283C96.6244 48.4044 96.5307 47.4678 96.3434 46.7186C96.1561 45.9693 95.7254 45.4074 95.0511 45.0328C94.3769 44.6207 93.328 44.4146 91.9046 44.4146C90.5187 44.4146 89.0391 44.5457 87.4658 44.808C85.9301 45.0328 84.5066 45.3325 83.1956 45.7071C81.922 46.0442 80.9668 46.3814 80.3301 46.7186V38.2895C81.4913 37.8774 83.1394 37.5028 85.2745 37.1656C87.4471 36.791 90.1067 36.6037 93.2531 36.6037C96.6244 36.6037 99.2839 37.0345 101.232 37.8961C103.217 38.7203 104.64 39.9378 105.502 41.5487C106.364 43.1222 106.794 45.014 106.794 47.2243V54.6981L107.918 60.3737L106.794 63.6891H97.1862V60.9356L96.6244 60.6546C96.3247 60.9543 95.8003 61.3852 95.0511 61.9471C94.302 62.5091 93.3093 63.0335 92.0732 63.5205C90.8371 63.9701 89.3575 64.1949 87.6344 64.1949ZM92.4103 56.8335C93.4217 56.8335 94.2832 56.7398 94.9949 56.5525C95.7441 56.3652 96.2873 56.1966 96.6244 56.0468V54.9791C96.6244 54.4921 96.2685 54.0238 95.5568 53.5742C94.8826 53.1247 93.815 52.8999 92.3541 52.8999C90.3314 52.8999 89.32 53.6117 89.32 55.0353C89.32 55.6347 89.5448 56.0842 89.9943 56.3839C90.4438 56.6836 91.2491 56.8335 92.4103 56.8335Z" fill="white"/>
<path d="M114.707 63.6329L114.65 32.8387L113.527 27.2193L114.707 23.8477H124.82V63.6329H114.707Z" fill="white"/>
</g>
<g filter="url(#filter1_i_3123_2408)">
<path d="M7.65226 76.0063H4.61191V85.8008H7.65226C9.31355 85.8008 10.6188 85.3647 11.5682 84.4923C12.5175 83.62 12.9921 82.427 12.9921 80.9132C12.9921 79.393 12.5175 78.1968 11.5682 77.3244C10.6188 76.4457 9.31355 76.0063 7.65226 76.0063ZM7.65226 74.1686C8.64647 74.1686 9.49956 74.2616 10.2115 74.4476C10.9299 74.6336 11.5874 74.9287 12.1839 75.3328C13.0947 75.9486 13.7971 76.7407 14.291 77.7093C14.7913 78.6714 15.0415 79.733 15.0415 80.894C15.0415 82.0549 14.7913 83.1229 14.291 84.0979C13.7907 85.0664 13.0883 85.8554 12.1839 86.4647C11.6002 86.8688 10.946 87.1639 10.2212 87.3499C9.49635 87.5359 8.64005 87.6289 7.65226 87.6289H2.70688V74.1686H7.65226ZM25.7828 86.686C25.1926 87.0645 24.5833 87.3499 23.9547 87.5423C23.3325 87.7283 22.6879 87.8213 22.0208 87.8213C20.6161 87.8213 19.4936 87.3884 18.6533 86.5224C17.8195 85.6501 17.4025 84.4891 17.4025 83.0395C17.4025 81.7118 17.8034 80.6342 18.6052 79.8067C19.4134 78.9793 20.4654 78.5656 21.761 78.5656C23.0439 78.5656 24.0605 78.9857 24.811 79.826C25.5615 80.6662 25.9367 81.8016 25.9367 83.2319V83.4917H19.2787C19.33 84.332 19.6058 84.9894 20.1062 85.4641C20.6065 85.9323 21.2768 86.1665 22.117 86.1665C22.6815 86.1665 23.2684 86.0638 23.8777 85.8586C24.4935 85.6469 25.1285 85.3294 25.7828 84.9061V86.686ZM19.2787 82.2313H23.9836C23.9258 81.5835 23.6917 81.0639 23.2812 80.6727C22.8707 80.2814 22.3576 80.0858 21.7418 80.0858C21.0619 80.0858 20.5135 80.2686 20.0965 80.6342C19.6796 80.9934 19.407 81.5258 19.2787 82.2313ZM28.0091 87.0228V85.1274C28.5415 85.4801 29.0547 85.7495 29.5486 85.9355C30.0425 86.1216 30.4947 86.2146 30.9052 86.2146C31.3606 86.2146 31.7166 86.1312 31.9731 85.9644C32.2361 85.7912 32.3676 85.5571 32.3676 85.2621C32.3676 84.89 31.8833 84.4635 30.9148 83.9824C30.6326 83.8413 30.4145 83.729 30.2605 83.6457C29.4331 83.2223 28.8654 82.815 28.5576 82.4237C28.2497 82.0261 28.0957 81.5418 28.0957 80.9709C28.0957 80.2269 28.3619 79.6368 28.8943 79.2006C29.4267 78.7644 30.1579 78.5463 31.088 78.5463C31.5883 78.5463 32.0694 78.6073 32.5312 78.7291C32.993 78.8446 33.4452 79.0274 33.8878 79.2776V81.0094C33.3426 80.7079 32.8423 80.4866 32.3869 80.3455C31.9379 80.198 31.5113 80.1242 31.1072 80.1242C30.7352 80.1242 30.4466 80.1884 30.2413 80.3167C30.0425 80.445 29.943 80.631 29.943 80.8747C29.943 81.3237 30.562 81.8529 31.8 82.4622L31.9635 82.5392C32.9321 83.0267 33.5639 83.4564 33.8589 83.8285C34.154 84.1941 34.3015 84.6591 34.3015 85.2236C34.3015 86.0061 34.0065 86.6315 33.4163 87.0997C32.8327 87.568 32.0565 87.8021 31.088 87.8021C30.5299 87.8021 29.9976 87.7379 29.4908 87.6097C28.9905 87.4814 28.4966 87.2857 28.0091 87.0228ZM36.9224 76.1218C36.9224 75.8395 37.0186 75.6022 37.211 75.4098C37.4034 75.2173 37.6408 75.1211 37.923 75.1211C38.2052 75.1211 38.4426 75.2173 38.635 75.4098C38.8274 75.6022 38.9236 75.8395 38.9236 76.1218C38.9236 76.404 38.8274 76.6413 38.635 76.8337C38.4426 77.0262 38.2052 77.1224 37.923 77.1224C37.6408 77.1224 37.4034 77.0262 37.211 76.8337C37.0186 76.6413 36.9224 76.404 36.9224 76.1218ZM37.0378 87.6289V78.7388H38.8082V87.6289H37.0378ZM42.6509 89.2838C42.6509 89.7199 42.869 90.0471 43.3052 90.2652C43.7414 90.4897 44.3828 90.6019 45.2295 90.6019C46.0569 90.6019 46.7047 90.4929 47.173 90.2748C47.6412 90.0567 47.8753 89.7584 47.8753 89.38C47.8753 88.9631 47.6091 88.6488 47.0768 88.4371C46.5508 88.2254 45.7586 88.1196 44.7003 88.1196C44.0973 88.1196 43.6034 88.2286 43.2186 88.4467C42.8402 88.6712 42.6509 88.9502 42.6509 89.2838ZM43.6997 84.7906C43.0326 84.5853 42.5226 84.2454 42.1699 83.7707C41.8235 83.2961 41.6503 82.7092 41.6503 82.01C41.6503 80.9324 42.0223 80.1178 42.7664 79.5662C43.5104 79.0146 44.6137 78.7388 46.0761 78.7388H49.6072V80.182H48.1062C48.35 80.445 48.5296 80.724 48.645 81.019C48.7605 81.3077 48.8182 81.6316 48.8182 81.9908C48.8182 82.7348 48.5905 83.3698 48.1351 83.8958C47.6861 84.4218 47.08 84.7521 46.3167 84.8868C46.1499 84.9189 45.9254 84.9574 45.6432 85.0023C44.6875 85.1498 44.2096 85.3935 44.2096 85.7335C44.2096 86.0735 44.8927 86.3781 46.2589 86.6475C46.5925 86.7117 46.8555 86.763 47.0479 86.8015C47.9074 86.9811 48.5585 87.2825 49.001 87.7059C49.4436 88.1292 49.6649 88.668 49.6649 89.3223C49.6649 90.2267 49.2865 90.9162 48.5296 91.3909C47.7791 91.8655 46.6855 92.1028 45.2487 92.1028C43.844 92.1028 42.7696 91.8719 42.0255 91.4101C41.2879 90.9547 40.9191 90.2908 40.9191 89.4185C40.9191 88.7963 41.134 88.2832 41.5637 87.8791C41.9999 87.475 42.6381 87.1959 43.4784 87.042C43.1384 86.8881 42.8883 86.7245 42.7279 86.5513C42.574 86.3717 42.497 86.1729 42.497 85.9548C42.497 85.7239 42.5932 85.5154 42.7856 85.3294C42.9781 85.1434 43.2827 84.9638 43.6997 84.7906ZM45.2487 80.2397C44.7035 80.2397 44.2577 80.4001 43.9113 80.7208C43.5714 81.0351 43.4014 81.4392 43.4014 81.9331C43.4014 82.4526 43.565 82.8599 43.8921 83.155C44.2192 83.4436 44.6714 83.5879 45.2487 83.5879C45.8324 83.5879 46.2942 83.4404 46.6342 83.1454C46.9741 82.8503 47.1441 82.4462 47.1441 81.9331C47.1441 81.4392 46.9645 81.0351 46.6053 80.7208C46.2525 80.4001 45.8003 80.2397 45.2487 80.2397ZM51.9202 87.6289V78.7388H53.6905V79.826C54.1331 79.4026 54.5724 79.0948 55.0086 78.9023C55.4512 78.7035 55.9259 78.6041 56.4326 78.6041C57.3947 78.6041 58.1516 78.8831 58.7032 79.4411C59.2613 79.9992 59.5403 80.7657 59.5403 81.7406V87.6289H57.7699V82.1928C57.7699 81.4744 57.616 80.9453 57.3081 80.6053C57.0067 80.2589 56.5352 80.0858 55.8938 80.0858C55.4384 80.0858 55.0375 80.1756 54.6911 80.3552C54.3512 80.5283 54.0176 80.817 53.6905 81.2211V87.6289H51.9202ZM71.3823 87.8021L67.4471 78.7388H69.3137L71.8537 84.6367L74.2975 78.7388H75.4617L77.944 84.6174L80.4841 78.7388H82.3602L78.3962 87.8021H77.5303L74.8941 81.3654L72.2482 87.8021H71.3823ZM92.2164 86.686C91.6263 87.0645 91.0169 87.3499 90.3883 87.5423C89.7661 87.7283 89.1215 87.8213 88.4544 87.8213C87.0497 87.8213 85.9272 87.3884 85.0869 86.5224C84.2531 85.6501 83.8362 84.4891 83.8362 83.0395C83.8362 81.7118 84.237 80.6342 85.0388 79.8067C85.847 78.9793 86.899 78.5656 88.1946 78.5656C89.4775 78.5656 90.4941 78.9857 91.2446 79.826C91.9951 80.6662 92.3703 81.8016 92.3703 83.2319V83.4917H85.7123C85.7636 84.332 86.0394 84.9894 86.5398 85.4641C87.0401 85.9323 87.7104 86.1665 88.5506 86.1665C89.1151 86.1665 89.702 86.0638 90.3113 85.8586C90.9271 85.6469 91.5621 85.3294 92.2164 84.9061V86.686ZM85.7123 82.2313H90.4172C90.3594 81.5835 90.1253 81.0639 89.7148 80.6727C89.3043 80.2814 88.7912 80.0858 88.1754 80.0858C87.4955 80.0858 86.9471 80.2686 86.5301 80.6342C86.1132 80.9934 85.8406 81.5258 85.7123 82.2313ZM96.8481 85.8393C97.1688 85.9548 97.4767 86.0414 97.7717 86.0991C98.0668 86.1568 98.3586 86.1857 98.6473 86.1857C99.5838 86.1857 100.309 85.9259 100.822 85.4064C101.341 84.8868 101.601 84.1492 101.601 83.1935C101.601 82.2634 101.351 81.529 100.851 80.9902C100.35 80.4514 99.6736 80.182 98.8205 80.182C98.4805 80.182 98.147 80.2365 97.8198 80.3455C97.4991 80.4546 97.1752 80.6213 96.8481 80.8458V85.8393ZM95.0585 87.2152V74.1686H96.8481V79.2391C97.1816 79.0017 97.5376 78.8286 97.9161 78.7195C98.3009 78.6041 98.7275 78.5463 99.1957 78.5463C100.491 78.5463 101.53 78.9697 102.313 79.8164C103.096 80.6566 103.487 81.7759 103.487 83.1742C103.487 84.6559 103.047 85.8008 102.169 86.609C101.29 87.4172 100.049 87.8213 98.4452 87.8213C97.9064 87.8213 97.358 87.77 96.8 87.6674C96.2484 87.5712 95.6679 87.4204 95.0585 87.2152ZM118.437 84.3576L116.175 81.654C115.239 82.2185 114.578 82.706 114.193 83.1165C113.815 83.527 113.626 83.9407 113.626 84.3576C113.626 84.8451 113.793 85.2364 114.126 85.5314C114.46 85.8265 114.905 85.974 115.464 85.974C115.874 85.974 116.313 85.849 116.782 85.5988C117.25 85.3422 117.801 84.9285 118.437 84.3576ZM116.685 79.4315C117.378 78.9697 117.869 78.5528 118.157 78.1807C118.446 77.8023 118.59 77.3982 118.59 76.9684C118.59 76.5387 118.437 76.1859 118.129 75.9101C117.821 75.6279 117.423 75.4867 116.936 75.4867C116.474 75.4867 116.086 75.6279 115.771 75.9101C115.457 76.1923 115.3 76.5387 115.3 76.9492C115.3 77.2699 115.419 77.6483 115.656 78.0845C115.9 78.5143 116.243 78.9633 116.685 79.4315ZM123.719 87.6289H121.217L119.601 85.695C118.927 86.4455 118.241 86.9971 117.542 87.3499C116.849 87.6963 116.102 87.8694 115.3 87.8694C114.184 87.8694 113.289 87.5583 112.616 86.9362C111.948 86.314 111.615 85.493 111.615 84.4731C111.615 83.7098 111.875 83.0107 112.394 82.3756C112.92 81.7406 113.793 81.0735 115.011 80.3744C114.466 79.8356 114.065 79.3032 113.809 78.7773C113.558 78.2449 113.433 77.6868 113.433 77.1031C113.433 76.1538 113.751 75.3905 114.386 74.8132C115.021 74.2296 115.858 73.9377 116.897 73.9377C117.936 73.9377 118.773 74.2167 119.408 74.7748C120.05 75.3328 120.37 76.0576 120.37 76.9492C120.37 77.6868 120.168 78.3507 119.764 78.9408C119.367 79.5245 118.722 80.1018 117.83 80.6727L119.793 82.9625C120.05 82.6739 120.297 82.3436 120.534 81.9715C120.778 81.5995 121.018 81.173 121.256 80.6919H123.266C123.023 81.3654 122.712 82.01 122.333 82.6258C121.961 83.2351 121.522 83.8188 121.015 84.3769L123.719 87.6289ZM137.206 76.0063H134.166V85.8008H137.206C138.867 85.8008 140.172 85.3647 141.122 84.4923C142.071 83.62 142.546 82.427 142.546 80.9132C142.546 79.393 142.071 78.1968 141.122 77.3244C140.172 76.4457 138.867 76.0063 137.206 76.0063ZM137.206 74.1686C138.2 74.1686 139.053 74.2616 139.765 74.4476C140.484 74.6336 141.141 74.9287 141.738 75.3328C142.648 75.9486 143.351 76.7407 143.845 77.7093C144.345 78.6714 144.595 79.733 144.595 80.894C144.595 82.0549 144.345 83.1229 143.845 84.0979C143.344 85.0664 142.642 85.8554 141.738 86.4647C141.154 86.8688 140.5 87.1639 139.775 87.3499C139.05 87.5359 138.194 87.6289 137.206 87.6289H132.26V74.1686H137.206ZM155.336 86.686C154.746 87.0645 154.137 87.3499 153.508 87.5423C152.886 87.7283 152.241 87.8213 151.574 87.8213C150.17 87.8213 149.047 87.3884 148.207 86.5224C147.373 85.6501 146.956 84.4891 146.956 83.0395C146.956 81.7118 147.357 80.6342 148.159 79.8067C148.967 78.9793 150.019 78.5656 151.315 78.5656C152.597 78.5656 153.614 78.9857 154.365 79.826C155.115 80.6662 155.49 81.8016 155.49 83.2319V83.4917H148.832C148.884 84.332 149.159 84.9894 149.66 85.4641C150.16 85.9323 150.83 86.1665 151.671 86.1665C152.235 86.1665 152.822 86.0638 153.431 85.8586C154.047 85.6469 154.682 85.3294 155.336 84.9061V86.686ZM148.832 82.2313H153.537C153.479 81.5835 153.245 81.0639 152.835 80.6727C152.424 80.2814 151.911 80.0858 151.295 80.0858C150.615 80.0858 150.067 80.2686 149.65 80.6342C149.233 80.9934 148.961 81.5258 148.832 82.2313ZM149.9 77.4784L151.911 74.1301H153.624L150.92 77.4784H149.9ZM161.017 87.8021L156.735 78.7388H158.708L161.45 84.6367L164.009 78.7388H165.943L161.844 87.8021H161.017ZM175.684 86.686C175.094 87.0645 174.484 87.3499 173.856 87.5423C173.233 87.7283 172.589 87.8213 171.922 87.8213C170.517 87.8213 169.394 87.3884 168.554 86.5224C167.72 85.6501 167.303 84.4891 167.303 83.0395C167.303 81.7118 167.704 80.6342 168.506 79.8067C169.314 78.9793 170.366 78.5656 171.662 78.5656C172.945 78.5656 173.961 78.9857 174.712 79.826C175.462 80.6662 175.838 81.8016 175.838 83.2319V83.4917H169.18C169.231 84.332 169.507 84.9894 170.007 85.4641C170.507 85.9323 171.178 86.1665 172.018 86.1665C172.582 86.1665 173.169 86.0638 173.779 85.8586C174.394 85.6469 175.029 85.3294 175.684 84.9061V86.686ZM169.18 82.2313H173.884C173.827 81.5835 173.593 81.0639 173.182 80.6727C172.772 80.2814 172.258 80.0858 171.643 80.0858C170.963 80.0858 170.414 80.2686 169.997 80.6342C169.58 80.9934 169.308 81.5258 169.18 82.2313ZM178.545 87.6289V74.1686H180.315V87.6289H178.545ZM184.909 83.1742C184.909 84.0017 185.188 84.7072 185.746 85.2909C186.304 85.8746 186.977 86.1665 187.766 86.1665C188.549 86.1665 189.219 85.8746 189.777 85.2909C190.341 84.7008 190.624 83.9952 190.624 83.1742C190.624 82.3596 190.345 81.6605 189.787 81.0768C189.229 80.4931 188.555 80.2012 187.766 80.2012C186.977 80.2012 186.304 80.4931 185.746 81.0768C185.188 81.6605 184.909 82.3596 184.909 83.1742ZM183.052 83.1742C183.052 81.885 183.51 80.7913 184.428 79.8933C185.345 78.9953 186.464 78.5463 187.785 78.5463C188.408 78.5463 189.001 78.665 189.565 78.9023C190.136 79.1332 190.646 79.4668 191.095 79.903C191.551 80.3648 191.897 80.8715 192.134 81.4231C192.372 81.9748 192.49 82.5584 192.49 83.1742C192.49 83.7836 192.368 84.3769 192.125 84.9542C191.881 85.5314 191.538 86.035 191.095 86.4647C190.646 86.9073 190.139 87.2408 189.575 87.4653C189.017 87.6898 188.42 87.8021 187.785 87.8021C186.464 87.8021 185.345 87.3531 184.428 86.4551C183.51 85.5571 183.052 84.4635 183.052 83.1742ZM196.987 80.6919V85.6758C197.276 85.8874 197.568 86.0446 197.863 86.1472C198.164 86.2434 198.485 86.2915 198.825 86.2915C199.729 86.2915 200.441 86.0157 200.961 85.4641C201.48 84.9061 201.74 84.1428 201.74 83.1742C201.74 82.2121 201.48 81.4584 200.961 80.9132C200.441 80.3616 199.729 80.0858 198.825 80.0858C198.485 80.0858 198.164 80.1339 197.863 80.2301C197.568 80.3263 197.276 80.4802 196.987 80.6919ZM195.198 92.1028V78.7388H196.987V79.2391C197.321 79.0017 197.674 78.8286 198.046 78.7195C198.418 78.6041 198.828 78.5463 199.277 78.5463C200.56 78.5463 201.606 78.9761 202.414 79.8356C203.222 80.6951 203.626 81.808 203.626 83.1742C203.626 84.5404 203.222 85.6533 202.414 86.5128C201.606 87.3723 200.56 87.8021 199.277 87.8021C198.815 87.8021 198.398 87.7476 198.026 87.6385C197.661 87.5359 197.314 87.3691 196.987 87.1382V92.1028H195.198ZM208.171 80.6919V85.6758C208.46 85.8874 208.752 86.0446 209.047 86.1472C209.348 86.2434 209.669 86.2915 210.009 86.2915C210.913 86.2915 211.625 86.0157 212.145 85.4641C212.664 84.9061 212.924 84.1428 212.924 83.1742C212.924 82.2121 212.664 81.4584 212.145 80.9132C211.625 80.3616 210.913 80.0858 210.009 80.0858C209.669 80.0858 209.348 80.1339 209.047 80.2301C208.752 80.3263 208.46 80.4802 208.171 80.6919ZM206.382 92.1028V78.7388H208.171V79.2391C208.505 79.0017 208.857 78.8286 209.229 78.7195C209.601 78.6041 210.012 78.5463 210.461 78.5463C211.744 78.5463 212.789 78.9761 213.598 79.8356C214.406 80.6951 214.81 81.808 214.81 83.1742C214.81 84.5404 214.406 85.6533 213.598 86.5128C212.789 87.3723 211.744 87.8021 210.461 87.8021C209.999 87.8021 209.582 87.7476 209.21 87.6385C208.845 87.5359 208.498 87.3691 208.171 87.1382V92.1028H206.382ZM225.33 86.686C224.74 87.0645 224.13 87.3499 223.502 87.5423C222.88 87.7283 222.235 87.8213 221.568 87.8213C220.163 87.8213 219.041 87.3884 218.2 86.5224C217.367 85.6501 216.95 84.4891 216.95 83.0395C216.95 81.7118 217.351 80.6342 218.152 79.8067C218.961 78.9793 220.012 78.5656 221.308 78.5656C222.591 78.5656 223.608 78.9857 224.358 79.826C225.109 80.6662 225.484 81.8016 225.484 83.2319V83.4917H218.826C218.877 84.332 219.153 84.9894 219.653 85.4641C220.154 85.9323 220.824 86.1665 221.664 86.1665C222.229 86.1665 222.815 86.0638 223.425 85.8586C224.041 85.6469 224.676 85.3294 225.33 84.9061V86.686ZM218.826 82.2313H223.531C223.473 81.5835 223.239 81.0639 222.828 80.6727C222.418 80.2814 221.905 80.0858 221.289 80.0858C220.609 80.0858 220.061 80.2686 219.644 80.6342C219.227 80.9934 218.954 81.5258 218.826 82.2313ZM228.134 87.6289V78.7388H229.904V79.826C230.346 79.4026 230.786 79.0948 231.222 78.9023C231.665 78.7035 232.139 78.6041 232.646 78.6041C233.3 78.6041 233.845 78.7259 234.282 78.9697C234.724 79.207 235.096 79.5854 235.398 80.105C235.943 79.5662 236.453 79.1813 236.927 78.9504C237.409 78.7195 237.918 78.6041 238.457 78.6041C239.426 78.6041 240.189 78.8831 240.747 79.4411C241.312 79.9992 241.594 80.7657 241.594 81.7406V87.6289H239.795V82.1928C239.795 81.468 239.644 80.9356 239.342 80.5957C239.047 80.2557 238.582 80.0858 237.947 80.0858C237.479 80.0858 237.072 80.1756 236.725 80.3552C236.379 80.5283 236.042 80.817 235.715 81.2211V87.6289H233.983V82.1928C233.983 81.4744 233.829 80.9453 233.521 80.6053C233.22 80.2589 232.749 80.0858 232.107 80.0858C231.652 80.0858 231.251 80.1756 230.904 80.3552C230.565 80.5283 230.231 80.817 229.904 81.2211V87.6289H228.134ZM252.566 86.686C251.976 87.0645 251.367 87.3499 250.738 87.5423C250.116 87.7283 249.471 87.8213 248.804 87.8213C247.399 87.8213 246.277 87.3884 245.437 86.5224C244.603 85.6501 244.186 84.4891 244.186 83.0395C244.186 81.7118 244.587 80.6342 245.388 79.8067C246.197 78.9793 247.249 78.5656 248.544 78.5656C249.827 78.5656 250.844 78.9857 251.594 79.826C252.345 80.6662 252.72 81.8016 252.72 83.2319V83.4917H246.062C246.113 84.332 246.389 84.9894 246.889 85.4641C247.39 85.9323 248.06 86.1665 248.9 86.1665C249.465 86.1665 250.052 86.0638 250.661 85.8586C251.277 85.6469 251.912 85.3294 252.566 84.9061V86.686ZM246.062 82.2313H250.767C250.709 81.5835 250.475 81.0639 250.064 80.6727C249.654 80.2814 249.141 80.0858 248.525 80.0858C247.845 80.0858 247.297 80.2686 246.88 80.6342C246.463 80.9934 246.19 81.5258 246.062 82.2313ZM255.37 87.6289V78.7388H257.14V79.826C257.583 79.4026 258.022 79.0948 258.458 78.9023C258.901 78.7035 259.375 78.6041 259.882 78.6041C260.844 78.6041 261.601 78.8831 262.153 79.4411C262.711 79.9992 262.99 80.7657 262.99 81.7406V87.6289H261.219V82.1928C261.219 81.4744 261.066 80.9453 260.758 80.6053C260.456 80.2589 259.985 80.0858 259.343 80.0858C258.888 80.0858 258.487 80.1756 258.141 80.3552C257.801 80.5283 257.467 80.817 257.14 81.2211V87.6289H255.37ZM271.095 87.3499C270.819 87.5038 270.521 87.6161 270.2 87.6866C269.886 87.7636 269.546 87.8021 269.18 87.8021C268.18 87.8021 267.474 87.5648 267.063 87.0901C266.659 86.6155 266.457 85.7495 266.457 84.4923V80.2782H264.947V80.105L268.055 76.6702H268.257V78.7388H271.037V80.2782H268.257V84.3576C268.257 85.0953 268.346 85.5731 268.526 85.7912C268.712 86.0029 269.055 86.1087 269.555 86.1087C269.825 86.1087 270.088 86.0735 270.344 86.0029C270.601 85.9323 270.851 85.8233 271.095 85.6758V87.3499Z" fill="white"/>
</g>
<path fill-rule="evenodd" clip-rule="evenodd" d="M140.876 32.0244V59.0053H155.657C157.971 59.0053 160.22 58.7587 162.402 58.2654C163.394 58.0447 164.339 57.745 165.237 57.3662C164.469 58.4427 163.581 59.3502 162.572 60.0887C160.819 61.3711 158.835 62.259 156.62 62.7522C154.437 63.2455 152.189 63.4921 149.874 63.4921H135.094V36.5112L134.102 31.5786L135.094 28.5698H140.181L140.876 32.0244ZM140.181 28.5698L139.884 27.0919L140.876 24.083H155.657C158.037 24.083 160.319 24.3132 162.501 24.7736C164.717 25.201 166.684 26.0231 168.404 27.2398C170.156 28.4565 171.528 30.1993 172.52 32.4683C173.545 34.7373 174.058 37.6804 174.058 41.2975C174.058 44.9147 173.545 47.8907 172.52 50.2254C171.495 52.5273 170.107 54.3194 168.354 55.6019C167.386 56.3105 166.347 56.8986 165.237 57.3662C165.803 56.5732 166.303 55.6886 166.738 54.7122C167.763 52.3775 168.276 49.4015 168.276 45.7843C168.276 42.1671 167.763 39.2241 166.738 36.9551C165.746 34.6861 164.374 32.9433 162.621 31.7266C160.902 30.5099 158.934 29.6878 156.719 29.2603C154.537 28.8 152.255 28.5698 149.874 28.5698H140.181ZM155.657 51.1133H149.903V36.4619C152.766 36.4665 154.972 37.157 156.521 38.5335C158.108 39.8817 158.901 42.2987 158.901 45.7843C158.901 47.8242 158.635 49.5318 158.103 50.9072C157.349 51.0446 156.534 51.1133 155.657 51.1133ZM158.103 50.9072C159.85 50.5887 161.267 49.9011 162.353 48.8443C163.907 47.2988 164.684 44.7832 164.684 41.2975C164.684 37.8119 163.89 35.3949 162.303 34.0467C160.749 32.6656 158.533 31.9751 155.657 31.9751H149.903V36.4619C149.893 36.4619 149.884 36.4618 149.874 36.4618H144.121V55.6001H149.874C152.784 55.6001 155.016 54.8437 156.57 53.3311C157.215 52.69 157.726 51.8821 158.103 50.9072Z" fill="#3F3F3F"/>
<g filter="url(#filter2_i_3123_2408)">
<path d="M3.06711 63.6319V32.8939L1.94336 27.2745L3.06711 23.8467H19.8109C22.5079 23.8467 25.0925 24.1089 27.5648 24.6334C30.0745 25.1204 32.3032 26.057 34.251 27.4431C36.2363 28.8292 37.7908 30.8147 38.9146 33.3996C40.0758 35.9846 40.6564 39.3375 40.6564 43.4583C40.6564 47.5792 40.0758 50.9696 38.9146 53.6294C37.7534 56.2518 36.1801 58.2935 34.1949 59.7546C32.2096 61.2156 29.9621 62.2271 27.4524 62.789C24.9801 63.351 22.433 63.6319 19.8109 63.6319H3.06711ZM13.2932 54.6409H19.8109C23.1072 54.6409 25.6357 53.7793 27.3962 52.056C29.1567 50.2953 30.037 47.4294 30.037 43.4583C30.037 39.4873 29.138 36.7338 27.34 35.1978C25.5795 33.6244 23.0698 32.8377 19.8109 32.8377H13.2932V54.6409Z" fill="white"/>
</g>
<path d="M195.104 64.193C192.519 64.193 190.178 63.7621 188.08 62.9005C186.02 62.0389 184.372 60.5965 183.136 58.5736C181.937 56.5506 181.338 53.8158 181.338 50.3693C181.338 46.8852 181.993 44.1505 183.304 42.165C184.615 40.142 186.32 38.6997 188.417 37.838C190.515 36.9764 192.744 36.5456 195.104 36.5456C197.164 36.5456 198.925 36.6205 200.385 36.7703C201.884 36.9202 202.876 37.0513 203.363 37.1637L207.746 42.1088L203.251 48.2339L196.789 44.4127C193.568 44.4127 191.957 46.3982 191.957 50.3693C191.957 52.4297 192.444 53.9469 193.418 54.921C194.392 55.8575 195.89 56.3258 197.913 56.3258C199.936 56.3258 201.753 56.0448 203.363 55.4829C204.974 54.921 206.229 54.3965 207.128 53.9095V62.0014C205.967 62.6008 204.431 63.1253 202.52 63.5748C200.648 63.9869 198.175 64.193 195.104 64.193Z" fill="#3F3F3F"/>
<path d="M213.43 63.631L213.373 32.8368L212.25 27.2174L213.43 23.8457H223.543V63.631H213.43Z" fill="#3F3F3F"/>
<path d="M258.479 64.193C255.894 64.193 253.553 63.7621 251.456 62.9005C249.395 62.0389 247.747 60.5965 246.511 58.5736C245.313 56.5506 244.713 53.8158 244.713 50.3693C244.713 46.8852 245.369 44.1505 246.68 42.165C247.991 40.142 249.695 38.6997 251.793 37.838C253.89 36.9764 256.119 36.5456 258.479 36.5456C260.539 36.5456 262.3 36.6205 263.761 36.7703C265.259 36.9202 266.252 37.0513 266.739 37.1637L271.121 42.1088L266.626 48.2339L260.165 44.4127C256.943 44.4127 255.333 46.3982 255.333 50.3693C255.333 52.4297 255.82 53.9469 256.793 54.921C257.767 55.8575 259.266 56.3258 261.288 56.3258C263.311 56.3258 265.128 56.0448 266.739 55.4829C268.349 54.921 269.604 54.3965 270.503 53.9095V62.0014C269.342 62.6008 267.806 63.1253 265.896 63.5748C264.023 63.9869 261.551 64.193 258.479 64.193Z" fill="#3F3F3F"/>
<path fill-rule="evenodd" clip-rule="evenodd" d="M230.273 45.0308V63.631H240.387V37.1075H230.217L229.094 40.5353L230.273 45.0308Z" fill="#3F3F3F"/>
<path fill-rule="evenodd" clip-rule="evenodd" d="M233.591 22.8879C233.587 22.8924 233.582 22.8969 233.577 22.9015L233.591 22.8879ZM233.571 33.7041C233.575 33.7087 233.58 33.7133 233.584 33.7178L233.571 33.7041Z" fill="#3F3F3F"/>
<g filter="url(#filter3_i_3123_2408)">
<path d="M238.091 23.9028L232.538 23.9089C231.067 23.9106 229.872 25.0989 229.859 26.5675L229.853 32.1623C229.862 33.6198 231.037 34.7994 232.495 34.8146L238.112 34.8304C238.29 34.8295 238.464 34.8112 238.633 34.777C239.86 34.5283 240.784 33.4411 240.78 32.1406L240.765 26.5656C240.761 25.0917 239.565 23.9011 238.091 23.9028Z" fill="white"/>
</g>
<defs>
<filter id="filter0_i_3123_2408" x="44.1888" y="23.8477" width="80.6315" height="43.0976" filterUnits="userSpaceOnUse" color-interpolation-filters="sRGB">
<feFlood flood-opacity="0" result="BackgroundImageFix"/>
<feBlend mode="normal" in="SourceGraphic" in2="BackgroundImageFix" result="shape"/>
<feColorMatrix in="SourceAlpha" type="matrix" values="0 0 0 0 0 0 0 0 0 0 0 0 0 0 0 0 0 0 127 0" result="hardAlpha"/>
<feOffset dx="-0.916651" dy="3.66661"/>
<feGaussianBlur stdDeviation="1.37498"/>
<feComposite in2="hardAlpha" operator="arithmetic" k2="-1" k3="1"/>
<feColorMatrix type="matrix" values="0 0 0 0 0 0 0 0 0 0 0 0 0 0 0 0 0 0 0.3 0"/>
<feBlend mode="normal" in2="shape" result="effect1_innerShadow_3123_2408"/>
</filter>
<filter id="filter1_i_3123_2408" x="-0.292969" y="70.9375" width="271.389" height="21.165" filterUnits="userSpaceOnUse" color-interpolation-filters="sRGB">
<feFlood flood-opacity="0" result="BackgroundImageFix"/>
<feBlend mode="normal" in="SourceGraphic" in2="BackgroundImageFix" result="shape"/>
<feColorMatrix in="SourceAlpha" type="matrix" values="0 0 0 0 0 0 0 0 0 0 0 0 0 0 0 0 0 0 127 0" result="hardAlpha"/>
<feOffset dx="-5" dy="-4"/>
<feGaussianBlur stdDeviation="1.5"/>
<feComposite in2="hardAlpha" operator="arithmetic" k2="-1" k3="1"/>
<feColorMatrix type="matrix" values="0 0 0 0 0 0 0 0 0 0 0 0 0 0 0 0 0 0 0.16 0"/>
<feBlend mode="normal" in2="shape" result="effect1_innerShadow_3123_2408"/>
</filter>
<filter id="filter2_i_3123_2408" x="1.02671" y="23.8467" width="39.6295" height="42.5351" filterUnits="userSpaceOnUse" color-interpolation-filters="sRGB">
<feFlood flood-opacity="0" result="BackgroundImageFix"/>
<feBlend mode="normal" in="SourceGraphic" in2="BackgroundImageFix" result="shape"/>
<feColorMatrix in="SourceAlpha" type="matrix" values="0 0 0 0 0 0 0 0 0 0 0 0 0 0 0 0 0 0 127 0" result="hardAlpha"/>
<feOffset dx="-0.916651" dy="3.66661"/>
<feGaussianBlur stdDeviation="1.37498"/>
<feComposite in2="hardAlpha" operator="arithmetic" k2="-1" k3="1"/>
<feColorMatrix type="matrix" values="0 0 0 0 0 0 0 0 0 0 0 0 0 0 0 0 0 0 0.3 0"/>
<feBlend mode="normal" in2="shape" result="effect1_innerShadow_3123_2408"/>
</filter>
<filter id="filter3_i_3123_2408" x="228.937" y="23.9023" width="11.8444" height="13.6777" filterUnits="userSpaceOnUse" color-interpolation-filters="sRGB">
<feFlood flood-opacity="0" result="BackgroundImageFix"/>
<feBlend mode="normal" in="SourceGraphic" in2="BackgroundImageFix" result="shape"/>
<feColorMatrix in="SourceAlpha" type="matrix" values="0 0 0 0 0 0 0 0 0 0 0 0 0 0 0 0 0 0 127 0" result="hardAlpha"/>
<feOffset dx="-0.916651" dy="3.66661"/>
<feGaussianBlur stdDeviation="1.37498"/>
<feComposite in2="hardAlpha" operator="arithmetic" k2="-1" k3="1"/>
<feColorMatrix type="matrix" values="0 0 0 0 0 0 0 0 0 0 0 0 0 0 0 0 0 0 0.3 0"/>
<feBlend mode="normal" in2="shape" result="effect1_innerShadow_3123_2408"/>
</filter>
</defs>
</svg>