<svg width="271" height="73" viewBox="0 0 271 73" fill="none" xmlns="http://www.w3.org/2000/svg">
<g filter="url(#filter0_i_0_1)">
<path d="M52.5336 44.1949C50.2861 44.1949 48.5443 43.764 47.3081 42.9024C46.1095 42.0408 45.2667 40.8045 44.7797 39.1936C44.3302 37.5453 44.1055 35.5785 44.1055 33.2933V17.0532H54.2192V31.8322C54.2192 33.2183 54.4814 34.3047 55.0058 35.0915C55.5677 35.8782 56.3918 36.2715 57.478 36.2715C58.4894 36.2715 59.4071 35.8407 60.2312 34.9791C61.0928 34.1174 61.5235 32.8624 61.5235 31.2141V17.0532H71.6372V34.5857L72.8172 40.2051L71.6372 43.6329H62.1416V40.8794L61.5797 40.5985C61.0928 41.0855 60.381 41.6099 59.4446 42.1719C58.5456 42.7338 57.4968 43.2208 56.2981 43.6329C55.1369 44.0076 53.8821 44.1949 52.5336 44.1949Z" fill="white"/>
<path d="M86.6344 44.1949C85.0237 44.1949 83.5254 43.9701 82.1394 43.5205C80.7909 43.0335 79.7046 42.2094 78.8806 41.048C78.0565 39.8867 77.6444 38.2758 77.6444 36.2153C77.6444 34.3422 78.1127 32.7875 79.0491 31.5512C79.9856 30.315 81.2592 29.3971 82.8699 28.7977C84.4806 28.1983 86.2973 27.8986 88.32 27.8986C90.2678 27.8986 91.7287 28.1234 92.7026 28.573C93.6765 28.9851 94.5194 29.4159 95.2311 29.8654L95.6244 29.5283C95.6244 28.4044 95.5307 27.4678 95.3434 26.7186C95.1561 25.9693 94.7254 25.4074 94.0511 25.0328C93.3769 24.6207 92.328 24.4146 90.9046 24.4146C89.5187 24.4146 88.0391 24.5457 86.4658 24.808C84.9301 25.0328 83.5066 25.3325 82.1956 25.7071C80.922 26.0442 79.9668 26.3814 79.3301 26.7186V18.2895C80.4913 17.8774 82.1394 17.5028 84.2745 17.1656C86.4471 16.791 89.1067 16.6037 92.2531 16.6037C95.6244 16.6037 98.2839 17.0345 100.232 17.8961C102.217 18.7203 103.64 19.9378 104.502 21.5487C105.364 23.1222 105.794 25.014 105.794 27.2243V34.6981L106.918 40.3737L105.794 43.6891H96.1862V40.9356L95.6244 40.6546C95.3247 40.9543 94.8003 41.3852 94.0511 41.9471C93.302 42.5091 92.3093 43.0335 91.0732 43.5205C89.8371 43.9701 88.3575 44.1949 86.6344 44.1949ZM91.4103 36.8335C92.4217 36.8335 93.2832 36.7398 93.9949 36.5525C94.7441 36.3652 95.2873 36.1966 95.6244 36.0468V34.9791C95.6244 34.4921 95.2685 34.0238 94.5568 33.5742C93.8826 33.1247 92.815 32.8999 91.3541 32.8999C89.3314 32.8999 88.32 33.6117 88.32 35.0353C88.32 35.6347 88.5448 36.0842 88.9943 36.3839C89.4438 36.6836 90.2491 36.8335 91.4103 36.8335Z" fill="white"/>
<path d="M113.707 43.6329L113.65 12.8387L112.527 7.21929L113.707 3.84766H123.82V43.6329H113.707Z" fill="white"/>
</g>
<g filter="url(#filter1_i_0_1)">
<path d="M6.65226 56.0063H3.61191V65.8008H6.65226C8.31355 65.8008 9.61885 65.3647 10.5682 64.4923C11.5175 63.62 11.9921 62.427 11.9921 60.9132C11.9921 59.393 11.5175 58.1968 10.5682 57.3244C9.61885 56.4457 8.31355 56.0063 6.65226 56.0063ZM6.65226 54.1686C7.64647 54.1686 8.49956 54.2616 9.21154 54.4476C9.92994 54.6336 10.5874 54.9287 11.1839 55.3328C12.0947 55.9486 12.7971 56.7407 13.291 57.7093C13.7913 58.6714 14.0415 59.733 14.0415 60.894C14.0415 62.0549 13.7913 63.1229 13.291 64.0979C12.7907 65.0664 12.0883 65.8554 11.1839 66.4647C10.6002 66.8688 9.94597 67.1639 9.22116 67.3499C8.49635 67.5359 7.64005 67.6289 6.65226 67.6289H1.70688V54.1686H6.65226ZM24.7828 66.686C24.1926 67.0645 23.5833 67.3499 22.9547 67.5423C22.3325 67.7283 21.6879 67.8213 21.0208 67.8213C19.6161 67.8213 18.4936 67.3884 17.6533 66.5224C16.8195 65.6501 16.4025 64.4891 16.4025 63.0395C16.4025 61.7118 16.8034 60.6342 17.6052 59.8067C18.4134 58.9793 19.4654 58.5656 20.761 58.5656C22.0439 58.5656 23.0605 58.9857 23.811 59.826C24.5615 60.6662 24.9367 61.8016 24.9367 63.2319V63.4917H18.2787C18.33 64.332 18.6058 64.9894 19.1062 65.4641C19.6065 65.9323 20.2768 66.1665 21.117 66.1665C21.6815 66.1665 22.2684 66.0638 22.8777 65.8586C23.4935 65.6469 24.1285 65.3294 24.7828 64.9061V66.686ZM18.2787 62.2313H22.9836C22.9258 61.5835 22.6917 61.0639 22.2812 60.6727C21.8707 60.2814 21.3576 60.0858 20.7418 60.0858C20.0619 60.0858 19.5135 60.2686 19.0965 60.6342C18.6796 60.9934 18.407 61.5258 18.2787 62.2313ZM27.0091 67.0228V65.1274C27.5415 65.4801 28.0547 65.7495 28.5486 65.9355C29.0425 66.1216 29.4947 66.2146 29.9052 66.2146C30.3606 66.2146 30.7166 66.1312 30.9731 65.9644C31.2361 65.7912 31.3676 65.5571 31.3676 65.2621C31.3676 64.89 30.8833 64.4635 29.9148 63.9824C29.6326 63.8413 29.4145 63.729 29.2605 63.6457C28.4331 63.2223 27.8654 62.815 27.5576 62.4237C27.2497 62.0261 27.0957 61.5418 27.0957 60.9709C27.0957 60.2269 27.3619 59.6368 27.8943 59.2006C28.4267 58.7644 29.1579 58.5463 30.088 58.5463C30.5883 58.5463 31.0694 58.6073 31.5312 58.7291C31.993 58.8446 32.4452 59.0274 32.8878 59.2776V61.0094C32.3426 60.7079 31.8423 60.4866 31.3869 60.3455C30.9379 60.198 30.5113 60.1242 30.1072 60.1242C29.7352 60.1242 29.4466 60.1884 29.2413 60.3167C29.0425 60.445 28.943 60.631 28.943 60.8747C28.943 61.3237 29.562 61.8529 30.8 62.4622L30.9635 62.5392C31.9321 63.0267 32.5639 63.4564 32.8589 63.8285C33.154 64.1941 33.3015 64.6591 33.3015 65.2236C33.3015 66.0061 33.0065 66.6315 32.4163 67.0997C31.8327 67.568 31.0565 67.8021 30.088 67.8021C29.5299 67.8021 28.9976 67.7379 28.4908 67.6097C27.9905 67.4814 27.4966 67.2857 27.0091 67.0228ZM35.9224 56.1218C35.9224 55.8395 36.0186 55.6022 36.211 55.4098C36.4034 55.2173 36.6408 55.1211 36.923 55.1211C37.2052 55.1211 37.4426 55.2173 37.635 55.4098C37.8274 55.6022 37.9236 55.8395 37.9236 56.1218C37.9236 56.404 37.8274 56.6413 37.635 56.8337C37.4426 57.0262 37.2052 57.1224 36.923 57.1224C36.6408 57.1224 36.4034 57.0262 36.211 56.8337C36.0186 56.6413 35.9224 56.404 35.9224 56.1218ZM36.0378 67.6289V58.7388H37.8082V67.6289H36.0378ZM41.6509 69.2838C41.6509 69.7199 41.869 70.0471 42.3052 70.2652C42.7414 70.4897 43.3828 70.6019 44.2295 70.6019C45.0569 70.6019 45.7047 70.4929 46.173 70.2748C46.6412 70.0567 46.8753 69.7584 46.8753 69.38C46.8753 68.9631 46.6091 68.6488 46.0768 68.4371C45.5508 68.2254 44.7586 68.1196 43.7003 68.1196C43.0973 68.1196 42.6034 68.2286 42.2186 68.4467C41.8402 68.6712 41.6509 68.9502 41.6509 69.2838ZM42.6997 64.7906C42.0326 64.5853 41.5226 64.2454 41.1699 63.7707C40.8235 63.2961 40.6503 62.7092 40.6503 62.01C40.6503 60.9324 41.0223 60.1178 41.7664 59.5662C42.5104 59.0146 43.6137 58.7388 45.0761 58.7388H48.6072V60.182H47.1062C47.35 60.445 47.5296 60.724 47.645 61.019C47.7605 61.3077 47.8182 61.6316 47.8182 61.9908C47.8182 62.7348 47.5905 63.3698 47.1351 63.8958C46.6861 64.4218 46.08 64.7521 45.3167 64.8868C45.1499 64.9189 44.9254 64.9574 44.6432 65.0023C43.6875 65.1498 43.2096 65.3935 43.2096 65.7335C43.2096 66.0735 43.8927 66.3781 45.2589 66.6475C45.5925 66.7117 45.8555 66.763 46.0479 66.8015C46.9074 66.9811 47.5585 67.2825 48.001 67.7059C48.4436 68.1292 48.6649 68.668 48.6649 69.3223C48.6649 70.2267 48.2865 70.9162 47.5296 71.3909C46.7791 71.8655 45.6855 72.1028 44.2487 72.1028C42.844 72.1028 41.7696 71.8719 41.0255 71.4101C40.2879 70.9547 39.9191 70.2908 39.9191 69.4185C39.9191 68.7963 40.134 68.2832 40.5637 67.8791C40.9999 67.475 41.6381 67.1959 42.4784 67.042C42.1384 66.8881 41.8883 66.7245 41.7279 66.5513C41.574 66.3717 41.497 66.1729 41.497 65.9548C41.497 65.7239 41.5932 65.5154 41.7856 65.3294C41.9781 65.1434 42.2827 64.9638 42.6997 64.7906ZM44.2487 60.2397C43.7035 60.2397 43.2577 60.4001 42.9113 60.7208C42.5714 61.0351 42.4014 61.4392 42.4014 61.9331C42.4014 62.4526 42.565 62.8599 42.8921 63.155C43.2192 63.4436 43.6714 63.5879 44.2487 63.5879C44.8324 63.5879 45.2942 63.4404 45.6342 63.1454C45.9741 62.8503 46.1441 62.4462 46.1441 61.9331C46.1441 61.4392 45.9645 61.0351 45.6053 60.7208C45.2525 60.4001 44.8003 60.2397 44.2487 60.2397ZM50.9202 67.6289V58.7388H52.6905V59.826C53.1331 59.4026 53.5724 59.0948 54.0086 58.9023C54.4512 58.7035 54.9259 58.6041 55.4326 58.6041C56.3947 58.6041 57.1516 58.8831 57.7032 59.4411C58.2613 59.9992 58.5403 60.7657 58.5403 61.7406V67.6289H56.7699V62.1928C56.7699 61.4744 56.616 60.9453 56.3081 60.6053C56.0067 60.2589 55.5352 60.0858 54.8938 60.0858C54.4384 60.0858 54.0375 60.1756 53.6911 60.3552C53.3512 60.5283 53.0176 60.817 52.6905 61.2211V67.6289H50.9202ZM70.3823 67.8021L66.4471 58.7388H68.3137L70.8537 64.6367L73.2975 58.7388H74.4617L76.944 64.6174L79.4841 58.7388H81.3602L77.3962 67.8021H76.5303L73.8941 61.3654L71.2482 67.8021H70.3823ZM91.2164 66.686C90.6263 67.0645 90.0169 67.3499 89.3883 67.5423C88.7661 67.7283 88.1215 67.8213 87.4544 67.8213C86.0497 67.8213 84.9272 67.3884 84.0869 66.5224C83.2531 65.6501 82.8362 64.4891 82.8362 63.0395C82.8362 61.7118 83.237 60.6342 84.0388 59.8067C84.847 58.9793 85.899 58.5656 87.1946 58.5656C88.4775 58.5656 89.4941 58.9857 90.2446 59.826C90.9951 60.6662 91.3703 61.8016 91.3703 63.2319V63.4917H84.7123C84.7636 64.332 85.0394 64.9894 85.5398 65.4641C86.0401 65.9323 86.7104 66.1665 87.5506 66.1665C88.1151 66.1665 88.702 66.0638 89.3113 65.8586C89.9271 65.6469 90.5621 65.3294 91.2164 64.9061V66.686ZM84.7123 62.2313H89.4172C89.3594 61.5835 89.1253 61.0639 88.7148 60.6727C88.3043 60.2814 87.7912 60.0858 87.1754 60.0858C86.4955 60.0858 85.9471 60.2686 85.5301 60.6342C85.1132 60.9934 84.8406 61.5258 84.7123 62.2313ZM95.8481 65.8393C96.1688 65.9548 96.4767 66.0414 96.7717 66.0991C97.0668 66.1568 97.3586 66.1857 97.6473 66.1857C98.5838 66.1857 99.3086 65.9259 99.8217 65.4064C100.341 64.8868 100.601 64.1492 100.601 63.1935C100.601 62.2634 100.351 61.529 99.8506 60.9902C99.3503 60.4514 98.6736 60.182 97.8205 60.182C97.4805 60.182 97.147 60.2365 96.8198 60.3455C96.4991 60.4546 96.1752 60.6213 95.8481 60.8458V65.8393ZM94.0585 67.2152V54.1686H95.8481V59.2391C96.1816 59.0017 96.5376 58.8286 96.9161 58.7195C97.3009 58.6041 97.7275 58.5463 98.1957 58.5463C99.4914 58.5463 100.53 58.9697 101.313 59.8164C102.096 60.6566 102.487 61.7759 102.487 63.1742C102.487 64.6559 102.047 65.8008 101.169 66.609C100.29 67.4172 99.0488 67.8213 97.4452 67.8213C96.9064 67.8213 96.358 67.77 95.8 67.6674C95.2484 67.5712 94.6679 67.4204 94.0585 67.2152ZM117.437 64.3576L115.175 61.654C114.239 62.2185 113.578 62.706 113.193 63.1165C112.815 63.527 112.626 63.9407 112.626 64.3576C112.626 64.8451 112.793 65.2364 113.126 65.5314C113.46 65.8265 113.905 65.974 114.464 65.974C114.874 65.974 115.313 65.849 115.782 65.5988C116.25 65.3422 116.801 64.9285 117.437 64.3576ZM115.685 59.4315C116.378 58.9697 116.869 58.5528 117.157 58.1807C117.446 57.8023 117.59 57.3982 117.59 56.9684C117.59 56.5387 117.437 56.1859 117.129 55.9101C116.821 55.6279 116.423 55.4867 115.936 55.4867C115.474 55.4867 115.086 55.6279 114.771 55.9101C114.457 56.1923 114.3 56.5387 114.3 56.9492C114.3 57.2699 114.419 57.6483 114.656 58.0845C114.9 58.5143 115.243 58.9633 115.685 59.4315ZM122.719 67.6289H120.217L118.601 65.695C117.927 66.4455 117.241 66.9971 116.542 67.3499C115.849 67.6963 115.102 67.8694 114.3 67.8694C113.184 67.8694 112.289 67.5583 111.616 66.9362C110.948 66.314 110.615 65.493 110.615 64.4731C110.615 63.7098 110.875 63.0107 111.394 62.3756C111.92 61.7406 112.793 61.0735 114.011 60.3744C113.466 59.8356 113.065 59.3032 112.809 58.7773C112.558 58.2449 112.433 57.6868 112.433 57.1031C112.433 56.1538 112.751 55.3905 113.386 54.8132C114.021 54.2296 114.858 53.9377 115.897 53.9377C116.936 53.9377 117.773 54.2167 118.408 54.7748C119.05 55.3328 119.37 56.0576 119.37 56.9492C119.37 57.6868 119.168 58.3507 118.764 58.9408C118.367 59.5245 117.722 60.1018 116.83 60.6727L118.793 62.9625C119.05 62.6739 119.297 62.3436 119.534 61.9715C119.778 61.5995 120.018 61.173 120.256 60.6919H122.266C122.023 61.3654 121.712 62.01 121.333 62.6258C120.961 63.2351 120.522 63.8188 120.015 64.3769L122.719 67.6289ZM136.206 56.0063H133.166V65.8008H136.206C137.867 65.8008 139.172 65.3647 140.122 64.4923C141.071 63.62 141.546 62.427 141.546 60.9132C141.546 59.393 141.071 58.1968 140.122 57.3244C139.172 56.4457 137.867 56.0063 136.206 56.0063ZM136.206 54.1686C137.2 54.1686 138.053 54.2616 138.765 54.4476C139.484 54.6336 140.141 54.9287 140.738 55.3328C141.648 55.9486 142.351 56.7407 142.845 57.7093C143.345 58.6714 143.595 59.733 143.595 60.894C143.595 62.0549 143.345 63.1229 142.845 64.0979C142.344 65.0664 141.642 65.8554 140.738 66.4647C140.154 66.8688 139.5 67.1639 138.775 67.3499C138.05 67.5359 137.194 67.6289 136.206 67.6289H131.26V54.1686H136.206ZM154.336 66.686C153.746 67.0645 153.137 67.3499 152.508 67.5423C151.886 67.7283 151.241 67.8213 150.574 67.8213C149.17 67.8213 148.047 67.3884 147.207 66.5224C146.373 65.6501 145.956 64.4891 145.956 63.0395C145.956 61.7118 146.357 60.6342 147.159 59.8067C147.967 58.9793 149.019 58.5656 150.315 58.5656C151.597 58.5656 152.614 58.9857 153.365 59.826C154.115 60.6662 154.49 61.8016 154.49 63.2319V63.4917H147.832C147.884 64.332 148.159 64.9894 148.66 65.4641C149.16 65.9323 149.83 66.1665 150.671 66.1665C151.235 66.1665 151.822 66.0638 152.431 65.8586C153.047 65.6469 153.682 65.3294 154.336 64.9061V66.686ZM147.832 62.2313H152.537C152.479 61.5835 152.245 61.0639 151.835 60.6727C151.424 60.2814 150.911 60.0858 150.295 60.0858C149.615 60.0858 149.067 60.2686 148.65 60.6342C148.233 60.9934 147.961 61.5258 147.832 62.2313ZM148.9 57.4784L150.911 54.1301H152.624L149.92 57.4784H148.9ZM160.017 67.8021L155.735 58.7388H157.708L160.45 64.6367L163.009 58.7388H164.943L160.844 67.8021H160.017ZM174.684 66.686C174.094 67.0645 173.484 67.3499 172.856 67.5423C172.233 67.7283 171.589 67.8213 170.922 67.8213C169.517 67.8213 168.394 67.3884 167.554 66.5224C166.72 65.6501 166.303 64.4891 166.303 63.0395C166.303 61.7118 166.704 60.6342 167.506 59.8067C168.314 58.9793 169.366 58.5656 170.662 58.5656C171.945 58.5656 172.961 58.9857 173.712 59.826C174.462 60.6662 174.838 61.8016 174.838 63.2319V63.4917H168.18C168.231 64.332 168.507 64.9894 169.007 65.4641C169.507 65.9323 170.178 66.1665 171.018 66.1665C171.582 66.1665 172.169 66.0638 172.779 65.8586C173.394 65.6469 174.029 65.3294 174.684 64.9061V66.686ZM168.18 62.2313H172.884C172.827 61.5835 172.593 61.0639 172.182 60.6727C171.772 60.2814 171.258 60.0858 170.643 60.0858C169.963 60.0858 169.414 60.2686 168.997 60.6342C168.58 60.9934 168.308 61.5258 168.18 62.2313ZM177.545 67.6289V54.1686H179.315V67.6289H177.545ZM183.909 63.1742C183.909 64.0017 184.188 64.7072 184.746 65.2909C185.304 65.8746 185.977 66.1665 186.766 66.1665C187.549 66.1665 188.219 65.8746 188.777 65.2909C189.341 64.7008 189.624 63.9952 189.624 63.1742C189.624 62.3596 189.345 61.6605 188.787 61.0768C188.229 60.4931 187.555 60.2012 186.766 60.2012C185.977 60.2012 185.304 60.4931 184.746 61.0768C184.188 61.6605 183.909 62.3596 183.909 63.1742ZM182.052 63.1742C182.052 61.885 182.51 60.7913 183.428 59.8933C184.345 58.9953 185.464 58.5463 186.785 58.5463C187.408 58.5463 188.001 58.665 188.565 58.9023C189.136 59.1332 189.646 59.4668 190.095 59.903C190.551 60.3648 190.897 60.8715 191.134 61.4231C191.372 61.9748 191.49 62.5584 191.49 63.1742C191.49 63.7836 191.368 64.3769 191.125 64.9542C190.881 65.5314 190.538 66.035 190.095 66.4647C189.646 66.9073 189.139 67.2408 188.575 67.4653C188.017 67.6898 187.42 67.8021 186.785 67.8021C185.464 67.8021 184.345 67.3531 183.428 66.4551C182.51 65.5571 182.052 64.4635 182.052 63.1742ZM195.987 60.6919V65.6758C196.276 65.8874 196.568 66.0446 196.863 66.1472C197.164 66.2434 197.485 66.2915 197.825 66.2915C198.729 66.2915 199.441 66.0157 199.961 65.4641C200.48 64.9061 200.74 64.1428 200.74 63.1742C200.74 62.2121 200.48 61.4584 199.961 60.9132C199.441 60.3616 198.729 60.0858 197.825 60.0858C197.485 60.0858 197.164 60.1339 196.863 60.2301C196.568 60.3263 196.276 60.4802 195.987 60.6919ZM194.198 72.1028V58.7388H195.987V59.2391C196.321 59.0017 196.674 58.8286 197.046 58.7195C197.418 58.6041 197.828 58.5463 198.277 58.5463C199.56 58.5463 200.606 58.9761 201.414 59.8356C202.222 60.6951 202.626 61.808 202.626 63.1742C202.626 64.5404 202.222 65.6533 201.414 66.5128C200.606 67.3723 199.56 67.8021 198.277 67.8021C197.815 67.8021 197.398 67.7476 197.026 67.6385C196.661 67.5359 196.314 67.3691 195.987 67.1382V72.1028H194.198ZM207.171 60.6919V65.6758C207.46 65.8874 207.752 66.0446 208.047 66.1472C208.348 66.2434 208.669 66.2915 209.009 66.2915C209.913 66.2915 210.625 66.0157 211.145 65.4641C211.664 64.9061 211.924 64.1428 211.924 63.1742C211.924 62.2121 211.664 61.4584 211.145 60.9132C210.625 60.3616 209.913 60.0858 209.009 60.0858C208.669 60.0858 208.348 60.1339 208.047 60.2301C207.752 60.3263 207.46 60.4802 207.171 60.6919ZM205.382 72.1028V58.7388H207.171V59.2391C207.505 59.0017 207.857 58.8286 208.229 58.7195C208.601 58.6041 209.012 58.5463 209.461 58.5463C210.744 58.5463 211.789 58.9761 212.598 59.8356C213.406 60.6951 213.81 61.808 213.81 63.1742C213.81 64.5404 213.406 65.6533 212.598 66.5128C211.789 67.3723 210.744 67.8021 209.461 67.8021C208.999 67.8021 208.582 67.7476 208.21 67.6385C207.845 67.5359 207.498 67.3691 207.171 67.1382V72.1028H205.382ZM224.33 66.686C223.74 67.0645 223.13 67.3499 222.502 67.5423C221.88 67.7283 221.235 67.8213 220.568 67.8213C219.163 67.8213 218.041 67.3884 217.2 66.5224C216.367 65.6501 215.95 64.4891 215.95 63.0395C215.95 61.7118 216.351 60.6342 217.152 59.8067C217.961 58.9793 219.012 58.5656 220.308 58.5656C221.591 58.5656 222.608 58.9857 223.358 59.826C224.109 60.6662 224.484 61.8016 224.484 63.2319V63.4917H217.826C217.877 64.332 218.153 64.9894 218.653 65.4641C219.154 65.9323 219.824 66.1665 220.664 66.1665C221.229 66.1665 221.815 66.0638 222.425 65.8586C223.041 65.6469 223.676 65.3294 224.33 64.9061V66.686ZM217.826 62.2313H222.531C222.473 61.5835 222.239 61.0639 221.828 60.6727C221.418 60.2814 220.905 60.0858 220.289 60.0858C219.609 60.0858 219.061 60.2686 218.644 60.6342C218.227 60.9934 217.954 61.5258 217.826 62.2313ZM227.134 67.6289V58.7388H228.904V59.826C229.346 59.4026 229.786 59.0948 230.222 58.9023C230.665 58.7035 231.139 58.6041 231.646 58.6041C232.3 58.6041 232.845 58.7259 233.282 58.9697C233.724 59.207 234.096 59.5854 234.398 60.105C234.943 59.5662 235.453 59.1813 235.927 58.9504C236.409 58.7195 236.918 58.6041 237.457 58.6041C238.426 58.6041 239.189 58.8831 239.747 59.4411C240.312 59.9992 240.594 60.7657 240.594 61.7406V67.6289H238.795V62.1928C238.795 61.468 238.644 60.9356 238.342 60.5957C238.047 60.2557 237.582 60.0858 236.947 60.0858C236.479 60.0858 236.072 60.1756 235.725 60.3552C235.379 60.5283 235.042 60.817 234.715 61.2211V67.6289H232.983V62.1928C232.983 61.4744 232.829 60.9453 232.521 60.6053C232.22 60.2589 231.749 60.0858 231.107 60.0858C230.652 60.0858 230.251 60.1756 229.904 60.3552C229.565 60.5283 229.231 60.817 228.904 61.2211V67.6289H227.134ZM251.566 66.686C250.976 67.0645 250.367 67.3499 249.738 67.5423C249.116 67.7283 248.471 67.8213 247.804 67.8213C246.399 67.8213 245.277 67.3884 244.437 66.5224C243.603 65.6501 243.186 64.4891 243.186 63.0395C243.186 61.7118 243.587 60.6342 244.388 59.8067C245.197 58.9793 246.249 58.5656 247.544 58.5656C248.827 58.5656 249.844 58.9857 250.594 59.826C251.345 60.6662 251.72 61.8016 251.72 63.2319V63.4917H245.062C245.113 64.332 245.389 64.9894 245.889 65.4641C246.39 65.9323 247.06 66.1665 247.9 66.1665C248.465 66.1665 249.052 66.0638 249.661 65.8586C250.277 65.6469 250.912 65.3294 251.566 64.9061V66.686ZM245.062 62.2313H249.767C249.709 61.5835 249.475 61.0639 249.064 60.6727C248.654 60.2814 248.141 60.0858 247.525 60.0858C246.845 60.0858 246.297 60.2686 245.88 60.6342C245.463 60.9934 245.19 61.5258 245.062 62.2313ZM254.37 67.6289V58.7388H256.14V59.826C256.583 59.4026 257.022 59.0948 257.458 58.9023C257.901 58.7035 258.375 58.6041 258.882 58.6041C259.844 58.6041 260.601 58.8831 261.153 59.4411C261.711 59.9992 261.99 60.7657 261.99 61.7406V67.6289H260.219V62.1928C260.219 61.4744 260.066 60.9453 259.758 60.6053C259.456 60.2589 258.985 60.0858 258.343 60.0858C257.888 60.0858 257.487 60.1756 257.141 60.3552C256.801 60.5283 256.467 60.817 256.14 61.2211V67.6289H254.37ZM270.095 67.3499C269.819 67.5038 269.521 67.6161 269.2 67.6866C268.886 67.7636 268.546 67.8021 268.18 67.8021C267.18 67.8021 266.474 67.5648 266.063 67.0901C265.659 66.6155 265.457 65.7495 265.457 64.4923V60.2782H263.947V60.105L267.055 56.6702H267.257V58.7388H270.037V60.2782H267.257V64.3576C267.257 65.0953 267.346 65.5731 267.526 65.7912C267.712 66.0029 268.055 66.1087 268.555 66.1087C268.825 66.1087 269.088 66.0735 269.344 66.0029C269.601 65.9323 269.851 65.8233 270.095 65.6758V67.3499Z" fill="white"/>
</g>
<path fill-rule="evenodd" clip-rule="evenodd" d="M139.876 12.0244V39.0053H154.657C156.971 39.0053 159.22 38.7587 161.402 38.2654C162.394 38.0447 163.339 37.745 164.237 37.3662C163.469 38.4427 162.581 39.3502 161.572 40.0887C159.819 41.3711 157.835 42.259 155.62 42.7522C153.437 43.2455 151.189 43.4921 148.874 43.4921H134.094V16.5112L133.102 11.5786L134.094 8.56979H139.181L139.876 12.0244ZM139.181 8.56979L138.884 7.09185L139.876 4.08301H154.657C157.037 4.08301 159.319 4.31319 161.501 4.77356C163.717 5.20105 165.684 6.02313 167.404 7.23983C169.156 8.45652 170.528 10.1993 171.52 12.4683C172.545 14.7373 173.058 17.6804 173.058 21.2975C173.058 24.9147 172.545 27.8907 171.52 30.2254C170.495 32.5273 169.107 34.3194 167.354 35.6019C166.386 36.3105 165.347 36.8986 164.237 37.3662C164.803 36.5732 165.303 35.6886 165.738 34.7122C166.763 32.3775 167.276 29.4015 167.276 25.7843C167.276 22.1671 166.763 19.2241 165.738 16.9551C164.746 14.6861 163.374 12.9433 161.621 11.7266C159.902 10.5099 157.934 9.68783 155.719 9.26035C153.537 8.79998 151.255 8.56979 148.874 8.56979H139.181ZM154.657 31.1133H148.903V16.4619C151.766 16.4665 153.972 17.157 155.521 18.5335C157.108 19.8817 157.901 22.2987 157.901 25.7843C157.901 27.8242 157.635 29.5318 157.103 30.9072C156.349 31.0446 155.534 31.1133 154.657 31.1133ZM157.103 30.9072C158.85 30.5887 160.267 29.9011 161.353 28.8443C162.907 27.2988 163.684 24.7832 163.684 21.2975C163.684 17.8119 162.89 15.3949 161.303 14.0467C159.749 12.6656 157.533 11.9751 154.657 11.9751H148.903V16.4619C148.893 16.4619 148.884 16.4618 148.874 16.4618H143.121V35.6001H148.874C151.784 35.6001 154.016 34.8437 155.57 33.3311C156.215 32.69 156.726 31.8821 157.103 30.9072Z" fill="#3F3F3F"/>
<g filter="url(#filter2_i_0_1)">
<path d="M2.06711 43.6319V12.8939L0.943359 7.27451L2.06711 3.84668H18.8109C21.5079 3.84668 24.0925 4.10892 26.5648 4.63339C29.0745 5.12041 31.3032 6.05697 33.251 7.44308C35.2363 8.8292 36.7908 10.8147 37.9146 13.3996C39.0758 15.9846 39.6564 19.3375 39.6564 23.4583C39.6564 27.5792 39.0758 30.9696 37.9146 33.6294C36.7534 36.2518 35.1801 38.2935 33.1949 39.7546C31.2096 41.2156 28.9621 42.2271 26.4524 42.789C23.9801 43.351 21.433 43.6319 18.8109 43.6319H2.06711ZM12.2932 34.6409H18.8109C22.1072 34.6409 24.6357 33.7793 26.3962 32.056C28.1567 30.2953 29.037 27.4294 29.037 23.4583C29.037 19.4873 28.138 16.7338 26.34 15.1978C24.5795 13.6244 22.0698 12.8377 18.8109 12.8377H12.2932V34.6409Z" fill="white"/>
</g>
<path d="M194.104 44.193C191.519 44.193 189.178 43.7621 187.08 42.9005C185.02 42.0389 183.372 40.5965 182.136 38.5736C180.937 36.5506 180.338 33.8158 180.338 30.3693C180.338 26.8852 180.993 24.1505 182.304 22.165C183.615 20.142 185.32 18.6997 187.417 17.838C189.515 16.9764 191.744 16.5456 194.104 16.5456C196.164 16.5456 197.925 16.6205 199.385 16.7703C200.884 16.9202 201.876 17.0513 202.363 17.1637L206.746 22.1088L202.251 28.2339L195.789 24.4127C192.568 24.4127 190.957 26.3982 190.957 30.3693C190.957 32.4297 191.444 33.9469 192.418 34.921C193.392 35.8575 194.89 36.3258 196.913 36.3258C198.936 36.3258 200.753 36.0448 202.363 35.4829C203.974 34.921 205.229 34.3965 206.128 33.9095V42.0014C204.967 42.6008 203.431 43.1253 201.52 43.5748C199.648 43.9869 197.175 44.193 194.104 44.193Z" fill="#3F3F3F"/>
<path d="M212.43 43.631L212.373 12.8368L211.25 7.21738L212.43 3.84575H222.543V43.631H212.43Z" fill="#3F3F3F"/>
<path d="M257.479 44.193C254.894 44.193 252.553 43.7621 250.456 42.9005C248.395 42.0389 246.747 40.5965 245.511 38.5736C244.313 36.5506 243.713 33.8158 243.713 30.3693C243.713 26.8852 244.369 24.1505 245.68 22.165C246.991 20.142 248.695 18.6997 250.793 17.838C252.89 16.9764 255.119 16.5456 257.479 16.5456C259.539 16.5456 261.3 16.6205 262.761 16.7703C264.259 16.9202 265.252 17.0513 265.739 17.1637L270.121 22.1088L265.626 28.2339L259.165 24.4127C255.943 24.4127 254.333 26.3982 254.333 30.3693C254.333 32.4297 254.82 33.9469 255.793 34.921C256.767 35.8575 258.266 36.3258 260.288 36.3258C262.311 36.3258 264.128 36.0448 265.739 35.4829C267.349 34.921 268.604 34.3965 269.503 33.9095V42.0014C268.342 42.6008 266.806 43.1253 264.896 43.5748C263.023 43.9869 260.551 44.193 257.479 44.193Z" fill="#3F3F3F"/>
<path fill-rule="evenodd" clip-rule="evenodd" d="M229.273 25.0308V43.631H239.387V17.1075H229.217L228.094 20.5353L229.273 25.0308Z" fill="#3F3F3F"/>
<path fill-rule="evenodd" clip-rule="evenodd" d="M232.591 2.88791C232.587 2.89241 232.582 2.89693 232.577 2.90148L232.591 2.88791ZM232.571 13.7041C232.575 13.7087 232.58 13.7133 232.584 13.7178L232.571 13.7041Z" fill="#3F3F3F"/>
<g filter="url(#filter3_i_0_1)">
<path d="M237.091 3.90278L231.538 3.90895C230.067 3.91058 228.872 5.09892 228.859 6.56746L228.853 12.1623C228.862 13.6198 230.037 14.7994 231.495 14.8146L237.112 14.8304C237.29 14.8295 237.464 14.8112 237.633 14.777C238.86 14.5283 239.784 13.4411 239.78 12.1406L239.765 6.56564C239.761 5.09166 238.565 3.90114 237.091 3.90278Z" fill="white"/>
</g>
<defs>
<filter id="filter0_i_0_1" x="41.1055" y="0.847656" width="82.7148" height="43.3477" filterUnits="userSpaceOnUse" color-interpolation-filters="sRGB">
<feFlood flood-opacity="0" result="BackgroundImageFix"/>
<feBlend mode="normal" in="SourceGraphic" in2="BackgroundImageFix" result="shape"/>
<feColorMatrix in="SourceAlpha" type="matrix" values="0 0 0 0 0 0 0 0 0 0 0 0 0 0 0 0 0 0 127 0" result="hardAlpha"/>
<feOffset dx="-5" dy="-4"/>
<feGaussianBlur stdDeviation="1.5"/>
<feComposite in2="hardAlpha" operator="arithmetic" k2="-1" k3="1"/>
<feColorMatrix type="matrix" values="0 0 0 0 0 0 0 0 0 0 0 0 0 0 0 0 0 0 0.16 0"/>
<feBlend mode="normal" in2="shape" result="effect1_innerShadow_0_1"/>
</filter>
<filter id="filter1_i_0_1" x="-1.29297" y="50.9375" width="271.389" height="21.165" filterUnits="userSpaceOnUse" color-interpolation-filters="sRGB">
<feFlood flood-opacity="0" result="BackgroundImageFix"/>
<feBlend mode="normal" in="SourceGraphic" in2="BackgroundImageFix" result="shape"/>
<feColorMatrix in="SourceAlpha" type="matrix" values="0 0 0 0 0 0 0 0 0 0 0 0 0 0 0 0 0 0 127 0" result="hardAlpha"/>
<feOffset dx="-5" dy="-4"/>
<feGaussianBlur stdDeviation="1.5"/>
<feComposite in2="hardAlpha" operator="arithmetic" k2="-1" k3="1"/>
<feColorMatrix type="matrix" values="0 0 0 0 0 0 0 0 0 0 0 0 0 0 0 0 0 0 0.16 0"/>
<feBlend mode="normal" in2="shape" result="effect1_innerShadow_0_1"/>
</filter>
<filter id="filter2_i_0_1" x="-2.05664" y="0.84668" width="41.7129" height="42.7852" filterUnits="userSpaceOnUse" color-interpolation-filters="sRGB">
<feFlood flood-opacity="0" result="BackgroundImageFix"/>
<feBlend mode="normal" in="SourceGraphic" in2="BackgroundImageFix" result="shape"/>
<feColorMatrix in="SourceAlpha" type="matrix" values="0 0 0 0 0 0 0 0 0 0 0 0 0 0 0 0 0 0 127 0" result="hardAlpha"/>
<feOffset dx="-5" dy="-4"/>
<feGaussianBlur stdDeviation="1.5"/>
<feComposite in2="hardAlpha" operator="arithmetic" k2="-1" k3="1"/>
<feColorMatrix type="matrix" values="0 0 0 0 0 0 0 0 0 0 0 0 0 0 0 0 0 0 0.16 0"/>
<feBlend mode="normal" in2="shape" result="effect1_innerShadow_0_1"/>
</filter>
<filter id="filter3_i_0_1" x="228.306" y="3.90234" width="11.4751" height="12.5698" filterUnits="userSpaceOnUse" color-interpolation-filters="sRGB">
<feFlood flood-opacity="0" result="BackgroundImageFix"/>
<feBlend mode="normal" in="SourceGraphic" in2="BackgroundImageFix" result="shape"/>
<feColorMatrix in="SourceAlpha" type="matrix" values="0 0 0 0 0 0 0 0 0 0 0 0 0 0 0 0 0 0 127 0" result="hardAlpha"/>
<feOffset dx="-0.547349" dy="2.1894"/>
<feGaussianBlur stdDeviation="0.821023"/>
<feComposite in2="hardAlpha" operator="arithmetic" k2="-1" k3="1"/>
<feColorMatrix type="matrix" values="0 0 0 0 0 0 0 0 0 0 0 0 0 0 0 0 0 0 0.3 0"/>
<feBlend mode="normal" in2="shape" result="effect1_innerShadow_0_1"/>
</filter>
</defs>
</svg>