<svg width="459" height="156" viewBox="0 0 459 156" fill="none" xmlns="http://www.w3.org/2000/svg">
<g filter="url(#filter0_i_2828_4551)">
<path d="M90.3265 107.968C86.5626 107.968 83.6456 107.247 81.5755 105.804C79.5681 104.361 78.1566 102.29 77.3411 99.5927C76.5883 96.8322 76.2119 93.5384 76.2119 89.7113V62.5139H93.1495V87.2645C93.1495 89.5858 93.5886 91.4053 94.4668 92.7228C95.4078 94.0403 96.7879 94.6991 98.6071 94.6991C100.301 94.6991 101.838 93.9776 103.218 92.5346C104.661 91.0916 105.382 88.9898 105.382 86.2293V62.5139H122.32V91.8758L124.296 101.287L122.32 107.027H106.417V102.416L105.476 101.945C104.661 102.761 103.469 103.639 101.901 104.58C100.395 105.522 98.6385 106.337 96.6311 107.027C94.6864 107.655 92.5849 107.968 90.3265 107.968Z" fill="white"/>
<path d="M147.436 107.968C144.738 107.968 142.229 107.592 139.908 106.839C137.649 106.023 135.83 104.643 134.45 102.698C133.07 100.753 132.38 98.0556 132.38 94.605C132.38 91.468 133.164 88.8643 134.732 86.794C136.301 84.7236 138.434 83.1865 141.131 82.1826C143.829 81.1788 146.871 80.6769 150.259 80.6769C153.521 80.6769 155.967 81.0533 157.598 81.8062C159.229 82.4963 160.641 83.2178 161.833 83.9707L162.491 83.406C162.491 81.5239 162.334 79.9554 162.021 78.7006C161.707 77.4458 160.986 76.5047 159.856 75.8774C158.727 75.1872 156.971 74.8422 154.587 74.8422C152.266 74.8422 149.788 75.0618 147.153 75.5009C144.581 75.8774 142.198 76.3793 140.002 77.0067C137.869 77.5713 136.269 78.136 135.203 78.7006V64.5843C137.148 63.8942 139.908 63.2668 143.484 62.7022C147.122 62.0748 151.576 61.7611 156.845 61.7611C162.491 61.7611 166.945 62.4826 170.207 63.9256C173.532 65.3058 175.916 67.3449 177.359 70.0426C178.801 72.6777 179.523 75.846 179.523 79.5476V92.064L181.405 101.569L179.523 107.121H163.432V102.51L162.491 102.04C161.989 102.541 161.111 103.263 159.856 104.204C158.602 105.145 156.939 106.023 154.869 106.839C152.799 107.592 150.321 107.968 147.436 107.968ZM155.434 95.6402C157.128 95.6402 158.57 95.4833 159.762 95.1696C161.017 94.8559 161.927 94.5736 162.491 94.3226V92.5346C162.491 91.719 161.895 90.9347 160.703 90.1819C159.574 89.429 157.786 89.0526 155.34 89.0526C151.952 89.0526 150.259 90.2446 150.259 92.6287C150.259 93.6325 150.635 94.3854 151.388 94.8873C152.14 95.3892 153.489 95.6402 155.434 95.6402Z" fill="white"/>
<path d="M192.774 107.027L192.68 55.4558L190.798 46.0449L192.774 40.3984H209.711V107.027H192.774Z" fill="white"/>
</g>
<g filter="url(#filter1_i_2828_4551)">
<path d="M13.4891 128.326H8.39737V144.73H13.4891C16.2713 144.73 18.4573 143.999 20.0471 142.538C21.6369 141.077 22.4318 139.079 22.4318 136.544C22.4318 133.998 21.6369 131.995 20.0471 130.534C18.4573 129.062 16.2713 128.326 13.4891 128.326ZM13.4891 125.249C15.1541 125.249 16.5828 125.405 17.7751 125.716C18.9782 126.028 20.0793 126.522 21.0783 127.199C22.6037 128.23 23.7799 129.556 24.6071 131.179C25.4449 132.79 25.8639 134.568 25.8639 136.512C25.8639 138.456 25.4449 140.245 24.6071 141.878C23.7692 143.5 22.5929 144.821 21.0783 145.841C20.1008 146.518 19.0051 147.012 17.7913 147.324C16.5774 147.635 15.1433 147.791 13.4891 147.791H5.20699V125.249H13.4891ZM43.8524 146.212C42.8642 146.846 41.8437 147.324 40.791 147.646C39.749 147.958 38.6694 148.113 37.5522 148.113C35.1998 148.113 33.3199 147.388 31.9127 145.938C30.5162 144.477 29.818 142.533 29.818 140.105C29.818 137.882 30.4894 136.077 31.8321 134.691C33.1856 133.305 34.9473 132.613 37.1172 132.613C39.2656 132.613 40.9682 133.316 42.225 134.723C43.4818 136.131 44.1102 138.032 44.1102 140.427V140.862H32.96C33.046 142.27 33.5079 143.371 34.3458 144.166C35.1836 144.95 36.3062 145.342 37.7134 145.342C38.6587 145.342 39.6416 145.17 40.6621 144.826C41.6933 144.472 42.7568 143.94 43.8524 143.231V146.212ZM32.96 138.752H40.8393C40.7426 137.667 40.3505 136.797 39.6631 136.141C38.9756 135.486 38.1162 135.158 37.085 135.158C35.9463 135.158 35.0279 135.465 34.3296 136.077C33.6314 136.678 33.1749 137.57 32.96 138.752ZM47.581 146.776V143.602C48.4726 144.192 49.3319 144.644 50.1591 144.955C50.9862 145.267 51.7435 145.422 52.431 145.422C53.1937 145.422 53.7899 145.283 54.2195 145.003C54.66 144.713 54.8802 144.321 54.8802 143.827C54.8802 143.204 54.0692 142.49 52.4471 141.684C51.9745 141.448 51.6092 141.26 51.3514 141.12C49.9657 140.411 49.015 139.729 48.4994 139.074C47.9838 138.408 47.726 137.597 47.726 136.641C47.726 135.395 48.1718 134.406 49.0634 133.676C49.955 132.946 51.1796 132.58 52.7371 132.58C53.575 132.58 54.3807 132.682 55.1541 132.886C55.9275 133.08 56.6848 133.386 57.426 133.805V136.705C56.513 136.2 55.6751 135.83 54.9124 135.593C54.1605 135.346 53.4461 135.223 52.7694 135.223C52.1463 135.223 51.6629 135.33 51.3192 135.545C50.9862 135.76 50.8197 136.071 50.8197 136.48C50.8197 137.232 51.8563 138.118 53.9295 139.138L54.2034 139.267C55.8255 140.084 56.8836 140.803 57.3777 141.426C57.8718 142.039 58.1189 142.817 58.1189 143.763C58.1189 145.073 57.6248 146.121 56.6365 146.905C55.659 147.689 54.3592 148.081 52.7371 148.081C51.8026 148.081 50.911 147.974 50.0624 147.759C49.2245 147.544 48.3974 147.216 47.581 146.776ZM62.5081 128.52C62.5081 128.047 62.6692 127.65 62.9915 127.327C63.3137 127.005 63.7112 126.844 64.1838 126.844C64.6565 126.844 65.0539 127.005 65.3762 127.327C65.6985 127.65 65.8596 128.047 65.8596 128.52C65.8596 128.993 65.6985 129.39 65.3762 129.712C65.0539 130.034 64.6565 130.196 64.1838 130.196C63.7112 130.196 63.3137 130.034 62.9915 129.712C62.6692 129.39 62.5081 128.993 62.5081 128.52ZM62.7014 147.791V132.903H65.6662V147.791H62.7014ZM72.1018 150.562C72.1018 151.293 72.467 151.841 73.1975 152.206C73.9279 152.582 75.0021 152.77 76.4201 152.77C77.8058 152.77 78.8907 152.587 79.6749 152.222C80.459 151.857 80.8511 151.357 80.8511 150.724C80.8511 150.025 80.4053 149.499 79.5138 149.145C78.6329 148.79 77.3063 148.613 75.5338 148.613C74.5241 148.613 73.697 148.795 73.0524 149.161C72.4187 149.537 72.1018 150.004 72.1018 150.562ZM73.8581 143.038C72.7409 142.694 71.8869 142.125 71.2961 141.33C70.716 140.535 70.426 139.552 70.426 138.381C70.426 136.576 71.0491 135.212 72.2951 134.288C73.5412 133.364 75.3888 132.903 77.838 132.903H83.7515V135.32H81.2378C81.646 135.76 81.9468 136.227 82.1402 136.721C82.3335 137.205 82.4302 137.747 82.4302 138.349C82.4302 139.595 82.0489 140.658 81.2862 141.539C80.5342 142.42 79.5191 142.973 78.2408 143.199C77.9615 143.253 77.5856 143.317 77.1129 143.392C75.5124 143.639 74.7121 144.047 74.7121 144.617C74.7121 145.186 75.8561 145.696 78.1441 146.147C78.7027 146.255 79.1432 146.341 79.4654 146.405C80.9048 146.706 81.9952 147.211 82.7364 147.92C83.4776 148.629 83.8482 149.531 83.8482 150.627C83.8482 152.142 83.2144 153.296 81.9468 154.091C80.69 154.886 78.8585 155.284 76.4523 155.284C74.0998 155.284 72.3005 154.897 71.0544 154.123C69.8191 153.361 69.2014 152.249 69.2014 150.788C69.2014 149.746 69.5613 148.887 70.281 148.21C71.0115 147.533 72.0803 147.066 73.4875 146.808C72.9182 146.55 72.4992 146.276 72.2307 145.986C71.9729 145.686 71.844 145.353 71.844 144.987C71.844 144.601 72.0051 144.252 72.3273 143.94C72.6496 143.628 73.1599 143.328 73.8581 143.038ZM76.4523 135.416C75.5392 135.416 74.7926 135.685 74.2126 136.222C73.6432 136.748 73.3586 137.425 73.3586 138.252C73.3586 139.122 73.6325 139.804 74.1803 140.298C74.7282 140.782 75.4855 141.024 76.4523 141.024C77.4298 141.024 78.2032 140.776 78.7726 140.282C79.3419 139.788 79.6265 139.111 79.6265 138.252C79.6265 137.425 79.3258 136.748 78.7242 136.222C78.1334 135.685 77.3761 135.416 76.4523 135.416ZM87.625 147.791V132.903H90.5898V134.723C91.331 134.014 92.0669 133.499 92.7973 133.177C93.5385 132.844 94.3334 132.677 95.182 132.677C96.7933 132.677 98.0609 133.144 98.9847 134.079C99.9193 135.013 100.387 136.297 100.387 137.93V147.791H97.4218V138.687C97.4218 137.484 97.1639 136.598 96.6483 136.029C96.1435 135.448 95.3539 135.158 94.2797 135.158C93.517 135.158 92.8457 135.309 92.2656 135.61C91.6963 135.9 91.1377 136.383 90.5898 137.06V147.791H87.625ZM120.218 148.081L113.628 132.903H116.754L121.008 142.78L125.101 132.903H127.05L131.208 142.748L135.461 132.903H138.603L131.965 148.081H130.515L126.1 137.301L121.669 148.081H120.218ZM155.11 146.212C154.121 146.846 153.101 147.324 152.048 147.646C151.006 147.958 149.927 148.113 148.809 148.113C146.457 148.113 144.577 147.388 143.17 145.938C141.773 144.477 141.075 142.533 141.075 140.105C141.075 137.882 141.746 136.077 143.089 134.691C144.443 133.305 146.204 132.613 148.374 132.613C150.523 132.613 152.225 133.316 153.482 134.723C154.739 136.131 155.367 138.032 155.367 140.427V140.862H144.217C144.303 142.27 144.765 143.371 145.603 144.166C146.441 144.95 147.563 145.342 148.97 145.342C149.916 145.342 150.899 145.17 151.919 144.826C152.95 144.472 154.014 143.94 155.11 143.231V146.212ZM144.217 138.752H152.096C152 137.667 151.608 136.797 150.92 136.141C150.233 135.486 149.373 135.158 148.342 135.158C147.203 135.158 146.285 135.465 145.587 136.077C144.889 136.678 144.432 137.57 144.217 138.752ZM162.866 144.794C163.403 144.987 163.919 145.132 164.413 145.229C164.907 145.326 165.396 145.374 165.879 145.374C167.448 145.374 168.662 144.939 169.521 144.069C170.391 143.199 170.826 141.963 170.826 140.363C170.826 138.805 170.407 137.575 169.569 136.673C168.731 135.771 167.598 135.32 166.17 135.32C165.6 135.32 165.042 135.411 164.494 135.593C163.957 135.776 163.414 136.055 162.866 136.431V144.794ZM159.869 147.098V125.249H162.866V133.74C163.425 133.343 164.021 133.053 164.655 132.87C165.299 132.677 166.014 132.58 166.798 132.58C168.968 132.58 170.708 133.289 172.019 134.707C173.329 136.114 173.984 137.989 173.984 140.331C173.984 142.812 173.249 144.73 171.777 146.083C170.305 147.437 168.227 148.113 165.541 148.113C164.639 148.113 163.72 148.027 162.786 147.855C161.862 147.694 160.89 147.442 159.869 147.098ZM199.021 142.313L195.234 137.785C193.666 138.73 192.559 139.547 191.915 140.234C191.281 140.922 190.964 141.614 190.964 142.313C190.964 143.129 191.244 143.784 191.802 144.278C192.361 144.773 193.107 145.02 194.042 145.02C194.729 145.02 195.465 144.81 196.249 144.391C197.033 143.961 197.957 143.269 199.021 142.313ZM196.088 134.063C197.248 133.289 198.07 132.591 198.553 131.968C199.037 131.334 199.279 130.658 199.279 129.938C199.279 129.218 199.021 128.627 198.505 128.165C197.989 127.693 197.323 127.456 196.507 127.456C195.734 127.456 195.084 127.693 194.557 128.165C194.031 128.638 193.768 129.218 193.768 129.906C193.768 130.443 193.967 131.076 194.364 131.807C194.772 132.527 195.347 133.279 196.088 134.063ZM207.867 147.791H203.677L200.97 144.552C199.842 145.809 198.693 146.733 197.522 147.324C196.362 147.904 195.111 148.194 193.768 148.194C191.899 148.194 190.4 147.673 189.272 146.631C188.155 145.589 187.597 144.214 187.597 142.506C187.597 141.228 188.032 140.057 188.902 138.993C189.783 137.93 191.244 136.813 193.284 135.642C192.371 134.739 191.7 133.848 191.27 132.967C190.851 132.075 190.642 131.141 190.642 130.163C190.642 128.574 191.174 127.295 192.237 126.328C193.301 125.351 194.702 124.862 196.443 124.862C198.183 124.862 199.585 125.329 200.648 126.264C201.722 127.199 202.259 128.412 202.259 129.906C202.259 131.141 201.921 132.253 201.244 133.241C200.578 134.218 199.499 135.185 198.006 136.141L201.293 139.976C201.722 139.493 202.136 138.94 202.533 138.317C202.942 137.694 203.344 136.979 203.742 136.174H207.109C206.701 137.301 206.18 138.381 205.546 139.412C204.923 140.433 204.188 141.41 203.339 142.345L207.867 147.791Z" fill="white"/>
<path d="M230.454 128.326H225.362V144.73H230.454C233.236 144.73 235.422 143.999 237.012 142.538C238.602 141.077 239.397 139.079 239.397 136.544C239.397 133.998 238.602 131.995 237.012 130.534C235.422 129.062 233.236 128.326 230.454 128.326ZM230.454 125.249C232.119 125.249 233.548 125.405 234.74 125.716C235.943 126.028 237.044 126.522 238.043 127.199C239.569 128.23 240.745 129.556 241.572 131.179C242.41 132.79 242.829 134.568 242.829 136.512C242.829 138.456 242.41 140.245 241.572 141.878C240.734 143.5 239.558 144.821 238.043 145.841C237.066 146.518 235.97 147.012 234.756 147.324C233.542 147.635 232.108 147.791 230.454 147.791H222.172V125.249H230.454ZM260.817 146.212C259.829 146.846 258.809 147.324 257.756 147.646C256.714 147.958 255.634 148.113 254.517 148.113C252.165 148.113 250.285 147.388 248.878 145.938C247.481 144.477 246.783 142.533 246.783 140.105C246.783 137.882 247.454 136.077 248.797 134.691C250.151 133.305 251.912 132.613 254.082 132.613C256.231 132.613 257.933 133.316 259.19 134.723C260.447 136.131 261.075 138.032 261.075 140.427V140.862H249.925C250.011 142.27 250.473 143.371 251.311 144.166C252.149 144.95 253.271 145.342 254.678 145.342C255.624 145.342 256.606 145.17 257.627 144.826C258.658 144.472 259.722 143.94 260.817 143.231V146.212ZM249.925 138.752H257.804C257.708 137.667 257.315 136.797 256.628 136.141C255.94 135.486 255.081 135.158 254.05 135.158C252.911 135.158 251.993 135.465 251.295 136.077C250.596 136.678 250.14 137.57 249.925 138.752ZM251.713 130.792L255.081 125.184H257.949L253.421 130.792H251.713ZM270.33 148.081L263.16 132.903H266.463L271.056 142.78L275.342 132.903H278.58L271.716 148.081H270.33ZM294.893 146.212C293.905 146.846 292.884 147.324 291.832 147.646C290.79 147.958 289.71 148.113 288.593 148.113C286.24 148.113 284.361 147.388 282.953 145.938C281.557 144.477 280.859 142.533 280.859 140.105C280.859 137.882 281.53 136.077 282.873 134.691C284.226 133.305 285.988 132.613 288.158 132.613C290.306 132.613 292.009 133.316 293.266 134.723C294.523 136.131 295.151 138.032 295.151 140.427V140.862H284.001C284.087 142.27 284.549 143.371 285.386 144.166C286.224 144.95 287.347 145.342 288.754 145.342C289.699 145.342 290.682 145.17 291.703 144.826C292.734 144.472 293.797 143.94 294.893 143.231V146.212ZM284.001 138.752H291.88C291.783 137.667 291.391 136.797 290.704 136.141C290.016 135.486 289.157 135.158 288.126 135.158C286.987 135.158 286.069 135.465 285.37 136.077C284.672 136.678 284.216 137.57 284.001 138.752ZM299.685 147.791V125.249H302.65V147.791H299.685ZM310.342 140.331C310.342 141.716 310.81 142.898 311.744 143.876C312.679 144.853 313.807 145.342 315.128 145.342C316.438 145.342 317.561 144.853 318.495 143.876C319.441 142.887 319.913 141.706 319.913 140.331C319.913 138.966 319.446 137.796 318.512 136.818C317.577 135.841 316.449 135.352 315.128 135.352C313.807 135.352 312.679 135.841 311.744 136.818C310.81 137.796 310.342 138.966 310.342 140.331ZM307.232 140.331C307.232 138.172 308.001 136.34 309.537 134.836C311.073 133.332 312.947 132.58 315.16 132.58C316.202 132.58 317.196 132.779 318.141 133.177C319.097 133.563 319.951 134.122 320.703 134.852C321.466 135.626 322.046 136.474 322.443 137.398C322.841 138.322 323.039 139.299 323.039 140.331C323.039 141.351 322.835 142.345 322.427 143.312C322.019 144.278 321.444 145.122 320.703 145.841C319.951 146.583 319.102 147.141 318.157 147.517C317.223 147.893 316.224 148.081 315.16 148.081C312.947 148.081 311.073 147.329 309.537 145.825C308.001 144.321 307.232 142.49 307.232 140.331ZM330.571 136.174V144.52C331.054 144.875 331.543 145.138 332.037 145.31C332.542 145.471 333.079 145.551 333.648 145.551C335.163 145.551 336.355 145.089 337.225 144.166C338.095 143.231 338.53 141.953 338.53 140.331C338.53 138.719 338.095 137.457 337.225 136.544C336.355 135.62 335.163 135.158 333.648 135.158C333.079 135.158 332.542 135.239 332.037 135.4C331.543 135.561 331.054 135.819 330.571 136.174ZM327.574 155.284V132.903H330.571V133.74C331.129 133.343 331.72 133.053 332.343 132.87C332.966 132.677 333.654 132.58 334.405 132.58C336.554 132.58 338.305 133.3 339.658 134.739C341.012 136.179 341.689 138.043 341.689 140.331C341.689 142.619 341.012 144.482 339.658 145.922C338.305 147.361 336.554 148.081 334.405 148.081C333.632 148.081 332.934 147.99 332.311 147.807C331.698 147.635 331.118 147.356 330.571 146.969V155.284H327.574ZM349.3 136.174V144.52C349.784 144.875 350.272 145.138 350.767 145.31C351.271 145.471 351.809 145.551 352.378 145.551C353.893 145.551 355.085 145.089 355.955 144.166C356.825 143.231 357.26 141.953 357.26 140.331C357.26 138.719 356.825 137.457 355.955 136.544C355.085 135.62 353.893 135.158 352.378 135.158C351.809 135.158 351.271 135.239 350.767 135.4C350.272 135.561 349.784 135.819 349.3 136.174ZM346.303 155.284V132.903H349.3V133.74C349.859 133.343 350.45 133.053 351.073 132.87C351.696 132.677 352.383 132.58 353.135 132.58C355.284 132.58 357.035 133.3 358.388 134.739C359.742 136.179 360.418 138.043 360.418 140.331C360.418 142.619 359.742 144.482 358.388 145.922C357.035 147.361 355.284 148.081 353.135 148.081C352.362 148.081 351.664 147.99 351.041 147.807C350.428 147.635 349.848 147.356 349.3 146.969V155.284H346.303ZM378.036 146.212C377.048 146.846 376.028 147.324 374.975 147.646C373.933 147.958 372.853 148.113 371.736 148.113C369.384 148.113 367.504 147.388 366.097 145.938C364.7 144.477 364.002 142.533 364.002 140.105C364.002 137.882 364.673 136.077 366.016 134.691C367.369 133.305 369.131 132.613 371.301 132.613C373.449 132.613 375.152 133.316 376.409 134.723C377.666 136.131 378.294 138.032 378.294 140.427V140.862H367.144C367.23 142.27 367.692 143.371 368.53 144.166C369.367 144.95 370.49 145.342 371.897 145.342C372.843 145.342 373.825 145.17 374.846 144.826C375.877 144.472 376.941 143.94 378.036 143.231V146.212ZM367.144 138.752H375.023C374.926 137.667 374.534 136.797 373.847 136.141C373.159 135.486 372.3 135.158 371.269 135.158C370.13 135.158 369.212 135.465 368.513 136.077C367.815 136.678 367.359 137.57 367.144 138.752ZM382.732 147.791V132.903H385.696V134.723C386.438 134.014 387.173 133.499 387.904 133.177C388.645 132.844 389.44 132.677 390.289 132.677C391.384 132.677 392.297 132.881 393.028 133.289C393.769 133.687 394.392 134.321 394.897 135.191C395.81 134.288 396.664 133.644 397.459 133.257C398.265 132.87 399.119 132.677 400.021 132.677C401.643 132.677 402.921 133.144 403.856 134.079C404.801 135.013 405.274 136.297 405.274 137.93V147.791H402.261V138.687C402.261 137.473 402.008 136.582 401.503 136.012C401.009 135.443 400.23 135.158 399.167 135.158C398.383 135.158 397.701 135.309 397.121 135.61C396.54 135.9 395.977 136.383 395.429 137.06V147.791H392.528V138.687C392.528 137.484 392.271 136.598 391.755 136.029C391.25 135.448 390.461 135.158 389.386 135.158C388.624 135.158 387.952 135.309 387.372 135.61C386.803 135.9 386.244 136.383 385.696 137.06V147.791H382.732ZM423.649 146.212C422.661 146.846 421.64 147.324 420.588 147.646C419.546 147.958 418.466 148.113 417.349 148.113C414.996 148.113 413.116 147.388 411.709 145.938C410.313 144.477 409.615 142.533 409.615 140.105C409.615 137.882 410.286 136.077 411.629 134.691C412.982 133.305 414.744 132.613 416.914 132.613C419.062 132.613 420.765 133.316 422.022 134.723C423.278 136.131 423.907 138.032 423.907 140.427V140.862H412.757C412.843 142.27 413.304 143.371 414.142 144.166C414.98 144.95 416.103 145.342 417.51 145.342C418.455 145.342 419.438 145.17 420.459 144.826C421.49 144.472 422.553 143.94 423.649 143.231V146.212ZM412.757 138.752H420.636C420.539 137.667 420.147 136.797 419.46 136.141C418.772 135.486 417.913 135.158 416.882 135.158C415.743 135.158 414.824 135.465 414.126 136.077C413.428 136.678 412.971 137.57 412.757 138.752ZM428.344 147.791V132.903H431.309V134.723C432.05 134.014 432.786 133.499 433.517 133.177C434.258 132.844 435.053 132.677 435.901 132.677C437.513 132.677 438.78 133.144 439.704 134.079C440.639 135.013 441.106 136.297 441.106 137.93V147.791H438.141V138.687C438.141 137.484 437.883 136.598 437.368 136.029C436.863 135.448 436.073 135.158 434.999 135.158C434.236 135.158 433.565 135.309 432.985 135.61C432.416 135.9 431.857 136.383 431.309 137.06V147.791H428.344ZM454.679 147.324C454.218 147.582 453.718 147.77 453.181 147.888C452.655 148.017 452.085 148.081 451.473 148.081C449.797 148.081 448.616 147.684 447.928 146.889C447.251 146.094 446.913 144.644 446.913 142.538V135.481H444.383V135.191L449.588 129.438H449.926V132.903H454.583V135.481H449.926V142.313C449.926 143.548 450.076 144.348 450.377 144.713C450.689 145.068 451.263 145.245 452.101 145.245C452.553 145.245 452.993 145.186 453.423 145.068C453.852 144.95 454.271 144.767 454.679 144.52V147.324Z" fill="#FC5050"/>
</g>
<path fill-rule="evenodd" clip-rule="evenodd" d="M236.6 54.0915V99.2768H261.353C265.23 99.2768 268.995 98.8638 272.65 98.0377C274.311 97.6681 275.893 97.1661 277.398 96.5318C276.112 98.3346 274.624 99.8544 272.934 101.091C269.999 103.239 266.676 104.726 262.966 105.552C259.311 106.378 255.546 106.791 251.669 106.791H226.916V61.6056L225.255 53.345L226.916 48.3061H235.437L236.6 54.0915ZM235.437 48.3061L234.939 45.8309L236.6 40.792H261.353C265.341 40.792 269.161 41.1775 272.816 41.9485C276.527 42.6644 279.821 44.0411 282.701 46.0788C285.636 48.1164 287.934 51.0351 289.595 54.835C291.312 58.6348 292.17 63.5636 292.17 69.6214C292.17 75.6791 291.312 80.663 289.595 84.573C287.879 88.4279 285.553 91.4293 282.618 93.577C280.996 94.7637 279.256 95.7486 277.398 96.5318C278.346 95.2038 279.183 93.7222 279.911 92.0871C281.628 88.1771 282.486 83.1932 282.486 77.1354C282.486 71.0777 281.628 66.1489 279.911 62.349C278.25 58.5492 275.952 55.6304 273.017 53.5928C270.138 51.5552 266.843 50.1785 263.132 49.4625C259.478 48.6916 255.657 48.3061 251.669 48.3061H235.437ZM261.353 86.0599H251.718V61.523C256.512 61.5307 260.206 62.6872 262.8 64.9924C265.458 67.2503 266.787 71.298 266.787 77.1354C266.787 80.5516 266.342 83.4113 265.45 85.7147C264.188 85.9448 262.822 86.0599 261.353 86.0599ZM265.45 85.7147C268.377 85.1813 270.749 84.0298 272.567 82.26C275.17 79.6717 276.471 75.4588 276.471 69.6214C276.471 63.7839 275.142 59.7362 272.484 57.4783C269.881 55.1654 266.171 54.0089 261.353 54.0089H251.718V61.523C251.702 61.523 251.686 61.523 251.669 61.523H242.034V93.574H251.669C256.543 93.574 260.281 92.3074 262.883 89.7741C263.963 88.7005 264.818 87.3474 265.45 85.7147Z" fill="#3F3F3F"/>
<g filter="url(#filter2_i_2828_4551)">
<path d="M5.81164 107.025V55.548L3.92969 46.1371L5.81164 40.3965H33.8527C38.3694 40.3965 42.6979 40.8357 46.8381 41.714C51.0412 42.5296 54.7737 44.0981 58.0357 46.4194C61.3605 48.7408 63.9639 52.0659 65.8458 56.3949C67.7905 60.7239 68.7629 66.3391 68.7629 73.2404C68.7629 80.1417 67.7905 85.8195 65.8458 90.274C63.9012 94.6657 61.2664 98.085 57.9417 100.532C54.6169 102.979 50.853 104.673 46.6499 105.614C42.5097 106.555 38.2439 107.025 33.8527 107.025H5.81164ZM22.9374 91.968H33.8527C39.3731 91.968 43.6075 90.525 46.5559 87.639C49.5042 84.6902 50.9784 79.8907 50.9784 73.2404C50.9784 66.59 49.4729 61.9787 46.4618 59.4064C43.5134 56.7714 39.3103 55.4538 33.8527 55.4538H22.9374V91.968Z" fill="white"/>
</g>
<path d="M327.416 107.966C323.088 107.966 319.167 107.245 315.654 105.802C312.204 104.359 309.444 101.943 307.373 98.5552C305.366 95.1673 304.362 90.5873 304.362 84.8154C304.362 78.9806 305.46 74.4007 307.656 71.0755C309.851 67.6876 312.706 65.2721 316.219 63.8291C319.732 62.3861 323.464 61.6646 327.416 61.6646C330.866 61.6646 333.815 61.7901 336.261 62.0411C338.771 62.292 340.433 62.5116 341.249 62.6998L348.588 70.9814L341.06 81.2392L330.239 74.8399C324.844 74.8399 322.147 78.165 322.147 84.8154C322.147 88.266 322.962 90.8069 324.593 92.4382C326.224 94.0066 328.734 94.7909 332.121 94.7909C335.509 94.7909 338.551 94.3203 341.249 93.3792C343.946 92.4381 346.047 91.5598 347.553 90.7442V104.296C345.608 105.3 343.036 106.178 339.837 106.931C336.7 107.621 332.56 107.966 327.416 107.966Z" fill="#3F3F3F"/>
<path d="M358.107 107.025L358.013 55.4535L356.131 46.0426L358.107 40.3961H375.044V107.025H358.107Z" fill="#3F3F3F"/>
<path d="M433.552 107.966C429.223 107.966 425.302 107.245 421.789 105.802C418.339 104.359 415.579 101.943 413.509 98.5552C411.501 95.1673 410.498 90.5873 410.498 84.8154C410.498 78.9806 411.595 74.4007 413.791 71.0755C415.987 67.6876 418.841 65.2721 422.354 63.8291C425.867 62.3861 429.599 61.6646 433.552 61.6646C437.002 61.6646 439.95 61.7901 442.397 62.0411C444.906 62.292 446.568 62.5116 447.384 62.6998L454.723 70.9814L447.196 81.2392L436.374 74.8399C430.98 74.8399 428.282 78.165 428.282 84.8154C428.282 88.266 429.098 90.8069 430.729 92.4382C432.36 94.0066 434.869 94.7909 438.256 94.7909C441.644 94.7909 444.686 94.3203 447.384 93.3792C450.081 92.4381 452.183 91.5598 453.688 90.7442V104.296C451.744 105.3 449.172 106.178 445.972 106.931C442.836 107.621 438.696 107.966 433.552 107.966Z" fill="#3F3F3F"/>
<path fill-rule="evenodd" clip-rule="evenodd" d="M386.315 75.875V107.025H403.253V62.6057H386.221L384.339 68.3464L386.315 75.875Z" fill="#3F3F3F"/>
<path fill-rule="evenodd" clip-rule="evenodd" d="M391.871 38.792C391.864 38.7996 391.856 38.8071 391.848 38.8147L391.871 38.792ZM391.837 56.9061C391.845 56.9138 391.852 56.9214 391.86 56.929L391.837 56.9061Z" fill="#3F3F3F"/>
<g filter="url(#filter3_i_2828_4551)">
<path d="M399.407 40.4909L390.107 40.5013C387.643 40.504 385.642 42.4941 385.62 44.9535L385.61 54.3233C385.626 56.7641 387.594 58.7396 390.034 58.7651L399.441 58.7915C399.74 58.7901 400.032 58.7594 400.314 58.7021C402.369 58.2857 403.917 56.4649 403.91 54.287L403.884 44.9505C403.877 42.482 401.876 40.4882 399.407 40.4909Z" fill="#FC5050"/>
</g>
<defs>
<filter id="filter0_i_2828_4551" x="75.2953" y="40.3984" width="134.416" height="70.3203" filterUnits="userSpaceOnUse" color-interpolation-filters="sRGB">
<feFlood flood-opacity="0" result="BackgroundImageFix"/>
<feBlend mode="normal" in="SourceGraphic" in2="BackgroundImageFix" result="shape"/>
<feColorMatrix in="SourceAlpha" type="matrix" values="0 0 0 0 0 0 0 0 0 0 0 0 0 0 0 0 0 0 127 0" result="hardAlpha"/>
<feOffset dx="-0.916651" dy="3.66661"/>
<feGaussianBlur stdDeviation="1.37498"/>
<feComposite in2="hardAlpha" operator="arithmetic" k2="-1" k3="1"/>
<feColorMatrix type="matrix" values="0 0 0 0 0 0 0 0 0 0 0 0 0 0 0 0 0 0 0.3 0"/>
<feBlend mode="normal" in2="shape" result="effect1_innerShadow_2828_4551"/>
</filter>
<filter id="filter1_i_2828_4551" x="2.20703" y="121.862" width="452.473" height="33.4209" filterUnits="userSpaceOnUse" color-interpolation-filters="sRGB">
<feFlood flood-opacity="0" result="BackgroundImageFix"/>
<feBlend mode="normal" in="SourceGraphic" in2="BackgroundImageFix" result="shape"/>
<feColorMatrix in="SourceAlpha" type="matrix" values="0 0 0 0 0 0 0 0 0 0 0 0 0 0 0 0 0 0 127 0" result="hardAlpha"/>
<feOffset dx="-5" dy="-4"/>
<feGaussianBlur stdDeviation="1.5"/>
<feComposite in2="hardAlpha" operator="arithmetic" k2="-1" k3="1"/>
<feColorMatrix type="matrix" values="0 0 0 0 0 0 0 0 0 0 0 0 0 0 0 0 0 0 0.16 0"/>
<feBlend mode="normal" in2="shape" result="effect1_innerShadow_2828_4551"/>
</filter>
<filter id="filter2_i_2828_4551" x="3.01304" y="40.3965" width="65.7497" height="69.3789" filterUnits="userSpaceOnUse" color-interpolation-filters="sRGB">
<feFlood flood-opacity="0" result="BackgroundImageFix"/>
<feBlend mode="normal" in="SourceGraphic" in2="BackgroundImageFix" result="shape"/>
<feColorMatrix in="SourceAlpha" type="matrix" values="0 0 0 0 0 0 0 0 0 0 0 0 0 0 0 0 0 0 127 0" result="hardAlpha"/>
<feOffset dx="-0.916651" dy="3.66661"/>
<feGaussianBlur stdDeviation="1.37498"/>
<feComposite in2="hardAlpha" operator="arithmetic" k2="-1" k3="1"/>
<feColorMatrix type="matrix" values="0 0 0 0 0 0 0 0 0 0 0 0 0 0 0 0 0 0 0.3 0"/>
<feBlend mode="normal" in2="shape" result="effect1_innerShadow_2828_4551"/>
</filter>
<filter id="filter3_i_2828_4551" x="384.693" y="40.4912" width="19.2174" height="21.0507" filterUnits="userSpaceOnUse" color-interpolation-filters="sRGB">
<feFlood flood-opacity="0" result="BackgroundImageFix"/>
<feBlend mode="normal" in="SourceGraphic" in2="BackgroundImageFix" result="shape"/>
<feColorMatrix in="SourceAlpha" type="matrix" values="0 0 0 0 0 0 0 0 0 0 0 0 0 0 0 0 0 0 127 0" result="hardAlpha"/>
<feOffset dx="-0.916651" dy="3.66661"/>
<feGaussianBlur stdDeviation="1.37498"/>
<feComposite in2="hardAlpha" operator="arithmetic" k2="-1" k3="1"/>
<feColorMatrix type="matrix" values="0 0 0 0 0 0 0 0 0 0 0 0 0 0 0 0 0 0 0.3 0"/>
<feBlend mode="normal" in2="shape" result="effect1_innerShadow_2828_4551"/>
</filter>
</defs>
</svg>