<svg width="244" height="42" viewBox="0 0 244 42" fill="none" xmlns="http://www.w3.org/2000/svg">
<path d="M47.3146 41.8802C45.2862 41.8802 43.7142 41.4918 42.5985 40.7149C41.5167 39.938 40.756 38.8234 40.3165 37.371C39.9109 35.8848 39.708 34.1114 39.708 32.051V17.4085H48.836V30.7337C48.836 31.9835 49.0726 32.963 49.5459 33.6723C50.053 34.3817 50.7968 34.7363 51.7772 34.7363C52.69 34.7363 53.5183 34.3479 54.262 33.571C55.0396 32.7941 55.4284 31.6626 55.4284 30.1764V17.4085H64.5563V33.2163L65.6212 38.2829L64.5563 41.3736H55.9862V38.8909L55.4791 38.6376C55.0396 39.0767 54.3972 39.5496 53.5521 40.0563C52.7407 40.5629 51.7941 41.002 50.7123 41.3736C49.6642 41.7114 48.5317 41.8802 47.3146 41.8802Z" fill="#3F3F3F"/>
<path d="M78.0918 41.8802C76.638 41.8802 75.2858 41.6776 74.0349 41.2722C72.8178 40.8331 71.8374 40.09 71.0937 39.0429C70.3499 37.9958 69.978 36.5434 69.978 34.6856C69.978 32.9968 70.4006 31.595 71.2458 30.4804C72.091 29.3657 73.2404 28.5382 74.6941 27.9977C76.1478 27.4573 77.7875 27.1871 79.6131 27.1871C81.3711 27.1871 82.6895 27.3897 83.5685 27.7951C84.4475 28.1666 85.2082 28.555 85.8505 28.9604L86.2055 28.6564C86.2055 27.6431 86.121 26.7986 85.9519 26.1231C85.7829 25.4475 85.3941 24.9409 84.7856 24.6031C84.1771 24.2315 83.2305 24.0458 81.9458 24.0458C80.6949 24.0458 79.3595 24.164 77.9396 24.4004C76.5535 24.6031 75.2689 24.8733 74.0856 25.2111C72.9362 25.5151 72.0741 25.8191 71.4993 26.1231V18.5231C72.5474 18.1516 74.0349 17.8138 75.9619 17.5098C77.9227 17.1721 80.323 17.0032 83.1628 17.0032C86.2055 17.0032 88.6058 17.3916 90.3638 18.1685C92.1556 18.9116 93.4402 20.0094 94.2178 21.4618C94.9954 22.8804 95.3842 24.5862 95.3842 26.5791V33.3177L96.3984 38.4349L95.3842 41.4242H86.7126V38.9416L86.2055 38.6883C85.935 38.9585 85.4617 39.3469 84.7856 39.8536C84.1094 40.3603 83.2136 40.8331 82.0979 41.2722C80.9823 41.6776 79.6469 41.8802 78.0918 41.8802ZM82.4022 35.243C83.315 35.243 84.0925 35.1585 84.7349 34.9896C85.411 34.8208 85.9012 34.6688 86.2055 34.5337V33.571C86.2055 33.1319 85.8843 32.7097 85.242 32.3043C84.6335 31.899 83.67 31.6963 82.3515 31.6963C80.5259 31.6963 79.6131 32.3381 79.6131 33.6217C79.6131 34.1621 79.8159 34.5674 80.2216 34.8376C80.6273 35.1079 81.3542 35.243 82.4022 35.243Z" fill="#3F3F3F"/>
<path d="M102.525 41.3736L102.475 13.6085L101.46 8.54192L102.525 5.50195H111.653V41.3736H102.525Z" fill="#3F3F3F"/>
<path fill-rule="evenodd" clip-rule="evenodd" d="M126.144 12.875V37.2019H139.484C141.573 37.2019 143.603 36.9795 145.572 36.5348C146.467 36.3358 147.32 36.0655 148.131 35.724C147.438 36.6946 146.636 37.5128 145.725 38.1787C144.144 39.335 142.353 40.1355 140.354 40.5802C138.384 41.0249 136.355 41.2473 134.266 41.2473H120.926V16.9205L120.03 12.4731L120.926 9.76027H125.517L126.144 12.875ZM125.517 9.76027L125.249 8.42771L126.144 5.71484H139.484C141.633 5.71484 143.692 5.92238 145.662 6.33747C147.662 6.7229 149.437 7.46412 150.989 8.56113C152.571 9.65813 153.809 11.2295 154.705 13.2753C155.63 15.3211 156.092 17.9746 156.092 21.236C156.092 24.4974 155.63 27.1806 154.705 29.2857C153.779 31.3611 152.526 32.9769 150.944 34.1332C150.07 34.7721 149.133 35.3024 148.131 35.724C148.642 35.009 149.093 34.2114 149.486 33.3311C150.411 31.226 150.873 28.5428 150.873 25.2814C150.873 22.0201 150.411 19.3665 149.486 17.3207C148.59 15.2749 147.352 13.7036 145.77 12.6066C144.218 11.5095 142.443 10.7683 140.443 10.3829C138.473 9.96781 136.414 9.76027 134.266 9.76027H125.517ZM139.484 30.0862H134.292V16.876C136.875 16.8802 138.866 17.5028 140.264 18.7439C141.697 19.9595 142.413 22.1386 142.413 25.2814C142.413 27.1206 142.173 28.6602 141.692 29.9003C141.012 30.0242 140.276 30.0862 139.484 30.0862ZM141.692 29.9003C143.269 29.6132 144.548 28.9932 145.528 28.0404C146.93 26.6469 147.632 24.3788 147.632 21.236C147.632 18.0932 146.915 15.914 145.483 14.6984C144.08 13.4532 142.081 12.8306 139.484 12.8306H134.292V16.876C134.283 16.876 134.274 16.876 134.266 16.876H129.073V34.1316H134.266C136.892 34.1316 138.906 33.4497 140.309 32.0858C140.891 31.5078 141.352 30.7793 141.692 29.9003Z" fill="#3F3F3F"/>
<path d="M1.76812 41.3726V13.6582L0.753906 8.59161L1.76812 5.50098H16.88C19.3141 5.50098 21.6468 5.73742 23.8781 6.2103C26.1431 6.64941 28.1547 7.49384 29.9126 8.74361C31.7044 9.99337 33.1074 11.7836 34.1216 14.1142C35.1697 16.4449 35.6937 19.4679 35.6937 23.1835C35.6937 26.899 35.1697 29.9558 34.1216 32.354C33.0736 34.7184 31.6537 36.5593 29.8619 37.8766C28.0701 39.194 26.0417 40.1059 23.7766 40.6126C21.5454 41.1193 19.2465 41.3726 16.88 41.3726H1.76812ZM10.9975 33.266H16.88C19.855 33.266 22.137 32.4891 23.7259 30.9354C25.3149 29.3478 26.1093 26.7639 26.1093 23.1835C26.1093 19.603 25.298 17.1204 23.6752 15.7355C22.0863 14.3169 19.8212 13.6076 16.88 13.6076H10.9975V33.266Z" fill="#3F3F3F"/>
<path d="M175.087 41.8796C172.755 41.8796 170.642 41.4912 168.748 40.7143C166.889 39.9374 165.401 38.637 164.286 36.813C163.204 34.989 162.663 32.5233 162.663 29.4157C162.663 26.2744 163.255 23.8087 164.438 22.0185C165.621 20.1945 167.159 18.8941 169.053 18.1172C170.946 17.3403 172.957 16.9519 175.087 16.9519C176.947 16.9519 178.536 17.0194 179.854 17.1545C181.206 17.2896 182.102 17.4079 182.542 17.5092L186.497 21.9678L182.44 27.4904L176.609 24.0451C173.701 24.0451 172.247 25.8353 172.247 29.4157C172.247 31.2735 172.687 32.6415 173.566 33.5197C174.445 34.3641 175.797 34.7863 177.623 34.7863C179.448 34.7863 181.088 34.533 182.542 34.0263C183.995 33.5197 185.128 33.0468 185.939 32.6077V39.9036C184.891 40.4441 183.505 40.9169 181.781 41.3223C180.091 41.6938 177.859 41.8796 175.087 41.8796Z" fill="#3F3F3F"/>
<path d="M191.627 41.3729L191.576 13.6079L190.562 8.54128L191.627 5.50131H200.755V41.3729H191.627Z" fill="#3F3F3F"/>
<path d="M232.286 41.8796C229.953 41.8796 227.84 41.4912 225.947 40.7143C224.087 39.9374 222.6 38.637 221.484 36.813C220.402 34.989 219.861 32.5233 219.861 29.4157C219.861 26.2744 220.453 23.8087 221.636 22.0185C222.819 20.1945 224.358 18.8941 226.251 18.1172C228.144 17.3403 230.156 16.9519 232.286 16.9519C234.145 16.9519 235.734 17.0194 237.052 17.1545C238.405 17.2896 239.301 17.4079 239.74 17.5092L243.695 21.9678L239.639 27.4904L233.807 24.0451C230.899 24.0451 229.446 25.8353 229.446 29.4157C229.446 31.2735 229.885 32.6415 230.764 33.5197C231.643 34.3641 232.995 34.7863 234.821 34.7863C236.647 34.7863 238.286 34.533 239.74 34.0263C241.194 33.5197 242.326 33.0468 243.138 32.6077V39.9036C242.09 40.4441 240.704 40.9169 238.979 41.3223C237.289 41.6938 235.058 41.8796 232.286 41.8796Z" fill="#3F3F3F"/>
<path fill-rule="evenodd" clip-rule="evenodd" d="M206.829 24.6024V41.3729H215.957V17.4585H206.778L205.764 20.5492L206.829 24.6024Z" fill="#3F3F3F"/>
<path fill-rule="evenodd" clip-rule="evenodd" d="M209.823 4.6377C209.819 4.64176 209.815 4.64583 209.811 4.64993L209.823 4.6377ZM209.805 14.3899C209.809 14.3941 209.813 14.3982 209.817 14.4023L209.805 14.3899Z" fill="#3F3F3F"/>
<g filter="url(#filter0_i_0_1)">
<path d="M214.042 4.40437L209.03 4.40993C207.702 4.4114 206.623 5.48285 206.612 6.80692L206.606 11.8514C206.615 13.1655 207.675 14.2291 208.991 14.2428L214.06 14.257C214.221 14.2563 214.379 14.2397 214.531 14.2089C215.638 13.9847 216.472 13.0044 216.469 11.8319L216.455 6.80529C216.451 5.4763 215.372 4.40289 214.042 4.40437Z" fill="#4087FF"/>
</g>
<defs>
<filter id="filter0_i_0_1" x="205.554" y="4.4043" width="10.9151" height="13.0109" filterUnits="userSpaceOnUse" color-interpolation-filters="sRGB">
<feFlood flood-opacity="0" result="BackgroundImageFix"/>
<feBlend mode="normal" in="SourceGraphic" in2="BackgroundImageFix" result="shape"/>
<feColorMatrix in="SourceAlpha" type="matrix" values="0 0 0 0 0 0 0 0 0 0 0 0 0 0 0 0 0 0 127 0" result="hardAlpha"/>
<feOffset dx="-1.05278" dy="4.21112"/>
<feGaussianBlur stdDeviation="1.57917"/>
<feComposite in2="hardAlpha" operator="arithmetic" k2="-1" k3="1"/>
<feColorMatrix type="matrix" values="0 0 0 0 0 0 0 0 0 0 0 0 0 0 0 0 0 0 0.3 0"/>
<feBlend mode="normal" in2="shape" result="effect1_innerShadow_0_1"/>
</filter>
</defs>
</svg>