<svg width="452" height="123" viewBox="0 0 452 123" fill="none" xmlns="http://www.w3.org/2000/svg">
<g filter="url(#filter0_i_0_1)">
<path d="M87.3265 74.9684C83.5626 74.9684 80.6456 74.2469 78.5755 72.8039C76.5681 71.3609 75.1566 69.2905 74.3411 66.5927C73.5883 63.8322 73.2119 60.5384 73.2119 56.7113V29.5139H90.1495V54.2645C90.1495 56.5858 90.5886 58.4053 91.4668 59.7228C92.4078 61.0403 93.7879 61.6991 95.6071 61.6991C97.3009 61.6991 98.8378 60.9776 100.218 59.5346C101.661 58.0916 102.382 55.9898 102.382 53.2293V29.5139H119.32V58.8758L121.296 68.2867L119.32 74.0273H103.417V69.416L102.476 68.9454C101.661 69.761 100.469 70.6394 98.9005 71.5805C97.395 72.5216 95.6385 73.3372 93.6311 74.0273C91.6864 74.6547 89.5849 74.9684 87.3265 74.9684Z" fill="white"/>
<path d="M144.436 74.9684C141.738 74.9684 139.229 74.5919 136.908 73.8391C134.649 73.0235 132.83 71.6432 131.45 69.6983C130.07 67.7534 129.38 65.0556 129.38 61.605C129.38 58.468 130.164 55.8643 131.732 53.794C133.301 51.7236 135.434 50.1865 138.131 49.1826C140.829 48.1788 143.871 47.6769 147.259 47.6769C150.521 47.6769 152.967 48.0533 154.598 48.8062C156.229 49.4963 157.641 50.2178 158.833 50.9707L159.491 50.406C159.491 48.5239 159.334 46.9554 159.021 45.7006C158.707 44.4458 157.986 43.5047 156.856 42.8774C155.727 42.1872 153.971 41.8422 151.587 41.8422C149.266 41.8422 146.788 42.0618 144.153 42.5009C141.581 42.8774 139.198 43.3793 137.002 44.0067C134.869 44.5713 133.269 45.136 132.203 45.7006V31.5843C134.148 30.8942 136.908 30.2668 140.484 29.7022C144.122 29.0748 148.576 28.7611 153.845 28.7611C159.491 28.7611 163.945 29.4826 167.207 30.9256C170.532 32.3058 172.916 34.3449 174.359 37.0426C175.801 39.6777 176.523 42.846 176.523 46.5476V59.064L178.405 68.569L176.523 74.1214H160.432V69.5101L159.491 69.0395C158.989 69.5414 158.111 70.263 156.856 71.204C155.602 72.1451 153.939 73.0235 151.869 73.8391C149.799 74.5919 147.321 74.9684 144.436 74.9684ZM152.434 62.6402C154.128 62.6402 155.57 62.4833 156.762 62.1696C158.017 61.8559 158.927 61.5736 159.491 61.3226V59.5346C159.491 58.719 158.895 57.9347 157.703 57.1819C156.574 56.429 154.786 56.0526 152.34 56.0526C148.952 56.0526 147.259 57.2446 147.259 59.6287C147.259 60.6325 147.635 61.3854 148.388 61.8873C149.14 62.3892 150.489 62.6402 152.434 62.6402Z" fill="white"/>
<path d="M189.774 74.0273L189.68 22.4558L187.798 13.0449L189.774 7.39844H206.711V74.0273H189.774Z" fill="white"/>
</g>
<g filter="url(#filter1_i_0_1)">
<path d="M10.4891 95.3265H5.39737V111.73H10.4891C13.2713 111.73 15.4573 110.999 17.0471 109.538C18.6369 108.077 19.4318 106.079 19.4318 103.544C19.4318 100.998 18.6369 98.9949 17.0471 97.534C15.4573 96.0623 13.2713 95.3265 10.4891 95.3265ZM10.4891 92.2489C12.1541 92.2489 13.5828 92.4047 14.7751 92.7162C15.9782 93.0277 17.0793 93.5218 18.0783 94.1986C19.6037 95.2298 20.7799 96.5565 21.6071 98.1785C22.4449 99.7898 22.8639 101.568 22.8639 103.512C22.8639 105.456 22.4449 107.245 21.6071 108.878C20.7692 110.5 19.5929 111.821 18.0783 112.841C17.1008 113.518 16.0051 114.012 14.7913 114.324C13.5774 114.635 12.1433 114.791 10.4891 114.791H2.20699V92.2489H10.4891ZM40.8524 113.212C39.8642 113.846 38.8437 114.324 37.791 114.646C36.749 114.958 35.6694 115.113 34.5522 115.113C32.1998 115.113 30.3199 114.388 28.9127 112.938C27.5162 111.477 26.818 109.533 26.818 107.105C26.818 104.882 27.4894 103.077 28.8321 101.691C30.1856 100.305 31.9473 99.6126 34.1172 99.6126C36.2656 99.6126 37.9682 100.316 39.225 101.723C40.4818 103.131 41.1102 105.032 41.1102 107.427V107.862H29.96C30.046 109.27 30.5079 110.371 31.3458 111.166C32.1836 111.95 33.3062 112.342 34.7134 112.342C35.6587 112.342 36.6416 112.17 37.6621 111.826C38.6933 111.472 39.7568 110.94 40.8524 110.231V113.212ZM29.96 105.752H37.8393C37.7426 104.667 37.3505 103.797 36.6631 103.141C35.9756 102.486 35.1162 102.158 34.085 102.158C32.9463 102.158 32.0279 102.465 31.3296 103.077C30.6314 103.678 30.1749 104.57 29.96 105.752ZM44.581 113.776V110.602C45.4726 111.192 46.3319 111.644 47.1591 111.955C47.9862 112.267 48.7435 112.422 49.431 112.422C50.1937 112.422 50.7899 112.283 51.2195 112.003C51.66 111.713 51.8802 111.321 51.8802 110.827C51.8802 110.204 51.0692 109.49 49.4471 108.684C48.9745 108.448 48.6092 108.26 48.3514 108.12C46.9657 107.411 46.015 106.729 45.4994 106.074C44.9838 105.408 44.726 104.597 44.726 103.641C44.726 102.395 45.1718 101.406 46.0634 100.676C46.955 99.9456 48.1796 99.5803 49.7371 99.5803C50.575 99.5803 51.3807 99.6824 52.1541 99.8865C52.9275 100.08 53.6848 100.386 54.426 100.805V103.705C53.513 103.2 52.6751 102.83 51.9124 102.593C51.1605 102.346 50.4461 102.223 49.7694 102.223C49.1463 102.223 48.6629 102.33 48.3192 102.545C47.9862 102.76 47.8197 103.071 47.8197 103.48C47.8197 104.232 48.8563 105.118 50.9295 106.138L51.2034 106.267C52.8255 107.084 53.8836 107.803 54.3777 108.426C54.8718 109.039 55.1189 109.817 55.1189 110.763C55.1189 112.073 54.6248 113.121 53.6365 113.905C52.659 114.689 51.3592 115.081 49.7371 115.081C48.8026 115.081 47.911 114.974 47.0624 114.759C46.2245 114.544 45.3974 114.216 44.581 113.776ZM59.5081 95.5199C59.5081 95.0472 59.6692 94.6498 59.9915 94.3275C60.3137 94.0052 60.7112 93.8441 61.1838 93.8441C61.6565 93.8441 62.0539 94.0052 62.3762 94.3275C62.6985 94.6498 62.8596 95.0472 62.8596 95.5199C62.8596 95.9925 62.6985 96.39 62.3762 96.7122C62.0539 97.0345 61.6565 97.1956 61.1838 97.1956C60.7112 97.1956 60.3137 97.0345 59.9915 96.7122C59.6692 96.39 59.5081 95.9925 59.5081 95.5199ZM59.7014 114.791V99.9026H62.6662V114.791H59.7014ZM69.1018 117.562C69.1018 118.293 69.467 118.841 70.1975 119.206C70.9279 119.582 72.0021 119.77 73.4201 119.77C74.8058 119.77 75.8907 119.587 76.6749 119.222C77.459 118.857 77.8511 118.357 77.8511 117.724C77.8511 117.025 77.4053 116.499 76.5138 116.145C75.6329 115.79 74.3063 115.613 72.5338 115.613C71.5241 115.613 70.697 115.795 70.0524 116.161C69.4187 116.537 69.1018 117.004 69.1018 117.562ZM70.8581 110.038C69.7409 109.694 68.8869 109.125 68.2961 108.33C67.716 107.535 67.426 106.552 67.426 105.381C67.426 103.576 68.0491 102.212 69.2951 101.288C70.5412 100.364 72.3888 99.9026 74.838 99.9026H80.7515V102.32H78.2378C78.646 102.76 78.9468 103.227 79.1402 103.721C79.3335 104.205 79.4302 104.747 79.4302 105.349C79.4302 106.595 79.0489 107.658 78.2862 108.539C77.5342 109.42 76.5191 109.973 75.2408 110.199C74.9615 110.253 74.5856 110.317 74.1129 110.392C72.5124 110.639 71.7121 111.047 71.7121 111.617C71.7121 112.186 72.8561 112.696 75.1441 113.147C75.7027 113.255 76.1432 113.341 76.4654 113.405C77.9048 113.706 78.9952 114.211 79.7364 114.92C80.4776 115.629 80.8482 116.531 80.8482 117.627C80.8482 119.142 80.2144 120.296 78.9468 121.091C77.69 121.886 75.8585 122.284 73.4523 122.284C71.0998 122.284 69.3005 121.897 68.0544 121.123C66.8191 120.361 66.2014 119.249 66.2014 117.788C66.2014 116.746 66.5613 115.887 67.281 115.21C68.0115 114.533 69.0803 114.066 70.4875 113.808C69.9182 113.55 69.4992 113.276 69.2307 112.986C68.9729 112.686 68.844 112.353 68.844 111.987C68.844 111.601 69.0051 111.252 69.3273 110.94C69.6496 110.628 70.1599 110.328 70.8581 110.038ZM73.4523 102.416C72.5392 102.416 71.7926 102.685 71.2126 103.222C70.6432 103.748 70.3586 104.425 70.3586 105.252C70.3586 106.122 70.6325 106.804 71.1803 107.298C71.7282 107.782 72.4855 108.024 73.4523 108.024C74.4298 108.024 75.2032 107.776 75.7726 107.282C76.3419 106.788 76.6265 106.111 76.6265 105.252C76.6265 104.425 76.3258 103.748 75.7242 103.222C75.1334 102.685 74.3761 102.416 73.4523 102.416ZM84.625 114.791V99.9026H87.5898V101.723C88.331 101.014 89.0669 100.499 89.7973 100.177C90.5385 99.8435 91.3334 99.677 92.182 99.677C93.7933 99.677 95.0609 100.144 95.9847 101.079C96.9193 102.013 97.3865 103.297 97.3865 104.93V114.791H94.4218V105.687C94.4218 104.484 94.1639 103.598 93.6483 103.029C93.1435 102.448 92.3539 102.158 91.2797 102.158C90.517 102.158 89.8457 102.309 89.2656 102.61C88.6963 102.9 88.1377 103.383 87.5898 104.06V114.791H84.625ZM117.218 115.081L110.628 99.9026H113.754L118.008 109.78L122.101 99.9026H124.05L128.208 109.748L132.461 99.9026H135.603L128.965 115.081H127.515L123.1 104.301L118.669 115.081H117.218ZM152.11 113.212C151.121 113.846 150.101 114.324 149.048 114.646C148.006 114.958 146.927 115.113 145.809 115.113C143.457 115.113 141.577 114.388 140.17 112.938C138.773 111.477 138.075 109.533 138.075 107.105C138.075 104.882 138.746 103.077 140.089 101.691C141.443 100.305 143.204 99.6126 145.374 99.6126C147.523 99.6126 149.225 100.316 150.482 101.723C151.739 103.131 152.367 105.032 152.367 107.427V107.862H141.217C141.303 109.27 141.765 110.371 142.603 111.166C143.441 111.95 144.563 112.342 145.97 112.342C146.916 112.342 147.899 112.17 148.919 111.826C149.95 111.472 151.014 110.94 152.11 110.231V113.212ZM141.217 105.752H149.096C149 104.667 148.608 103.797 147.92 103.141C147.233 102.486 146.373 102.158 145.342 102.158C144.203 102.158 143.285 102.465 142.587 103.077C141.889 103.678 141.432 104.57 141.217 105.752ZM159.866 111.794C160.403 111.987 160.919 112.132 161.413 112.229C161.907 112.326 162.396 112.374 162.879 112.374C164.448 112.374 165.662 111.939 166.521 111.069C167.391 110.199 167.826 108.963 167.826 107.363C167.826 105.805 167.407 104.575 166.569 103.673C165.731 102.771 164.598 102.32 163.17 102.32C162.6 102.32 162.042 102.411 161.494 102.593C160.957 102.776 160.414 103.055 159.866 103.431V111.794ZM156.869 114.098V92.2489H159.866V100.74C160.425 100.343 161.021 100.053 161.655 99.8704C162.299 99.677 163.014 99.5803 163.798 99.5803C165.968 99.5803 167.708 100.289 169.019 101.707C170.329 103.114 170.984 104.989 170.984 107.331C170.984 109.812 170.249 111.73 168.777 113.083C167.305 114.437 165.227 115.113 162.541 115.113C161.639 115.113 160.72 115.027 159.786 114.855C158.862 114.694 157.89 114.442 156.869 114.098ZM196.021 109.313L192.234 104.785C190.666 105.73 189.559 106.547 188.915 107.234C188.281 107.922 187.964 108.614 187.964 109.313C187.964 110.129 188.244 110.784 188.802 111.278C189.361 111.773 190.107 112.02 191.042 112.02C191.729 112.02 192.465 111.81 193.249 111.391C194.033 110.961 194.957 110.269 196.021 109.313ZM193.088 101.063C194.248 100.289 195.07 99.5911 195.553 98.968C196.037 98.3343 196.279 97.6575 196.279 96.9378C196.279 96.2181 196.021 95.6273 195.505 95.1654C194.989 94.6927 194.323 94.4564 193.507 94.4564C192.734 94.4564 192.084 94.6927 191.557 95.1654C191.031 95.638 190.768 96.2181 190.768 96.9056C190.768 97.4427 190.967 98.0765 191.364 98.8069C191.772 99.5266 192.347 100.279 193.088 101.063ZM204.867 114.791H200.677L197.97 111.552C196.842 112.809 195.693 113.733 194.522 114.324C193.362 114.904 192.111 115.194 190.768 115.194C188.899 115.194 187.4 114.673 186.272 113.631C185.155 112.589 184.597 111.214 184.597 109.506C184.597 108.228 185.032 107.057 185.902 105.993C186.783 104.93 188.244 103.813 190.284 102.642C189.371 101.739 188.7 100.848 188.27 99.967C187.851 99.0755 187.642 98.1409 187.642 97.1634C187.642 95.5736 188.174 94.2953 189.237 93.3285C190.301 92.351 191.702 91.8622 193.443 91.8622C195.183 91.8622 196.585 92.3295 197.648 93.264C198.722 94.1986 199.259 95.4124 199.259 96.9056C199.259 98.1409 198.921 99.2527 198.244 100.241C197.578 101.218 196.499 102.185 195.006 103.141L198.293 106.976C198.722 106.493 199.136 105.94 199.533 105.317C199.942 104.694 200.344 103.979 200.742 103.174H204.109C203.701 104.301 203.18 105.381 202.546 106.412C201.923 107.433 201.188 108.41 200.339 109.345L204.867 114.791Z" fill="white"/>
<path d="M227.454 95.3265H222.362V111.73H227.454C230.236 111.73 232.422 110.999 234.012 109.538C235.602 108.077 236.397 106.079 236.397 103.544C236.397 100.998 235.602 98.9949 234.012 97.534C232.422 96.0623 230.236 95.3265 227.454 95.3265ZM227.454 92.2489C229.119 92.2489 230.548 92.4047 231.74 92.7162C232.943 93.0277 234.044 93.5218 235.043 94.1986C236.569 95.2298 237.745 96.5565 238.572 98.1785C239.41 99.7898 239.829 101.568 239.829 103.512C239.829 105.456 239.41 107.245 238.572 108.878C237.734 110.5 236.558 111.821 235.043 112.841C234.066 113.518 232.97 114.012 231.756 114.324C230.542 114.635 229.108 114.791 227.454 114.791H219.172V92.2489H227.454ZM257.817 113.212C256.829 113.846 255.809 114.324 254.756 114.646C253.714 114.958 252.634 115.113 251.517 115.113C249.165 115.113 247.285 114.388 245.878 112.938C244.481 111.477 243.783 109.533 243.783 107.105C243.783 104.882 244.454 103.077 245.797 101.691C247.151 100.305 248.912 99.6126 251.082 99.6126C253.231 99.6126 254.933 100.316 256.19 101.723C257.447 103.131 258.075 105.032 258.075 107.427V107.862H246.925C247.011 109.27 247.473 110.371 248.311 111.166C249.149 111.95 250.271 112.342 251.678 112.342C252.624 112.342 253.606 112.17 254.627 111.826C255.658 111.472 256.722 110.94 257.817 110.231V113.212ZM246.925 105.752H254.804C254.708 104.667 254.315 103.797 253.628 103.141C252.94 102.486 252.081 102.158 251.05 102.158C249.911 102.158 248.993 102.465 248.295 103.077C247.596 103.678 247.14 104.57 246.925 105.752ZM248.713 97.7918L252.081 92.1845H254.949L250.421 97.7918H248.713ZM267.33 115.081L260.16 99.9026H263.463L268.056 109.78L272.342 99.9026H275.58L268.716 115.081H267.33ZM291.893 113.212C290.905 113.846 289.884 114.324 288.832 114.646C287.79 114.958 286.71 115.113 285.593 115.113C283.24 115.113 281.361 114.388 279.953 112.938C278.557 111.477 277.859 109.533 277.859 107.105C277.859 104.882 278.53 103.077 279.873 101.691C281.226 100.305 282.988 99.6126 285.158 99.6126C287.306 99.6126 289.009 100.316 290.266 101.723C291.523 103.131 292.151 105.032 292.151 107.427V107.862H281.001C281.087 109.27 281.549 110.371 282.386 111.166C283.224 111.95 284.347 112.342 285.754 112.342C286.699 112.342 287.682 112.17 288.703 111.826C289.734 111.472 290.797 110.94 291.893 110.231V113.212ZM281.001 105.752H288.88C288.783 104.667 288.391 103.797 287.704 103.141C287.016 102.486 286.157 102.158 285.126 102.158C283.987 102.158 283.069 102.465 282.37 103.077C281.672 103.678 281.216 104.57 281.001 105.752ZM296.685 114.791V92.2489H299.65V114.791H296.685ZM307.342 107.331C307.342 108.716 307.81 109.898 308.744 110.876C309.679 111.853 310.807 112.342 312.128 112.342C313.438 112.342 314.561 111.853 315.495 110.876C316.441 109.887 316.913 108.706 316.913 107.331C316.913 105.966 316.446 104.796 315.512 103.818C314.577 102.841 313.449 102.352 312.128 102.352C310.807 102.352 309.679 102.841 308.744 103.818C307.81 104.796 307.342 105.966 307.342 107.331ZM304.232 107.331C304.232 105.172 305.001 103.34 306.537 101.836C308.073 100.332 309.947 99.5803 312.16 99.5803C313.202 99.5803 314.196 99.7791 315.141 100.177C316.097 100.563 316.951 101.122 317.703 101.852C318.466 102.626 319.046 103.474 319.443 104.398C319.841 105.322 320.039 106.299 320.039 107.331C320.039 108.351 319.835 109.345 319.427 110.312C319.019 111.278 318.444 112.122 317.703 112.841C316.951 113.583 316.102 114.141 315.157 114.517C314.223 114.893 313.224 115.081 312.16 115.081C309.947 115.081 308.073 114.329 306.537 112.825C305.001 111.321 304.232 109.49 304.232 107.331ZM327.571 103.174V111.52C328.054 111.875 328.543 112.138 329.037 112.31C329.542 112.471 330.079 112.551 330.648 112.551C332.163 112.551 333.355 112.089 334.225 111.166C335.095 110.231 335.53 108.953 335.53 107.331C335.53 105.719 335.095 104.457 334.225 103.544C333.355 102.62 332.163 102.158 330.648 102.158C330.079 102.158 329.542 102.239 329.037 102.4C328.543 102.561 328.054 102.819 327.571 103.174ZM324.574 122.284V99.9026H327.571V100.74C328.129 100.343 328.72 100.053 329.343 99.8704C329.966 99.677 330.654 99.5803 331.405 99.5803C333.554 99.5803 335.305 100.3 336.658 101.739C338.012 103.179 338.689 105.043 338.689 107.331C338.689 109.619 338.012 111.482 336.658 112.922C335.305 114.361 333.554 115.081 331.405 115.081C330.632 115.081 329.934 114.99 329.311 114.807C328.698 114.635 328.118 114.356 327.571 113.969V122.284H324.574ZM346.3 103.174V111.52C346.784 111.875 347.272 112.138 347.767 112.31C348.271 112.471 348.809 112.551 349.378 112.551C350.893 112.551 352.085 112.089 352.955 111.166C353.825 110.231 354.26 108.953 354.26 107.331C354.26 105.719 353.825 104.457 352.955 103.544C352.085 102.62 350.893 102.158 349.378 102.158C348.809 102.158 348.271 102.239 347.767 102.4C347.272 102.561 346.784 102.819 346.3 103.174ZM343.303 122.284V99.9026H346.3V100.74C346.859 100.343 347.45 100.053 348.073 99.8704C348.696 99.677 349.383 99.5803 350.135 99.5803C352.284 99.5803 354.035 100.3 355.388 101.739C356.742 103.179 357.418 105.043 357.418 107.331C357.418 109.619 356.742 111.482 355.388 112.922C354.035 114.361 352.284 115.081 350.135 115.081C349.362 115.081 348.664 114.99 348.041 114.807C347.428 114.635 346.848 114.356 346.3 113.969V122.284H343.303ZM375.036 113.212C374.048 113.846 373.028 114.324 371.975 114.646C370.933 114.958 369.853 115.113 368.736 115.113C366.384 115.113 364.504 114.388 363.097 112.938C361.7 111.477 361.002 109.533 361.002 107.105C361.002 104.882 361.673 103.077 363.016 101.691C364.369 100.305 366.131 99.6126 368.301 99.6126C370.449 99.6126 372.152 100.316 373.409 101.723C374.666 103.131 375.294 105.032 375.294 107.427V107.862H364.144C364.23 109.27 364.692 110.371 365.53 111.166C366.367 111.95 367.49 112.342 368.897 112.342C369.843 112.342 370.825 112.17 371.846 111.826C372.877 111.472 373.941 110.94 375.036 110.231V113.212ZM364.144 105.752H372.023C371.926 104.667 371.534 103.797 370.847 103.141C370.159 102.486 369.3 102.158 368.269 102.158C367.13 102.158 366.212 102.465 365.513 103.077C364.815 103.678 364.359 104.57 364.144 105.752ZM379.732 114.791V99.9026H382.696V101.723C383.438 101.014 384.173 100.499 384.904 100.177C385.645 99.8435 386.44 99.677 387.289 99.677C388.384 99.677 389.297 99.8811 390.028 100.289C390.769 100.687 391.392 101.321 391.897 102.191C392.81 101.288 393.664 100.644 394.459 100.257C395.265 99.8704 396.119 99.677 397.021 99.677C398.643 99.677 399.921 100.144 400.856 101.079C401.801 102.013 402.274 103.297 402.274 104.93V114.791H399.261V105.687C399.261 104.473 399.008 103.582 398.503 103.012C398.009 102.443 397.23 102.158 396.167 102.158C395.383 102.158 394.701 102.309 394.121 102.61C393.54 102.9 392.977 103.383 392.429 104.06V114.791H389.528V105.687C389.528 104.484 389.271 103.598 388.755 103.029C388.25 102.448 387.461 102.158 386.386 102.158C385.624 102.158 384.952 102.309 384.372 102.61C383.803 102.9 383.244 103.383 382.696 104.06V114.791H379.732ZM420.649 113.212C419.661 113.846 418.64 114.324 417.588 114.646C416.546 114.958 415.466 115.113 414.349 115.113C411.996 115.113 410.116 114.388 408.709 112.938C407.313 111.477 406.615 109.533 406.615 107.105C406.615 104.882 407.286 103.077 408.629 101.691C409.982 100.305 411.744 99.6126 413.914 99.6126C416.062 99.6126 417.765 100.316 419.022 101.723C420.278 103.131 420.907 105.032 420.907 107.427V107.862H409.757C409.843 109.27 410.304 110.371 411.142 111.166C411.98 111.95 413.103 112.342 414.51 112.342C415.455 112.342 416.438 112.17 417.459 111.826C418.49 111.472 419.553 110.94 420.649 110.231V113.212ZM409.757 105.752H417.636C417.539 104.667 417.147 103.797 416.46 103.141C415.772 102.486 414.913 102.158 413.882 102.158C412.743 102.158 411.824 102.465 411.126 103.077C410.428 103.678 409.971 104.57 409.757 105.752ZM425.344 114.791V99.9026H428.309V101.723C429.05 101.014 429.786 100.499 430.517 100.177C431.258 99.8435 432.053 99.677 432.901 99.677C434.513 99.677 435.78 100.144 436.704 101.079C437.639 102.013 438.106 103.297 438.106 104.93V114.791H435.141V105.687C435.141 104.484 434.883 103.598 434.368 103.029C433.863 102.448 433.073 102.158 431.999 102.158C431.236 102.158 430.565 102.309 429.985 102.61C429.416 102.9 428.857 103.383 428.309 104.06V114.791H425.344ZM451.679 114.324C451.218 114.582 450.718 114.77 450.181 114.888C449.655 115.017 449.085 115.081 448.473 115.081C446.797 115.081 445.616 114.684 444.928 113.889C444.251 113.094 443.913 111.644 443.913 109.538V102.481H441.383V102.191L446.588 96.4383H446.926V99.9026H451.583V102.481H446.926V109.313C446.926 110.548 447.076 111.348 447.377 111.713C447.689 112.068 448.263 112.245 449.101 112.245C449.553 112.245 449.993 112.186 450.423 112.068C450.852 111.95 451.271 111.767 451.679 111.52V114.324Z" fill="#FC5050"/>
</g>
<path fill-rule="evenodd" clip-rule="evenodd" d="M233.6 21.0915V66.2768H258.353C262.23 66.2768 265.995 65.8638 269.65 65.0377C271.311 64.6681 272.893 64.1661 274.398 63.5318C273.112 65.3346 271.624 66.8544 269.934 68.0911C266.999 70.2388 263.676 71.7257 259.966 72.5518C256.311 73.3779 252.546 73.7909 248.669 73.7909H223.916V28.6056L222.255 20.345L223.916 15.3061H232.437L233.6 21.0915ZM232.437 15.3061L231.939 12.8309L233.6 7.79199H258.353C262.341 7.79199 266.161 8.17748 269.816 8.94847C273.527 9.66438 276.821 11.0411 279.701 13.0788C282.636 15.1164 284.934 18.0351 286.595 21.835C288.312 25.6348 289.17 30.5636 289.17 36.6214C289.17 42.6791 288.312 47.663 286.595 51.573C284.879 55.4279 282.553 58.4293 279.618 60.577C277.996 61.7637 276.256 62.7486 274.398 63.5318C275.346 62.2038 276.183 60.7222 276.911 59.0871C278.628 55.1771 279.486 50.1932 279.486 44.1354C279.486 38.0777 278.628 33.1489 276.911 29.349C275.25 25.5492 272.952 22.6304 270.017 20.5928C267.138 18.5552 263.843 17.1785 260.132 16.4625C256.478 15.6916 252.657 15.3061 248.669 15.3061H232.437ZM258.353 53.0599H248.718V28.523C253.512 28.5307 257.206 29.6872 259.8 31.9924C262.458 34.2503 263.787 38.298 263.787 44.1354C263.787 47.5516 263.342 50.4113 262.45 52.7147C261.188 52.9448 259.822 53.0599 258.353 53.0599ZM262.45 52.7147C265.377 52.1813 267.749 51.0298 269.567 49.26C272.17 46.6717 273.471 42.4588 273.471 36.6214C273.471 30.7839 272.142 26.7362 269.484 24.4783C266.881 22.1654 263.171 21.0089 258.353 21.0089H248.718V28.523C248.702 28.523 248.686 28.523 248.669 28.523H239.034V60.574H248.669C253.543 60.574 257.281 59.3074 259.883 56.7741C260.963 55.7005 261.818 54.3474 262.45 52.7147Z" fill="#3F3F3F"/>
<g filter="url(#filter2_i_0_1)">
<path d="M2.81164 74.0253V22.548L0.929688 13.1371L2.81164 7.39648H30.8527C35.3694 7.39648 39.6979 7.83566 43.8381 8.714C48.0412 9.52961 51.7737 11.0981 55.0357 13.4194C58.3605 15.7408 60.9639 19.0659 62.8458 23.3949C64.7905 27.7239 65.7629 33.3391 65.7629 40.2404C65.7629 47.1417 64.7905 52.8195 62.8458 57.274C60.9012 61.6657 58.2664 65.085 54.9417 67.5318C51.6169 69.9787 47.853 71.6726 43.6499 72.6137C39.5097 73.5548 35.2439 74.0253 30.8527 74.0253H2.81164ZM19.9374 58.968H30.8527C36.3731 58.968 40.6075 57.525 43.5559 54.639C46.5042 51.6902 47.9784 46.8907 47.9784 40.2404C47.9784 33.59 46.4729 28.9787 43.4618 26.4064C40.5134 23.7714 36.3103 22.4538 30.8527 22.4538H19.9374V58.968Z" fill="white"/>
</g>
<path d="M324.416 74.9661C320.088 74.9661 316.167 74.2446 312.654 72.8016C309.204 71.3586 306.444 68.9431 304.373 65.5552C302.366 62.1673 301.362 57.5873 301.362 51.8154C301.362 45.9806 302.46 41.4007 304.656 38.0755C306.851 34.6876 309.706 32.2721 313.219 30.8291C316.732 29.3861 320.464 28.6646 324.416 28.6646C327.866 28.6646 330.815 28.7901 333.261 29.0411C335.771 29.292 337.433 29.5116 338.249 29.6998L345.588 37.9814L338.06 48.2392L327.239 41.8399C321.844 41.8399 319.147 45.165 319.147 51.8154C319.147 55.266 319.962 57.8069 321.593 59.4382C323.224 61.0066 325.734 61.7909 329.121 61.7909C332.509 61.7909 335.551 61.3203 338.249 60.3792C340.946 59.4381 343.047 58.5598 344.553 57.7442V71.2958C342.608 72.2997 340.036 73.178 336.837 73.9309C333.7 74.621 329.56 74.9661 324.416 74.9661Z" fill="#3F3F3F"/>
<path d="M355.107 74.025L355.013 22.4535L353.131 13.0426L355.107 7.39612H372.044V74.025H355.107Z" fill="#3F3F3F"/>
<path d="M430.552 74.9661C426.223 74.9661 422.302 74.2446 418.789 72.8016C415.339 71.3586 412.579 68.9431 410.509 65.5552C408.501 62.1673 407.498 57.5873 407.498 51.8154C407.498 45.9806 408.595 41.4007 410.791 38.0755C412.987 34.6876 415.841 32.2721 419.354 30.8291C422.867 29.3861 426.599 28.6646 430.552 28.6646C434.002 28.6646 436.95 28.7901 439.397 29.0411C441.906 29.292 443.568 29.5116 444.384 29.6998L451.723 37.9814L444.196 48.2392L433.374 41.8399C427.98 41.8399 425.282 45.165 425.282 51.8154C425.282 55.266 426.098 57.8069 427.729 59.4382C429.36 61.0066 431.869 61.7909 435.256 61.7909C438.644 61.7909 441.686 61.3203 444.384 60.3792C447.081 59.4381 449.183 58.5598 450.688 57.7442V71.2958C448.744 72.2997 446.172 73.178 442.972 73.9309C439.836 74.621 435.696 74.9661 430.552 74.9661Z" fill="#3F3F3F"/>
<path fill-rule="evenodd" clip-rule="evenodd" d="M383.315 42.875V74.025H400.253V29.6057H383.221L381.339 35.3464L383.315 42.875Z" fill="#3F3F3F"/>
<path fill-rule="evenodd" clip-rule="evenodd" d="M388.871 5.79202C388.864 5.79956 388.856 5.80713 388.848 5.81474L388.871 5.79202ZM388.837 23.9061C388.845 23.9138 388.852 23.9214 388.86 23.929L388.837 23.9061Z" fill="#3F3F3F"/>
<g filter="url(#filter3_i_0_1)">
<path d="M396.407 7.49093L387.107 7.50126C384.643 7.50399 382.642 9.49412 382.62 11.9535L382.61 21.3233C382.626 23.7641 384.594 25.7396 387.034 25.7651L396.441 25.7915C396.74 25.7901 397.032 25.7594 397.314 25.7021C399.369 25.2857 400.917 23.4649 400.91 21.287L400.884 11.9505C400.877 9.48196 398.876 7.48819 396.407 7.49093Z" fill="#FC5050"/>
</g>
<defs>
<filter id="filter0_i_0_1" x="70.2119" y="4.39844" width="136.499" height="70.5703" filterUnits="userSpaceOnUse" color-interpolation-filters="sRGB">
<feFlood flood-opacity="0" result="BackgroundImageFix"/>
<feBlend mode="normal" in="SourceGraphic" in2="BackgroundImageFix" result="shape"/>
<feColorMatrix in="SourceAlpha" type="matrix" values="0 0 0 0 0 0 0 0 0 0 0 0 0 0 0 0 0 0 127 0" result="hardAlpha"/>
<feOffset dx="-5" dy="-4"/>
<feGaussianBlur stdDeviation="1.5"/>
<feComposite in2="hardAlpha" operator="arithmetic" k2="-1" k3="1"/>
<feColorMatrix type="matrix" values="0 0 0 0 0 0 0 0 0 0 0 0 0 0 0 0 0 0 0.16 0"/>
<feBlend mode="normal" in2="shape" result="effect1_innerShadow_0_1"/>
</filter>
<filter id="filter1_i_0_1" x="-0.792969" y="88.8623" width="452.473" height="33.4209" filterUnits="userSpaceOnUse" color-interpolation-filters="sRGB">
<feFlood flood-opacity="0" result="BackgroundImageFix"/>
<feBlend mode="normal" in="SourceGraphic" in2="BackgroundImageFix" result="shape"/>
<feColorMatrix in="SourceAlpha" type="matrix" values="0 0 0 0 0 0 0 0 0 0 0 0 0 0 0 0 0 0 127 0" result="hardAlpha"/>
<feOffset dx="-5" dy="-4"/>
<feGaussianBlur stdDeviation="1.5"/>
<feComposite in2="hardAlpha" operator="arithmetic" k2="-1" k3="1"/>
<feColorMatrix type="matrix" values="0 0 0 0 0 0 0 0 0 0 0 0 0 0 0 0 0 0 0.16 0"/>
<feBlend mode="normal" in2="shape" result="effect1_innerShadow_0_1"/>
</filter>
<filter id="filter2_i_0_1" x="-2.07031" y="4.39648" width="67.833" height="69.6289" filterUnits="userSpaceOnUse" color-interpolation-filters="sRGB">
<feFlood flood-opacity="0" result="BackgroundImageFix"/>
<feBlend mode="normal" in="SourceGraphic" in2="BackgroundImageFix" result="shape"/>
<feColorMatrix in="SourceAlpha" type="matrix" values="0 0 0 0 0 0 0 0 0 0 0 0 0 0 0 0 0 0 127 0" result="hardAlpha"/>
<feOffset dx="-5" dy="-4"/>
<feGaussianBlur stdDeviation="1.5"/>
<feComposite in2="hardAlpha" operator="arithmetic" k2="-1" k3="1"/>
<feColorMatrix type="matrix" values="0 0 0 0 0 0 0 0 0 0 0 0 0 0 0 0 0 0 0.16 0"/>
<feBlend mode="normal" in2="shape" result="effect1_innerShadow_0_1"/>
</filter>
<filter id="filter3_i_0_1" x="381.693" y="7.49121" width="19.2174" height="21.0507" filterUnits="userSpaceOnUse" color-interpolation-filters="sRGB">
<feFlood flood-opacity="0" result="BackgroundImageFix"/>
<feBlend mode="normal" in="SourceGraphic" in2="BackgroundImageFix" result="shape"/>
<feColorMatrix in="SourceAlpha" type="matrix" values="0 0 0 0 0 0 0 0 0 0 0 0 0 0 0 0 0 0 127 0" result="hardAlpha"/>
<feOffset dx="-0.916651" dy="3.66661"/>
<feGaussianBlur stdDeviation="1.37498"/>
<feComposite in2="hardAlpha" operator="arithmetic" k2="-1" k3="1"/>
<feColorMatrix type="matrix" values="0 0 0 0 0 0 0 0 0 0 0 0 0 0 0 0 0 0 0.3 0"/>
<feBlend mode="normal" in2="shape" result="effect1_innerShadow_0_1"/>
</filter>
</defs>
</svg>