<svg width="245" height="42" viewBox="0 0 245 42" fill="none" xmlns="http://www.w3.org/2000/svg">
<path d="M47.5105 41.8802C45.4738 41.8802 43.8954 41.4918 42.7753 40.7149C41.6891 39.938 40.9253 38.8234 40.484 37.371C40.0767 35.8848 39.873 34.1114 39.873 32.051V17.4085H49.038V30.7337C49.038 31.9835 49.2756 32.963 49.7508 33.6723C50.2599 34.3817 51.0067 34.7363 51.9911 34.7363C52.9076 34.7363 53.7392 34.3479 54.486 33.571C55.2667 32.7941 55.6571 31.6626 55.6571 30.1764V17.4085H64.822V33.2163L65.8912 38.2829L64.822 41.3736H56.2171V38.8909L55.708 38.6376C55.2667 39.0767 54.6218 39.5496 53.7732 40.0563C52.9585 40.5629 52.0081 41.002 50.9219 41.3736C49.8696 41.7114 48.7325 41.8802 47.5105 41.8802Z" fill="#3F3F3F"/>
<path d="M78.4122 41.8802C76.9526 41.8802 75.5948 41.6776 74.3389 41.2722C73.1169 40.8331 72.1325 40.09 71.3858 39.0429C70.639 37.9958 70.2656 36.5434 70.2656 34.6856C70.2656 32.9968 70.6899 31.595 71.5385 30.4804C72.3871 29.3657 73.5412 28.5382 75.0008 27.9977C76.4604 27.4573 78.1067 27.1871 79.9397 27.1871C81.7048 27.1871 83.0286 27.3897 83.9111 27.7951C84.7937 28.1666 85.5574 28.555 86.2024 28.9604L86.5588 28.6564C86.5588 27.6431 86.4739 26.7986 86.3042 26.1231C86.1345 25.4475 85.7441 24.9409 85.1331 24.6031C84.5221 24.2315 83.5717 24.0458 82.2818 24.0458C81.0259 24.0458 79.6851 24.164 78.2594 24.4004C76.8677 24.6031 75.5779 24.8733 74.3898 25.2111C73.2357 25.5151 72.3701 25.8191 71.7931 26.1231V18.5231C72.8454 18.1516 74.3389 17.8138 76.2737 17.5098C78.2425 17.1721 80.6525 17.0032 83.5038 17.0032C86.5588 17.0032 88.9688 17.3916 90.7339 18.1685C92.5329 18.9116 93.8228 20.0094 94.6035 21.4618C95.3843 22.8804 95.7746 24.5862 95.7746 26.5791V33.3177L96.7929 38.4349L95.7746 41.4242H87.0679V38.9416L86.5588 38.6883C86.2872 38.9585 85.812 39.3469 85.1331 39.8536C84.4542 40.3603 83.5547 40.8331 82.4346 41.2722C81.3144 41.6776 79.9736 41.8802 78.4122 41.8802ZM82.7401 35.243C83.6566 35.243 84.4373 35.1585 85.0822 34.9896C85.7611 34.8208 86.2533 34.6688 86.5588 34.5337V33.571C86.5588 33.1319 86.2363 32.7097 85.5914 32.3043C84.9804 31.899 84.013 31.6963 82.6892 31.6963C80.8562 31.6963 79.9397 32.3381 79.9397 33.6217C79.9397 34.1621 80.1433 34.5674 80.5507 34.8376C80.958 35.1079 81.6878 35.243 82.7401 35.243Z" fill="#3F3F3F"/>
<path d="M102.945 41.3736L102.894 13.6085L101.875 8.54192L102.945 5.50195H112.11V41.3736H102.945Z" fill="#3F3F3F"/>
<path fill-rule="evenodd" clip-rule="evenodd" d="M126.658 12.875V37.2019H140.052C142.15 37.2019 144.188 36.9795 146.165 36.5348C147.064 36.3358 147.92 36.0655 148.734 35.724C148.038 36.6946 147.233 37.5128 146.319 38.1787C144.731 39.335 142.933 40.1355 140.925 40.5802C138.948 41.0249 136.91 41.2473 134.812 41.2473H121.418V16.9205L120.52 12.4731L121.418 9.76027H126.029L126.658 12.875ZM126.029 9.76027L125.76 8.42771L126.658 5.71484H140.052C142.21 5.71484 144.277 5.92238 146.255 6.33747C148.263 6.7229 150.046 7.46412 151.604 8.56113C153.192 9.65813 154.435 11.2295 155.334 13.2753C156.263 15.3211 156.728 17.9746 156.728 21.236C156.728 24.4974 156.263 27.1806 155.334 29.2857C154.405 31.3611 153.147 32.9769 151.559 34.1332C150.681 34.7721 149.74 35.3024 148.734 35.724C149.247 35.009 149.7 34.2114 150.094 33.3311C151.023 31.226 151.488 28.5428 151.488 25.2814C151.488 22.0201 151.023 19.3665 150.094 17.3207C149.195 15.2749 147.952 13.7036 146.364 12.6066C144.806 11.5095 143.023 10.7683 141.015 10.3829C139.037 9.96781 136.97 9.76027 134.812 9.76027H126.029ZM140.052 30.0862H134.839V16.876C137.433 16.8802 139.432 17.5028 140.835 18.7439C142.274 19.9595 142.993 22.1386 142.993 25.2814C142.993 27.1206 142.752 28.6602 142.269 29.9003C141.586 30.0242 140.847 30.0862 140.052 30.0862ZM142.269 29.9003C143.853 29.6132 145.136 28.9932 146.12 28.0404C147.529 26.6469 148.233 24.3788 148.233 21.236C148.233 18.0932 147.514 15.914 146.075 14.6984C144.667 13.4532 142.659 12.8306 140.052 12.8306H134.839V16.876C134.83 16.876 134.821 16.876 134.812 16.876H129.599V34.1316H134.812C137.449 34.1316 139.472 33.4497 140.88 32.0858C141.464 31.5078 141.927 30.7793 142.269 29.9003Z" fill="#3F3F3F"/>
<path d="M1.78004 41.3726V13.6582L0.761719 8.59161L1.78004 5.50098H16.9531C19.397 5.50098 21.7392 5.73742 23.9795 6.2103C26.2537 6.64941 28.2734 7.49384 30.0385 8.74361C31.8375 9.99337 33.2462 11.7836 34.2645 14.1142C35.3168 16.4449 35.8429 19.4679 35.8429 23.1835C35.8429 26.899 35.3168 29.9558 34.2645 32.354C33.2123 34.7184 31.7866 36.5593 29.9876 37.8766C28.1886 39.194 26.1519 40.1059 23.8777 40.6126C21.6373 41.1193 19.3291 41.3726 16.9531 41.3726H1.78004ZM11.0468 33.266H16.9531C19.9401 33.266 22.2314 32.4891 23.8267 30.9354C25.4221 29.3478 26.2198 26.7639 26.2198 23.1835C26.2198 19.603 25.4051 17.1204 23.7758 15.7355C22.1804 14.3169 19.9062 13.6076 16.9531 13.6076H11.0468V33.266Z" fill="#3F3F3F"/>
<path d="M175.8 41.8796C173.458 41.8796 171.336 41.4912 169.435 40.7143C167.568 39.9374 166.075 38.637 164.955 36.813C163.868 34.989 163.325 32.5233 163.325 29.4157C163.325 26.2744 163.919 23.8087 165.107 22.0185C166.295 20.1945 167.84 18.8941 169.741 18.1172C171.642 17.3403 173.661 16.9519 175.8 16.9519C177.667 16.9519 179.262 17.0194 180.586 17.1545C181.944 17.2896 182.843 17.4079 183.284 17.5092L187.256 21.9678L183.182 27.4904L177.327 24.0451C174.408 24.0451 172.948 25.8353 172.948 29.4157C172.948 31.2735 173.39 32.6415 174.272 33.5197C175.155 34.3641 176.512 34.7863 178.345 34.7863C180.178 34.7863 181.825 34.533 183.284 34.0263C184.744 33.5197 185.881 33.0468 186.696 32.6077V39.9036C185.643 40.4441 184.252 40.9169 182.521 41.3223C180.823 41.6938 178.583 41.8796 175.8 41.8796Z" fill="#3F3F3F"/>
<path d="M192.406 41.3729L192.355 13.6079L191.337 8.54128L192.406 5.50131H201.571V41.3729H192.406Z" fill="#3F3F3F"/>
<path d="M233.229 41.8796C230.887 41.8796 228.766 41.4912 226.865 40.7143C224.998 39.9374 223.505 38.637 222.384 36.813C221.298 34.989 220.755 32.5233 220.755 29.4157C220.755 26.2744 221.349 23.8087 222.537 22.0185C223.725 20.1945 225.27 18.8941 227.17 18.1172C229.071 17.3403 231.091 16.9519 233.229 16.9519C235.096 16.9519 236.692 17.0194 238.016 17.1545C239.373 17.2896 240.273 17.4079 240.714 17.5092L244.686 21.9678L240.612 27.4904L234.757 24.0451C231.838 24.0451 230.378 25.8353 230.378 29.4157C230.378 31.2735 230.819 32.6415 231.702 33.5197C232.585 34.3641 233.942 34.7863 235.775 34.7863C237.608 34.7863 239.255 34.533 240.714 34.0263C242.174 33.5197 243.311 33.0468 244.126 32.6077V39.9036C243.073 40.4441 241.682 40.9169 239.95 41.3223C238.253 41.6938 236.013 41.8796 233.229 41.8796Z" fill="#3F3F3F"/>
<path fill-rule="evenodd" clip-rule="evenodd" d="M207.67 24.6024V41.3729H216.835V17.4585H207.619L206.601 20.5492L207.67 24.6024Z" fill="#3F3F3F"/>
<path fill-rule="evenodd" clip-rule="evenodd" d="M210.676 4.6377C210.672 4.64176 210.668 4.64583 210.664 4.64993L210.676 4.6377ZM210.658 14.3899C210.662 14.3941 210.666 14.3982 210.67 14.4023L210.658 14.3899Z" fill="#3F3F3F"/>
<g filter="url(#filter0_i_0_1)">
<path d="M214.912 4.40437L209.88 4.40993C208.547 4.4114 207.464 5.48285 207.452 6.80692L207.447 11.8514C207.455 13.1655 208.52 14.2291 209.841 14.2428L214.931 14.257C215.092 14.2563 215.25 14.2397 215.403 14.2089C216.515 13.9847 217.352 13.0044 217.349 11.8319L217.335 6.80529C217.331 5.4763 216.248 4.40289 214.912 4.40437Z" fill="#41EAD4"/>
</g>
<defs>
<filter id="filter0_i_0_1" x="206.394" y="4.4043" width="10.9551" height="13.0109" filterUnits="userSpaceOnUse" color-interpolation-filters="sRGB">
<feFlood flood-opacity="0" result="BackgroundImageFix"/>
<feBlend mode="normal" in="SourceGraphic" in2="BackgroundImageFix" result="shape"/>
<feColorMatrix in="SourceAlpha" type="matrix" values="0 0 0 0 0 0 0 0 0 0 0 0 0 0 0 0 0 0 127 0" result="hardAlpha"/>
<feOffset dx="-1.05278" dy="4.21112"/>
<feGaussianBlur stdDeviation="1.57917"/>
<feComposite in2="hardAlpha" operator="arithmetic" k2="-1" k3="1"/>
<feColorMatrix type="matrix" values="0 0 0 0 0 0 0 0 0 0 0 0 0 0 0 0 0 0 0.3 0"/>
<feBlend mode="normal" in2="shape" result="effect1_innerShadow_0_1"/>
</filter>
</defs>
</svg>