<svg width="74" height="72" viewBox="0 0 74 72" fill="none" xmlns="http://www.w3.org/2000/svg">
<g filter="url(#filter0_i_2302_5505)">
<path fill-rule="evenodd" clip-rule="evenodd" d="M12.0096 14.5884V64.1529H39.3369C43.6164 64.1529 47.7735 63.6999 51.8084 62.7937C53.7631 62.3613 55.6204 61.7638 57.3802 61.0012C56.0033 62.8676 54.4223 64.4498 52.6371 65.7478C49.397 68.1037 45.7289 69.7347 41.6329 70.6408C37.5979 71.5469 33.4408 72 29.1613 72H1.83405V22.4355L0 13.3744L1.83405 7.84707H10.6451L12.0096 14.5884ZM10.6451 7.84707L10.1756 5.5273L12.0096 0H39.3369C43.7386 0 47.9569 0.422853 51.9918 1.26856C56.0879 2.05386 59.7254 3.56405 62.9044 5.79913C66.1446 8.03421 68.6817 11.2358 70.5157 15.4039C72.4109 19.5721 73.3585 24.9786 73.3585 31.6234C73.3585 38.2682 72.4109 43.7351 70.5157 48.0241C68.6205 52.2526 66.0529 55.5448 62.8127 57.9007C61.1188 59.1323 59.308 60.1658 57.3802 61.0012C58.5024 59.48 59.4891 57.77 60.3401 55.8711C62.2353 51.5822 63.1829 46.1153 63.1829 39.4705C63.1829 32.8256 62.2353 27.4191 60.3401 23.251C58.5061 19.0829 55.969 15.8813 52.7288 13.6462C49.5498 11.4111 45.9123 9.90093 41.8163 9.11563C37.7814 8.26993 33.563 7.84707 29.1613 7.84707H10.6451ZM39.3369 49.6551H28.6995V22.3449H29.1613C34.4801 22.3449 38.5761 23.6135 41.4494 26.1506C44.3839 28.6273 45.8512 33.0673 45.8512 39.4705C45.8512 43.3783 45.3161 46.6223 44.2459 49.2027C42.7456 49.5043 41.1093 49.6551 39.3369 49.6551ZM44.2459 49.2027C47.2997 48.5889 49.79 47.3503 51.7167 45.4869C54.5901 42.6478 56.0267 38.0266 56.0267 31.6234C56.0267 25.2202 54.5595 20.7802 51.625 18.3035C48.7517 15.7664 44.6557 14.4978 39.3369 14.4978H28.6995V22.3449H18.5239V57.5022H29.1613C34.5412 57.5022 38.6678 56.1128 41.5411 53.334C42.6609 52.2276 43.5625 50.8505 44.2459 49.2027Z" fill="#4087FF"/>
</g>
<defs>
<filter id="filter0_i_2302_5505" x="-1" y="-2" width="74.3584" height="74" filterUnits="userSpaceOnUse" color-interpolation-filters="sRGB">
<feFlood flood-opacity="0" result="BackgroundImageFix"/>
<feBlend mode="normal" in="SourceGraphic" in2="BackgroundImageFix" result="shape"/>
<feColorMatrix in="SourceAlpha" type="matrix" values="0 0 0 0 0 0 0 0 0 0 0 0 0 0 0 0 0 0 127 0" result="hardAlpha"/>
<feOffset dx="-1" dy="-2"/>
<feGaussianBlur stdDeviation="1.5"/>
<feComposite in2="hardAlpha" operator="arithmetic" k2="-1" k3="1"/>
<feColorMatrix type="matrix" values="0 0 0 0 0 0 0 0 0 0 0 0 0 0 0 0 0 0 0.22 0"/>
<feBlend mode="normal" in2="shape" result="effect1_innerShadow_2302_5505"/>
</filter>
</defs>
</svg>