<svg width="375" height="127" viewBox="0 0 375 127" fill="none" xmlns="http://www.w3.org/2000/svg">
<path d="M73.826 88.5376C70.7549 88.5376 68.3747 87.9489 66.6855 86.7715C65.0476 85.5941 63.8959 83.9047 63.2304 81.7034C62.6162 79.451 62.3091 76.7634 62.3091 73.6406V51.4487H76.1294V71.6441C76.1294 73.5382 76.4877 75.0228 77.2043 76.0979C77.9721 77.1729 79.0982 77.7104 80.5827 77.7104C81.9647 77.7104 83.2188 77.1217 84.3449 75.9443C85.5222 74.7668 86.1108 73.0519 86.1108 70.7994V51.4487H99.9311V75.4068L101.544 83.0856L99.9311 87.7697H86.9554V84.0071L86.1876 83.6232C85.5221 84.2887 84.5496 85.0054 83.2699 85.7732C82.0415 86.5411 80.6082 87.2066 78.9703 87.7697C77.3835 88.2817 75.6688 88.5376 73.826 88.5376Z" fill="white"/>
<path d="M120.425 88.5376C118.224 88.5376 116.176 88.2305 114.282 87.6162C112.44 86.9507 110.955 85.8244 109.829 84.2375C108.703 82.6505 108.14 80.4492 108.14 77.6336C108.14 75.074 108.78 72.9495 110.059 71.2602C111.339 69.5708 113.079 68.3166 115.28 67.4975C117.481 66.6784 119.964 66.2689 122.728 66.2689C125.39 66.2689 127.386 66.5761 128.717 67.1904C130.048 67.7535 131.199 68.3422 132.172 68.9565L132.709 68.4958C132.709 66.96 132.582 65.6802 132.326 64.6563C132.07 63.6325 131.481 62.8646 130.56 62.3527C129.638 61.7896 128.205 61.508 126.26 61.508C124.366 61.508 122.344 61.6872 120.194 62.0455C118.096 62.3527 116.151 62.7622 114.359 63.2741C112.619 63.7349 111.314 64.1956 110.443 64.6563V53.138C112.03 52.5749 114.282 52.063 117.2 51.6022C120.169 51.0903 123.803 50.8344 128.103 50.8344C132.709 50.8344 136.344 51.4231 139.005 52.6005C141.718 53.7267 143.663 55.3905 144.841 57.5918C146.018 59.7419 146.607 62.3271 146.607 65.3474V75.5603L148.142 83.316L146.607 87.8465H133.477V84.0839L132.709 83.6999C132.3 84.1095 131.583 84.6982 130.56 85.4661C129.536 86.234 128.179 86.9507 126.49 87.6162C124.801 88.2305 122.779 88.5376 120.425 88.5376ZM126.951 78.4783C128.333 78.4783 129.51 78.3503 130.483 78.0944C131.507 77.8384 132.249 77.608 132.709 77.4033V75.9443C132.709 75.2788 132.223 74.6389 131.251 74.0246C130.329 73.4102 128.87 73.1031 126.874 73.1031C124.11 73.1031 122.728 74.0758 122.728 76.0211C122.728 76.8401 123.035 77.4545 123.649 77.864C124.264 78.2735 125.364 78.4783 126.951 78.4783Z" fill="white"/>
<path d="M157.419 87.7697L157.342 45.6895L155.806 38.0106L157.419 33.4033H171.239V87.7697H157.419Z" fill="white"/>
<path d="M11.1304 104.646H6.97574V118.03H11.1304C13.4005 118.03 15.1842 117.434 16.4814 116.242C17.7787 115.05 18.4273 113.42 18.4273 111.351C18.4273 109.274 17.7787 107.639 16.4814 106.447C15.1842 105.246 13.4005 104.646 11.1304 104.646ZM11.1304 102.135C12.489 102.135 13.6547 102.262 14.6276 102.516C15.6093 102.77 16.5077 103.174 17.3229 103.726C18.5675 104.567 19.5273 105.65 20.2022 106.973C20.8859 108.288 21.2277 109.739 21.2277 111.325C21.2277 112.912 20.8859 114.371 20.2022 115.703C19.5185 117.027 18.5587 118.105 17.3229 118.937C16.5253 119.49 15.6312 119.893 14.6408 120.147C13.6503 120.401 12.4802 120.528 11.1304 120.528H4.37252V102.135H11.1304ZM35.9056 119.24C35.0992 119.757 34.2666 120.147 33.4076 120.41C32.5574 120.664 31.6765 120.791 30.7649 120.791C28.8454 120.791 27.3115 120.2 26.1633 119.016C25.0238 117.824 24.4541 116.238 24.4541 114.257C24.4541 112.443 25.0019 110.97 26.0976 109.839C27.2019 108.709 28.6394 108.143 30.41 108.143C32.163 108.143 33.5522 108.717 34.5777 109.866C35.6032 111.014 36.116 112.565 36.116 114.52V114.875H27.0179C27.088 116.023 27.4649 116.922 28.1486 117.57C28.8322 118.21 29.7482 118.53 30.8964 118.53C31.6677 118.53 32.4697 118.39 33.3024 118.109C34.1439 117.82 35.0116 117.386 35.9056 116.808V119.24ZM27.0179 113.153H33.447C33.3682 112.267 33.0482 111.557 32.4873 111.023C31.9263 110.488 31.2251 110.221 30.3837 110.221C29.4546 110.221 28.7052 110.47 28.1354 110.97C27.5657 111.461 27.1932 112.188 27.0179 113.153ZM38.948 119.7V117.11C39.6755 117.592 40.3767 117.96 41.0516 118.214C41.7265 118.469 42.3444 118.596 42.9054 118.596C43.5277 118.596 44.0142 118.482 44.3648 118.254C44.7241 118.017 44.9038 117.697 44.9038 117.294C44.9038 116.786 44.2421 116.203 42.9185 115.545C42.5329 115.353 42.2349 115.199 42.0245 115.085C40.8938 114.507 40.1181 113.95 39.6974 113.415C39.2767 112.872 39.0663 112.21 39.0663 111.43C39.0663 110.413 39.4301 109.607 40.1576 109.011C40.8851 108.415 41.8843 108.117 43.1552 108.117C43.8389 108.117 44.4962 108.2 45.1273 108.367C45.7584 108.525 46.3763 108.774 46.9811 109.116V111.483C46.2361 111.071 45.5524 110.768 44.9301 110.576C44.3166 110.374 43.7337 110.273 43.1815 110.273C42.6731 110.273 42.2787 110.361 41.9982 110.536C41.7265 110.711 41.5906 110.966 41.5906 111.299C41.5906 111.912 42.4365 112.635 44.1281 113.468L44.3516 113.573C45.6751 114.239 46.5385 114.827 46.9417 115.335C47.3449 115.835 47.5465 116.47 47.5465 117.241C47.5465 118.311 47.1433 119.165 46.3369 119.805C45.5393 120.445 44.4787 120.765 43.1552 120.765C42.3926 120.765 41.6651 120.677 40.9727 120.502C40.289 120.327 39.6141 120.059 38.948 119.7ZM51.1279 104.804C51.1279 104.418 51.2594 104.094 51.5223 103.831C51.7853 103.568 52.1096 103.436 52.4952 103.436C52.8809 103.436 53.2052 103.568 53.4681 103.831C53.7311 104.094 53.8626 104.418 53.8626 104.804C53.8626 105.19 53.7311 105.514 53.4681 105.777C53.2052 106.04 52.8809 106.171 52.4952 106.171C52.1096 106.171 51.7853 106.04 51.5223 105.777C51.2594 105.514 51.1279 105.19 51.1279 104.804ZM51.2856 120.528V108.38H53.7048V120.528H51.2856ZM58.9559 122.79C58.9559 123.386 59.2539 123.833 59.85 124.131C60.446 124.438 61.3225 124.591 62.4795 124.591C63.6102 124.591 64.4954 124.442 65.1353 124.144C65.7751 123.846 66.0951 123.438 66.0951 122.921C66.0951 122.351 65.7313 121.922 65.0038 121.633C64.2851 121.343 63.2026 121.199 61.7564 121.199C60.9325 121.199 60.2575 121.348 59.7316 121.646C59.2145 121.953 58.9559 122.334 58.9559 122.79ZM60.389 116.65C59.4775 116.369 58.7806 115.905 58.2986 115.256C57.8252 114.608 57.5886 113.806 57.5886 112.85C57.5886 111.378 58.097 110.264 59.1137 109.511C60.1304 108.757 61.638 108.38 63.6365 108.38H68.4616V110.352H66.4106C66.7437 110.711 66.9891 111.093 67.1469 111.496C67.3046 111.89 67.3835 112.333 67.3835 112.824C67.3835 113.841 67.0724 114.708 66.45 115.427C65.8365 116.146 65.0082 116.597 63.9652 116.781C63.7373 116.825 63.4305 116.878 63.0448 116.939C61.7388 117.141 61.0858 117.474 61.0858 117.938C61.0858 118.403 62.0193 118.819 63.8863 119.187C64.3421 119.275 64.7014 119.345 64.9644 119.398C66.1389 119.643 67.0285 120.055 67.6333 120.634C68.2381 121.212 68.5405 121.948 68.5405 122.842C68.5405 124.078 68.0234 125.02 66.9891 125.669C65.9636 126.318 64.4691 126.642 62.5058 126.642C60.5862 126.642 59.1181 126.326 58.1013 125.695C57.0934 125.073 56.5894 124.166 56.5894 122.974C56.5894 122.124 56.883 121.422 57.4703 120.87C58.0663 120.318 58.9384 119.937 60.0866 119.726C59.6221 119.516 59.2802 119.292 59.0611 119.056C58.8508 118.81 58.7456 118.539 58.7456 118.241C58.7456 117.925 58.877 117.64 59.14 117.386C59.403 117.132 59.8193 116.886 60.389 116.65ZM62.5058 110.431C61.7607 110.431 61.1516 110.65 60.6783 111.088C60.2137 111.518 59.9814 112.07 59.9814 112.745C59.9814 113.455 60.205 114.012 60.652 114.415C61.099 114.809 61.7169 115.006 62.5058 115.006C63.3034 115.006 63.9345 114.805 64.399 114.402C64.8636 113.998 65.0958 113.446 65.0958 112.745C65.0958 112.07 64.8504 111.518 64.3596 111.088C63.8775 110.65 63.2596 110.431 62.5058 110.431ZM71.6223 120.528V108.38H74.0414V109.866C74.6462 109.287 75.2466 108.866 75.8427 108.603C76.4474 108.332 77.0961 108.196 77.7885 108.196C79.1033 108.196 80.1375 108.577 80.8913 109.34C81.6539 110.102 82.0352 111.15 82.0352 112.482V120.528H79.616V113.1C79.616 112.118 79.4057 111.395 78.9849 110.931C78.573 110.457 77.9287 110.221 77.0522 110.221C76.4299 110.221 75.8821 110.343 75.4088 110.589C74.9442 110.825 74.4885 111.22 74.0414 111.772V120.528H71.6223ZM98.2172 120.765L92.8398 108.38H95.3905L98.8614 116.439L102.201 108.38H103.792L107.184 116.413L110.655 108.38H113.219L107.802 120.765H106.618L103.016 111.969L99.4005 120.765H98.2172ZM126.687 119.24C125.881 119.757 125.048 120.147 124.189 120.41C123.339 120.664 122.458 120.791 121.546 120.791C119.627 120.791 118.093 120.2 116.945 119.016C115.805 117.824 115.235 116.238 115.235 114.257C115.235 112.443 115.783 110.97 116.879 109.839C117.983 108.709 119.421 108.143 121.191 108.143C122.944 108.143 124.333 108.717 125.359 109.866C126.385 111.014 126.897 112.565 126.897 114.52V114.875H117.799C117.869 116.023 118.246 116.922 118.93 117.57C119.614 118.21 120.529 118.53 121.678 118.53C122.449 118.53 123.251 118.39 124.084 118.109C124.925 117.82 125.793 117.386 126.687 116.808V119.24ZM117.799 113.153H124.228C124.149 112.267 123.83 111.557 123.269 111.023C122.708 110.488 122.006 110.221 121.165 110.221C120.236 110.221 119.486 110.47 118.917 110.97C118.347 111.461 117.974 112.188 117.799 113.153ZM133.016 118.083C133.454 118.241 133.875 118.359 134.278 118.438C134.682 118.517 135.08 118.556 135.475 118.556C136.754 118.556 137.745 118.201 138.446 117.491C139.156 116.781 139.511 115.773 139.511 114.467C139.511 113.196 139.169 112.193 138.486 111.457C137.802 110.72 136.877 110.352 135.711 110.352C135.247 110.352 134.791 110.427 134.344 110.576C133.906 110.725 133.463 110.953 133.016 111.259V118.083ZM130.571 119.963V102.135H133.016V109.064C133.472 108.739 133.958 108.503 134.476 108.354C135.001 108.196 135.584 108.117 136.224 108.117C137.995 108.117 139.415 108.696 140.484 109.853C141.553 111.001 142.088 112.53 142.088 114.441C142.088 116.466 141.488 118.03 140.287 119.135C139.086 120.239 137.39 120.791 135.199 120.791C134.462 120.791 133.713 120.721 132.95 120.581C132.197 120.449 131.403 120.243 130.571 119.963ZM162.517 116.058L159.427 112.364C158.147 113.135 157.244 113.801 156.719 114.362C156.201 114.923 155.943 115.488 155.943 116.058C155.943 116.724 156.171 117.259 156.627 117.662C157.082 118.065 157.691 118.267 158.454 118.267C159.015 118.267 159.615 118.096 160.255 117.754C160.895 117.404 161.649 116.838 162.517 116.058ZM160.124 109.327C161.07 108.696 161.741 108.126 162.135 107.617C162.53 107.1 162.727 106.548 162.727 105.961C162.727 105.374 162.517 104.891 162.096 104.515C161.675 104.129 161.132 103.936 160.466 103.936C159.835 103.936 159.304 104.129 158.875 104.515C158.445 104.9 158.231 105.374 158.231 105.935C158.231 106.373 158.393 106.89 158.717 107.486C159.05 108.073 159.519 108.687 160.124 109.327ZM169.735 120.528H166.316L164.107 117.886C163.187 118.911 162.249 119.665 161.294 120.147C160.347 120.62 159.326 120.857 158.231 120.857C156.705 120.857 155.483 120.432 154.562 119.582C153.651 118.731 153.195 117.61 153.195 116.216C153.195 115.173 153.55 114.217 154.26 113.35C154.979 112.482 156.171 111.57 157.836 110.615C157.091 109.879 156.543 109.151 156.193 108.433C155.851 107.705 155.68 106.943 155.68 106.145C155.68 104.848 156.114 103.805 156.982 103.016C157.849 102.218 158.993 101.819 160.413 101.819C161.833 101.819 162.977 102.201 163.845 102.963C164.721 103.726 165.159 104.716 165.159 105.935C165.159 106.943 164.883 107.85 164.331 108.656C163.788 109.454 162.907 110.243 161.688 111.023L164.37 114.152C164.721 113.757 165.059 113.306 165.383 112.798C165.716 112.289 166.045 111.706 166.369 111.049H169.117C168.784 111.969 168.359 112.85 167.841 113.692C167.333 114.524 166.733 115.322 166.04 116.084L169.735 120.528ZM188.165 104.646H184.01V118.03H188.165C190.435 118.03 192.219 117.434 193.516 116.242C194.813 115.05 195.462 113.42 195.462 111.351C195.462 109.274 194.813 107.639 193.516 106.447C192.219 105.246 190.435 104.646 188.165 104.646ZM188.165 102.135C189.523 102.135 190.689 102.262 191.662 102.516C192.644 102.77 193.542 103.174 194.357 103.726C195.602 104.567 196.562 105.65 197.237 106.973C197.92 108.288 198.262 109.739 198.262 111.325C198.262 112.912 197.92 114.371 197.237 115.703C196.553 117.027 195.593 118.105 194.357 118.937C193.56 119.49 192.666 119.893 191.675 120.147C190.685 120.401 189.515 120.528 188.165 120.528H181.407V102.135H188.165ZM212.94 119.24C212.134 119.757 211.301 120.147 210.442 120.41C209.592 120.664 208.711 120.791 207.799 120.791C205.88 120.791 204.346 120.2 203.198 119.016C202.058 117.824 201.489 116.238 201.489 114.257C201.489 112.443 202.036 110.97 203.132 109.839C204.236 108.709 205.674 108.143 207.444 108.143C209.197 108.143 210.587 108.717 211.612 109.866C212.638 111.014 213.151 112.565 213.151 114.52V114.875H204.052C204.123 116.023 204.499 116.922 205.183 117.57C205.867 118.21 206.783 118.53 207.931 118.53C208.702 118.53 209.504 118.39 210.337 118.109C211.178 117.82 212.046 117.386 212.94 116.808V119.24ZM204.052 113.153H210.482C210.403 112.267 210.083 111.557 209.522 111.023C208.961 110.488 208.26 110.221 207.418 110.221C206.489 110.221 205.74 110.47 205.17 110.97C204.6 111.461 204.228 112.188 204.052 113.153ZM205.512 106.658L208.26 102.082H210.6L206.905 106.658H205.512ZM220.702 120.765L214.852 108.38H217.547L221.294 116.439L224.791 108.38H227.434L221.833 120.765H220.702ZM240.745 119.24C239.938 119.757 239.106 120.147 238.247 120.41C237.396 120.664 236.515 120.791 235.604 120.791C233.684 120.791 232.15 120.2 231.002 119.016C229.863 117.824 229.293 116.238 229.293 114.257C229.293 112.443 229.841 110.97 230.937 109.839C232.041 108.709 233.478 108.143 235.249 108.143C237.002 108.143 238.391 108.717 239.417 109.866C240.442 111.014 240.955 112.565 240.955 114.52V114.875H231.857C231.927 116.023 232.304 116.922 232.988 117.57C233.671 118.21 234.587 118.53 235.735 118.53C236.507 118.53 237.309 118.39 238.141 118.109C238.983 117.82 239.851 117.386 240.745 116.808V119.24ZM231.857 113.153H238.286C238.207 112.267 237.887 111.557 237.326 111.023C236.765 110.488 236.064 110.221 235.223 110.221C234.294 110.221 233.544 110.47 232.974 110.97C232.405 111.461 232.032 112.188 231.857 113.153ZM244.655 120.528V102.135H247.074V120.528H244.655ZM253.351 114.441C253.351 115.572 253.732 116.536 254.494 117.333C255.257 118.131 256.177 118.53 257.255 118.53C258.325 118.53 259.241 118.131 260.003 117.333C260.774 116.527 261.16 115.563 261.16 114.441C261.16 113.328 260.779 112.372 260.016 111.575C259.254 110.777 258.333 110.378 257.255 110.378C256.177 110.378 255.257 110.777 254.494 111.575C253.732 112.372 253.351 113.328 253.351 114.441ZM250.813 114.441C250.813 112.679 251.44 111.185 252.693 109.958C253.947 108.731 255.476 108.117 257.282 108.117C258.132 108.117 258.943 108.279 259.714 108.603C260.494 108.919 261.191 109.375 261.804 109.971C262.427 110.602 262.9 111.294 263.224 112.048C263.549 112.802 263.711 113.6 263.711 114.441C263.711 115.274 263.544 116.084 263.211 116.873C262.878 117.662 262.409 118.35 261.804 118.937C261.191 119.542 260.498 119.998 259.727 120.305C258.965 120.612 258.149 120.765 257.282 120.765C255.476 120.765 253.947 120.151 252.693 118.924C251.44 117.697 250.813 116.203 250.813 114.441ZM269.856 111.049V117.859C270.25 118.149 270.649 118.363 271.052 118.504C271.464 118.635 271.903 118.701 272.367 118.701C273.603 118.701 274.576 118.324 275.286 117.57C275.996 116.808 276.351 115.765 276.351 114.441C276.351 113.126 275.996 112.096 275.286 111.351C274.576 110.598 273.603 110.221 272.367 110.221C271.903 110.221 271.464 110.286 271.052 110.418C270.649 110.549 270.25 110.76 269.856 111.049ZM267.41 126.642V108.38H269.856V109.064C270.312 108.739 270.794 108.503 271.302 108.354C271.811 108.196 272.372 108.117 272.985 108.117C274.738 108.117 276.167 108.704 277.271 109.879C278.376 111.053 278.928 112.574 278.928 114.441C278.928 116.308 278.376 117.829 277.271 119.003C276.167 120.178 274.738 120.765 272.985 120.765C272.354 120.765 271.784 120.69 271.276 120.541C270.776 120.401 270.303 120.173 269.856 119.858V126.642H267.41ZM285.139 111.049V117.859C285.533 118.149 285.932 118.363 286.335 118.504C286.747 118.635 287.185 118.701 287.65 118.701C288.886 118.701 289.859 118.324 290.569 117.57C291.279 116.808 291.634 115.765 291.634 114.441C291.634 113.126 291.279 112.096 290.569 111.351C289.859 110.598 288.886 110.221 287.65 110.221C287.185 110.221 286.747 110.286 286.335 110.418C285.932 110.549 285.533 110.76 285.139 111.049ZM282.693 126.642V108.38H285.139V109.064C285.594 108.739 286.077 108.503 286.585 108.354C287.093 108.196 287.654 108.117 288.268 108.117C290.021 108.117 291.449 108.704 292.554 109.879C293.658 111.053 294.21 112.574 294.21 114.441C294.21 116.308 293.658 117.829 292.554 119.003C291.449 120.178 290.021 120.765 288.268 120.765C287.637 120.765 287.067 120.69 286.559 120.541C286.059 120.401 285.586 120.173 285.139 119.858V126.642H282.693ZM308.586 119.24C307.78 119.757 306.947 120.147 306.088 120.41C305.238 120.664 304.357 120.791 303.445 120.791C301.526 120.791 299.992 120.2 298.844 119.016C297.704 117.824 297.135 116.238 297.135 114.257C297.135 112.443 297.682 110.97 298.778 109.839C299.882 108.709 301.32 108.143 303.09 108.143C304.843 108.143 306.233 108.717 307.258 109.866C308.284 111.014 308.796 112.565 308.796 114.52V114.875H299.698C299.768 116.023 300.145 116.922 300.829 117.57C301.513 118.21 302.429 118.53 303.577 118.53C304.348 118.53 305.15 118.39 305.983 118.109C306.824 117.82 307.692 117.386 308.586 116.808V119.24ZM299.698 113.153H306.127C306.049 112.267 305.729 111.557 305.168 111.023C304.607 110.488 303.906 110.221 303.064 110.221C302.135 110.221 301.386 110.47 300.816 110.97C300.246 111.461 299.874 112.188 299.698 113.153ZM312.417 120.528V108.38H314.836V109.866C315.441 109.287 316.042 108.866 316.638 108.603C317.242 108.332 317.891 108.196 318.583 108.196C319.477 108.196 320.222 108.362 320.819 108.696C321.423 109.02 321.932 109.537 322.344 110.247C323.089 109.511 323.785 108.985 324.434 108.669C325.091 108.354 325.788 108.196 326.525 108.196C327.848 108.196 328.891 108.577 329.654 109.34C330.425 110.102 330.811 111.15 330.811 112.482V120.528H328.352V113.1C328.352 112.109 328.146 111.382 327.734 110.917C327.331 110.453 326.695 110.221 325.828 110.221C325.188 110.221 324.631 110.343 324.158 110.589C323.685 110.825 323.225 111.22 322.778 111.772V120.528H320.411V113.1C320.411 112.118 320.201 111.395 319.78 110.931C319.368 110.457 318.724 110.221 317.847 110.221C317.225 110.221 316.677 110.343 316.204 110.589C315.739 110.825 315.283 111.22 314.836 111.772V120.528H312.417ZM345.804 119.24C344.998 119.757 344.165 120.147 343.306 120.41C342.456 120.664 341.575 120.791 340.663 120.791C338.744 120.791 337.21 120.2 336.062 119.016C334.922 117.824 334.353 116.238 334.353 114.257C334.353 112.443 334.9 110.97 335.996 109.839C337.1 108.709 338.538 108.143 340.308 108.143C342.061 108.143 343.451 108.717 344.476 109.866C345.502 111.014 346.015 112.565 346.015 114.52V114.875H336.916C336.987 116.023 337.363 116.922 338.047 117.57C338.731 118.21 339.647 118.53 340.795 118.53C341.566 118.53 342.368 118.39 343.201 118.109C344.042 117.82 344.91 117.386 345.804 116.808V119.24ZM336.916 113.153H343.346C343.267 112.267 342.947 111.557 342.386 111.023C341.825 110.488 341.124 110.221 340.282 110.221C339.353 110.221 338.604 110.47 338.034 110.97C337.464 111.461 337.092 112.188 336.916 113.153ZM349.635 120.528V108.38H352.054V109.866C352.659 109.287 353.26 108.866 353.856 108.603C354.46 108.332 355.109 108.196 355.802 108.196C357.116 108.196 358.151 108.577 358.904 109.34C359.667 110.102 360.048 111.15 360.048 112.482V120.528H357.629V113.1C357.629 112.118 357.419 111.395 356.998 110.931C356.586 110.457 355.942 110.221 355.065 110.221C354.443 110.221 353.895 110.343 353.422 110.589C352.957 110.825 352.502 111.22 352.054 111.772V120.528H349.635ZM371.124 120.147C370.747 120.357 370.339 120.511 369.901 120.607C369.471 120.712 369.007 120.765 368.507 120.765C367.14 120.765 366.176 120.441 365.615 119.792C365.063 119.143 364.787 117.96 364.787 116.242V110.484H362.722V110.247L366.969 105.553H367.245V108.38H371.045V110.484H367.245V116.058C367.245 117.066 367.368 117.719 367.613 118.017C367.867 118.306 368.336 118.451 369.02 118.451C369.388 118.451 369.748 118.403 370.098 118.306C370.449 118.21 370.791 118.061 371.124 117.859V120.147Z" fill="white"/>
<path fill-rule="evenodd" clip-rule="evenodd" d="M193.18 44.5774V81.4468H213.377C216.54 81.4468 219.613 81.1098 222.595 80.4358C223.95 80.1342 225.241 79.7245 226.469 79.207C225.42 80.678 224.206 81.9181 222.827 82.9272C220.432 84.6797 217.721 85.8929 214.693 86.567C211.711 87.241 208.639 87.578 205.476 87.578H185.278V50.7086L183.922 43.9683L185.278 39.8568H192.23L193.18 44.5774ZM192.23 39.8568L191.824 37.8372L193.18 33.7256H213.377C216.631 33.7256 219.748 34.0401 222.731 34.6692C225.758 35.2534 228.446 36.3768 230.796 38.0394C233.191 39.702 235.066 42.0835 236.422 45.1841C237.822 48.2846 238.523 52.3063 238.523 57.2492C238.523 62.1921 237.822 66.2587 236.422 69.4491C235.021 72.5946 233.123 75.0435 230.728 76.796C229.405 77.7643 227.985 78.5679 226.469 79.207C227.242 78.1234 227.926 76.9145 228.52 75.5803C229.921 72.3899 230.621 68.3232 230.621 63.3804C230.621 58.4375 229.921 54.4158 228.52 51.3152C227.164 48.2147 225.289 45.8331 222.894 44.1705C220.545 42.5079 217.856 41.3846 214.829 40.8004C211.847 40.1713 208.729 39.8568 205.476 39.8568H192.23ZM213.377 70.6624H205.515V50.6413C209.427 50.6476 212.441 51.5912 214.558 53.4721C216.727 55.3145 217.811 58.6172 217.811 63.3804C217.811 66.1678 217.447 68.5012 216.72 70.3807C215.69 70.5685 214.576 70.6624 213.377 70.6624ZM216.72 70.3807C219.108 69.9455 221.044 69.0059 222.527 67.5618C224.651 65.4499 225.713 62.0123 225.713 57.2492C225.713 52.486 224.628 49.1833 222.459 47.341C220.336 45.4537 217.308 44.51 213.377 44.51H205.515V50.6413C205.502 50.6412 205.489 50.6412 205.476 50.6412H197.613V76.7935H205.476C209.452 76.7935 212.502 75.76 214.626 73.693C215.506 72.817 216.205 71.7129 216.72 70.3807Z" fill="white"/>
<path d="M4.86616 87.7688V45.7653L3.33057 38.0865L4.86616 33.4023H27.7465C31.4319 33.4023 34.9638 33.7607 38.3421 34.4774C41.7716 35.1429 44.8172 36.4227 47.4789 38.3168C50.1918 40.2109 52.316 42.9241 53.8516 46.4564C55.4384 49.9887 56.2318 54.5704 56.2318 60.2016C56.2318 65.8328 55.4384 70.4657 53.8516 74.1004C52.2648 77.6838 50.115 80.4738 47.4021 82.4703C44.6892 84.4669 41.618 85.8491 38.1886 86.6169C34.8102 87.3848 31.3296 87.7688 27.7465 87.7688H4.86616ZM18.8401 75.4826H27.7465C32.2509 75.4826 35.706 74.3051 38.1118 71.9503C40.5175 69.5442 41.7204 65.628 41.7204 60.2016C41.7204 54.7752 40.4919 51.0126 38.035 48.9137C35.6292 46.7636 32.1997 45.6885 27.7465 45.6885H18.8401V75.4826Z" fill="white"/>
<path d="M267.282 88.536C263.75 88.536 260.551 87.9473 257.685 86.7699C254.87 85.5924 252.617 83.6215 250.928 80.8571C249.29 78.0927 248.471 74.3557 248.471 69.646C248.471 64.8851 249.367 61.148 251.158 58.4348C252.95 55.6704 255.279 53.6995 258.145 52.5221C261.012 51.3446 264.057 50.7559 267.282 50.7559C270.097 50.7559 272.503 50.8583 274.5 51.0631C276.547 51.2679 277.903 51.447 278.569 51.6006L284.558 58.358L278.415 66.728L269.586 61.5064C265.184 61.5064 262.983 64.2196 262.983 69.646C262.983 72.4616 263.648 74.5349 264.979 75.8659C266.31 77.1457 268.357 77.7856 271.121 77.7856C273.885 77.7856 276.368 77.4016 278.569 76.6337C280.77 75.8658 282.485 75.1492 283.713 74.4837V85.5412C282.126 86.3603 280.028 87.077 277.417 87.6913C274.858 88.2544 271.48 88.536 267.282 88.536Z" fill="white"/>
<path d="M292.324 87.7681L292.248 45.6879L290.712 38.009L292.324 33.4017H306.145V87.7681H292.324Z" fill="white"/>
<path d="M353.884 88.536C350.352 88.536 347.153 87.9473 344.287 86.7699C341.472 85.5924 339.219 83.6215 337.53 80.8571C335.892 78.0927 335.073 74.3557 335.073 69.646C335.073 64.8851 335.969 61.148 337.761 58.4348C339.552 55.6704 341.881 53.6995 344.748 52.5221C347.614 51.3446 350.66 50.7559 353.884 50.7559C356.7 50.7559 359.105 50.8583 361.102 51.0631C363.149 51.2679 364.506 51.447 365.171 51.6006L371.16 58.358L365.017 66.728L356.188 61.5064C351.786 61.5064 349.585 64.2196 349.585 69.646C349.585 72.4616 350.25 74.5349 351.581 75.8659C352.912 77.1457 354.959 77.7856 357.723 77.7856C360.487 77.7856 362.97 77.4016 365.171 76.6337C367.372 75.8658 369.087 75.1492 370.315 74.4837V85.5412C368.728 86.3603 366.63 87.077 364.019 87.6913C361.46 88.2544 358.082 88.536 353.884 88.536Z" fill="white"/>
<path fill-rule="evenodd" clip-rule="evenodd" d="M315.342 62.351V87.7681H329.162V51.5238H315.265L313.729 56.2079L315.342 62.351Z" fill="white"/>
<path fill-rule="evenodd" clip-rule="evenodd" d="M319.875 32.0928C319.869 32.099 319.863 32.1051 319.856 32.1113L319.875 32.0928ZM319.847 46.8731C319.853 46.8794 319.859 46.8856 319.866 46.8919L319.847 46.8731Z" fill="white"/>
<g filter="url(#filter0_i_3358_2488)">
<path d="M326.025 33.4785L318.436 33.4869C316.426 33.4891 314.793 35.113 314.775 37.1198L314.767 44.7651C314.78 46.7567 316.386 48.3687 318.377 48.3895L326.052 48.411C326.296 48.4099 326.535 48.3848 326.765 48.3381C328.441 47.9983 329.704 46.5126 329.699 44.7355L329.678 37.1173C329.672 35.1031 328.039 33.4762 326.025 33.4785Z" fill="white"/>
</g>
<defs>
<filter id="filter0_i_3358_2488" x="314.019" y="33.4785" width="15.6806" height="17.1765" filterUnits="userSpaceOnUse" color-interpolation-filters="sRGB">
<feFlood flood-opacity="0" result="BackgroundImageFix"/>
<feBlend mode="normal" in="SourceGraphic" in2="BackgroundImageFix" result="shape"/>
<feColorMatrix in="SourceAlpha" type="matrix" values="0 0 0 0 0 0 0 0 0 0 0 0 0 0 0 0 0 0 127 0" result="hardAlpha"/>
<feOffset dx="-0.74795" dy="2.9918"/>
<feGaussianBlur stdDeviation="1.12193"/>
<feComposite in2="hardAlpha" operator="arithmetic" k2="-1" k3="1"/>
<feColorMatrix type="matrix" values="0 0 0 0 0 0 0 0 0 0 0 0 0 0 0 0 0 0 0.3 0"/>
<feBlend mode="normal" in2="shape" result="effect1_innerShadow_3358_2488"/>
</filter>
</defs>
</svg>