<svg width="75" height="72" viewBox="0 0 75 72" fill="none" xmlns="http://www.w3.org/2000/svg">
<g filter="url(#filter0_i_2302_5503)">
<path fill-rule="evenodd" clip-rule="evenodd" d="M12.9715 14.5884V64.1529H40.2988C44.5783 64.1529 48.7354 63.6999 52.7703 62.7937C54.7251 62.3613 56.5823 61.7638 58.3421 61.0012C56.9652 62.8676 55.3842 64.4498 53.599 65.7478C50.3589 68.1037 46.6908 69.7347 42.5948 70.6408C38.5599 71.5469 34.4027 72 30.1232 72H2.79596V22.4355L0.961914 13.3744L2.79596 7.84707H11.607L12.9715 14.5884ZM11.607 7.84707L11.1375 5.5273L12.9715 0H40.2988C44.7005 0 48.9188 0.422853 52.9538 1.26856C57.0498 2.05386 60.6873 3.56405 63.8663 5.79913C67.1065 8.03421 69.6436 11.2358 71.4776 15.4039C73.3728 19.5721 74.3204 24.9786 74.3204 31.6234C74.3204 38.2682 73.3728 43.7351 71.4776 48.0241C69.5824 52.2526 67.0148 55.5448 63.7746 57.9007C62.0807 59.1323 60.2699 60.1658 58.3421 61.0012C59.4644 59.48 60.451 57.77 61.302 55.8711C63.1972 51.5822 64.1448 46.1153 64.1448 39.4705C64.1448 32.8256 63.1972 27.4191 61.302 23.251C59.468 19.0829 56.9309 15.8813 53.6908 13.6462C50.5117 11.4111 46.8742 9.90093 42.7782 9.11563C38.7433 8.26993 34.525 7.84707 30.1232 7.84707H11.607ZM40.2988 49.6551H29.6614V22.3449H30.1232C35.442 22.3449 39.538 23.6135 42.4114 26.1506C45.3458 28.6273 46.8131 33.0673 46.8131 39.4705C46.8131 43.3783 46.278 46.6223 45.2078 49.2027C43.7075 49.5043 42.0712 49.6551 40.2988 49.6551ZM45.2078 49.2027C48.2616 48.5889 50.7519 47.3503 52.6786 45.4869C55.552 42.6478 56.9887 38.0266 56.9887 31.6234C56.9887 25.2202 55.5214 20.7802 52.5869 18.3035C49.7136 15.7664 45.6176 14.4978 40.2988 14.4978H29.6614V22.3449H19.4858V57.5022H30.1232C35.5031 57.5022 39.6297 56.1128 42.5031 53.334C43.6228 52.2276 44.5244 50.8505 45.2078 49.2027Z" fill="#41EAD4"/>
</g>
<defs>
<filter id="filter0_i_2302_5503" x="-0.0380859" y="-2" width="74.3584" height="74" filterUnits="userSpaceOnUse" color-interpolation-filters="sRGB">
<feFlood flood-opacity="0" result="BackgroundImageFix"/>
<feBlend mode="normal" in="SourceGraphic" in2="BackgroundImageFix" result="shape"/>
<feColorMatrix in="SourceAlpha" type="matrix" values="0 0 0 0 0 0 0 0 0 0 0 0 0 0 0 0 0 0 127 0" result="hardAlpha"/>
<feOffset dx="-1" dy="-2"/>
<feGaussianBlur stdDeviation="1.5"/>
<feComposite in2="hardAlpha" operator="arithmetic" k2="-1" k3="1"/>
<feColorMatrix type="matrix" values="0 0 0 0 0 0 0 0 0 0 0 0 0 0 0 0 0 0 0.22 0"/>
<feBlend mode="normal" in2="shape" result="effect1_innerShadow_2302_5503"/>
</filter>
</defs>
</svg>