<svg width="82" height="81" viewBox="0 0 82 81" fill="none" xmlns="http://www.w3.org/2000/svg">
<rect x="2" y="8.58398" width="69" height="70" rx="13" stroke="#2E437D" stroke-width="4"/>
<g filter="url(#filter0_d_2987_4526)">
<path d="M34.293 45.402L33.438 46.635L34.293 45.402ZM37.707 45.402L38.562 46.635L37.707 45.402ZM19.5 31.584H52.5V28.584H19.5V31.584ZM54 33.084V54.084H57V33.084H54ZM52.5 55.584H19.5V58.584H52.5V55.584ZM18 54.084V33.084H15V54.084H18ZM19.5 55.584C19.1022 55.584 18.7206 55.426 18.4393 55.1446C18.158 54.8633 18 54.4818 18 54.084H15C15 55.2775 15.4741 56.4221 16.318 57.266C17.1619 58.1099 18.3065 58.584 19.5 58.584V55.584ZM54 54.084C54 54.4818 53.842 54.8633 53.5607 55.1446C53.2794 55.426 52.8978 55.584 52.5 55.584V58.584C53.6935 58.584 54.8381 58.1099 55.682 57.266C56.5259 56.4221 57 55.2775 57 54.084H54ZM52.5 31.584C52.8978 31.584 53.2794 31.742 53.5607 32.0233C53.842 32.3046 54 32.6862 54 33.084H57C57 31.8905 56.5259 30.7459 55.682 29.902C54.8381 29.0581 53.6935 28.584 52.5 28.584V31.584ZM19.5 28.584C18.3065 28.584 17.1619 29.0581 16.318 29.902C15.4741 30.7459 15 31.8905 15 33.084H18C18 32.6862 18.158 32.3046 18.4393 32.0233C18.7206 31.742 19.1022 31.584 19.5 31.584V28.584ZM15.645 34.317L33.438 46.635L35.1465 44.169L17.3535 31.851L15.6465 34.317H15.645ZM38.562 46.635L56.3535 34.317L54.6465 31.851L36.8535 44.169L38.562 46.635ZM33.438 46.635C34.1907 47.1562 35.0844 47.4355 36 47.4355C36.9156 47.4355 37.8093 47.1562 38.562 46.635L36.8535 44.169C36.6027 44.3425 36.305 44.4355 36 44.4355C35.695 44.4355 35.3973 44.3425 35.1465 44.169L33.438 46.635Z" fill="#2E437D"/>
</g>
<defs>
<filter id="filter0_d_2987_4526" x="12" y="28.584" width="48" height="37" filterUnits="userSpaceOnUse" color-interpolation-filters="sRGB">
<feFlood flood-opacity="0" result="BackgroundImageFix"/>
<feColorMatrix in="SourceAlpha" type="matrix" values="0 0 0 0 0 0 0 0 0 0 0 0 0 0 0 0 0 0 127 0" result="hardAlpha"/>
<feOffset dy="4"/>
<feGaussianBlur stdDeviation="1.5"/>
<feComposite in2="hardAlpha" operator="out"/>
<feColorMatrix type="matrix" values="0 0 0 0 0 0 0 0 0 0 0 0 0 0 0 0 0 0 0.17 0"/>
<feBlend mode="normal" in2="BackgroundImageFix" result="effect1_dropShadow_2987_4526"/>
<feBlend mode="normal" in="SourceGraphic" in2="effect1_dropShadow_2987_4526" result="shape"/>
</filter>
</defs>
</svg>