<svg width="37" height="37" viewBox="0 0 37 37" fill="none" xmlns="http://www.w3.org/2000/svg">
<path d="M32.3494 11.821V11.4546C32.2726 8.35207 30.9913 5.40647 28.7852 3.26079C26.5792 1.11511 23.6276 -0.0563674 20.5747 0.00208704C18.3011 -0.0167694 16.0706 0.632569 14.1515 1.87196C12.2325 3.11136 10.7067 4.888 9.75778 6.9881C7.086 7.29103 4.61654 8.58018 2.8179 10.611C1.01926 12.6418 0.0165493 15.273 0 18.0054C0.00295442 19.4532 0.286627 20.8862 0.834799 22.2224C1.38297 23.5587 2.18489 24.7721 3.19472 25.7931C4.20454 26.8142 5.40247 27.623 6.72001 28.1732C8.03755 28.7234 9.44887 29.0043 10.8733 28.9998H15.0986V26.7093H10.8733C8.6954 26.5895 6.64317 25.635 5.13026 24.0382C3.61734 22.4414 2.75624 20.321 2.72051 18.1044C2.68479 15.8879 3.47709 13.74 4.93773 12.0937C6.39837 10.4473 8.41874 9.42503 10.5916 9.23278H11.3465L11.6057 8.51128C12.3045 6.66644 13.5437 5.08411 15.1558 3.97811C16.7678 2.87211 18.6751 2.29576 20.6198 2.32694C23.0751 2.26831 25.4536 3.19843 27.2371 4.91461C29.0205 6.63079 30.0643 8.9939 30.1409 11.4889C30.1565 11.7941 30.1565 12.0999 30.1409 12.4051L30.0508 13.2297L30.7832 13.5733C32.1997 14.2219 33.3532 15.3467 34.0496 16.7583C34.746 18.1699 34.9428 19.7822 34.6069 21.324C34.271 22.8658 33.4229 24.2429 32.2052 25.2237C30.9876 26.2045 29.4747 26.7291 27.9212 26.7093H21.8592V28.9998H27.9212C29.9251 29.0144 31.8767 28.3499 33.4676 27.1112C35.0584 25.8726 36.1978 24.1304 36.7057 22.1601C37.2136 20.1897 37.061 18.1036 36.2721 16.2312C35.4832 14.3588 34.1029 12.807 32.3494 11.821Z" fill="#4087FF"/>
<path d="M24.5537 22.412C24.8377 22.4165 25.1165 22.3372 25.3544 22.1842C25.5922 22.0313 25.7782 21.8118 25.8884 21.5539C25.9987 21.2959 26.0281 21.0114 25.9729 20.7369C25.9177 20.4624 25.7804 20.2105 25.5787 20.0134L18.4605 13L11.3423 20.0134C11.1091 20.2818 10.9872 20.6269 11.0011 20.98C11.0149 21.333 11.1634 21.6679 11.417 21.9177C11.6705 22.1675 12.0104 22.3138 12.3687 22.3275C12.727 22.3411 13.0773 22.221 13.3497 21.9912L17.0369 18.4144V35.5973C17.0369 35.9693 17.1869 36.3261 17.4539 36.5892C17.7208 36.8522 18.0829 37 18.4605 37C18.8381 37 19.2002 36.8522 19.4672 36.5892C19.7342 36.3261 19.8842 35.9693 19.8842 35.5973V18.4144L23.5429 22.0193C23.8139 22.2767 24.1773 22.4179 24.5537 22.412Z" fill="#4087FF"/>
</svg>