<svg width="52" height="52" viewBox="0 0 52 52" fill="none" xmlns="http://www.w3.org/2000/svg">
<rect x="1.96951" y="1.04958" width="48.9806" height="48.9806" rx="5.76105" stroke="white" stroke-width="2.09917"/>
<path d="M24.7532 29.9027L24.4321 29.8149L24.432 29.815L24.4319 29.8154L24.4315 29.8171L24.4297 29.8236L24.4228 29.8489L24.3964 29.9457C24.3737 30.0294 24.341 30.1499 24.3012 30.297C24.2217 30.5913 24.114 30.9924 24.0011 31.4197C23.7811 32.2526 23.5372 33.201 23.4482 33.6417C22.8746 35.2357 22.0451 36.7076 21.0651 38.1779C20.7999 36.5119 20.6943 34.7374 20.9816 32.9707C21.1523 32.3587 21.6405 30.3752 22.0857 28.5458C22.3111 27.6197 22.5263 26.73 22.6851 26.0719L22.8753 25.2827L22.9279 25.064L22.9416 25.0066L22.9452 24.992L22.9461 24.9883L22.9463 24.9873L22.9463 24.9871L22.6227 24.9093L22.9464 24.987L22.9744 24.8701L22.9213 24.7622C22.6207 24.1516 22.4639 23.3719 22.4639 22.579C22.4639 20.3787 23.6493 19.2463 24.7406 19.0139C25.2939 18.8961 25.825 19.0042 26.2128 19.307C26.5929 19.6038 26.8751 20.119 26.8786 20.8999C26.7171 22.6831 26.2373 24.3123 25.587 26.1286L25.5675 26.183V26.2408V26.9066C25.5675 28.433 26.8797 29.5814 28.3794 29.4033C30.0654 29.3955 31.4406 28.4431 32.3842 27.0748C33.3301 25.7031 33.8639 23.8886 33.8745 22.0816C33.8851 20.2739 33.3717 18.4422 32.1836 17.0568C30.9883 15.6631 29.1395 14.756 26.5559 14.756C19.4045 14.756 16.7726 22.2283 19.9051 26.1168L19.9155 26.1297L19.9272 26.1415C19.9659 26.1809 19.9779 26.2104 19.9845 26.2372C19.9923 26.2689 19.9947 26.3043 19.9952 26.3676C19.8794 26.8411 19.8003 27.2206 19.7387 27.516L19.7335 27.5409C19.6703 27.8439 19.6298 28.0324 19.5896 28.153C19.567 28.1429 19.5402 28.1302 19.5087 28.1144C17.488 26.8448 16.2362 24.4627 16.2362 22.0797C16.2362 19.5812 17.148 17.2143 18.9226 15.4721C20.6954 13.7316 23.3524 12.5922 26.8837 12.5922C32.4683 12.5922 36.8757 16.4687 36.8757 21.7468C36.8757 27.1089 33.3701 31.4007 28.5226 31.4007C27.1381 31.4007 25.773 30.774 25.0255 29.7112L24.6187 29.1327L24.4321 29.8149L24.7532 29.9027ZM19.5535 28.2396C19.5535 28.2395 19.5542 28.2382 19.5557 28.2362C19.5543 28.2387 19.5535 28.2397 19.5535 28.2396Z" fill="white" stroke="white" stroke-width="0.665789"/>
</svg>