<svg width="75" height="75" viewBox="0 0 75 75" fill="none" xmlns="http://www.w3.org/2000/svg">
<mask id="path-1-inside-1_2828_10922" fill="white">
<path fill-rule="evenodd" clip-rule="evenodd" d="M10 0C4.47715 0 0 4.47715 0 10V65C0 70.5229 4.47715 75 10 75H65C70.5229 75 75 70.5229 75 65V10C75 4.47715 70.5229 0 65 0H10ZM22 32.4192C22 24.843 27.5346 18 38.1224 18C46.5446 18 53.2823 23.8654 53.2823 31.9304C53.2823 39.9954 47.9884 46.594 40.5288 46.594C38.3631 46.594 36.1974 45.6164 34.9942 43.9057C34.9942 43.9057 33.791 48.3048 33.5504 49.5267C32.5879 52.2151 31.1441 54.659 29.4596 57.1029H29.219C29.219 57.1029 28.9784 57.1029 29.219 56.8585C28.7377 54.1702 28.4971 51.2375 28.9784 48.3048C29.4596 46.594 31.866 36.5739 31.866 36.5739C31.3847 35.5963 31.1441 34.3743 31.1441 33.1524C31.1441 26.3094 38.6037 25.5762 38.6037 30.7084C38.3631 33.3968 37.6412 35.8407 36.6786 38.529V39.5066C36.6786 41.4618 38.3631 42.9281 40.2881 42.6837C49.4322 42.6837 52.3198 22.1547 37.6412 22.1547C27.5346 22.1547 23.9251 32.6636 28.2565 38.0402C28.4971 38.2846 28.4971 38.529 28.4971 38.7734C28.3213 39.4875 28.2026 40.0566 28.1097 40.5021C27.8211 41.8862 27.7815 42.0759 27.0533 41.7061C23.9251 39.751 22 36.0851 22 32.4192Z"/>
</mask>
<path fill-rule="evenodd" clip-rule="evenodd" d="M10 0C4.47715 0 0 4.47715 0 10V65C0 70.5229 4.47715 75 10 75H65C70.5229 75 75 70.5229 75 65V10C75 4.47715 70.5229 0 65 0H10ZM22 32.4192C22 24.843 27.5346 18 38.1224 18C46.5446 18 53.2823 23.8654 53.2823 31.9304C53.2823 39.9954 47.9884 46.594 40.5288 46.594C38.3631 46.594 36.1974 45.6164 34.9942 43.9057C34.9942 43.9057 33.791 48.3048 33.5504 49.5267C32.5879 52.2151 31.1441 54.659 29.4596 57.1029H29.219C29.219 57.1029 28.9784 57.1029 29.219 56.8585C28.7377 54.1702 28.4971 51.2375 28.9784 48.3048C29.4596 46.594 31.866 36.5739 31.866 36.5739C31.3847 35.5963 31.1441 34.3743 31.1441 33.1524C31.1441 26.3094 38.6037 25.5762 38.6037 30.7084C38.3631 33.3968 37.6412 35.8407 36.6786 38.529V39.5066C36.6786 41.4618 38.3631 42.9281 40.2881 42.6837C49.4322 42.6837 52.3198 22.1547 37.6412 22.1547C27.5346 22.1547 23.9251 32.6636 28.2565 38.0402C28.4971 38.2846 28.4971 38.529 28.4971 38.7734C28.3213 39.4875 28.2026 40.0566 28.1097 40.5021C27.8211 41.8862 27.7815 42.0759 27.0533 41.7061C23.9251 39.751 22 36.0851 22 32.4192Z" fill="#41EAD4"/>
<path d="M34.9942 43.9057L37.5153 42.1326L33.7486 36.7768L32.0212 43.0926L34.9942 43.9057ZM33.5504 49.5267L36.4522 50.5657L36.5299 50.3485L36.5745 50.1222L33.5504 49.5267ZM29.4596 57.1029V60.1851H31.0786L31.9974 58.852L29.4596 57.1029ZM29.219 56.8585L31.4153 59.021L32.5339 57.8849L32.253 56.3154L29.219 56.8585ZM28.9784 48.3048L26.0113 47.4701L25.9647 47.6358L25.9369 47.8056L28.9784 48.3048ZM31.866 36.5739L34.8629 37.2936L35.1229 36.2112L34.6312 35.2125L31.866 36.5739ZM38.6037 30.7084L41.6736 30.9832L41.6859 30.8461V30.7084H38.6037ZM36.6786 38.529L33.7768 37.4901L33.5964 37.9939V38.529H36.6786ZM40.2881 42.6837V39.6015H40.0933L39.9 39.6261L40.2881 42.6837ZM28.2565 38.0402L25.8562 39.9739L25.9525 40.0934L26.0602 40.2027L28.2565 38.0402ZM28.4971 38.7734L31.49 39.5101L31.5793 39.1472V38.7734H28.4971ZM28.1097 40.5021L31.127 41.1314L31.127 41.1313L28.1097 40.5021ZM27.0533 41.7061L25.4197 44.3198L25.5358 44.3923L25.6578 44.4543L27.0533 41.7061ZM3.08219 10C3.08219 6.1794 6.1794 3.08219 10 3.08219V-3.08219C2.77491 -3.08219 -3.08219 2.7749 -3.08219 10H3.08219ZM3.08219 65V10H-3.08219V65H3.08219ZM10 71.9178C6.1794 71.9178 3.08219 68.8206 3.08219 65H-3.08219C-3.08219 72.2251 2.7749 78.0822 10 78.0822V71.9178ZM65 71.9178H10V78.0822H65V71.9178ZM71.9178 65C71.9178 68.8206 68.8206 71.9178 65 71.9178V78.0822C72.2251 78.0822 78.0822 72.2251 78.0822 65H71.9178ZM71.9178 10V65H78.0822V10H71.9178ZM65 3.08219C68.8206 3.08219 71.9178 6.1794 71.9178 10H78.0822C78.0822 2.77491 72.2251 -3.08219 65 -3.08219V3.08219ZM10 3.08219H65V-3.08219H10V3.08219ZM38.1224 14.9178C32.1413 14.9178 27.2955 16.8665 23.9315 20.1691C20.584 23.4555 18.9178 27.8766 18.9178 32.4192H25.0822C25.0822 29.3856 26.1832 26.5971 28.2501 24.5679C30.3003 22.5551 33.5157 21.0822 38.1224 21.0822V14.9178ZM56.3645 31.9304C56.3645 21.878 47.9469 14.9178 38.1224 14.9178V21.0822C45.1423 21.0822 50.2001 25.8529 50.2001 31.9304H56.3645ZM40.5288 49.6762C50.145 49.6762 56.3645 41.2046 56.3645 31.9304H50.2001C50.2001 38.7862 45.8318 43.5118 40.5288 43.5118V49.6762ZM32.4731 45.6788C34.3425 48.3369 37.5253 49.6762 40.5288 49.6762V43.5118C39.2009 43.5118 38.0522 42.896 37.5153 42.1326L32.4731 45.6788ZM36.5745 50.1222C36.6714 49.6303 37.0016 48.3358 37.3425 47.0452C37.5061 46.426 37.6624 45.8438 37.778 45.4159C37.8357 45.2021 37.8832 45.0272 37.9162 44.9061C37.9326 44.8455 37.9455 44.7984 37.9542 44.7666C37.9585 44.7506 37.9618 44.7386 37.964 44.7305C37.9651 44.7265 37.9659 44.7235 37.9665 44.7215C37.9667 44.7206 37.9669 44.7198 37.967 44.7194C37.9671 44.7192 37.9671 44.719 37.9672 44.7189C37.9672 44.7188 37.9672 44.7188 37.9672 44.7188C37.9672 44.7188 37.9672 44.7188 34.9942 43.9057C32.0212 43.0926 32.0212 43.0926 32.0212 43.0927C32.0212 43.0927 32.0211 43.0928 32.0211 43.0929C32.0211 43.093 32.021 43.0933 32.0209 43.0936C32.0207 43.0942 32.0205 43.0951 32.0202 43.0962C32.0196 43.0985 32.0187 43.1018 32.0175 43.1062C32.0151 43.1148 32.0116 43.1276 32.0071 43.1442C31.998 43.1774 31.9848 43.226 31.9679 43.2881C31.9341 43.4123 31.8857 43.5907 31.8269 43.8084C31.7094 44.2435 31.5499 44.8374 31.3826 45.4708C31.0618 46.6852 30.67 48.2012 30.5263 48.9312L36.5745 50.1222ZM31.9974 58.852C33.7519 56.3065 35.3615 53.6121 36.4522 50.5657L30.6486 48.4878C29.8143 50.818 28.5362 53.0115 26.9218 55.3538L31.9974 58.852ZM29.219 60.1851H29.4596V54.0207H29.219V60.1851ZM27.0227 54.696C26.8503 54.8712 26.4226 55.3268 26.189 56.0387C26.0575 56.4392 25.963 56.9982 26.0891 57.6388C26.2198 58.3024 26.5463 58.8426 26.9325 59.2348C27.6009 59.9137 28.3656 60.0778 28.5716 60.1196C28.7327 60.1523 28.8701 60.1675 28.9691 60.1753C29.0207 60.1793 29.0675 60.1817 29.1085 60.1832C29.1291 60.1839 29.1487 60.1844 29.167 60.1847C29.1762 60.1848 29.1851 60.1849 29.1938 60.185C29.1981 60.185 29.2024 60.1851 29.2066 60.1851C29.2087 60.1851 29.2108 60.1851 29.2128 60.1851C29.2139 60.1851 29.2154 60.1851 29.2159 60.1851C29.2175 60.1851 29.219 60.1851 29.219 57.1029C29.219 54.0207 29.2205 54.0207 29.2221 54.0207C29.2226 54.0207 29.2241 54.0207 29.2251 54.0207C29.2272 54.0207 29.2293 54.0207 29.2313 54.0207C29.2355 54.0208 29.2397 54.0208 29.2439 54.0208C29.2523 54.0209 29.2609 54.021 29.2696 54.0211C29.2871 54.0214 29.3053 54.0219 29.3242 54.0226C29.3618 54.0239 29.4037 54.0261 29.4492 54.0296C29.536 54.0364 29.6565 54.0497 29.7987 54.0786C29.9351 54.1063 30.144 54.1587 30.3857 54.2639C30.6218 54.3667 30.9795 54.5589 31.325 54.9099C31.6962 55.2868 32.0114 55.808 32.1374 56.4477C32.2588 57.0645 32.1662 57.5947 32.046 57.961C31.8349 58.6041 31.4674 58.968 31.4153 59.021L27.0227 54.696ZM25.9369 47.8056C25.3779 51.2118 25.6701 54.5253 26.185 57.4017L32.253 56.3154C31.8054 53.8151 31.6163 51.2632 32.0199 48.8039L25.9369 47.8056ZM31.866 36.5739C28.869 35.8542 28.869 35.8542 28.869 35.8543C28.8689 35.8543 28.8689 35.8544 28.8689 35.8546C28.8688 35.8549 28.8687 35.8553 28.8686 35.8559C28.8683 35.8571 28.8678 35.8589 28.8673 35.8613C28.8661 35.866 28.8644 35.8732 28.8621 35.8826C28.8576 35.9015 28.8508 35.9297 28.842 35.9664C28.8243 36.04 28.7983 36.1482 28.765 36.2866C28.6984 36.5635 28.6026 36.9609 28.4863 37.4433C28.2534 38.4082 27.9381 39.7121 27.6079 41.0689C26.9377 43.8225 26.233 46.6823 26.0113 47.4701L31.9454 49.1394C32.205 48.2165 32.9441 45.2109 33.5974 42.5267C33.9289 41.1646 34.2453 39.8566 34.4787 38.8892C34.5954 38.4055 34.6914 38.0068 34.7583 37.7289C34.7917 37.59 34.8179 37.4813 34.8356 37.4072C34.8445 37.3702 34.8514 37.3418 34.856 37.3227C34.8582 37.3132 34.86 37.3059 34.8612 37.301C34.8618 37.2986 34.8622 37.2968 34.8625 37.2955C34.8626 37.2949 34.8628 37.2944 34.8628 37.2941C34.8629 37.2939 34.8629 37.2938 34.8629 37.2937C34.8629 37.2937 34.8629 37.2936 31.866 36.5739ZM28.0619 33.1524C28.0619 34.7383 28.368 36.4468 29.1007 37.9352L34.6312 35.2125C34.4015 34.7458 34.2263 34.0104 34.2263 33.1524H28.0619ZM41.6859 30.7084C41.6859 28.6408 40.9032 26.7579 39.335 25.5335C37.8161 24.3474 35.9215 24.0653 34.2319 24.4251C30.7114 25.1748 28.0619 28.5279 28.0619 33.1524H34.2263C34.2263 32.0122 34.5308 31.344 34.7926 30.9881C35.0645 30.6184 35.3542 30.4887 35.5159 30.4543C35.6912 30.4169 35.6615 30.4861 35.5412 30.3922C35.3718 30.2599 35.5215 30.21 35.5215 30.7084H41.6859ZM39.5804 39.568C40.5742 36.7924 41.3983 34.0595 41.6736 30.9832L35.5338 30.4337C35.3279 32.734 34.7081 34.889 33.7768 37.4901L39.5804 39.568ZM39.7608 39.5066V38.529H33.5964V39.5066H39.7608ZM39.9 39.6261C39.8609 39.631 39.8398 39.6261 39.8295 39.6229C39.8165 39.6188 39.8044 39.612 39.7939 39.6028C39.7835 39.5938 39.7765 39.5838 39.7719 39.5739C39.7687 39.5668 39.7608 39.5478 39.7608 39.5066H33.5964C33.5964 43.3319 36.9234 46.2178 40.6763 45.7414L39.9 39.6261ZM37.6412 25.2369C40.5301 25.2369 42.2017 26.2123 43.1936 27.3689C44.2518 28.6028 44.8278 30.3905 44.816 32.4011C44.8042 34.418 44.1974 36.3656 43.259 37.7262C42.335 39.0661 41.2913 39.6015 40.2881 39.6015V45.7659C43.857 45.7659 46.6032 43.7352 48.3337 41.2259C50.0498 38.7374 50.962 35.5527 50.9803 32.4373C50.9986 29.3157 50.1157 25.9711 47.8728 23.3558C45.5635 20.6632 42.0915 19.0725 37.6412 19.0725V25.2369ZM30.6567 36.1066C28.0161 32.8288 30.0175 25.2369 37.6412 25.2369V19.0725C25.0517 19.0725 19.834 32.4984 25.8562 39.9739L30.6567 36.1066ZM31.5793 38.7734C31.5793 38.4901 31.6364 37.0799 30.4527 35.8778L26.0602 40.2027C25.7806 39.9188 25.5728 39.5441 25.4742 39.1435C25.4006 38.8449 25.4149 38.5947 25.4149 38.7734H31.5793ZM31.127 41.1313C31.2191 40.6898 31.3283 40.1668 31.49 39.5101L25.5042 38.0367C25.3144 38.8081 25.1862 39.4234 25.0925 39.8728L31.127 41.1313ZM25.6578 44.4543C25.8232 44.5383 26.4116 44.8486 27.1365 44.9311C27.5761 44.9811 28.1628 44.9627 28.7883 44.7095C29.4212 44.4532 29.8705 44.0469 30.1692 43.667C30.6617 43.0407 30.8422 42.3473 30.9013 42.128C30.9856 41.8154 31.0623 41.4415 31.127 41.1314L25.0925 39.8728C25.0128 40.2547 24.9764 40.4235 24.9492 40.5242C24.9381 40.5657 24.9477 40.5212 24.9834 40.4327C25.0156 40.3534 25.1142 40.1228 25.3235 39.8566C25.5537 39.5639 25.9276 39.2173 26.4746 38.9958C27.0142 38.7773 27.5045 38.7688 27.8334 38.8062C28.1363 38.8407 28.3447 38.9184 28.4045 38.9414C28.4734 38.968 28.4985 38.9832 28.4488 38.958L25.6578 44.4543ZM18.9178 32.4192C18.9178 37.0911 21.3433 41.7721 25.4197 44.3198L28.6869 39.0924C26.5068 37.7299 25.0822 35.0791 25.0822 32.4192H18.9178Z" fill="#41EAD4" mask="url(#path-1-inside-1_2828_10922)"/>
</svg>
