<svg width="463" height="285" viewBox="0 0 463 285" fill="none" xmlns="http://www.w3.org/2000/svg">
<path d="M51.6158 284.152C36.0393 265.122 37.0381 237.124 40.6033 216.94C44.4333 195.075 52.0892 177.508 52.1413 177.352H82.2478C82.3563 177.508 89.96 195.075 93.7901 216.94C97.3553 237.072 98.2976 265.122 82.7732 284.152H51.6158Z" fill="#FAFAFB"/>
<path d="M38.708 248.975C39.7589 261.554 43.3762 274.138 51.5574 284.152H82.7148C90.9482 274.086 94.5177 261.554 95.5643 248.975H38.708Z" fill="#41EAD4"/>
<path opacity="0.2" d="M58.1681 216.94C61.9982 195.075 69.654 177.508 69.7061 177.352H52.1364C52.0843 177.508 44.4285 195.075 40.5984 216.94C37.0289 237.072 36.0866 265.122 51.611 284.152H69.1851C53.6042 265.122 54.603 237.124 58.1681 216.94Z" fill="#6B7F82"/>
<path d="M67.195 186.684C56.443 186.684 52.1918 177.404 52.1396 177.352H82.2461C82.194 177.456 77.947 186.684 67.195 186.684Z" fill="#6B7F82"/>
<path d="M38.7666 248.975H95.5707" stroke="#6B7F82" stroke-width="3.10618" stroke-linecap="round" stroke-linejoin="round"/>
<path d="M69.5547 182.07C71.2352 169.855 75.3258 149.774 84.7143 136.93" stroke="#3F3F3F" stroke-width="3.10618" stroke-linecap="round" stroke-linejoin="round"/>
<path d="M65.5159 182.068C63.4185 166.498 58.4897 136.872 50.0957 118.154" stroke="#3F3F3F" stroke-width="3.10618" stroke-linecap="round" stroke-linejoin="round"/>
<path d="M77.2646 158.321C75.584 156.433 75.0629 154.857 75.6361 153.759C76.5828 151.871 80.6213 151.45 86.9657 152.5C93.3144 153.546 101.183 155.96 109.208 159.315C120.537 164.034 129.978 169.802 133.964 174.313C135.641 176.196 136.166 177.772 135.589 178.87C134.646 180.759 130.608 181.18 124.259 180.129C117.915 179.083 110.046 176.67 102.021 173.314C90.6916 168.544 81.1989 162.827 77.2646 158.321Z" fill="#3F3F3F"/>
<path d="M0.686087 131.054C0.269208 130.425 0.00431923 129.848 0.00431923 129.27C-0.0999006 127.434 1.68486 125.967 5.04161 125.077C8.39835 124.239 12.9623 124.079 17.8389 124.656C26.1765 125.654 33.6282 128.641 35.9341 131.892C36.3553 132.521 36.6159 133.099 36.6159 133.676C36.8764 137.448 28.8515 139.493 18.7292 138.29C10.4437 137.292 2.99629 134.306 0.686087 131.054Z" fill="#3F3F3F"/>
<path d="M19.9904 174.52C13.9586 176.196 10.0243 175.988 9.23834 173.839C7.71847 169.854 17.5238 160.469 31.1115 152.921C36.9869 149.669 42.91 147.1 47.791 145.737C53.8227 144.057 57.757 144.269 58.543 146.418C59.2769 148.358 57.44 151.61 53.2973 155.538C49.1545 159.471 43.2791 163.668 36.6699 167.336C30.8466 170.588 24.867 173.105 19.9904 174.52Z" fill="#3F3F3F"/>
<path d="M78.0657 71.6809C79.0297 67.3792 76.003 63.0514 71.3088 62.0009C66.6189 60.9548 62.0332 63.5853 61.0735 67.8783C60.1095 72.1714 63.1362 76.5079 67.8304 77.5583C72.5203 78.6088 77.1017 75.9739 78.0657 71.6809Z" fill="#3F3F3F"/>
<path d="M50.9195 119.891C61.5499 114.938 66.661 103.387 62.3272 94.0978C57.9934 84.8042 45.8605 81.2881 35.2257 86.241C24.5953 91.1982 19.4842 102.749 23.818 112.038C28.1518 121.328 40.2804 124.848 50.9195 119.891Z" fill="#41EAD4"/>
<path d="M44.3812 105.87C46.1616 105.036 47.0301 103.109 46.3049 101.563C45.5797 100.009 43.5518 99.4321 41.7627 100.261C39.9779 101.095 39.1181 103.026 39.8389 104.572C40.5598 106.121 42.5964 106.703 44.3812 105.87Z" fill="#3F3F3F"/>
<path d="M109.14 135.76C113.422 127.578 109.296 116.969 99.9294 112.072C90.5583 107.176 79.4937 109.841 75.2076 118.024C70.9303 126.21 75.0513 136.815 84.4181 141.711C93.7892 146.616 104.854 143.947 109.14 135.76Z" fill="#41EAD4"/>
<path d="M95.336 128.546C96.1264 127.031 95.3577 125.064 93.6121 124.153C91.862 123.241 89.808 123.728 89.0177 125.242C88.223 126.753 88.996 128.724 90.7416 129.64C92.4873 130.551 94.5457 130.061 95.336 128.546Z" fill="#3F3F3F"/>
<path d="M154.074 284.393L154.391 282.722C155.785 275.112 162.624 269.339 170.323 269.339H240.442L237.745 284.48H154.069L154.074 284.393Z" fill="#FC5050"/>
<path d="M180.851 284.393L195.159 204.935H278.835L268.187 263.987C266.05 275.611 255.654 284.393 243.856 284.393H180.851Z" fill="#FC5050"/>
<path opacity="0.25" d="M187.85 245.417L195.158 204.935H278.834L269.48 256.707L187.85 245.417Z" fill="#505050"/>
<path d="M122.443 238.389C109.729 238.389 98.6292 233.458 91.2079 224.507C83.7041 215.392 80.8424 203.346 83.1178 190.38L107.193 57.1395C111.935 30.7084 137.399 9.12598 163.84 9.12598H380.809C393.528 9.12598 404.627 14.0615 412.049 23.0122C419.548 32.1278 422.414 44.1735 420.139 57.1395L396.06 190.38C391.322 216.811 365.857 238.389 339.416 238.389H122.443Z" fill="#FC5050"/>
<path d="M106.28 178.169L126.825 64.2494C130.255 45.4277 148.355 30.1221 167.184 30.1221H370.009C379.05 30.1221 386.94 33.6338 392.29 39.993C397.64 46.4304 399.72 55.0469 398.013 64.2494L377.386 178.169H106.28Z" fill="white"/>
<path d="M234.301 219.989C231.292 219.989 228.656 218.904 226.897 216.812C222.976 212.38 224.027 204.935 229.321 200.252C231.922 197.908 235.326 196.488 238.592 196.488C241.601 196.488 244.237 197.573 245.996 199.666C249.917 204.098 248.866 211.542 243.573 216.226C240.885 218.652 237.567 219.989 234.301 219.989Z" fill="#96031A"/>
<path d="M188.649 238.763H272.325" stroke="#3F3F3F" stroke-width="2.32963" stroke-linecap="round" stroke-linejoin="round"/>
<path opacity="0.2" d="M246.942 168.445C267.575 168.445 285.982 151.726 288.051 131.098C290.12 110.473 275.073 93.751 254.437 93.751C233.804 93.751 215.397 110.473 213.328 131.098C211.259 151.726 226.306 168.445 246.942 168.445Z" fill="#3F3F3F"/>
<path d="M258.747 144.688H263.346" stroke="#3F3F3F" stroke-width="3.10618" stroke-linecap="round" stroke-linejoin="round"/>
<path d="M247.79 159.974C268.423 159.974 286.83 143.252 288.902 122.627C290.972 102.002 275.921 85.2803 255.288 85.2803C234.655 85.2803 216.248 102.002 214.179 122.627C212.106 143.252 227.157 159.974 247.79 159.974Z" fill="#41EAD4"/>
<path d="M263.668 145.048L264.022 141.496L242.998 141.463L242.607 145.373H235.595C230.284 145.373 225.699 148.505 223.604 150.197C237.434 164.112 261.145 163.038 276.591 147.818C276.81 147.591 277.062 147.361 277.282 147.134C275.392 145.797 273.085 145.081 270.646 145.015L263.668 145.048Z" fill="#4087FF"/>
<path d="M233.881 124.484C235.011 120.705 235.446 116.042 236.517 111.84C237.263 108.971 238.279 106.333 240.037 104.378C244.366 99.5872 254.887 97.7271 262.56 103.79C270.234 109.852 268.951 118.389 268.238 122.237L264.626 135.173L264.015 141.593H242.988L243.302 138.107C243.302 138.107 238.608 139.083 236.089 137.226C232.689 134.716 231.969 130.839 233.881 124.484Z" fill="#B48265"/>
<path d="M240.035 104.377C244.364 99.5859 255.62 96.5857 263.293 102.648C270.963 108.711 268.949 118.387 268.236 122.235L264.624 135.171C264.624 135.171 258.592 133.216 256.45 128.265C256.45 128.265 265.885 124.223 262.361 118.42C258.976 112.847 251.405 119.725 251.405 119.725C247.592 118.42 244.21 112.814 244.21 112.814C238.277 113.143 236.519 111.806 236.519 111.806C237.261 108.97 238.277 106.332 240.035 104.377Z" fill="#3F3F3F"/>
<path d="M244.218 122.495C244.774 122.495 245.275 122.042 245.329 121.487C245.384 120.928 244.978 120.475 244.419 120.475C243.863 120.475 243.363 120.928 243.308 121.487C243.253 122.042 243.659 122.495 244.218 122.495Z" fill="#3F3F3F"/>
<path d="M237.082 121.813C237.638 121.813 238.135 121.36 238.194 120.801C238.249 120.245 237.843 119.792 237.283 119.792C236.724 119.792 236.227 120.245 236.172 120.801C236.117 121.36 236.519 121.813 237.082 121.813Z" fill="#3F3F3F"/>
<path d="M239.032 124.158C238.813 124.71 238.667 125.2 238.743 125.397C238.879 125.689 239.113 125.949 239.39 126.113" stroke="#3F3F3F" stroke-width="1.55309" stroke-linecap="round" stroke-linejoin="round"/>
<path d="M241.908 128.95C241.228 129.535 240.321 129.798 239.495 129.601" stroke="#3F3F3F" stroke-width="1.55309" stroke-linecap="round" stroke-linejoin="round"/>
<path d="M247.396 137.292C246.168 137.811 244.581 137.716 243.302 138.107" stroke="#3F3F3F" stroke-width="1.55309" stroke-linecap="round" stroke-linejoin="round"/>
<path d="M257.077 122.038L254.632 123.668" stroke="#3F3F3F" stroke-width="1.55309" stroke-linecap="round" stroke-linejoin="round"/>
<path d="M182.78 73.8633H181.9L179.934 64.4037H181.716L182.862 70.2801L185.944 64.4037H186.824L188.083 70.2801L191.083 64.4037H192.885L187.961 73.8633H187.182L185.862 67.8435L182.78 73.8633ZM196.618 73.8633H195.738L193.772 64.4037H195.554L196.7 70.2801L199.782 64.4037H200.662L201.921 70.2801L204.921 64.4037H206.723L201.799 73.8633H201.02L199.7 67.8435L196.618 73.8633ZM210.456 73.8633H209.576L207.61 64.4037H209.392L210.538 70.2801L213.62 64.4037H214.5L215.759 70.2801L218.759 64.4037H220.561L215.637 73.8633H214.859L213.538 67.8435L210.456 73.8633ZM220.332 72.9624C220.332 72.6621 220.435 72.4095 220.64 72.2048C220.851 71.9932 221.11 71.8874 221.418 71.8874C221.725 71.8874 221.984 71.9932 222.196 72.2048C222.407 72.4095 222.513 72.6621 222.513 72.9624C222.513 73.2627 222.407 73.5186 222.196 73.7302C221.984 73.9418 221.725 74.0476 221.418 74.0476C221.117 74.0476 220.861 73.9418 220.65 73.7302C220.438 73.5186 220.332 73.2627 220.332 72.9624ZM225.796 73.8633L227.229 64.4037H229.052L228.837 65.7244C229.369 65.2056 229.894 64.82 230.413 64.5675C230.932 64.3081 231.454 64.1785 231.98 64.1785C232.58 64.1785 233.072 64.3354 233.454 64.6494C233.836 64.9634 234.082 65.4138 234.191 66.0008C234.867 65.3592 235.484 64.8951 236.044 64.6084C236.604 64.3218 237.167 64.1785 237.733 64.1785C238.45 64.1785 238.999 64.3969 239.381 64.8337C239.764 65.2637 239.955 65.8916 239.955 66.7174C239.955 66.888 239.941 67.103 239.914 67.3624C239.886 67.6217 239.849 67.905 239.801 68.2121L238.962 73.8633H237.139L238.04 67.7412C238.068 67.5637 238.088 67.3965 238.102 67.2395C238.122 67.0825 238.132 66.9358 238.132 66.7993C238.132 66.4307 238.04 66.1543 237.856 65.9701C237.672 65.779 237.399 65.6834 237.037 65.6834C236.6 65.6834 236.143 65.8438 235.665 66.1646C235.187 66.4853 234.696 66.9631 234.191 67.5978L233.259 73.8633H231.457L232.358 67.7412C232.386 67.5637 232.406 67.3965 232.42 67.2395C232.44 67.0825 232.45 66.9358 232.45 66.7993C232.45 66.4307 232.358 66.1543 232.174 65.9701C231.99 65.779 231.717 65.6834 231.355 65.6834C230.918 65.6834 230.461 65.8438 229.983 66.1646C229.505 66.4853 229.014 66.9631 228.509 67.5978L227.629 73.8633H225.796ZM242.122 69.8399C242.122 68.2633 242.565 66.929 243.453 65.837C244.347 64.7449 245.411 64.1989 246.647 64.1989C247.807 64.1989 248.722 64.5777 249.391 65.3353C250.066 66.0861 250.404 67.1201 250.404 68.4373C250.404 70.0549 249.96 71.396 249.073 72.4607C248.186 73.5186 247.07 74.0476 245.725 74.0476C244.606 74.0476 243.726 73.6756 243.084 72.9317C242.443 72.1809 242.122 71.1503 242.122 69.8399ZM246.708 65.7039C245.992 65.7039 245.367 66.1236 244.835 66.9631C244.309 67.8026 244.046 68.8093 244.046 69.9832C244.046 70.7886 244.203 71.4233 244.517 71.8874C244.838 72.3515 245.268 72.5836 245.807 72.5836C246.585 72.5836 247.227 72.1809 247.732 71.3755C248.237 70.5702 248.49 69.5259 248.49 68.2428C248.49 67.4375 248.333 66.813 248.019 66.3693C247.712 65.9257 247.275 65.7039 246.708 65.7039ZM252.264 73.8633L253.697 64.4037H255.52L255.284 65.9189C255.871 65.3319 256.441 64.8951 256.994 64.6084C257.547 64.3218 258.096 64.1785 258.642 64.1785C259.352 64.1785 259.901 64.4071 260.29 64.8644C260.686 65.3148 260.884 65.953 260.884 66.7788C260.884 66.9836 260.874 67.2088 260.853 67.4545C260.833 67.6934 260.802 67.9493 260.761 68.2223L259.922 73.8633H258.099L258.959 67.7616C258.987 67.5637 259.007 67.3828 259.021 67.219C259.035 67.0552 259.041 66.9222 259.041 66.8198C259.041 66.4512 258.949 66.1748 258.765 65.9905C258.581 65.7994 258.308 65.7039 257.946 65.7039C257.509 65.7039 257.052 65.8643 256.574 66.185C256.096 66.5058 255.605 66.9836 255.1 67.6183L254.097 73.8633H252.264ZM262.846 72.7474L263.287 70.9865C263.921 71.4984 264.461 71.8669 264.904 72.0922C265.355 72.3106 265.774 72.4198 266.163 72.4198C266.532 72.4198 266.836 72.3276 267.075 72.1434C267.313 71.9591 267.433 71.727 267.433 71.4472C267.433 71.0104 266.873 70.3995 265.754 69.6147L265.713 69.5839C264.833 68.9629 264.269 68.4646 264.024 68.0892C263.785 67.7139 263.665 67.2771 263.665 66.7788C263.665 66.0076 263.938 65.3865 264.484 64.9156C265.037 64.4378 265.771 64.1989 266.686 64.1989C267.238 64.1989 267.764 64.2808 268.262 64.4446C268.767 64.6084 269.242 64.8542 269.685 65.1818L269.532 67.086C268.992 66.6628 268.477 66.3454 267.986 66.1339C267.494 65.9223 267.034 65.8165 266.604 65.8165C266.269 65.8165 266 65.895 265.795 66.052C265.59 66.2021 265.488 66.4 265.488 66.6457C265.488 67.0143 265.921 67.4989 266.788 68.0995C267.184 68.3725 267.498 68.5943 267.73 68.7649C268.317 69.2154 268.726 69.6351 268.958 70.0242C269.19 70.4064 269.306 70.8466 269.306 71.3448C269.306 72.1365 269.016 72.7849 268.436 73.29C267.863 73.795 267.126 74.0476 266.225 74.0476C265.652 74.0476 265.092 73.9452 264.546 73.7404C264.007 73.5289 263.44 73.1978 262.846 72.7474ZM273.296 61.4757C273.296 61.1959 273.391 60.9604 273.582 60.7693C273.78 60.5782 274.019 60.4827 274.299 60.4827C274.572 60.4827 274.804 60.5816 274.995 60.7796C275.186 60.9707 275.282 61.2027 275.282 61.4757C275.282 61.7487 275.186 61.9808 274.995 62.1719C274.804 62.363 274.572 62.4585 274.299 62.4585C274.012 62.4585 273.774 62.3664 273.582 62.1821C273.391 61.991 273.296 61.7556 273.296 61.4757ZM273.419 73.8633H271.596L272.978 64.4037H274.801L273.419 73.8633ZM279.804 69.8604C279.749 70.1607 279.708 70.4166 279.681 70.6282C279.654 70.8398 279.64 71.024 279.64 71.181C279.64 71.5769 279.735 71.8738 279.927 72.0717C280.124 72.2628 280.421 72.3583 280.817 72.3583C281.042 72.3583 281.288 72.314 281.554 72.2253C281.827 72.1297 282.111 71.9898 282.404 71.8055V73.464C282.001 73.6688 281.623 73.8189 281.268 73.9145C280.913 74.0168 280.578 74.068 280.264 74.068C279.507 74.068 278.889 73.836 278.411 73.3719C277.94 72.9009 277.705 72.2833 277.705 71.5189C277.705 71.3141 277.722 71.0855 277.756 70.8329C277.79 70.5804 277.852 70.2426 277.94 69.8194L278.78 65.7448H277.183L277.48 64.4037H279.097L279.558 62.4176H281.421L280.981 64.4037H282.844L282.537 65.7448H280.664L279.804 69.8604ZM292.157 71.0991L291.86 73.0033C291.314 73.365 290.775 73.6346 290.243 73.8121C289.717 73.9827 289.188 74.068 288.656 74.068C287.468 74.068 286.492 73.6517 285.728 72.819C284.97 71.9864 284.592 70.9148 284.592 69.6044C284.592 68.0346 285.022 66.7379 285.882 65.7141C286.748 64.6903 287.84 64.1785 289.158 64.1785C290.25 64.1785 291.086 64.4992 291.666 65.1408C292.246 65.7755 292.536 66.6901 292.536 67.8845V68.9594H286.557L286.516 69.5839V69.8194C286.516 70.5906 286.738 71.2356 287.182 71.7543C287.625 72.2662 288.171 72.5221 288.82 72.5221C289.332 72.5221 289.85 72.4095 290.376 72.1843C290.908 71.9591 291.502 71.5973 292.157 71.0991ZM286.854 67.6388H290.837V67.3828C290.837 66.8505 290.69 66.4273 290.396 66.1134C290.103 65.7994 289.704 65.6424 289.199 65.6424C288.605 65.6424 288.117 65.8063 287.735 66.1339C287.359 66.4546 287.066 66.9563 286.854 67.6388ZM295.123 72.9624C295.123 72.6621 295.225 72.4095 295.43 72.2048C295.642 71.9932 295.901 71.8874 296.208 71.8874C296.515 71.8874 296.775 71.9932 296.986 72.2048C297.198 72.4095 297.304 72.6621 297.304 72.9624C297.304 73.2627 297.198 73.5186 296.986 73.7302C296.775 73.9418 296.515 74.0476 296.208 74.0476C295.908 74.0476 295.652 73.9418 295.44 73.7302C295.229 73.5186 295.123 73.2627 295.123 72.9624ZM307.763 71.5189L307.589 73.3616C307.111 73.5937 306.644 73.7643 306.187 73.8735C305.736 73.9895 305.282 74.0476 304.825 74.0476C303.555 74.0476 302.539 73.679 301.774 72.9419C301.01 72.2048 300.627 71.2254 300.627 70.0037C300.627 68.3111 301.184 66.9222 302.296 65.837C303.409 64.7449 304.825 64.1989 306.545 64.1989C306.845 64.1989 307.156 64.2194 307.476 64.2604C307.804 64.2945 308.128 64.3491 308.449 64.4242L308.285 65.9598C308.005 65.9052 307.746 65.8643 307.507 65.837C307.275 65.8097 307.06 65.796 306.862 65.796C305.606 65.796 304.572 66.1714 303.76 66.9222C302.948 67.6729 302.542 68.625 302.542 69.7785C302.542 70.6179 302.764 71.28 303.207 71.7646C303.651 72.2423 304.262 72.4812 305.04 72.4812C305.497 72.4812 305.948 72.4027 306.391 72.2457C306.842 72.0819 307.299 71.8396 307.763 71.5189ZM310.074 69.8399C310.074 68.2633 310.517 66.929 311.404 65.837C312.299 64.7449 313.363 64.1989 314.599 64.1989C315.759 64.1989 316.673 64.5777 317.342 65.3353C318.018 66.0861 318.356 67.1201 318.356 68.4373C318.356 70.0549 317.912 71.396 317.025 72.4607C316.138 73.5186 315.022 74.0476 313.677 74.0476C312.558 74.0476 311.677 73.6756 311.036 72.9317C310.394 72.1809 310.074 71.1503 310.074 69.8399ZM314.66 65.7039C313.943 65.7039 313.319 66.1236 312.787 66.9631C312.261 67.8026 311.998 68.8093 311.998 69.9832C311.998 70.7886 312.155 71.4233 312.469 71.8874C312.79 72.3515 313.22 72.5836 313.759 72.5836C314.537 72.5836 315.179 72.1809 315.684 71.3755C316.189 70.5702 316.441 69.5259 316.441 68.2428C316.441 67.4375 316.284 66.813 315.97 66.3693C315.663 65.9257 315.227 65.7039 314.66 65.7039ZM320.216 73.8633L321.649 64.4037H323.471L323.256 65.7244C323.789 65.2056 324.314 64.82 324.833 64.5675C325.352 64.3081 325.874 64.1785 326.399 64.1785C327 64.1785 327.491 64.3354 327.874 64.6494C328.256 64.9634 328.501 65.4138 328.611 66.0008C329.286 65.3592 329.904 64.8951 330.464 64.6084C331.023 64.3218 331.586 64.1785 332.153 64.1785C332.87 64.1785 333.419 64.3969 333.801 64.8337C334.183 65.2637 334.374 65.8916 334.374 66.7174C334.374 66.888 334.361 67.103 334.334 67.3624C334.306 67.6217 334.269 67.905 334.221 68.2121L333.381 73.8633H331.559L332.46 67.7412C332.487 67.5637 332.508 67.3965 332.521 67.2395C332.542 67.0825 332.552 66.9358 332.552 66.7993C332.552 66.4307 332.46 66.1543 332.276 65.9701C332.091 65.779 331.818 65.6834 331.457 65.6834C331.02 65.6834 330.563 65.8438 330.085 66.1646C329.607 66.4853 329.116 66.9631 328.611 67.5978L327.679 73.8633H325.877L326.778 67.7412C326.805 67.5637 326.826 67.3965 326.84 67.2395C326.86 67.0825 326.87 66.9358 326.87 66.7993C326.87 66.4307 326.778 66.1543 326.594 65.9701C326.41 65.779 326.137 65.6834 325.775 65.6834C325.338 65.6834 324.881 65.8438 324.403 66.1646C323.925 66.4853 323.434 66.9631 322.929 67.5978L322.048 73.8633H320.216Z" fill="#3F3F3F"/>
<path d="M420.016 84.5846C443.383 84.5846 462.325 65.6501 462.325 42.2923C462.325 18.9389 443.383 0 420.016 0C396.653 0 377.707 18.9389 377.707 42.2923C377.707 65.6501 396.653 84.5846 420.016 84.5846Z" fill="#41EAD4"/>
<g filter="url(#filter0_i_2843_3928)">
<path d="M437.56 29.6394C433.296 25.3767 426.443 25.3767 422.179 29.6394L419.956 31.8619L417.732 29.6394C413.407 25.5026 406.555 25.6241 402.351 29.9476C398.339 34.1451 398.339 40.7518 402.351 44.9493L404.575 47.1718L418.596 61.1883C419.339 61.9262 420.572 61.9262 421.315 61.1883L435.337 47.1718L437.56 44.9493C441.759 40.7518 441.82 33.8977 437.56 29.6394Z" fill="white"/>
</g>
<path d="M396.033 169.967H443.805C449.719 169.967 454.513 174.759 454.513 180.671V272.904C454.513 278.817 449.719 283.609 443.805 283.609H396.033C390.118 283.609 385.324 278.817 385.324 272.904V180.671C385.324 174.759 390.118 169.967 396.033 169.967Z" fill="#4087FF"/>
<path d="M398.243 188.333H441.594C444.295 188.333 446.475 190.512 446.475 193.212V214.734C446.475 217.429 444.295 219.613 441.594 219.613H398.243C395.547 219.613 393.362 217.429 393.362 214.734V193.212C393.362 190.512 395.547 188.333 398.243 188.333Z" fill="#F8FAFF"/>
<path d="M411.597 177.424H428.246C429.279 177.424 430.113 178.257 430.113 179.29C430.113 180.323 429.279 181.157 428.246 181.157H411.597C410.563 181.157 409.729 180.323 409.729 179.29C409.729 178.257 410.563 177.424 411.597 177.424Z" fill="#3F3F3F"/>
<path d="M398.243 227.647H402.838C405.539 227.647 407.719 229.831 407.719 232.526V235.682C407.719 238.382 405.539 240.561 402.838 240.561H398.243C395.547 240.561 393.362 238.382 393.362 235.682V232.526C393.362 229.831 395.547 227.647 398.243 227.647Z" fill="#3F3F3F"/>
<path d="M437.001 227.647H441.595C444.296 227.647 446.476 229.831 446.476 232.526V235.682C446.476 238.382 444.296 240.561 441.595 240.561H437.001C434.304 240.561 432.124 238.382 432.124 235.682V232.526C432.124 229.831 434.304 227.647 437.001 227.647Z" fill="#3F3F3F"/>
<path d="M417.623 227.647H422.244C424.945 227.647 427.125 229.831 427.125 232.526V235.682C427.125 238.382 424.945 240.561 422.244 240.561H417.623C414.922 240.561 412.742 238.382 412.742 235.682V232.526C412.742 229.831 414.922 227.647 417.623 227.647Z" fill="#3F3F3F"/>
<path d="M398.243 244.868H402.838C405.539 244.868 407.719 247.047 407.719 249.747V252.903C407.719 255.599 405.539 257.782 402.838 257.782H398.243C395.547 257.782 393.362 255.599 393.362 252.903V249.747C393.362 247.047 395.547 244.868 398.243 244.868Z" fill="#3F3F3F"/>
<path d="M437.001 244.868H441.595C444.296 244.868 446.476 247.047 446.476 249.747V252.903C446.476 255.599 444.296 257.782 441.595 257.782H437.001C434.304 257.782 432.124 255.599 432.124 252.903V249.747C432.124 247.047 434.304 244.868 437.001 244.868Z" fill="#3F3F3F"/>
<path d="M417.623 244.868H422.244C424.945 244.868 427.125 247.047 427.125 249.747V252.903C427.125 255.599 424.945 257.782 422.244 257.782H417.623C414.922 257.782 412.742 255.599 412.742 252.903V249.747C412.742 247.047 414.922 244.868 417.623 244.868Z" fill="#3F3F3F"/>
<path d="M398.243 262.088H402.838C405.539 262.088 407.719 264.267 407.719 266.963V270.123C407.719 272.818 405.539 275.002 402.838 275.002H398.243C395.547 275.002 393.362 272.818 393.362 270.123V266.963C393.362 264.267 395.547 262.088 398.243 262.088Z" fill="#3F3F3F"/>
<path d="M437.001 262.088H441.595C444.296 262.088 446.476 264.267 446.476 266.963V270.123C446.476 272.818 444.296 275.002 441.595 275.002H437.001C434.304 275.002 432.124 272.818 432.124 270.123V266.963C432.124 264.267 434.304 262.088 437.001 262.088Z" fill="#3F3F3F"/>
<path d="M417.623 262.088H422.244C424.945 262.088 427.125 264.267 427.125 266.963V270.123C427.125 272.818 424.945 275.002 422.244 275.002H417.623C414.922 275.002 412.742 272.818 412.742 270.123V266.963C412.742 264.267 414.922 262.088 417.623 262.088Z" fill="#3F3F3F"/>
<defs>
<filter id="filter0_i_2843_3928" x="398.425" y="24.6086" width="42.3075" height="37.1336" filterUnits="userSpaceOnUse" color-interpolation-filters="sRGB">
<feFlood flood-opacity="0" result="BackgroundImageFix"/>
<feBlend mode="normal" in="SourceGraphic" in2="BackgroundImageFix" result="shape"/>
<feColorMatrix in="SourceAlpha" type="matrix" values="0 0 0 0 0 0 0 0 0 0 0 0 0 0 0 0 0 0 127 0" result="hardAlpha"/>
<feOffset dx="-0.916884" dy="-1.83377"/>
<feGaussianBlur stdDeviation="1.37533"/>
<feComposite in2="hardAlpha" operator="arithmetic" k2="-1" k3="1"/>
<feColorMatrix type="matrix" values="0 0 0 0 0 0 0 0 0 0 0 0 0 0 0 0 0 0 0.22 0"/>
<feBlend mode="normal" in2="shape" result="effect1_innerShadow_2843_3928"/>
</filter>
</defs>
</svg>