<svg width="45" height="46" viewBox="0 0 45 46" fill="none" xmlns="http://www.w3.org/2000/svg">
<path d="M42.9 23.2311C42.9 35.0138 33.5967 44.5004 22.2 44.5004C10.8033 44.5004 1.5 35.0138 1.5 23.2311C1.5 11.4484 10.8033 1.96191 22.2 1.96191C33.5967 1.96191 42.9 11.4484 42.9 23.2311Z" stroke="#6B7F82" stroke-width="3"/>
<path d="M21.8998 37.6152C21.2931 37.6152 20.7113 37.3681 20.2823 36.9281C19.8533 36.4881 19.6123 35.8913 19.6123 35.2691V16.6875L13.6038 22.8501C13.1701 23.2645 12.5966 23.4901 12.004 23.4794C11.4114 23.4687 10.8459 23.2225 10.4268 22.7926C10.0077 22.3628 9.76765 21.7828 9.7572 21.175C9.74674 20.5672 9.96672 19.979 10.3708 19.5342L20.2833 9.36754C20.7122 8.92818 21.2936 8.6814 21.8998 8.6814C22.506 8.6814 23.0874 8.92818 23.5163 9.36754L33.4288 19.5342C33.8328 19.979 34.0528 20.5672 34.0424 21.175C34.0319 21.7828 33.7918 22.3628 33.3727 22.7926C32.9536 23.2225 32.3882 23.4687 31.7956 23.4794C31.203 23.4901 30.6294 23.2645 30.1958 22.8501L24.1873 16.6875V35.2691C24.1873 35.8913 23.9463 36.4881 23.5173 36.9281C23.0883 37.3681 22.5065 37.6152 21.8998 37.6152Z" fill="#6B7F82"/>
</svg>