<svg width="22" height="27" viewBox="0 0 22 27" fill="none" xmlns="http://www.w3.org/2000/svg">
<path d="M8.875 0.00935227C8.651 0.0334333 8.44169 0.132448 8.281 0.290352L3.562 5.00935H1C0.449 5.00935 0 5.45835 0 6.00935V8.00935C0 8.56035 0.449 9.00935 1 9.00935H1.25L3.531 22.7284C3.53036 22.749 3.53036 22.7697 3.531 22.7904C3.694 23.5784 4 24.3314 4.563 24.9474C4.86469 25.278 5.23127 25.543 5.63989 25.7257C6.04852 25.9084 6.49041 26.005 6.938 26.0094H15.062C15.5073 26.0088 15.9478 25.9171 16.3562 25.7397C16.7647 25.5624 17.1325 25.3033 17.437 24.9784C18.008 24.3634 18.32 23.5734 18.469 22.7594C18.4692 22.749 18.4692 22.7387 18.469 22.7284L20.78 9.00935H21C21.551 9.00935 22 8.56035 22 8.00935V6.00935C22 5.45835 21.551 5.00935 21 5.00935H19.437L16.625 1.50935C16.5413 1.40079 16.4314 1.31516 16.3057 1.26043C16.18 1.20571 16.0425 1.18367 15.906 1.19635C15.7837 1.21148 15.6664 1.25422 15.563 1.32135L12.688 3.25935L9.717 0.290352C9.60786 0.182 9.47521 0.100279 9.32935 0.0515426C9.18349 0.00280654 9.02835 -0.0116311 8.876 0.00935227H8.875ZM9 2.44735L11.563 5.00935H6.436L9 2.44635V2.44735ZM15.844 3.10335L17.375 5.00935H14.437L13.844 4.41535L15.844 3.10335ZM3.25 9.00935H3.938L5.125 10.1974L3.687 11.6034L3.25 9.00935ZM5.344 9.00935H6.281L5.812 9.47835L5.345 9.00935H5.344ZM7.656 9.00935H9.344L10.25 9.91535L8.25 11.9154L6.5 10.1654L7.656 9.00935ZM10.781 9.00935H11.125L10.969 9.19735L10.78 9.00935H10.781ZM12.562 9.00935H14.25L15.406 10.1654L13.656 11.9154L11.656 9.88435L12.562 9.00935ZM15.625 9.00935H16.563L16.093 9.47835L15.626 9.00935H15.625ZM17.969 9.00935H18.781L18.344 11.6974L16.812 10.1654L17.97 9.00935H17.969ZM10.937 10.6034L12.969 12.6034L10.938 14.6034L8.938 12.6034L10.938 10.6034H10.937ZM5.813 10.8844L7.531 12.6034L5.531 14.6034L3.906 12.9784L3.875 12.8224L5.813 10.8844ZM16.093 10.8844L18.093 12.8844L16.375 14.6344L14.375 12.6034L16.094 10.8844H16.093ZM8.25 13.3224L10.25 15.3224L8.25 17.3224L6.25 15.3224L8.25 13.3224ZM13.656 13.3224L15.687 15.3224L13.687 17.3224L11.657 15.3224L13.657 13.3224H13.656ZM17.844 14.5724L17.625 15.8844L17.062 15.3214L17.844 14.5714V14.5724ZM4.187 14.6654L4.844 15.3214L4.375 15.7914L4.187 14.6654ZM5.532 16.0094L7.532 18.0094L5.532 20.0404L4.97 19.4784L4.563 16.9784L5.533 16.0094H5.532ZM10.939 16.0094L12.969 18.0404L10.969 20.0404L8.939 18.0094L10.939 16.0094ZM16.376 16.0094L17.439 17.0724L17.032 19.3524L16.376 20.0094L14.376 18.0094L16.376 16.0094ZM8.251 18.7284L10.251 20.7284L8.251 22.7594L6.251 20.7594L8.251 18.7284ZM13.657 18.7284L15.657 20.7284L13.657 22.7284L11.657 20.7284L13.657 18.7284ZM5.563 21.4464L7.563 23.4464L7 24.0094H6.937C6.546 24.0094 6.316 23.8794 6.063 23.6034C5.76718 23.2643 5.56273 22.8554 5.469 22.4154V22.3844L5.344 21.6344L5.562 21.4464H5.563ZM10.97 21.4464L12.97 23.4464L12.407 24.0094H9.5L8.937 23.4464L10.969 21.4464H10.97ZM16.376 21.4464L16.657 21.7284L16.532 22.3844C16.53 22.3944 16.534 22.4044 16.532 22.4154C16.437 22.9054 16.216 23.3374 15.97 23.6034C15.718 23.8734 15.461 24.0094 15.063 24.0094H14.938L14.376 23.4464L16.376 21.4464Z" fill="#FC5050"/>
</svg>