<svg width="51" height="51" viewBox="0 0 51 51" fill="none" xmlns="http://www.w3.org/2000/svg">
<g filter="url(#filter0_i_0_1)">
<rect y="0.836426" width="51" height="50" rx="15" fill="white"/>
</g>
<rect x="1.5" y="2.33643" width="48" height="47" rx="13.5" stroke="#41EAD4" stroke-width="3"/>
<path d="M19.1016 35.063V31.8989C19.8047 32.3521 20.4453 32.6841 21.0234 32.895C21.6016 33.0981 22.1797 33.1997 22.7578 33.1997C23.6719 33.1997 24.3672 33.0161 24.8438 32.6489C25.3203 32.2739 25.5586 31.7349 25.5586 31.0317C25.5586 30.3599 25.3203 29.8286 24.8438 29.438C24.375 29.0396 23.7109 28.8208 22.8516 28.7817V25.8521C23.625 25.8286 24.2383 25.6294 24.6914 25.2544C25.1445 24.8716 25.3711 24.3677 25.3711 23.7427C25.3711 23.1958 25.1484 22.7583 24.7031 22.4302C24.2578 22.1021 23.6562 21.938 22.8984 21.938C22.3672 21.938 21.8398 22.0122 21.3164 22.1606C20.8008 22.3091 20.2539 22.5396 19.6758 22.8521V20.0396C20.2305 19.7505 20.8438 19.5356 21.5156 19.395C22.1875 19.2544 22.9453 19.1841 23.7891 19.1841C25.3828 19.1841 26.6523 19.563 27.5977 20.3208C28.543 21.0708 29.0156 22.0747 29.0156 23.3325C29.0156 24.1528 28.8164 24.8677 28.418 25.4771C28.0273 26.0786 27.418 26.6021 26.5898 27.0474C27.5508 27.4224 28.2695 27.9653 28.7461 28.6763C29.2305 29.3872 29.4727 30.27 29.4727 31.3247C29.4727 32.7935 28.9453 33.9614 27.8906 34.8286C26.8438 35.6958 25.418 36.1294 23.6133 36.1294C22.6758 36.1294 21.8281 36.0396 21.0703 35.8599C20.3125 35.6802 19.6562 35.4146 19.1016 35.063Z" fill="#41EAD4"/>
<defs>
<filter id="filter0_i_0_1" x="0" y="0.836426" width="51" height="54" filterUnits="userSpaceOnUse" color-interpolation-filters="sRGB">
<feFlood flood-opacity="0" result="BackgroundImageFix"/>
<feBlend mode="normal" in="SourceGraphic" in2="BackgroundImageFix" result="shape"/>
<feColorMatrix in="SourceAlpha" type="matrix" values="0 0 0 0 0 0 0 0 0 0 0 0 0 0 0 0 0 0 127 0" result="hardAlpha"/>
<feOffset dy="4"/>
<feGaussianBlur stdDeviation="2"/>
<feComposite in2="hardAlpha" operator="arithmetic" k2="-1" k3="1"/>
<feColorMatrix type="matrix" values="0 0 0 0 0 0 0 0 0 0 0 0 0 0 0 0 0 0 0.25 0"/>
<feBlend mode="normal" in2="shape" result="effect1_innerShadow_0_1"/>
</filter>
</defs>
</svg>