<svg width="61" height="78" viewBox="0 0 61 78" fill="none" xmlns="http://www.w3.org/2000/svg">
<g filter="url(#filter0_d_2828_19165)">
<rect x="3" y="0.758301" width="55.1111" height="71.1702" rx="4.7619" fill="#FAFAFB"/>
</g>
<line x1="12.4286" y1="16.8913" x2="49.5714" y2="16.8913" stroke="#3F3F3F" stroke-width="2.85714" stroke-linecap="round"/>
<line x1="12.4286" y1="30.756" x2="49.5714" y2="30.756" stroke="#3F3F3F" stroke-width="2.85714" stroke-linecap="round"/>
<line x1="12.4286" y1="44.6203" x2="39.7937" y2="44.6203" stroke="#3F3F3F" stroke-width="2.85714" stroke-linecap="round"/>
<g filter="url(#filter1_i_2828_19165)">
<path d="M16.8629 15.4144C16.5702 14.9773 16.6784 14.373 17.1044 14.0645L20.668 11.4846C21.094 11.1761 21.6766 11.2804 21.9693 11.7174L39.1275 37.342C39.1864 37.4299 39.2305 37.5275 39.2582 37.6308L41.021 44.2143C41.2577 45.0983 40.2778 45.8077 39.5626 45.2702L34.2363 41.2667C34.1527 41.2038 34.08 41.1269 34.0211 41.039L16.8629 15.4144Z" fill="#FC5050"/>
</g>
<path d="M3 0.758301V-0.19408H2.04762V0.758301H3ZM58.1111 0.758301H59.0635V-0.19408H58.1111V0.758301ZM58.1111 71.9285V72.8808H59.0635V71.9285H58.1111ZM3 71.9285H2.04762V72.8808H3V71.9285ZM3 1.71068H58.1111V-0.19408H3V1.71068ZM57.1587 0.758301V71.9285H59.0635V0.758301H57.1587ZM58.1111 70.9761H3V72.8808H58.1111V70.9761ZM3.95238 71.9285V0.758301H2.04762V71.9285H3.95238Z" fill="white"/>
<defs>
<filter id="filter0_d_2828_19165" x="0.142857" y="0.758301" width="60.8256" height="76.8842" filterUnits="userSpaceOnUse" color-interpolation-filters="sRGB">
<feFlood flood-opacity="0" result="BackgroundImageFix"/>
<feColorMatrix in="SourceAlpha" type="matrix" values="0 0 0 0 0 0 0 0 0 0 0 0 0 0 0 0 0 0 127 0" result="hardAlpha"/>
<feOffset dy="2.85714"/>
<feGaussianBlur stdDeviation="1.42857"/>
<feComposite in2="hardAlpha" operator="out"/>
<feColorMatrix type="matrix" values="0 0 0 0 0 0 0 0 0 0 0 0 0 0 0 0 0 0 0.2 0"/>
<feBlend mode="normal" in2="BackgroundImageFix" result="effect1_dropShadow_2828_19165"/>
<feBlend mode="normal" in="SourceGraphic" in2="effect1_dropShadow_2828_19165" result="shape"/>
</filter>
<filter id="filter1_i_2828_19165" x="15.7459" y="11.3071" width="25.3108" height="36.0542" filterUnits="userSpaceOnUse" color-interpolation-filters="sRGB">
<feFlood flood-opacity="0" result="BackgroundImageFix"/>
<feBlend mode="normal" in="SourceGraphic" in2="BackgroundImageFix" result="shape"/>
<feColorMatrix in="SourceAlpha" type="matrix" values="0 0 0 0 0 0 0 0 0 0 0 0 0 0 0 0 0 0 127 0" result="hardAlpha"/>
<feOffset dx="-0.952381" dy="3.80952"/>
<feGaussianBlur stdDeviation="0.952381"/>
<feComposite in2="hardAlpha" operator="arithmetic" k2="-1" k3="1"/>
<feColorMatrix type="matrix" values="0 0 0 0 0 0 0 0 0 0 0 0 0 0 0 0 0 0 0.22 0"/>
<feBlend mode="normal" in2="shape" result="effect1_innerShadow_2828_19165"/>
</filter>
</defs>
</svg>